<?xml version="1.0" encoding="utf-8" standalone="no"?>
<!DOCTYPE svg PUBLIC "-//W3C//DTD SVG 1.1//EN"
  "http://www.w3.org/Graphics/SVG/1.1/DTD/svg11.dtd">
<svg xmlns:xlink="http://www.w3.org/1999/xlink" width="460.8pt" height="288pt" viewBox="0 0 460.8 288" xmlns="http://www.w3.org/2000/svg" version="1.1">
 <metadata>
  <rdf:RDF xmlns:dc="http://purl.org/dc/elements/1.1/" xmlns:cc="http://creativecommons.org/ns#" xmlns:rdf="http://www.w3.org/1999/02/22-rdf-syntax-ns#">
   <cc:Work>
    <dc:type rdf:resource="http://purl.org/dc/dcmitype/StillImage"/>
    <dc:date>2026-06-04T06:15:21.864812</dc:date>
    <dc:format>image/svg+xml</dc:format>
    <dc:creator>
     <cc:Agent>
      <dc:title>Matplotlib v3.10.8, https://matplotlib.org/</dc:title>
     </cc:Agent>
    </dc:creator>
   </cc:Work>
  </rdf:RDF>
 </metadata>
 <defs>
  <style type="text/css">*{stroke-linejoin: round; stroke-linecap: butt}</style>
 </defs>
 <g id="figure_1">
  <g id="patch_1">
   <path d="M 0 288 
L 460.8 288 
L 460.8 0 
L 0 0 
z
" style="fill: #ffffff"/>
  </g>
  <g id="axes_1">
   <g id="patch_2">
    <path d="M 56.81 237.76 
L 445.41 237.76 
L 445.41 30.12 
L 56.81 30.12 
z
" style="fill: #ffffff"/>
   </g>
   <g id="matplotlib.axis_1">
    <g id="xtick_1">
     <g id="line2d_1">
      <defs>
       <path id="m53f9fe55d2" d="M 0 0 
L 0 3.5 
" style="stroke: #000000; stroke-width: 0.8"/>
      </defs>
      <g>
       <use xlink:href="#m53f9fe55d2" x="104.532807" y="237.76" style="stroke: #000000; stroke-width: 0.8"/>
      </g>
     </g>
     <g id="text_1">
      <!-- 1 -->
      <g transform="translate(101.033432 253.118281) scale(0.11 -0.11)">
       <defs>
        <path id="DejaVuSans-31" d="M 794 531 
L 1825 531 
L 1825 4091 
L 703 3866 
L 703 4441 
L 1819 4666 
L 2450 4666 
L 2450 531 
L 3481 531 
L 3481 0 
L 794 0 
L 794 531 
z
" transform="scale(0.015625)"/>
       </defs>
       <use xlink:href="#DejaVuSans-31"/>
      </g>
     </g>
    </g>
    <g id="xtick_2">
     <g id="line2d_2">
      <g>
       <use xlink:href="#m53f9fe55d2" x="172.708246" y="237.76" style="stroke: #000000; stroke-width: 0.8"/>
      </g>
     </g>
     <g id="text_2">
      <!-- 2 -->
      <g transform="translate(169.208871 253.118281) scale(0.11 -0.11)">
       <defs>
        <path id="DejaVuSans-32" d="M 1228 531 
L 3431 531 
L 3431 0 
L 469 0 
L 469 531 
Q 828 903 1448 1529 
Q 2069 2156 2228 2338 
Q 2531 2678 2651 2914 
Q 2772 3150 2772 3378 
Q 2772 3750 2511 3984 
Q 2250 4219 1831 4219 
Q 1534 4219 1204 4116 
Q 875 4013 500 3803 
L 500 4441 
Q 881 4594 1212 4672 
Q 1544 4750 1819 4750 
Q 2544 4750 2975 4387 
Q 3406 4025 3406 3419 
Q 3406 3131 3298 2873 
Q 3191 2616 2906 2266 
Q 2828 2175 2409 1742 
Q 1991 1309 1228 531 
z
" transform="scale(0.015625)"/>
       </defs>
       <use xlink:href="#DejaVuSans-32"/>
      </g>
     </g>
    </g>
    <g id="xtick_3">
     <g id="line2d_3">
      <g>
       <use xlink:href="#m53f9fe55d2" x="240.883684" y="237.76" style="stroke: #000000; stroke-width: 0.8"/>
      </g>
     </g>
     <g id="text_3">
      <!-- 3 -->
      <g transform="translate(237.384309 253.118281) scale(0.11 -0.11)">
       <defs>
        <path id="DejaVuSans-33" d="M 2597 2516 
Q 3050 2419 3304 2112 
Q 3559 1806 3559 1356 
Q 3559 666 3084 287 
Q 2609 -91 1734 -91 
Q 1441 -91 1130 -33 
Q 819 25 488 141 
L 488 750 
Q 750 597 1062 519 
Q 1375 441 1716 441 
Q 2309 441 2620 675 
Q 2931 909 2931 1356 
Q 2931 1769 2642 2001 
Q 2353 2234 1838 2234 
L 1294 2234 
L 1294 2753 
L 1863 2753 
Q 2328 2753 2575 2939 
Q 2822 3125 2822 3475 
Q 2822 3834 2567 4026 
Q 2313 4219 1838 4219 
Q 1578 4219 1281 4162 
Q 984 4106 628 3988 
L 628 4550 
Q 988 4650 1302 4700 
Q 1616 4750 1894 4750 
Q 2613 4750 3031 4423 
Q 3450 4097 3450 3541 
Q 3450 3153 3228 2886 
Q 3006 2619 2597 2516 
z
" transform="scale(0.015625)"/>
       </defs>
       <use xlink:href="#DejaVuSans-33"/>
      </g>
     </g>
    </g>
    <g id="xtick_4">
     <g id="line2d_4">
      <g>
       <use xlink:href="#m53f9fe55d2" x="309.059123" y="237.76" style="stroke: #000000; stroke-width: 0.8"/>
      </g>
     </g>
     <g id="text_4">
      <!-- 4 -->
      <g transform="translate(305.559748 253.118281) scale(0.11 -0.11)">
       <defs>
        <path id="DejaVuSans-34" d="M 2419 4116 
L 825 1625 
L 2419 1625 
L 2419 4116 
z
M 2253 4666 
L 3047 4666 
L 3047 1625 
L 3713 1625 
L 3713 1100 
L 3047 1100 
L 3047 0 
L 2419 0 
L 2419 1100 
L 313 1100 
L 313 1709 
L 2253 4666 
z
" transform="scale(0.015625)"/>
       </defs>
       <use xlink:href="#DejaVuSans-34"/>
      </g>
     </g>
    </g>
    <g id="xtick_5">
     <g id="line2d_5">
      <g>
       <use xlink:href="#m53f9fe55d2" x="377.234561" y="237.76" style="stroke: #000000; stroke-width: 0.8"/>
      </g>
     </g>
     <g id="text_5">
      <!-- 5 -->
      <g transform="translate(373.735186 253.118281) scale(0.11 -0.11)">
       <defs>
        <path id="DejaVuSans-35" d="M 691 4666 
L 3169 4666 
L 3169 4134 
L 1269 4134 
L 1269 2991 
Q 1406 3038 1543 3061 
Q 1681 3084 1819 3084 
Q 2600 3084 3056 2656 
Q 3513 2228 3513 1497 
Q 3513 744 3044 326 
Q 2575 -91 1722 -91 
Q 1428 -91 1123 -41 
Q 819 9 494 109 
L 494 744 
Q 775 591 1075 516 
Q 1375 441 1709 441 
Q 2250 441 2565 725 
Q 2881 1009 2881 1497 
Q 2881 1984 2565 2268 
Q 2250 2553 1709 2553 
Q 1456 2553 1204 2497 
Q 953 2441 691 2322 
L 691 4666 
z
" transform="scale(0.015625)"/>
       </defs>
       <use xlink:href="#DejaVuSans-35"/>
      </g>
     </g>
    </g>
    <g id="xtick_6">
     <g id="line2d_6">
      <g>
       <use xlink:href="#m53f9fe55d2" x="445.41" y="237.76" style="stroke: #000000; stroke-width: 0.8"/>
      </g>
     </g>
     <g id="text_6">
      <!-- 6 -->
      <g transform="translate(441.910625 253.118281) scale(0.11 -0.11)">
       <defs>
        <path id="DejaVuSans-36" d="M 2113 2584 
Q 1688 2584 1439 2293 
Q 1191 2003 1191 1497 
Q 1191 994 1439 701 
Q 1688 409 2113 409 
Q 2538 409 2786 701 
Q 3034 994 3034 1497 
Q 3034 2003 2786 2293 
Q 2538 2584 2113 2584 
z
M 3366 4563 
L 3366 3988 
Q 3128 4100 2886 4159 
Q 2644 4219 2406 4219 
Q 1781 4219 1451 3797 
Q 1122 3375 1075 2522 
Q 1259 2794 1537 2939 
Q 1816 3084 2150 3084 
Q 2853 3084 3261 2657 
Q 3669 2231 3669 1497 
Q 3669 778 3244 343 
Q 2819 -91 2113 -91 
Q 1303 -91 875 529 
Q 447 1150 447 2328 
Q 447 3434 972 4092 
Q 1497 4750 2381 4750 
Q 2619 4750 2861 4703 
Q 3103 4656 3366 4563 
z
" transform="scale(0.015625)"/>
       </defs>
       <use xlink:href="#DejaVuSans-36"/>
      </g>
     </g>
    </g>
    <g id="text_7">
     <!-- internuclear separation $R$ (Å) -->
     <g transform="translate(171.305 269.635937) scale(0.11 -0.11)">
      <defs>
       <path id="DejaVuSans-69" d="M 603 3500 
L 1178 3500 
L 1178 0 
L 603 0 
L 603 3500 
z
M 603 4863 
L 1178 4863 
L 1178 4134 
L 603 4134 
L 603 4863 
z
" transform="scale(0.015625)"/>
       <path id="DejaVuSans-6e" d="M 3513 2113 
L 3513 0 
L 2938 0 
L 2938 2094 
Q 2938 2591 2744 2837 
Q 2550 3084 2163 3084 
Q 1697 3084 1428 2787 
Q 1159 2491 1159 1978 
L 1159 0 
L 581 0 
L 581 3500 
L 1159 3500 
L 1159 2956 
Q 1366 3272 1645 3428 
Q 1925 3584 2291 3584 
Q 2894 3584 3203 3211 
Q 3513 2838 3513 2113 
z
" transform="scale(0.015625)"/>
       <path id="DejaVuSans-74" d="M 1172 4494 
L 1172 3500 
L 2356 3500 
L 2356 3053 
L 1172 3053 
L 1172 1153 
Q 1172 725 1289 603 
Q 1406 481 1766 481 
L 2356 481 
L 2356 0 
L 1766 0 
Q 1100 0 847 248 
Q 594 497 594 1153 
L 594 3053 
L 172 3053 
L 172 3500 
L 594 3500 
L 594 4494 
L 1172 4494 
z
" transform="scale(0.015625)"/>
       <path id="DejaVuSans-65" d="M 3597 1894 
L 3597 1613 
L 953 1613 
Q 991 1019 1311 708 
Q 1631 397 2203 397 
Q 2534 397 2845 478 
Q 3156 559 3463 722 
L 3463 178 
Q 3153 47 2828 -22 
Q 2503 -91 2169 -91 
Q 1331 -91 842 396 
Q 353 884 353 1716 
Q 353 2575 817 3079 
Q 1281 3584 2069 3584 
Q 2775 3584 3186 3129 
Q 3597 2675 3597 1894 
z
M 3022 2063 
Q 3016 2534 2758 2815 
Q 2500 3097 2075 3097 
Q 1594 3097 1305 2825 
Q 1016 2553 972 2059 
L 3022 2063 
z
" transform="scale(0.015625)"/>
       <path id="DejaVuSans-72" d="M 2631 2963 
Q 2534 3019 2420 3045 
Q 2306 3072 2169 3072 
Q 1681 3072 1420 2755 
Q 1159 2438 1159 1844 
L 1159 0 
L 581 0 
L 581 3500 
L 1159 3500 
L 1159 2956 
Q 1341 3275 1631 3429 
Q 1922 3584 2338 3584 
Q 2397 3584 2469 3576 
Q 2541 3569 2628 3553 
L 2631 2963 
z
" transform="scale(0.015625)"/>
       <path id="DejaVuSans-75" d="M 544 1381 
L 544 3500 
L 1119 3500 
L 1119 1403 
Q 1119 906 1312 657 
Q 1506 409 1894 409 
Q 2359 409 2629 706 
Q 2900 1003 2900 1516 
L 2900 3500 
L 3475 3500 
L 3475 0 
L 2900 0 
L 2900 538 
Q 2691 219 2414 64 
Q 2138 -91 1772 -91 
Q 1169 -91 856 284 
Q 544 659 544 1381 
z
M 1991 3584 
L 1991 3584 
z
" transform="scale(0.015625)"/>
       <path id="DejaVuSans-63" d="M 3122 3366 
L 3122 2828 
Q 2878 2963 2633 3030 
Q 2388 3097 2138 3097 
Q 1578 3097 1268 2742 
Q 959 2388 959 1747 
Q 959 1106 1268 751 
Q 1578 397 2138 397 
Q 2388 397 2633 464 
Q 2878 531 3122 666 
L 3122 134 
Q 2881 22 2623 -34 
Q 2366 -91 2075 -91 
Q 1284 -91 818 406 
Q 353 903 353 1747 
Q 353 2603 823 3093 
Q 1294 3584 2113 3584 
Q 2378 3584 2631 3529 
Q 2884 3475 3122 3366 
z
" transform="scale(0.015625)"/>
       <path id="DejaVuSans-6c" d="M 603 4863 
L 1178 4863 
L 1178 0 
L 603 0 
L 603 4863 
z
" transform="scale(0.015625)"/>
       <path id="DejaVuSans-61" d="M 2194 1759 
Q 1497 1759 1228 1600 
Q 959 1441 959 1056 
Q 959 750 1161 570 
Q 1363 391 1709 391 
Q 2188 391 2477 730 
Q 2766 1069 2766 1631 
L 2766 1759 
L 2194 1759 
z
M 3341 1997 
L 3341 0 
L 2766 0 
L 2766 531 
Q 2569 213 2275 61 
Q 1981 -91 1556 -91 
Q 1019 -91 701 211 
Q 384 513 384 1019 
Q 384 1609 779 1909 
Q 1175 2209 1959 2209 
L 2766 2209 
L 2766 2266 
Q 2766 2663 2505 2880 
Q 2244 3097 1772 3097 
Q 1472 3097 1187 3025 
Q 903 2953 641 2809 
L 641 3341 
Q 956 3463 1253 3523 
Q 1550 3584 1831 3584 
Q 2591 3584 2966 3190 
Q 3341 2797 3341 1997 
z
" transform="scale(0.015625)"/>
       <path id="DejaVuSans-20" transform="scale(0.015625)"/>
       <path id="DejaVuSans-73" d="M 2834 3397 
L 2834 2853 
Q 2591 2978 2328 3040 
Q 2066 3103 1784 3103 
Q 1356 3103 1142 2972 
Q 928 2841 928 2578 
Q 928 2378 1081 2264 
Q 1234 2150 1697 2047 
L 1894 2003 
Q 2506 1872 2764 1633 
Q 3022 1394 3022 966 
Q 3022 478 2636 193 
Q 2250 -91 1575 -91 
Q 1294 -91 989 -36 
Q 684 19 347 128 
L 347 722 
Q 666 556 975 473 
Q 1284 391 1588 391 
Q 1994 391 2212 530 
Q 2431 669 2431 922 
Q 2431 1156 2273 1281 
Q 2116 1406 1581 1522 
L 1381 1569 
Q 847 1681 609 1914 
Q 372 2147 372 2553 
Q 372 3047 722 3315 
Q 1072 3584 1716 3584 
Q 2034 3584 2315 3537 
Q 2597 3491 2834 3397 
z
" transform="scale(0.015625)"/>
       <path id="DejaVuSans-70" d="M 1159 525 
L 1159 -1331 
L 581 -1331 
L 581 3500 
L 1159 3500 
L 1159 2969 
Q 1341 3281 1617 3432 
Q 1894 3584 2278 3584 
Q 2916 3584 3314 3078 
Q 3713 2572 3713 1747 
Q 3713 922 3314 415 
Q 2916 -91 2278 -91 
Q 1894 -91 1617 61 
Q 1341 213 1159 525 
z
M 3116 1747 
Q 3116 2381 2855 2742 
Q 2594 3103 2138 3103 
Q 1681 3103 1420 2742 
Q 1159 2381 1159 1747 
Q 1159 1113 1420 752 
Q 1681 391 2138 391 
Q 2594 391 2855 752 
Q 3116 1113 3116 1747 
z
" transform="scale(0.015625)"/>
       <path id="DejaVuSans-6f" d="M 1959 3097 
Q 1497 3097 1228 2736 
Q 959 2375 959 1747 
Q 959 1119 1226 758 
Q 1494 397 1959 397 
Q 2419 397 2687 759 
Q 2956 1122 2956 1747 
Q 2956 2369 2687 2733 
Q 2419 3097 1959 3097 
z
M 1959 3584 
Q 2709 3584 3137 3096 
Q 3566 2609 3566 1747 
Q 3566 888 3137 398 
Q 2709 -91 1959 -91 
Q 1206 -91 779 398 
Q 353 888 353 1747 
Q 353 2609 779 3096 
Q 1206 3584 1959 3584 
z
" transform="scale(0.015625)"/>
       <path id="DejaVuSans-Oblique-52" d="M 1613 4147 
L 1294 2491 
L 2106 2491 
Q 2584 2491 2879 2755 
Q 3175 3019 3175 3444 
Q 3175 3784 2976 3965 
Q 2778 4147 2406 4147 
L 1613 4147 
z
M 2772 2241 
Q 2972 2194 3105 2009 
Q 3238 1825 3413 1275 
L 3809 0 
L 3144 0 
L 2778 1197 
Q 2638 1659 2453 1815 
Q 2269 1972 1888 1972 
L 1191 1972 
L 806 0 
L 172 0 
L 1081 4666 
L 2503 4666 
Q 3150 4666 3495 4373 
Q 3841 4081 3841 3531 
Q 3841 3044 3547 2687 
Q 3253 2331 2772 2241 
z
" transform="scale(0.015625)"/>
       <path id="DejaVuSans-28" d="M 1984 4856 
Q 1566 4138 1362 3434 
Q 1159 2731 1159 2009 
Q 1159 1288 1364 580 
Q 1569 -128 1984 -844 
L 1484 -844 
Q 1016 -109 783 600 
Q 550 1309 550 2009 
Q 550 2706 781 3412 
Q 1013 4119 1484 4856 
L 1984 4856 
z
" transform="scale(0.015625)"/>
       <path id="DejaVuSans-c5" d="M 2663 5081 
Q 2663 5278 2523 5417 
Q 2384 5556 2188 5556 
Q 1988 5556 1852 5420 
Q 1716 5284 1716 5081 
Q 1716 4884 1853 4746 
Q 1991 4609 2188 4609 
Q 2384 4609 2523 4746 
Q 2663 4884 2663 5081 
z
M 2188 4044 
L 1338 1722 
L 3041 1722 
L 2188 4044 
z
M 1716 4366 
Q 1525 4494 1428 4673 
Q 1331 4853 1331 5081 
Q 1331 5441 1579 5691 
Q 1828 5941 2188 5941 
Q 2544 5941 2795 5689 
Q 3047 5438 3047 5081 
Q 3047 4863 2948 4678 
Q 2850 4494 2663 4366 
L 4325 0 
L 3669 0 
L 3244 1197 
L 1141 1197 
L 716 0 
L 50 0 
L 1716 4366 
z
" transform="scale(0.015625)"/>
       <path id="DejaVuSans-29" d="M 513 4856 
L 1013 4856 
Q 1481 4119 1714 3412 
Q 1947 2706 1947 2009 
Q 1947 1309 1714 600 
Q 1481 -109 1013 -844 
L 513 -844 
Q 928 -128 1133 580 
Q 1338 1288 1338 2009 
Q 1338 2731 1133 3434 
Q 928 4138 513 4856 
z
" transform="scale(0.015625)"/>
      </defs>
      <use xlink:href="#DejaVuSans-69" transform="translate(0 0.171875)"/>
      <use xlink:href="#DejaVuSans-6e" transform="translate(27.783203 0.171875)"/>
      <use xlink:href="#DejaVuSans-74" transform="translate(91.162109 0.171875)"/>
      <use xlink:href="#DejaVuSans-65" transform="translate(130.371094 0.171875)"/>
      <use xlink:href="#DejaVuSans-72" transform="translate(191.894531 0.171875)"/>
      <use xlink:href="#DejaVuSans-6e" transform="translate(233.007812 0.171875)"/>
      <use xlink:href="#DejaVuSans-75" transform="translate(296.386719 0.171875)"/>
      <use xlink:href="#DejaVuSans-63" transform="translate(359.765625 0.171875)"/>
      <use xlink:href="#DejaVuSans-6c" transform="translate(414.746094 0.171875)"/>
      <use xlink:href="#DejaVuSans-65" transform="translate(442.529297 0.171875)"/>
      <use xlink:href="#DejaVuSans-61" transform="translate(504.052734 0.171875)"/>
      <use xlink:href="#DejaVuSans-72" transform="translate(565.332031 0.171875)"/>
      <use xlink:href="#DejaVuSans-20" transform="translate(606.445312 0.171875)"/>
      <use xlink:href="#DejaVuSans-73" transform="translate(638.232422 0.171875)"/>
      <use xlink:href="#DejaVuSans-65" transform="translate(690.332031 0.171875)"/>
      <use xlink:href="#DejaVuSans-70" transform="translate(751.855469 0.171875)"/>
      <use xlink:href="#DejaVuSans-61" transform="translate(815.332031 0.171875)"/>
      <use xlink:href="#DejaVuSans-72" transform="translate(876.611328 0.171875)"/>
      <use xlink:href="#DejaVuSans-61" transform="translate(917.724609 0.171875)"/>
      <use xlink:href="#DejaVuSans-74" transform="translate(979.003906 0.171875)"/>
      <use xlink:href="#DejaVuSans-69" transform="translate(1018.212891 0.171875)"/>
      <use xlink:href="#DejaVuSans-6f" transform="translate(1045.996094 0.171875)"/>
      <use xlink:href="#DejaVuSans-6e" transform="translate(1107.177734 0.171875)"/>
      <use xlink:href="#DejaVuSans-20" transform="translate(1170.556641 0.171875)"/>
      <use xlink:href="#DejaVuSans-Oblique-52" transform="translate(1202.34375 0.171875)"/>
      <use xlink:href="#DejaVuSans-20" transform="translate(1271.826172 0.171875)"/>
      <use xlink:href="#DejaVuSans-28" transform="translate(1303.613281 0.171875)"/>
      <use xlink:href="#DejaVuSans-c5" transform="translate(1342.626953 0.171875)"/>
      <use xlink:href="#DejaVuSans-29" transform="translate(1411.035156 0.171875)"/>
     </g>
    </g>
   </g>
   <g id="matplotlib.axis_2">
    <g id="ytick_1">
     <g id="line2d_7">
      <defs>
       <path id="mdaebb80719" d="M 0 0 
L -3.5 0 
" style="stroke: #000000; stroke-width: 0.8"/>
      </defs>
      <g>
       <use xlink:href="#mdaebb80719" x="56.81" y="237.76" style="stroke: #000000; stroke-width: 0.8"/>
      </g>
     </g>
     <g id="text_8">
      <!-- −16 -->
      <g transform="translate(26.594844 241.939141) scale(0.11 -0.11)">
       <defs>
        <path id="DejaVuSans-2212" d="M 678 2272 
L 4684 2272 
L 4684 1741 
L 678 1741 
L 678 2272 
z
" transform="scale(0.015625)"/>
       </defs>
       <use xlink:href="#DejaVuSans-2212"/>
       <use xlink:href="#DejaVuSans-31" transform="translate(83.789062 0)"/>
       <use xlink:href="#DejaVuSans-36" transform="translate(147.412109 0)"/>
      </g>
     </g>
    </g>
    <g id="ytick_2">
     <g id="line2d_8">
      <g>
       <use xlink:href="#mdaebb80719" x="56.81" y="196.232" style="stroke: #000000; stroke-width: 0.8"/>
      </g>
     </g>
     <g id="text_9">
      <!-- −14 -->
      <g transform="translate(26.594844 200.411141) scale(0.11 -0.11)">
       <use xlink:href="#DejaVuSans-2212"/>
       <use xlink:href="#DejaVuSans-31" transform="translate(83.789062 0)"/>
       <use xlink:href="#DejaVuSans-34" transform="translate(147.412109 0)"/>
      </g>
     </g>
    </g>
    <g id="ytick_3">
     <g id="line2d_9">
      <g>
       <use xlink:href="#mdaebb80719" x="56.81" y="154.704" style="stroke: #000000; stroke-width: 0.8"/>
      </g>
     </g>
     <g id="text_10">
      <!-- −12 -->
      <g transform="translate(26.594844 158.883141) scale(0.11 -0.11)">
       <use xlink:href="#DejaVuSans-2212"/>
       <use xlink:href="#DejaVuSans-31" transform="translate(83.789062 0)"/>
       <use xlink:href="#DejaVuSans-32" transform="translate(147.412109 0)"/>
      </g>
     </g>
    </g>
    <g id="ytick_4">
     <g id="line2d_10">
      <g>
       <use xlink:href="#mdaebb80719" x="56.81" y="113.176" style="stroke: #000000; stroke-width: 0.8"/>
      </g>
     </g>
     <g id="text_11">
      <!-- −10 -->
      <g transform="translate(26.594844 117.355141) scale(0.11 -0.11)">
       <defs>
        <path id="DejaVuSans-30" d="M 2034 4250 
Q 1547 4250 1301 3770 
Q 1056 3291 1056 2328 
Q 1056 1369 1301 889 
Q 1547 409 2034 409 
Q 2525 409 2770 889 
Q 3016 1369 3016 2328 
Q 3016 3291 2770 3770 
Q 2525 4250 2034 4250 
z
M 2034 4750 
Q 2819 4750 3233 4129 
Q 3647 3509 3647 2328 
Q 3647 1150 3233 529 
Q 2819 -91 2034 -91 
Q 1250 -91 836 529 
Q 422 1150 422 2328 
Q 422 3509 836 4129 
Q 1250 4750 2034 4750 
z
" transform="scale(0.015625)"/>
       </defs>
       <use xlink:href="#DejaVuSans-2212"/>
       <use xlink:href="#DejaVuSans-31" transform="translate(83.789062 0)"/>
       <use xlink:href="#DejaVuSans-30" transform="translate(147.412109 0)"/>
      </g>
     </g>
    </g>
    <g id="ytick_5">
     <g id="line2d_11">
      <g>
       <use xlink:href="#mdaebb80719" x="56.81" y="71.648" style="stroke: #000000; stroke-width: 0.8"/>
      </g>
     </g>
     <g id="text_12">
      <!-- −8 -->
      <g transform="translate(33.593594 75.827141) scale(0.11 -0.11)">
       <defs>
        <path id="DejaVuSans-38" d="M 2034 2216 
Q 1584 2216 1326 1975 
Q 1069 1734 1069 1313 
Q 1069 891 1326 650 
Q 1584 409 2034 409 
Q 2484 409 2743 651 
Q 3003 894 3003 1313 
Q 3003 1734 2745 1975 
Q 2488 2216 2034 2216 
z
M 1403 2484 
Q 997 2584 770 2862 
Q 544 3141 544 3541 
Q 544 4100 942 4425 
Q 1341 4750 2034 4750 
Q 2731 4750 3128 4425 
Q 3525 4100 3525 3541 
Q 3525 3141 3298 2862 
Q 3072 2584 2669 2484 
Q 3125 2378 3379 2068 
Q 3634 1759 3634 1313 
Q 3634 634 3220 271 
Q 2806 -91 2034 -91 
Q 1263 -91 848 271 
Q 434 634 434 1313 
Q 434 1759 690 2068 
Q 947 2378 1403 2484 
z
M 1172 3481 
Q 1172 3119 1398 2916 
Q 1625 2713 2034 2713 
Q 2441 2713 2670 2916 
Q 2900 3119 2900 3481 
Q 2900 3844 2670 4047 
Q 2441 4250 2034 4250 
Q 1625 4250 1398 4047 
Q 1172 3844 1172 3481 
z
" transform="scale(0.015625)"/>
       </defs>
       <use xlink:href="#DejaVuSans-2212"/>
       <use xlink:href="#DejaVuSans-38" transform="translate(83.789062 0)"/>
      </g>
     </g>
    </g>
    <g id="ytick_6">
     <g id="line2d_12">
      <g>
       <use xlink:href="#mdaebb80719" x="56.81" y="30.12" style="stroke: #000000; stroke-width: 0.8"/>
      </g>
     </g>
     <g id="text_13">
      <!-- −6 -->
      <g transform="translate(33.593594 34.299141) scale(0.11 -0.11)">
       <use xlink:href="#DejaVuSans-2212"/>
       <use xlink:href="#DejaVuSans-36" transform="translate(83.789062 0)"/>
      </g>
     </g>
    </g>
    <g id="text_14">
     <!-- total energy (eV) -->
     <g transform="translate(20.307188 180.616094) rotate(-90) scale(0.11 -0.11)">
      <defs>
       <path id="DejaVuSans-67" d="M 2906 1791 
Q 2906 2416 2648 2759 
Q 2391 3103 1925 3103 
Q 1463 3103 1205 2759 
Q 947 2416 947 1791 
Q 947 1169 1205 825 
Q 1463 481 1925 481 
Q 2391 481 2648 825 
Q 2906 1169 2906 1791 
z
M 3481 434 
Q 3481 -459 3084 -895 
Q 2688 -1331 1869 -1331 
Q 1566 -1331 1297 -1286 
Q 1028 -1241 775 -1147 
L 775 -588 
Q 1028 -725 1275 -790 
Q 1522 -856 1778 -856 
Q 2344 -856 2625 -561 
Q 2906 -266 2906 331 
L 2906 616 
Q 2728 306 2450 153 
Q 2172 0 1784 0 
Q 1141 0 747 490 
Q 353 981 353 1791 
Q 353 2603 747 3093 
Q 1141 3584 1784 3584 
Q 2172 3584 2450 3431 
Q 2728 3278 2906 2969 
L 2906 3500 
L 3481 3500 
L 3481 434 
z
" transform="scale(0.015625)"/>
       <path id="DejaVuSans-79" d="M 2059 -325 
Q 1816 -950 1584 -1140 
Q 1353 -1331 966 -1331 
L 506 -1331 
L 506 -850 
L 844 -850 
Q 1081 -850 1212 -737 
Q 1344 -625 1503 -206 
L 1606 56 
L 191 3500 
L 800 3500 
L 1894 763 
L 2988 3500 
L 3597 3500 
L 2059 -325 
z
" transform="scale(0.015625)"/>
       <path id="DejaVuSans-56" d="M 1831 0 
L 50 4666 
L 709 4666 
L 2188 738 
L 3669 4666 
L 4325 4666 
L 2547 0 
L 1831 0 
z
" transform="scale(0.015625)"/>
      </defs>
      <use xlink:href="#DejaVuSans-74"/>
      <use xlink:href="#DejaVuSans-6f" transform="translate(39.208984 0)"/>
      <use xlink:href="#DejaVuSans-74" transform="translate(100.390625 0)"/>
      <use xlink:href="#DejaVuSans-61" transform="translate(139.599609 0)"/>
      <use xlink:href="#DejaVuSans-6c" transform="translate(200.878906 0)"/>
      <use xlink:href="#DejaVuSans-20" transform="translate(228.662109 0)"/>
      <use xlink:href="#DejaVuSans-65" transform="translate(260.449219 0)"/>
      <use xlink:href="#DejaVuSans-6e" transform="translate(321.972656 0)"/>
      <use xlink:href="#DejaVuSans-65" transform="translate(385.351562 0)"/>
      <use xlink:href="#DejaVuSans-72" transform="translate(446.875 0)"/>
      <use xlink:href="#DejaVuSans-67" transform="translate(486.238281 0)"/>
      <use xlink:href="#DejaVuSans-79" transform="translate(549.714844 0)"/>
      <use xlink:href="#DejaVuSans-20" transform="translate(608.894531 0)"/>
      <use xlink:href="#DejaVuSans-28" transform="translate(640.681641 0)"/>
      <use xlink:href="#DejaVuSans-65" transform="translate(679.695312 0)"/>
      <use xlink:href="#DejaVuSans-56" transform="translate(741.21875 0)"/>
      <use xlink:href="#DejaVuSans-29" transform="translate(809.626953 0)"/>
     </g>
    </g>
   </g>
   <g id="line2d_13">
    <path d="M 67.452757 -1 
L 69.016687 23.762886 
L 70.768786 48.130885 
L 72.520885 69.458223 
L 74.272984 88.184138 
L 76.025083 104.670634 
L 77.777182 119.218653 
L 79.529281 132.080339 
L 81.28138 143.468456 
L 83.033479 153.563697 
L 84.785578 162.520432 
L 86.537677 170.471254 
L 88.540076 178.472287 
L 90.542475 185.455283 
L 92.544874 191.545677 
L 94.547272 196.851176 
L 96.549671 201.4647 
L 98.55207 205.466757 
L 100.554469 208.927378 
L 102.556868 211.907705 
L 104.559267 214.461309 
L 106.561666 216.635273 
L 108.564065 218.471103 
L 110.566463 220.005493 
L 112.568862 221.270966 
L 114.571261 222.296424 
L 116.82396 223.195106 
L 119.076659 223.855009 
L 121.579657 224.342934 
L 124.082656 224.605933 
L 126.835954 224.671392 
L 129.839553 224.515071 
L 133.093451 224.121565 
L 136.847949 223.431627 
L 141.103046 222.409848 
L 146.109044 220.966177 
L 152.36654 218.916101 
L 161.877935 215.535403 
L 179.148625 209.387946 
L 188.15942 206.435864 
L 196.419316 203.959486 
L 204.428911 201.78755 
L 212.438507 199.845283 
L 220.698402 198.076667 
L 229.208597 196.489398 
L 237.969092 195.084505 
L 247.230187 193.826277 
L 257.242182 192.696117 
L 268.005076 191.709053 
L 279.769169 190.854476 
L 293.035062 190.116566 
L 308.303353 189.495362 
L 326.324943 188.990885 
L 348.60163 188.598128 
L 378.137014 188.313576 
L 421.939489 188.135323 
L 433.202983 188.11304 
L 433.202983 188.11304 
" clip-path="url(#pb243f93188)" style="fill: none; stroke: #009e73; stroke-width: 2.2; stroke-linecap: square"/>
   </g>
   <g id="line2d_14">
    <path d="M 109.001348 -1 
L 111.567663 11.867447 
L 114.320961 24.565377 
L 117.07426 36.229108 
L 119.827558 46.95845 
L 122.580857 56.841531 
L 125.334155 65.956442 
L 128.337754 75.105274 
L 131.341352 83.50243 
L 134.34495 91.218783 
L 137.348549 98.3173 
L 140.352147 104.854093 
L 143.355745 110.879304 
L 146.359343 116.437852 
L 149.613242 121.979683 
L 152.86714 127.067083 
L 156.121038 131.74117 
L 159.374936 136.038806 
L 162.879134 140.283939 
L 166.383332 144.16793 
L 169.88753 147.723982 
L 173.642028 151.203888 
L 177.396526 154.374263 
L 181.151024 157.26441 
L 185.155822 160.067873 
L 189.410919 162.761665 
L 193.666017 165.191658 
L 198.171415 167.506978 
L 202.927112 169.694149 
L 207.933109 171.743246 
L 213.189406 173.647687 
L 218.696003 175.403962 
L 224.4529 177.011323 
L 230.710396 178.527916 
L 237.468493 179.933451 
L 244.727189 181.21404 
L 252.736784 182.39547 
L 261.497279 183.456984 
L 271.258974 184.408844 
L 282.272168 185.250269 
L 294.787161 185.975186 
L 309.304552 186.586423 
L 326.825543 187.091296 
L 348.60163 187.484625 
L 377.386114 187.769176 
L 420.18739 187.949903 
L 433.202983 187.97635 
L 433.202983 187.97635 
" clip-path="url(#pb243f93188)" style="fill: none; stroke: #e69f00; stroke-width: 2.2; stroke-linecap: square"/>
   </g>
   <g id="line2d_15">
    <path d="M 56.81 187.9264 
L 445.41 187.9264 
" clip-path="url(#pb243f93188)" style="fill: none; stroke-dasharray: 4.44,1.92; stroke-dashoffset: 0; stroke: #999999; stroke-width: 1.2"/>
   </g>
   <g id="patch_3">
    <path d="M 56.81 237.76 
L 56.81 30.12 
" style="fill: none; stroke: #000000; stroke-linejoin: miter; stroke-linecap: square"/>
   </g>
   <g id="patch_4">
    <path d="M 56.81 237.76 
L 445.41 237.76 
" style="fill: none; stroke: #000000; stroke-linejoin: miter; stroke-linecap: square"/>
   </g>
   <g id="patch_5">
    <path d="M 217.924615 164.039731 
Q 172.964317 193.805192 128.936266 222.95347 
" style="fill: none; stroke: #d55e00; stroke-linecap: round"/>
    <path d="M 133.375626 222.41302 
L 128.936266 222.95347 
L 131.167522 219.077712 
" style="fill: none; stroke: #d55e00; stroke-linecap: round"/>
   </g>
   <g id="text_15">
    <!-- min  $R\approx1.32$ Å -->
    <g transform="translate(199.978421 147.658987) scale(0.1 -0.1)">
     <defs>
      <path id="DejaVuSans-6d" d="M 3328 2828 
Q 3544 3216 3844 3400 
Q 4144 3584 4550 3584 
Q 5097 3584 5394 3201 
Q 5691 2819 5691 2113 
L 5691 0 
L 5113 0 
L 5113 2094 
Q 5113 2597 4934 2840 
Q 4756 3084 4391 3084 
Q 3944 3084 3684 2787 
Q 3425 2491 3425 1978 
L 3425 0 
L 2847 0 
L 2847 2094 
Q 2847 2600 2669 2842 
Q 2491 3084 2119 3084 
Q 1678 3084 1418 2786 
Q 1159 2488 1159 1978 
L 1159 0 
L 581 0 
L 581 3500 
L 1159 3500 
L 1159 2956 
Q 1356 3278 1631 3431 
Q 1906 3584 2284 3584 
Q 2666 3584 2933 3390 
Q 3200 3197 3328 2828 
z
" transform="scale(0.015625)"/>
      <path id="DejaVuSans-2248" d="M 4684 1947 
L 4684 1388 
Q 4356 1144 4076 1036 
Q 3797 928 3494 928 
Q 3150 928 2694 1113 
Q 2663 1125 2641 1134 
Q 2622 1141 2575 1159 
Q 2091 1350 1797 1350 
Q 1522 1350 1253 1231 
Q 984 1113 678 850 
L 678 1409 
Q 1006 1653 1286 1761 
Q 1566 1869 1869 1869 
Q 2213 1869 2672 1684 
Q 2706 1669 2722 1663 
Q 2741 1656 2788 1638 
Q 3272 1447 3566 1447 
Q 3834 1447 4098 1564 
Q 4363 1681 4684 1947 
z
M 4684 3163 
L 4684 2606 
Q 4356 2359 4076 2251 
Q 3797 2144 3494 2144 
Q 3150 2144 2694 2328 
Q 2663 2341 2641 2350 
Q 2622 2356 2575 2375 
Q 2091 2566 1797 2566 
Q 1522 2566 1253 2447 
Q 984 2328 678 2069 
L 678 2625 
Q 1006 2869 1286 2976 
Q 1566 3084 1869 3084 
Q 2213 3084 2672 2900 
Q 2703 2888 2719 2881 
Q 2741 2872 2788 2853 
Q 3272 2663 3566 2663 
Q 3834 2663 4098 2780 
Q 4363 2897 4684 3163 
z
" transform="scale(0.015625)"/>
      <path id="DejaVuSans-2e" d="M 684 794 
L 1344 794 
L 1344 0 
L 684 0 
L 684 794 
z
" transform="scale(0.015625)"/>
     </defs>
     <use xlink:href="#DejaVuSans-6d" transform="translate(0 0.171875)"/>
     <use xlink:href="#DejaVuSans-69" transform="translate(97.412109 0.171875)"/>
     <use xlink:href="#DejaVuSans-6e" transform="translate(125.195312 0.171875)"/>
     <use xlink:href="#DejaVuSans-20" transform="translate(188.574219 0.171875)"/>
     <use xlink:href="#DejaVuSans-20" transform="translate(220.361328 0.171875)"/>
     <use xlink:href="#DejaVuSans-Oblique-52" transform="translate(252.148438 0.171875)"/>
     <use xlink:href="#DejaVuSans-2248" transform="translate(341.113281 0.171875)"/>
     <use xlink:href="#DejaVuSans-31" transform="translate(444.384766 0.171875)"/>
     <use xlink:href="#DejaVuSans-2e" transform="translate(508.007812 0.171875)"/>
     <use xlink:href="#DejaVuSans-33" transform="translate(539.794922 0.171875)"/>
     <use xlink:href="#DejaVuSans-32" transform="translate(603.417969 0.171875)"/>
     <use xlink:href="#DejaVuSans-20" transform="translate(667.041016 0.171875)"/>
     <use xlink:href="#DejaVuSans-c5" transform="translate(698.828125 0.171875)"/>
    </g>
    <!-- $D_e\approx1.77$ eV -->
    <g transform="translate(199.978421 158.8568) scale(0.1 -0.1)">
     <defs>
      <path id="DejaVuSans-Oblique-44" d="M 1081 4666 
L 2438 4666 
Q 3519 4666 4070 4208 
Q 4622 3750 4622 2847 
Q 4622 2250 4412 1698 
Q 4203 1147 3834 769 
Q 3463 381 2891 190 
Q 2319 0 1538 0 
L 172 0 
L 1081 4666 
z
M 1613 4147 
L 909 519 
L 1734 519 
Q 2794 519 3375 1128 
Q 3956 1738 3956 2847 
Q 3956 3519 3581 3833 
Q 3206 4147 2406 4147 
L 1613 4147 
z
" transform="scale(0.015625)"/>
      <path id="DejaVuSans-Oblique-65" d="M 3078 2063 
Q 3088 2113 3092 2166 
Q 3097 2219 3097 2272 
Q 3097 2653 2873 2875 
Q 2650 3097 2266 3097 
Q 1838 3097 1509 2826 
Q 1181 2556 1013 2059 
L 3078 2063 
z
M 3578 1613 
L 903 1613 
Q 884 1494 878 1425 
Q 872 1356 872 1306 
Q 872 872 1139 634 
Q 1406 397 1894 397 
Q 2269 397 2603 481 
Q 2938 566 3225 728 
L 3116 159 
Q 2806 34 2476 -28 
Q 2147 -91 1806 -91 
Q 1078 -91 686 257 
Q 294 606 294 1247 
Q 294 1794 489 2264 
Q 684 2734 1063 3103 
Q 1306 3334 1642 3459 
Q 1978 3584 2356 3584 
Q 2950 3584 3301 3228 
Q 3653 2872 3653 2272 
Q 3653 2128 3634 1964 
Q 3616 1800 3578 1613 
z
" transform="scale(0.015625)"/>
      <path id="DejaVuSans-37" d="M 525 4666 
L 3525 4666 
L 3525 4397 
L 1831 0 
L 1172 0 
L 2766 4134 
L 525 4134 
L 525 4666 
z
" transform="scale(0.015625)"/>
     </defs>
     <use xlink:href="#DejaVuSans-Oblique-44" transform="translate(0 0.09375)"/>
     <use xlink:href="#DejaVuSans-Oblique-65" transform="translate(77.001953 -16.3125) scale(0.7)"/>
     <use xlink:href="#DejaVuSans-2248" transform="translate(142.285156 0.09375)"/>
     <use xlink:href="#DejaVuSans-31" transform="translate(245.556641 0.09375)"/>
     <use xlink:href="#DejaVuSans-2e" transform="translate(309.179688 0.09375)"/>
     <use xlink:href="#DejaVuSans-37" transform="translate(333.216797 0.09375)"/>
     <use xlink:href="#DejaVuSans-37" transform="translate(395.089844 0.09375)"/>
     <use xlink:href="#DejaVuSans-20" transform="translate(458.712891 0.09375)"/>
     <use xlink:href="#DejaVuSans-65" transform="translate(490.5 0.09375)"/>
     <use xlink:href="#DejaVuSans-56" transform="translate(552.023438 0.09375)"/>
    </g>
   </g>
   <g id="text_16">
    <!-- H$_2^+$ LCAO variational energy — bonding vs antibonding -->
    <g transform="translate(85.69 24.12) scale(0.12 -0.12)">
     <defs>
      <path id="DejaVuSans-48" d="M 628 4666 
L 1259 4666 
L 1259 2753 
L 3553 2753 
L 3553 4666 
L 4184 4666 
L 4184 0 
L 3553 0 
L 3553 2222 
L 1259 2222 
L 1259 0 
L 628 0 
L 628 4666 
z
" transform="scale(0.015625)"/>
      <path id="DejaVuSans-2b" d="M 2944 4013 
L 2944 2272 
L 4684 2272 
L 4684 1741 
L 2944 1741 
L 2944 0 
L 2419 0 
L 2419 1741 
L 678 1741 
L 678 2272 
L 2419 2272 
L 2419 4013 
L 2944 4013 
z
" transform="scale(0.015625)"/>
      <path id="DejaVuSans-4c" d="M 628 4666 
L 1259 4666 
L 1259 531 
L 3531 531 
L 3531 0 
L 628 0 
L 628 4666 
z
" transform="scale(0.015625)"/>
      <path id="DejaVuSans-43" d="M 4122 4306 
L 4122 3641 
Q 3803 3938 3442 4084 
Q 3081 4231 2675 4231 
Q 1875 4231 1450 3742 
Q 1025 3253 1025 2328 
Q 1025 1406 1450 917 
Q 1875 428 2675 428 
Q 3081 428 3442 575 
Q 3803 722 4122 1019 
L 4122 359 
Q 3791 134 3420 21 
Q 3050 -91 2638 -91 
Q 1578 -91 968 557 
Q 359 1206 359 2328 
Q 359 3453 968 4101 
Q 1578 4750 2638 4750 
Q 3056 4750 3426 4639 
Q 3797 4528 4122 4306 
z
" transform="scale(0.015625)"/>
      <path id="DejaVuSans-41" d="M 2188 4044 
L 1331 1722 
L 3047 1722 
L 2188 4044 
z
M 1831 4666 
L 2547 4666 
L 4325 0 
L 3669 0 
L 3244 1197 
L 1141 1197 
L 716 0 
L 50 0 
L 1831 4666 
z
" transform="scale(0.015625)"/>
      <path id="DejaVuSans-4f" d="M 2522 4238 
Q 1834 4238 1429 3725 
Q 1025 3213 1025 2328 
Q 1025 1447 1429 934 
Q 1834 422 2522 422 
Q 3209 422 3611 934 
Q 4013 1447 4013 2328 
Q 4013 3213 3611 3725 
Q 3209 4238 2522 4238 
z
M 2522 4750 
Q 3503 4750 4090 4092 
Q 4678 3434 4678 2328 
Q 4678 1225 4090 567 
Q 3503 -91 2522 -91 
Q 1538 -91 948 565 
Q 359 1222 359 2328 
Q 359 3434 948 4092 
Q 1538 4750 2522 4750 
z
" transform="scale(0.015625)"/>
      <path id="DejaVuSans-76" d="M 191 3500 
L 800 3500 
L 1894 563 
L 2988 3500 
L 3597 3500 
L 2284 0 
L 1503 0 
L 191 3500 
z
" transform="scale(0.015625)"/>
      <path id="DejaVuSansDisplay-2014" d="M 313 1978 
L 6088 1978 
L 6088 1528 
L 313 1528 
L 313 1978 
z
" transform="scale(0.015625)"/>
      <path id="DejaVuSans-62" d="M 3116 1747 
Q 3116 2381 2855 2742 
Q 2594 3103 2138 3103 
Q 1681 3103 1420 2742 
Q 1159 2381 1159 1747 
Q 1159 1113 1420 752 
Q 1681 391 2138 391 
Q 2594 391 2855 752 
Q 3116 1113 3116 1747 
z
M 1159 2969 
Q 1341 3281 1617 3432 
Q 1894 3584 2278 3584 
Q 2916 3584 3314 3078 
Q 3713 2572 3713 1747 
Q 3713 922 3314 415 
Q 2916 -91 2278 -91 
Q 1894 -91 1617 61 
Q 1341 213 1159 525 
L 1159 0 
L 581 0 
L 581 4863 
L 1159 4863 
L 1159 2969 
z
" transform="scale(0.015625)"/>
      <path id="DejaVuSans-64" d="M 2906 2969 
L 2906 4863 
L 3481 4863 
L 3481 0 
L 2906 0 
L 2906 525 
Q 2725 213 2448 61 
Q 2172 -91 1784 -91 
Q 1150 -91 751 415 
Q 353 922 353 1747 
Q 353 2572 751 3078 
Q 1150 3584 1784 3584 
Q 2172 3584 2448 3432 
Q 2725 3281 2906 2969 
z
M 947 1747 
Q 947 1113 1208 752 
Q 1469 391 1925 391 
Q 2381 391 2643 752 
Q 2906 1113 2906 1747 
Q 2906 2381 2643 2742 
Q 2381 3103 1925 3103 
Q 1469 3103 1208 2742 
Q 947 2381 947 1747 
z
" transform="scale(0.015625)"/>
     </defs>
     <use xlink:href="#DejaVuSans-48" transform="translate(0 0.826562)"/>
     <use xlink:href="#DejaVuSans-2b" transform="translate(89.790039 39.107813) scale(0.7)"/>
     <use xlink:href="#DejaVuSans-32" transform="translate(76.152344 -26.517188) scale(0.7)"/>
     <use xlink:href="#DejaVuSans-20" transform="translate(164.814453 0.826562)"/>
     <use xlink:href="#DejaVuSans-4c" transform="translate(196.601562 0.826562)"/>
     <use xlink:href="#DejaVuSans-43" transform="translate(252.314453 0.826562)"/>
     <use xlink:href="#DejaVuSans-41" transform="translate(322.138672 0.826562)"/>
     <use xlink:href="#DejaVuSans-4f" transform="translate(390.546875 0.826562)"/>
     <use xlink:href="#DejaVuSans-20" transform="translate(469.257812 0.826562)"/>
     <use xlink:href="#DejaVuSans-76" transform="translate(501.044922 0.826562)"/>
     <use xlink:href="#DejaVuSans-61" transform="translate(560.224609 0.826562)"/>
     <use xlink:href="#DejaVuSans-72" transform="translate(621.503906 0.826562)"/>
     <use xlink:href="#DejaVuSans-69" transform="translate(662.617188 0.826562)"/>
     <use xlink:href="#DejaVuSans-61" transform="translate(690.400391 0.826562)"/>
     <use xlink:href="#DejaVuSans-74" transform="translate(751.679688 0.826562)"/>
     <use xlink:href="#DejaVuSans-69" transform="translate(790.888672 0.826562)"/>
     <use xlink:href="#DejaVuSans-6f" transform="translate(818.671875 0.826562)"/>
     <use xlink:href="#DejaVuSans-6e" transform="translate(879.853516 0.826562)"/>
     <use xlink:href="#DejaVuSans-61" transform="translate(943.232422 0.826562)"/>
     <use xlink:href="#DejaVuSans-6c" transform="translate(1004.511719 0.826562)"/>
     <use xlink:href="#DejaVuSans-20" transform="translate(1032.294922 0.826562)"/>
     <use xlink:href="#DejaVuSans-65" transform="translate(1064.082031 0.826562)"/>
     <use xlink:href="#DejaVuSans-6e" transform="translate(1125.605469 0.826562)"/>
     <use xlink:href="#DejaVuSans-65" transform="translate(1188.984375 0.826562)"/>
     <use xlink:href="#DejaVuSans-72" transform="translate(1250.507812 0.826562)"/>
     <use xlink:href="#DejaVuSans-67" transform="translate(1291.621094 0.826562)"/>
     <use xlink:href="#DejaVuSans-79" transform="translate(1355.097656 0.826562)"/>
     <use xlink:href="#DejaVuSans-20" transform="translate(1414.277344 0.826562)"/>
     <use xlink:href="#DejaVuSansDisplay-2014" transform="translate(1446.064453 0.826562)"/>
     <use xlink:href="#DejaVuSans-20" transform="translate(1546.064453 0.826562)"/>
     <use xlink:href="#DejaVuSans-62" transform="translate(1577.851562 0.826562)"/>
     <use xlink:href="#DejaVuSans-6f" transform="translate(1641.328125 0.826562)"/>
     <use xlink:href="#DejaVuSans-6e" transform="translate(1702.509766 0.826562)"/>
     <use xlink:href="#DejaVuSans-64" transform="translate(1765.888672 0.826562)"/>
     <use xlink:href="#DejaVuSans-69" transform="translate(1829.365234 0.826562)"/>
     <use xlink:href="#DejaVuSans-6e" transform="translate(1857.148438 0.826562)"/>
     <use xlink:href="#DejaVuSans-67" transform="translate(1920.527344 0.826562)"/>
     <use xlink:href="#DejaVuSans-20" transform="translate(1984.003906 0.826562)"/>
     <use xlink:href="#DejaVuSans-76" transform="translate(2015.791016 0.826562)"/>
     <use xlink:href="#DejaVuSans-73" transform="translate(2074.970703 0.826562)"/>
     <use xlink:href="#DejaVuSans-20" transform="translate(2127.070312 0.826562)"/>
     <use xlink:href="#DejaVuSans-61" transform="translate(2158.857422 0.826562)"/>
     <use xlink:href="#DejaVuSans-6e" transform="translate(2220.136719 0.826562)"/>
     <use xlink:href="#DejaVuSans-74" transform="translate(2283.515625 0.826562)"/>
     <use xlink:href="#DejaVuSans-69" transform="translate(2322.724609 0.826562)"/>
     <use xlink:href="#DejaVuSans-62" transform="translate(2350.507812 0.826562)"/>
     <use xlink:href="#DejaVuSans-6f" transform="translate(2413.984375 0.826562)"/>
     <use xlink:href="#DejaVuSans-6e" transform="translate(2475.166016 0.826562)"/>
     <use xlink:href="#DejaVuSans-64" transform="translate(2538.544922 0.826562)"/>
     <use xlink:href="#DejaVuSans-69" transform="translate(2602.021484 0.826562)"/>
     <use xlink:href="#DejaVuSans-6e" transform="translate(2629.804688 0.826562)"/>
     <use xlink:href="#DejaVuSans-67" transform="translate(2693.183594 0.826562)"/>
    </g>
   </g>
   <g id="line2d_16">
    <defs>
     <path id="md620be0abe" d="M 0 3 
C 0.795609 3 1.55874 2.683901 2.12132 2.12132 
C 2.683901 1.55874 3 0.795609 3 0 
C 3 -0.795609 2.683901 -1.55874 2.12132 -2.12132 
C 1.55874 -2.683901 0.795609 -3 0 -3 
C -0.795609 -3 -1.55874 -2.683901 -2.12132 -2.12132 
C -2.683901 -1.55874 -3 -0.795609 -3 0 
C -3 0.795609 -2.683901 1.55874 -2.12132 2.12132 
C -1.55874 2.683901 -0.795609 3 0 3 
z
" style="stroke: #d55e00"/>
    </defs>
    <g clip-path="url(#pb243f93188)">
     <use xlink:href="#md620be0abe" x="126.335355" y="224.675374" style="fill: #d55e00; stroke: #d55e00"/>
    </g>
   </g>
   <g id="legend_1">
    <g id="line2d_17">
     <path d="M 313.56 41.91 
L 322.56 41.91 
L 331.56 41.91 
" style="fill: none; stroke: #009e73; stroke-width: 2.2; stroke-linecap: square"/>
    </g>
    <g id="text_17">
     <!-- $E_{\rm tot,+}(R)$  bonding -->
     <g transform="translate(338.76 45.06) scale(0.09 -0.09)">
      <defs>
       <path id="DejaVuSans-Oblique-45" d="M 1081 4666 
L 4031 4666 
L 3928 4134 
L 1606 4134 
L 1338 2753 
L 3566 2753 
L 3463 2222 
L 1234 2222 
L 909 531 
L 3284 531 
L 3181 0 
L 172 0 
L 1081 4666 
z
" transform="scale(0.015625)"/>
       <path id="DejaVuSans-2c" d="M 750 794 
L 1409 794 
L 1409 256 
L 897 -744 
L 494 -744 
L 750 256 
L 750 794 
z
" transform="scale(0.015625)"/>
      </defs>
      <use xlink:href="#DejaVuSans-Oblique-45" transform="translate(0 0.015625)"/>
      <use xlink:href="#DejaVuSans-74" transform="translate(63.183594 -16.390625) scale(0.7)"/>
      <use xlink:href="#DejaVuSans-6f" transform="translate(90.629883 -16.390625) scale(0.7)"/>
      <use xlink:href="#DejaVuSans-74" transform="translate(133.457031 -16.390625) scale(0.7)"/>
      <use xlink:href="#DejaVuSans-2c" transform="translate(160.90332 -16.390625) scale(0.7)"/>
      <use xlink:href="#DejaVuSans-2b" transform="translate(210.429688 -16.390625) scale(0.7)"/>
      <use xlink:href="#DejaVuSans-28" transform="translate(285.454102 0.015625)"/>
      <use xlink:href="#DejaVuSans-Oblique-52" transform="translate(324.467773 0.015625)"/>
      <use xlink:href="#DejaVuSans-29" transform="translate(393.950195 0.015625)"/>
      <use xlink:href="#DejaVuSans-20" transform="translate(432.963867 0.015625)"/>
      <use xlink:href="#DejaVuSans-20" transform="translate(464.750977 0.015625)"/>
      <use xlink:href="#DejaVuSans-62" transform="translate(496.538086 0.015625)"/>
      <use xlink:href="#DejaVuSans-6f" transform="translate(560.014648 0.015625)"/>
      <use xlink:href="#DejaVuSans-6e" transform="translate(621.196289 0.015625)"/>
      <use xlink:href="#DejaVuSans-64" transform="translate(684.575195 0.015625)"/>
      <use xlink:href="#DejaVuSans-69" transform="translate(748.051758 0.015625)"/>
      <use xlink:href="#DejaVuSans-6e" transform="translate(775.834961 0.015625)"/>
      <use xlink:href="#DejaVuSans-67" transform="translate(839.213867 0.015625)"/>
     </g>
    </g>
    <g id="line2d_18">
     <path d="M 313.56 55.5 
L 322.56 55.5 
L 331.56 55.5 
" style="fill: none; stroke: #e69f00; stroke-width: 2.2; stroke-linecap: square"/>
    </g>
    <g id="text_18">
     <!-- $E_{\rm tot,-}(R)$  antibonding -->
     <g transform="translate(338.76 58.65) scale(0.09 -0.09)">
      <use xlink:href="#DejaVuSans-Oblique-45" transform="translate(0 0.015625)"/>
      <use xlink:href="#DejaVuSans-74" transform="translate(63.183594 -16.390625) scale(0.7)"/>
      <use xlink:href="#DejaVuSans-6f" transform="translate(90.629883 -16.390625) scale(0.7)"/>
      <use xlink:href="#DejaVuSans-74" transform="translate(133.457031 -16.390625) scale(0.7)"/>
      <use xlink:href="#DejaVuSans-2c" transform="translate(160.90332 -16.390625) scale(0.7)"/>
      <use xlink:href="#DejaVuSans-2212" transform="translate(210.429688 -16.390625) scale(0.7)"/>
      <use xlink:href="#DejaVuSans-28" transform="translate(285.454102 0.015625)"/>
      <use xlink:href="#DejaVuSans-Oblique-52" transform="translate(324.467773 0.015625)"/>
      <use xlink:href="#DejaVuSans-29" transform="translate(393.950195 0.015625)"/>
      <use xlink:href="#DejaVuSans-20" transform="translate(432.963867 0.015625)"/>
      <use xlink:href="#DejaVuSans-20" transform="translate(464.750977 0.015625)"/>
      <use xlink:href="#DejaVuSans-61" transform="translate(496.538086 0.015625)"/>
      <use xlink:href="#DejaVuSans-6e" transform="translate(557.817383 0.015625)"/>
      <use xlink:href="#DejaVuSans-74" transform="translate(621.196289 0.015625)"/>
      <use xlink:href="#DejaVuSans-69" transform="translate(660.405273 0.015625)"/>
      <use xlink:href="#DejaVuSans-62" transform="translate(688.188477 0.015625)"/>
      <use xlink:href="#DejaVuSans-6f" transform="translate(751.665039 0.015625)"/>
      <use xlink:href="#DejaVuSans-6e" transform="translate(812.84668 0.015625)"/>
      <use xlink:href="#DejaVuSans-64" transform="translate(876.225586 0.015625)"/>
      <use xlink:href="#DejaVuSans-69" transform="translate(939.702148 0.015625)"/>
      <use xlink:href="#DejaVuSans-6e" transform="translate(967.485352 0.015625)"/>
      <use xlink:href="#DejaVuSans-67" transform="translate(1030.864258 0.015625)"/>
     </g>
    </g>
    <g id="line2d_19">
     <path d="M 313.56 69.72 
L 322.56 69.72 
L 331.56 69.72 
" style="fill: none; stroke-dasharray: 4.44,1.92; stroke-dashoffset: 0; stroke: #999999; stroke-width: 1.2"/>
    </g>
    <g id="text_19">
     <!-- $-13.6$ eV  (H $+$ p$^+$) -->
     <g transform="translate(338.76 72.87) scale(0.09 -0.09)">
      <use xlink:href="#DejaVuSans-2212" transform="translate(0 0.826562)"/>
      <use xlink:href="#DejaVuSans-31" transform="translate(83.789062 0.826562)"/>
      <use xlink:href="#DejaVuSans-33" transform="translate(147.412109 0.826562)"/>
      <use xlink:href="#DejaVuSans-2e" transform="translate(211.035156 0.826562)"/>
      <use xlink:href="#DejaVuSans-36" transform="translate(242.822266 0.826562)"/>
      <use xlink:href="#DejaVuSans-20" transform="translate(306.445312 0.826562)"/>
      <use xlink:href="#DejaVuSans-65" transform="translate(338.232422 0.826562)"/>
      <use xlink:href="#DejaVuSans-56" transform="translate(399.755859 0.826562)"/>
      <use xlink:href="#DejaVuSans-20" transform="translate(468.164062 0.826562)"/>
      <use xlink:href="#DejaVuSans-20" transform="translate(499.951172 0.826562)"/>
      <use xlink:href="#DejaVuSans-28" transform="translate(531.738281 0.826562)"/>
      <use xlink:href="#DejaVuSans-48" transform="translate(570.751953 0.826562)"/>
      <use xlink:href="#DejaVuSans-20" transform="translate(645.947266 0.826562)"/>
      <use xlink:href="#DejaVuSans-2b" transform="translate(677.734375 0.826562)"/>
      <use xlink:href="#DejaVuSans-20" transform="translate(761.523438 0.826562)"/>
      <use xlink:href="#DejaVuSans-70" transform="translate(793.310547 0.826562)"/>
      <use xlink:href="#DejaVuSans-2b" transform="translate(871.381836 39.107812) scale(0.7)"/>
      <use xlink:href="#DejaVuSans-29" transform="translate(946.40625 0.826562)"/>
     </g>
    </g>
   </g>
  </g>
 </g>
 <defs>
  <clipPath id="pb243f93188">
   <rect x="56.81" y="30.12" width="388.6" height="207.64"/>
  </clipPath>
 </defs>
</svg>
