<!-- ============================================================
  Book:    Quantum Mechanics — Approximation Methods and Real Systems
  Chapter: 04-the-wkb-approximation-and-tunneling
  Figure:  01 — WKB Wave Function in Classically Allowed and Forbidden Regions
  Type:    diagram
  Priority: Critical
  Author:  Humanitarians AI Incorporated
  Date:    2026-06-06
  Source:  pantry/04-the-wkb-approximation-and-tunneling-cajal.md
  ============================================================ -->
<svg viewBox="0 0 700 420" xmlns="http://www.w3.org/2000/svg"
     role="img" aria-labelledby="fig-title-04-01">
  <title id="fig-title-04-01">WKB wave function: oscillatory with amplitude ∝ 1/√p(x) in the classically allowed region, exponentially decaying in the forbidden regions</title>
  <desc>Horizontal diagram with potential V(x) curve, energy line E, and turning points a and b. The WKB wave function oscillates between a and b with larger amplitude near the turning points where p is small. It decays exponentially outside.</desc>
  <metadata>
    <cajal:figure xmlns:cajal="https://bearbrown.ai/cajal/1.0"
      book="Quantum Mechanics"
      book-slug="quantum-mechanics-vol3"
      chapter="04-the-wkb-approximation-and-tunneling"
      figure-number="01"
      figure-title="WKB Wave Function: Allowed and Forbidden Regions"
      figure-slug="wkb-wave-allowed-forbidden"
      figure-type="diagram"
      priority="Critical"
      author="Humanitarians AI Incorporated"
      date-generated="2026-06-06"
      source-file="pantry/04-the-wkb-approximation-and-tunneling-cajal.md"/>
  </metadata>

  <defs>
    <clipPath id="clip-main">
      <rect x="80" y="40" width="540" height="340"/>
    </clipPath>
    <marker id="arr-04-01" markerWidth="8" markerHeight="6" refX="7" refY="3" orient="auto">
      <polygon points="0 0,8 3,0 6" fill="#2a1a0e"/>
    </marker>
  </defs>

  <rect width="700" height="420" fill="#FFFFFF"/>

  <!-- Title -->
  <text x="350" y="26" text-anchor="middle"
        font-family="'EB Garamond','Garamond',Georgia,serif"
        font-size="14" fill="#2a1a0e">
    WKB Approximation: Wave Function in All Three Regions
  </text>

  <!-- Zone shading (forbidden left, allowed center, forbidden right) -->
  <!-- Turning points a~x=241, b~x=459 in SVG coords -->
  <!-- Forbidden left: x 80..241 -->
  <rect x="80" y="40" width="161" height="340" fill="#D4D4D4" fill-opacity="0.25" clip-path="url(#clip-main)"/>
  <!-- Allowed center: x 241..459 -->
  <rect x="241" y="40" width="218" height="340" fill="#2a1a0e" fill-opacity="0.06" clip-path="url(#clip-main)"/>
  <!-- Forbidden right: x 459..620 -->
  <rect x="459" y="40" width="161" height="340" fill="#D4D4D4" fill-opacity="0.25" clip-path="url(#clip-main)"/>

  <!-- Zone labels -->
  <text x="160" y="58" text-anchor="middle"
        font-family="'Inter',-apple-system,'Helvetica Neue',sans-serif"
        font-size="10" fill="#787878">Forbidden</text>
  <text x="350" y="58" text-anchor="middle"
        font-family="'Inter',-apple-system,'Helvetica Neue',sans-serif"
        font-size="10" fill="#545454">Classically allowed</text>
  <text x="540" y="58" text-anchor="middle"
        font-family="'Inter',-apple-system,'Helvetica Neue',sans-serif"
        font-size="10" fill="#787878">Forbidden</text>

  <!-- V(x) potential curve (clipped) -->
  <!-- Polynomial parabola V(x)=0.35*(x-3.5)^2 - 0.3, x in [0,7], mapped to svg x in [80,620] -->
  <!-- V at y_svg: key visible points above E line -->
  <!-- We draw a smooth parabolic arc from the visible portion -->
  <polyline clip-path="url(#clip-main)"
    points="80,40 103,40 118,40 134,65 149,95 157,108 165,130 180,155 195,175 211,193 219,200 227,206 241,207 257,203 273,190 289,170 311,148 327,135 350,130 373,135 389,148 411,170 427,190 443,203 459,207 473,200 481,193 497,175 512,155 527,130 535,108 543,95 558,65 573,40 589,40 606,40 620,40"
    fill="none" stroke="#2a1a0e" stroke-width="2" stroke-linejoin="round"/>
  <!-- V label -->
  <text x="88" y="75"
        font-family="'JetBrains Mono','Fira Code','Courier New',monospace"
        font-size="11" fill="#2a1a0e">V(x)</text>

  <!-- Energy line E = constant at y_svg ~ 207 -->
  <line x1="80" y1="207" x2="620" y2="207"
        stroke="#C8860E" stroke-width="1.5" stroke-dasharray="6 3"/>
  <text x="628" y="211"
        font-family="'JetBrains Mono','Fira Code','Courier New',monospace"
        font-size="11" fill="#C8860E">E</text>

  <!-- Turning point lines -->
  <line x1="241" y1="40" x2="241" y2="380"
        stroke="#ADADAD" stroke-width="1" stroke-dasharray="3 3"/>
  <line x1="459" y1="40" x2="459" y2="380"
        stroke="#ADADAD" stroke-width="1" stroke-dasharray="3 3"/>
  <text x="241" y="380" text-anchor="middle"
        font-family="'JetBrains Mono','Fira Code','Courier New',monospace"
        font-size="11" fill="#545454">a</text>
  <text x="459" y="380" text-anchor="middle"
        font-family="'JetBrains Mono','Fira Code','Courier New',monospace"
        font-size="11" fill="#545454">b</text>

  <!-- WKB oscillating wave in allowed region -->
  <!-- Computed points (offset: wavefunction oscillates around E_svg=207) -->
  <polyline clip-path="url(#clip-main)"
    points="241,207 253,144 264,169 276,203 288,238 299,253 311,235 322,194 334,165 345,173 357,213 368,247 380,245 391,210 403,172 415,158 426,173 438,204 449,237 459,207"
    fill="none" stroke="#2a1a0e" stroke-width="1.5" stroke-linejoin="round"/>

  <!-- Left decay tail -->
  <polyline clip-path="url(#clip-main)"
    points="80,207 102,207 125,207 148,204 172,203 195,201 218,195 241,207"
    fill="none" stroke="#C8102E" stroke-width="1.5" stroke-linejoin="round" stroke-dasharray="3 2"/>

  <!-- Right decay tail -->
  <polyline clip-path="url(#clip-main)"
    points="459,207 482,201 505,203 529,204 552,206 575,207 598,207 620,207"
    fill="none" stroke="#C8102E" stroke-width="1.5" stroke-linejoin="round" stroke-dasharray="3 2"/>

  <!-- Amplitude envelope bracket -->
  <line x1="285" y1="145" x2="285" y2="257"
        stroke="#C8860E" stroke-width="1"/>
  <line x1="280" y1="145" x2="290" y2="145" stroke="#C8860E" stroke-width="1"/>
  <line x1="280" y1="257" x2="290" y2="257" stroke="#C8860E" stroke-width="1"/>
  <text x="255" y="190" text-anchor="middle"
        font-family="'Inter',-apple-system,'Helvetica Neue',sans-serif"
        font-size="8" fill="#C8860E">1/√p</text>
  <text x="255" y="202" text-anchor="middle"
        font-family="'Inter',-apple-system,'Helvetica Neue',sans-serif"
        font-size="8" fill="#C8860E">envelope</text>

  <!-- X axis -->
  <line x1="80" y1="380" x2="625" y2="380"
        stroke="#2a1a0e" stroke-width="1" marker-end="url(#arr-04-01)"/>
  <text x="630" y="383"
        font-family="'JetBrains Mono','Fira Code','Courier New',monospace"
        font-size="11" fill="#2a1a0e">x</text>

  <!-- p(x) annotation in allowed region -->
  <text x="350" y="260" text-anchor="middle"
        font-family="'Inter',-apple-system,'Helvetica Neue',sans-serif"
        font-size="9" fill="#545454">p(x) = √(2m(E−V)) large → short λ_dB</text>
  <text x="350" y="272" text-anchor="middle"
        font-family="'Inter',-apple-system,'Helvetica Neue',sans-serif"
        font-size="9" fill="#545454">p(x) → 0 near turning points → long λ_dB, large amplitude</text>

  <!-- decay annotation -->
  <text x="540" y="295" text-anchor="middle"
        font-family="'Inter',-apple-system,'Helvetica Neue',sans-serif"
        font-size="9" fill="#C8102E">κ(x) = √(2m(V−E))</text>
  <text x="540" y="307" text-anchor="middle"
        font-family="'Inter',-apple-system,'Helvetica Neue',sans-serif"
        font-size="9" fill="#C8102E">ψ ∝ e^(−∫κ dx)</text>

  <!-- Caption -->
  <text x="350" y="407" text-anchor="middle"
        font-family="'Inter',-apple-system,'Helvetica Neue',sans-serif"
        font-size="11" fill="#545454">
    WKB breaks down near turning points a and b where p(x) → 0 (Airy function needed)
  </text>
</svg>
