<?xml version="1.0" encoding="utf-8" standalone="no"?>
<!DOCTYPE svg PUBLIC "-//W3C//DTD SVG 1.1//EN"
  "http://www.w3.org/Graphics/SVG/1.1/DTD/svg11.dtd">
<svg xmlns:xlink="http://www.w3.org/1999/xlink" width="460.8pt" height="288pt" viewBox="0 0 460.8 288" xmlns="http://www.w3.org/2000/svg" version="1.1">
 <metadata>
  <rdf:RDF xmlns:dc="http://purl.org/dc/elements/1.1/" xmlns:cc="http://creativecommons.org/ns#" xmlns:rdf="http://www.w3.org/1999/02/22-rdf-syntax-ns#">
   <cc:Work>
    <dc:type rdf:resource="http://purl.org/dc/dcmitype/StillImage"/>
    <dc:date>2026-06-04T06:16:04.199678</dc:date>
    <dc:format>image/svg+xml</dc:format>
    <dc:creator>
     <cc:Agent>
      <dc:title>Matplotlib v3.10.8, https://matplotlib.org/</dc:title>
     </cc:Agent>
    </dc:creator>
   </cc:Work>
  </rdf:RDF>
 </metadata>
 <defs>
  <style type="text/css">*{stroke-linejoin: round; stroke-linecap: butt}</style>
 </defs>
 <g id="figure_1">
  <g id="patch_1">
   <path d="M 0 288 
L 460.8 288 
L 460.8 0 
L 0 0 
z
" style="fill: #ffffff"/>
  </g>
  <g id="axes_1">
   <g id="patch_2">
    <path d="M 55.244 240.64 
L 441.99 240.64 
L 441.99 30.912 
L 55.244 30.912 
z
" style="fill: #ffffff"/>
   </g>
   <g id="matplotlib.axis_1">
    <g id="xtick_1">
     <g id="line2d_1">
      <defs>
       <path id="m28e175b1de" d="M 0 0 
L 0 3.5 
" style="stroke: #000000; stroke-width: 0.8"/>
      </defs>
      <g>
       <use xlink:href="#m28e175b1de" x="55.244" y="240.64" style="stroke: #000000; stroke-width: 0.8"/>
      </g>
     </g>
     <g id="text_1">
      <!-- −20 -->
      <g transform="translate(43.636422 255.998281) scale(0.11 -0.11)">
       <defs>
        <path id="DejaVuSans-2212" d="M 678 2272 
L 4684 2272 
L 4684 1741 
L 678 1741 
L 678 2272 
z
" transform="scale(0.015625)"/>
        <path id="DejaVuSans-32" d="M 1228 531 
L 3431 531 
L 3431 0 
L 469 0 
L 469 531 
Q 828 903 1448 1529 
Q 2069 2156 2228 2338 
Q 2531 2678 2651 2914 
Q 2772 3150 2772 3378 
Q 2772 3750 2511 3984 
Q 2250 4219 1831 4219 
Q 1534 4219 1204 4116 
Q 875 4013 500 3803 
L 500 4441 
Q 881 4594 1212 4672 
Q 1544 4750 1819 4750 
Q 2544 4750 2975 4387 
Q 3406 4025 3406 3419 
Q 3406 3131 3298 2873 
Q 3191 2616 2906 2266 
Q 2828 2175 2409 1742 
Q 1991 1309 1228 531 
z
" transform="scale(0.015625)"/>
        <path id="DejaVuSans-30" d="M 2034 4250 
Q 1547 4250 1301 3770 
Q 1056 3291 1056 2328 
Q 1056 1369 1301 889 
Q 1547 409 2034 409 
Q 2525 409 2770 889 
Q 3016 1369 3016 2328 
Q 3016 3291 2770 3770 
Q 2525 4250 2034 4250 
z
M 2034 4750 
Q 2819 4750 3233 4129 
Q 3647 3509 3647 2328 
Q 3647 1150 3233 529 
Q 2819 -91 2034 -91 
Q 1250 -91 836 529 
Q 422 1150 422 2328 
Q 422 3509 836 4129 
Q 1250 4750 2034 4750 
z
" transform="scale(0.015625)"/>
       </defs>
       <use xlink:href="#DejaVuSans-2212"/>
       <use xlink:href="#DejaVuSans-32" transform="translate(83.789062 0)"/>
       <use xlink:href="#DejaVuSans-30" transform="translate(147.412109 0)"/>
      </g>
     </g>
    </g>
    <g id="xtick_2">
     <g id="line2d_2">
      <g>
       <use xlink:href="#m28e175b1de" x="103.58725" y="240.64" style="stroke: #000000; stroke-width: 0.8"/>
      </g>
     </g>
     <g id="text_2">
      <!-- −15 -->
      <g transform="translate(91.979672 255.998281) scale(0.11 -0.11)">
       <defs>
        <path id="DejaVuSans-31" d="M 794 531 
L 1825 531 
L 1825 4091 
L 703 3866 
L 703 4441 
L 1819 4666 
L 2450 4666 
L 2450 531 
L 3481 531 
L 3481 0 
L 794 0 
L 794 531 
z
" transform="scale(0.015625)"/>
        <path id="DejaVuSans-35" d="M 691 4666 
L 3169 4666 
L 3169 4134 
L 1269 4134 
L 1269 2991 
Q 1406 3038 1543 3061 
Q 1681 3084 1819 3084 
Q 2600 3084 3056 2656 
Q 3513 2228 3513 1497 
Q 3513 744 3044 326 
Q 2575 -91 1722 -91 
Q 1428 -91 1123 -41 
Q 819 9 494 109 
L 494 744 
Q 775 591 1075 516 
Q 1375 441 1709 441 
Q 2250 441 2565 725 
Q 2881 1009 2881 1497 
Q 2881 1984 2565 2268 
Q 2250 2553 1709 2553 
Q 1456 2553 1204 2497 
Q 953 2441 691 2322 
L 691 4666 
z
" transform="scale(0.015625)"/>
       </defs>
       <use xlink:href="#DejaVuSans-2212"/>
       <use xlink:href="#DejaVuSans-31" transform="translate(83.789062 0)"/>
       <use xlink:href="#DejaVuSans-35" transform="translate(147.412109 0)"/>
      </g>
     </g>
    </g>
    <g id="xtick_3">
     <g id="line2d_3">
      <g>
       <use xlink:href="#m28e175b1de" x="151.9305" y="240.64" style="stroke: #000000; stroke-width: 0.8"/>
      </g>
     </g>
     <g id="text_3">
      <!-- −10 -->
      <g transform="translate(140.322922 255.998281) scale(0.11 -0.11)">
       <use xlink:href="#DejaVuSans-2212"/>
       <use xlink:href="#DejaVuSans-31" transform="translate(83.789062 0)"/>
       <use xlink:href="#DejaVuSans-30" transform="translate(147.412109 0)"/>
      </g>
     </g>
    </g>
    <g id="xtick_4">
     <g id="line2d_4">
      <g>
       <use xlink:href="#m28e175b1de" x="200.27375" y="240.64" style="stroke: #000000; stroke-width: 0.8"/>
      </g>
     </g>
     <g id="text_4">
      <!-- −5 -->
      <g transform="translate(192.165547 255.998281) scale(0.11 -0.11)">
       <use xlink:href="#DejaVuSans-2212"/>
       <use xlink:href="#DejaVuSans-35" transform="translate(83.789062 0)"/>
      </g>
     </g>
    </g>
    <g id="xtick_5">
     <g id="line2d_5">
      <g>
       <use xlink:href="#m28e175b1de" x="248.617" y="240.64" style="stroke: #000000; stroke-width: 0.8"/>
      </g>
     </g>
     <g id="text_5">
      <!-- 0 -->
      <g transform="translate(245.117625 255.998281) scale(0.11 -0.11)">
       <use xlink:href="#DejaVuSans-30"/>
      </g>
     </g>
    </g>
    <g id="xtick_6">
     <g id="line2d_6">
      <g>
       <use xlink:href="#m28e175b1de" x="296.96025" y="240.64" style="stroke: #000000; stroke-width: 0.8"/>
      </g>
     </g>
     <g id="text_6">
      <!-- 5 -->
      <g transform="translate(293.460875 255.998281) scale(0.11 -0.11)">
       <use xlink:href="#DejaVuSans-35"/>
      </g>
     </g>
    </g>
    <g id="xtick_7">
     <g id="line2d_7">
      <g>
       <use xlink:href="#m28e175b1de" x="345.3035" y="240.64" style="stroke: #000000; stroke-width: 0.8"/>
      </g>
     </g>
     <g id="text_7">
      <!-- 10 -->
      <g transform="translate(338.30475 255.998281) scale(0.11 -0.11)">
       <use xlink:href="#DejaVuSans-31"/>
       <use xlink:href="#DejaVuSans-30" transform="translate(63.623047 0)"/>
      </g>
     </g>
    </g>
    <g id="xtick_8">
     <g id="line2d_8">
      <g>
       <use xlink:href="#m28e175b1de" x="393.64675" y="240.64" style="stroke: #000000; stroke-width: 0.8"/>
      </g>
     </g>
     <g id="text_8">
      <!-- 15 -->
      <g transform="translate(386.648 255.998281) scale(0.11 -0.11)">
       <use xlink:href="#DejaVuSans-31"/>
       <use xlink:href="#DejaVuSans-35" transform="translate(63.623047 0)"/>
      </g>
     </g>
    </g>
    <g id="xtick_9">
     <g id="line2d_9">
      <g>
       <use xlink:href="#m28e175b1de" x="441.99" y="240.64" style="stroke: #000000; stroke-width: 0.8"/>
      </g>
     </g>
     <g id="text_9">
      <!-- 20 -->
      <g transform="translate(434.99125 255.998281) scale(0.11 -0.11)">
       <use xlink:href="#DejaVuSans-32"/>
       <use xlink:href="#DejaVuSans-30" transform="translate(63.623047 0)"/>
      </g>
     </g>
    </g>
    <g id="text_10">
     <!-- detuning  $\delta=\omega_{fi}-\omega$  (rad/unit time) -->
     <g transform="translate(148.352 270.645938) scale(0.11 -0.11)">
      <defs>
       <path id="DejaVuSans-64" d="M 2906 2969 
L 2906 4863 
L 3481 4863 
L 3481 0 
L 2906 0 
L 2906 525 
Q 2725 213 2448 61 
Q 2172 -91 1784 -91 
Q 1150 -91 751 415 
Q 353 922 353 1747 
Q 353 2572 751 3078 
Q 1150 3584 1784 3584 
Q 2172 3584 2448 3432 
Q 2725 3281 2906 2969 
z
M 947 1747 
Q 947 1113 1208 752 
Q 1469 391 1925 391 
Q 2381 391 2643 752 
Q 2906 1113 2906 1747 
Q 2906 2381 2643 2742 
Q 2381 3103 1925 3103 
Q 1469 3103 1208 2742 
Q 947 2381 947 1747 
z
" transform="scale(0.015625)"/>
       <path id="DejaVuSans-65" d="M 3597 1894 
L 3597 1613 
L 953 1613 
Q 991 1019 1311 708 
Q 1631 397 2203 397 
Q 2534 397 2845 478 
Q 3156 559 3463 722 
L 3463 178 
Q 3153 47 2828 -22 
Q 2503 -91 2169 -91 
Q 1331 -91 842 396 
Q 353 884 353 1716 
Q 353 2575 817 3079 
Q 1281 3584 2069 3584 
Q 2775 3584 3186 3129 
Q 3597 2675 3597 1894 
z
M 3022 2063 
Q 3016 2534 2758 2815 
Q 2500 3097 2075 3097 
Q 1594 3097 1305 2825 
Q 1016 2553 972 2059 
L 3022 2063 
z
" transform="scale(0.015625)"/>
       <path id="DejaVuSans-74" d="M 1172 4494 
L 1172 3500 
L 2356 3500 
L 2356 3053 
L 1172 3053 
L 1172 1153 
Q 1172 725 1289 603 
Q 1406 481 1766 481 
L 2356 481 
L 2356 0 
L 1766 0 
Q 1100 0 847 248 
Q 594 497 594 1153 
L 594 3053 
L 172 3053 
L 172 3500 
L 594 3500 
L 594 4494 
L 1172 4494 
z
" transform="scale(0.015625)"/>
       <path id="DejaVuSans-75" d="M 544 1381 
L 544 3500 
L 1119 3500 
L 1119 1403 
Q 1119 906 1312 657 
Q 1506 409 1894 409 
Q 2359 409 2629 706 
Q 2900 1003 2900 1516 
L 2900 3500 
L 3475 3500 
L 3475 0 
L 2900 0 
L 2900 538 
Q 2691 219 2414 64 
Q 2138 -91 1772 -91 
Q 1169 -91 856 284 
Q 544 659 544 1381 
z
M 1991 3584 
L 1991 3584 
z
" transform="scale(0.015625)"/>
       <path id="DejaVuSans-6e" d="M 3513 2113 
L 3513 0 
L 2938 0 
L 2938 2094 
Q 2938 2591 2744 2837 
Q 2550 3084 2163 3084 
Q 1697 3084 1428 2787 
Q 1159 2491 1159 1978 
L 1159 0 
L 581 0 
L 581 3500 
L 1159 3500 
L 1159 2956 
Q 1366 3272 1645 3428 
Q 1925 3584 2291 3584 
Q 2894 3584 3203 3211 
Q 3513 2838 3513 2113 
z
" transform="scale(0.015625)"/>
       <path id="DejaVuSans-69" d="M 603 3500 
L 1178 3500 
L 1178 0 
L 603 0 
L 603 3500 
z
M 603 4863 
L 1178 4863 
L 1178 4134 
L 603 4134 
L 603 4863 
z
" transform="scale(0.015625)"/>
       <path id="DejaVuSans-67" d="M 2906 1791 
Q 2906 2416 2648 2759 
Q 2391 3103 1925 3103 
Q 1463 3103 1205 2759 
Q 947 2416 947 1791 
Q 947 1169 1205 825 
Q 1463 481 1925 481 
Q 2391 481 2648 825 
Q 2906 1169 2906 1791 
z
M 3481 434 
Q 3481 -459 3084 -895 
Q 2688 -1331 1869 -1331 
Q 1566 -1331 1297 -1286 
Q 1028 -1241 775 -1147 
L 775 -588 
Q 1028 -725 1275 -790 
Q 1522 -856 1778 -856 
Q 2344 -856 2625 -561 
Q 2906 -266 2906 331 
L 2906 616 
Q 2728 306 2450 153 
Q 2172 0 1784 0 
Q 1141 0 747 490 
Q 353 981 353 1791 
Q 353 2603 747 3093 
Q 1141 3584 1784 3584 
Q 2172 3584 2450 3431 
Q 2728 3278 2906 2969 
L 2906 3500 
L 3481 3500 
L 3481 434 
z
" transform="scale(0.015625)"/>
       <path id="DejaVuSans-20" transform="scale(0.015625)"/>
       <path id="DejaVuSans-Oblique-3b4" d="M 3472 4053 
Q 3197 4272 2450 4272 
Q 1659 4272 1588 3906 
Q 1531 3619 2328 3469 
Q 2953 3353 3253 3003 
Q 3616 2581 3447 1716 
Q 3284 888 2763 400 
Q 2238 -91 1488 -91 
Q 741 -91 406 400 
Q 72 888 241 1747 
Q 363 2384 891 2900 
Q 1097 3100 1353 3213 
Q 913 3459 1000 3900 
Q 1166 4750 2544 4750 
Q 3234 4750 3566 4531 
L 3472 4053 
z
M 1753 3056 
Q 1525 2966 1306 2738 
Q 969 2384 847 1747 
Q 722 1113 919 756 
Q 1119 397 1584 397 
Q 2044 397 2381 759 
Q 2722 1122 2838 1716 
Q 2956 2338 2731 2638 
Q 2491 2959 2103 2994 
Q 1906 3013 1753 3056 
z
" transform="scale(0.015625)"/>
       <path id="DejaVuSans-3d" d="M 678 2906 
L 4684 2906 
L 4684 2381 
L 678 2381 
L 678 2906 
z
M 678 1631 
L 4684 1631 
L 4684 1100 
L 678 1100 
L 678 1631 
z
" transform="scale(0.015625)"/>
       <path id="DejaVuSans-Oblique-3c9" d="M 1369 -91 
Q 72 -91 434 1766 
Q 575 2500 1256 3500 
L 1875 3500 
Q 1231 2500 1088 1750 
Q 819 397 1519 397 
Q 2166 397 2478 2078 
L 3009 2078 
Q 2669 388 3316 397 
Q 4013 403 4275 1750 
Q 4419 2500 4169 3500 
L 4788 3500 
Q 5075 2500 4934 1766 
Q 4578 -94 3278 -91 
Q 2428 -88 2503 844 
Q 2194 -91 1369 -91 
z
" transform="scale(0.015625)"/>
       <path id="DejaVuSans-Oblique-66" d="M 3059 4863 
L 2969 4384 
L 2419 4384 
Q 2106 4384 1964 4261 
Q 1822 4138 1753 3809 
L 1691 3500 
L 2638 3500 
L 2553 3053 
L 1606 3053 
L 1013 0 
L 434 0 
L 1031 3053 
L 481 3053 
L 563 3500 
L 1113 3500 
L 1159 3744 
Q 1278 4363 1576 4613 
Q 1875 4863 2516 4863 
L 3059 4863 
z
" transform="scale(0.015625)"/>
       <path id="DejaVuSans-Oblique-69" d="M 1172 4863 
L 1747 4863 
L 1606 4134 
L 1031 4134 
L 1172 4863 
z
M 909 3500 
L 1484 3500 
L 800 0 
L 225 0 
L 909 3500 
z
" transform="scale(0.015625)"/>
       <path id="DejaVuSans-28" d="M 1984 4856 
Q 1566 4138 1362 3434 
Q 1159 2731 1159 2009 
Q 1159 1288 1364 580 
Q 1569 -128 1984 -844 
L 1484 -844 
Q 1016 -109 783 600 
Q 550 1309 550 2009 
Q 550 2706 781 3412 
Q 1013 4119 1484 4856 
L 1984 4856 
z
" transform="scale(0.015625)"/>
       <path id="DejaVuSans-72" d="M 2631 2963 
Q 2534 3019 2420 3045 
Q 2306 3072 2169 3072 
Q 1681 3072 1420 2755 
Q 1159 2438 1159 1844 
L 1159 0 
L 581 0 
L 581 3500 
L 1159 3500 
L 1159 2956 
Q 1341 3275 1631 3429 
Q 1922 3584 2338 3584 
Q 2397 3584 2469 3576 
Q 2541 3569 2628 3553 
L 2631 2963 
z
" transform="scale(0.015625)"/>
       <path id="DejaVuSans-61" d="M 2194 1759 
Q 1497 1759 1228 1600 
Q 959 1441 959 1056 
Q 959 750 1161 570 
Q 1363 391 1709 391 
Q 2188 391 2477 730 
Q 2766 1069 2766 1631 
L 2766 1759 
L 2194 1759 
z
M 3341 1997 
L 3341 0 
L 2766 0 
L 2766 531 
Q 2569 213 2275 61 
Q 1981 -91 1556 -91 
Q 1019 -91 701 211 
Q 384 513 384 1019 
Q 384 1609 779 1909 
Q 1175 2209 1959 2209 
L 2766 2209 
L 2766 2266 
Q 2766 2663 2505 2880 
Q 2244 3097 1772 3097 
Q 1472 3097 1187 3025 
Q 903 2953 641 2809 
L 641 3341 
Q 956 3463 1253 3523 
Q 1550 3584 1831 3584 
Q 2591 3584 2966 3190 
Q 3341 2797 3341 1997 
z
" transform="scale(0.015625)"/>
       <path id="DejaVuSans-2f" d="M 1625 4666 
L 2156 4666 
L 531 -594 
L 0 -594 
L 1625 4666 
z
" transform="scale(0.015625)"/>
       <path id="DejaVuSans-6d" d="M 3328 2828 
Q 3544 3216 3844 3400 
Q 4144 3584 4550 3584 
Q 5097 3584 5394 3201 
Q 5691 2819 5691 2113 
L 5691 0 
L 5113 0 
L 5113 2094 
Q 5113 2597 4934 2840 
Q 4756 3084 4391 3084 
Q 3944 3084 3684 2787 
Q 3425 2491 3425 1978 
L 3425 0 
L 2847 0 
L 2847 2094 
Q 2847 2600 2669 2842 
Q 2491 3084 2119 3084 
Q 1678 3084 1418 2786 
Q 1159 2488 1159 1978 
L 1159 0 
L 581 0 
L 581 3500 
L 1159 3500 
L 1159 2956 
Q 1356 3278 1631 3431 
Q 1906 3584 2284 3584 
Q 2666 3584 2933 3390 
Q 3200 3197 3328 2828 
z
" transform="scale(0.015625)"/>
       <path id="DejaVuSans-29" d="M 513 4856 
L 1013 4856 
Q 1481 4119 1714 3412 
Q 1947 2706 1947 2009 
Q 1947 1309 1714 600 
Q 1481 -109 1013 -844 
L 513 -844 
Q 928 -128 1133 580 
Q 1338 1288 1338 2009 
Q 1338 2731 1133 3434 
Q 928 4138 513 4856 
z
" transform="scale(0.015625)"/>
      </defs>
      <use xlink:href="#DejaVuSans-64" transform="translate(0 0.015625)"/>
      <use xlink:href="#DejaVuSans-65" transform="translate(63.476562 0.015625)"/>
      <use xlink:href="#DejaVuSans-74" transform="translate(125 0.015625)"/>
      <use xlink:href="#DejaVuSans-75" transform="translate(164.208984 0.015625)"/>
      <use xlink:href="#DejaVuSans-6e" transform="translate(227.587891 0.015625)"/>
      <use xlink:href="#DejaVuSans-69" transform="translate(290.966797 0.015625)"/>
      <use xlink:href="#DejaVuSans-6e" transform="translate(318.75 0.015625)"/>
      <use xlink:href="#DejaVuSans-67" transform="translate(382.128906 0.015625)"/>
      <use xlink:href="#DejaVuSans-20" transform="translate(445.605469 0.015625)"/>
      <use xlink:href="#DejaVuSans-20" transform="translate(477.392578 0.015625)"/>
      <use xlink:href="#DejaVuSans-Oblique-3b4" transform="translate(509.179688 0.015625)"/>
      <use xlink:href="#DejaVuSans-3d" transform="translate(589.84375 0.015625)"/>
      <use xlink:href="#DejaVuSans-Oblique-3c9" transform="translate(693.115234 0.015625)"/>
      <use xlink:href="#DejaVuSans-Oblique-66" transform="translate(776.855469 -16.390625) scale(0.7)"/>
      <use xlink:href="#DejaVuSans-Oblique-69" transform="translate(801.499023 -16.390625) scale(0.7)"/>
      <use xlink:href="#DejaVuSans-2212" transform="translate(843.164062 0.015625)"/>
      <use xlink:href="#DejaVuSans-Oblique-3c9" transform="translate(946.435547 0.015625)"/>
      <use xlink:href="#DejaVuSans-20" transform="translate(1030.175781 0.015625)"/>
      <use xlink:href="#DejaVuSans-20" transform="translate(1061.962891 0.015625)"/>
      <use xlink:href="#DejaVuSans-28" transform="translate(1093.75 0.015625)"/>
      <use xlink:href="#DejaVuSans-72" transform="translate(1132.763672 0.015625)"/>
      <use xlink:href="#DejaVuSans-61" transform="translate(1173.876953 0.015625)"/>
      <use xlink:href="#DejaVuSans-64" transform="translate(1235.15625 0.015625)"/>
      <use xlink:href="#DejaVuSans-2f" transform="translate(1298.632812 0.015625)"/>
      <use xlink:href="#DejaVuSans-75" transform="translate(1332.324219 0.015625)"/>
      <use xlink:href="#DejaVuSans-6e" transform="translate(1395.703125 0.015625)"/>
      <use xlink:href="#DejaVuSans-69" transform="translate(1459.082031 0.015625)"/>
      <use xlink:href="#DejaVuSans-74" transform="translate(1486.865234 0.015625)"/>
      <use xlink:href="#DejaVuSans-20" transform="translate(1526.074219 0.015625)"/>
      <use xlink:href="#DejaVuSans-74" transform="translate(1557.861328 0.015625)"/>
      <use xlink:href="#DejaVuSans-69" transform="translate(1597.070312 0.015625)"/>
      <use xlink:href="#DejaVuSans-6d" transform="translate(1624.853516 0.015625)"/>
      <use xlink:href="#DejaVuSans-65" transform="translate(1722.265625 0.015625)"/>
      <use xlink:href="#DejaVuSans-29" transform="translate(1783.789062 0.015625)"/>
     </g>
    </g>
   </g>
   <g id="matplotlib.axis_2">
    <g id="ytick_1">
     <g id="line2d_10">
      <defs>
       <path id="m389711baac" d="M 0 0 
L -3.5 0 
" style="stroke: #000000; stroke-width: 0.8"/>
      </defs>
      <g>
       <use xlink:href="#m389711baac" x="55.244" y="240.64" style="stroke: #000000; stroke-width: 0.8"/>
      </g>
     </g>
     <g id="text_11">
      <!-- 0.0 -->
      <g transform="translate(30.750563 244.819141) scale(0.11 -0.11)">
       <defs>
        <path id="DejaVuSans-2e" d="M 684 794 
L 1344 794 
L 1344 0 
L 684 0 
L 684 794 
z
" transform="scale(0.015625)"/>
       </defs>
       <use xlink:href="#DejaVuSans-30"/>
       <use xlink:href="#DejaVuSans-2e" transform="translate(63.623047 0)"/>
       <use xlink:href="#DejaVuSans-30" transform="translate(95.410156 0)"/>
      </g>
     </g>
    </g>
    <g id="ytick_2">
     <g id="line2d_11">
      <g>
       <use xlink:href="#m389711baac" x="55.244" y="215.671079" style="stroke: #000000; stroke-width: 0.8"/>
      </g>
     </g>
     <g id="text_12">
      <!-- 0.5 -->
      <g transform="translate(30.750563 219.85022) scale(0.11 -0.11)">
       <use xlink:href="#DejaVuSans-30"/>
       <use xlink:href="#DejaVuSans-2e" transform="translate(63.623047 0)"/>
       <use xlink:href="#DejaVuSans-35" transform="translate(95.410156 0)"/>
      </g>
     </g>
    </g>
    <g id="ytick_3">
     <g id="line2d_12">
      <g>
       <use xlink:href="#m389711baac" x="55.244" y="190.702158" style="stroke: #000000; stroke-width: 0.8"/>
      </g>
     </g>
     <g id="text_13">
      <!-- 1.0 -->
      <g transform="translate(30.750563 194.881298) scale(0.11 -0.11)">
       <use xlink:href="#DejaVuSans-31"/>
       <use xlink:href="#DejaVuSans-2e" transform="translate(63.623047 0)"/>
       <use xlink:href="#DejaVuSans-30" transform="translate(95.410156 0)"/>
      </g>
     </g>
    </g>
    <g id="ytick_4">
     <g id="line2d_13">
      <g>
       <use xlink:href="#m389711baac" x="55.244" y="165.733237" style="stroke: #000000; stroke-width: 0.8"/>
      </g>
     </g>
     <g id="text_14">
      <!-- 1.5 -->
      <g transform="translate(30.750563 169.912377) scale(0.11 -0.11)">
       <use xlink:href="#DejaVuSans-31"/>
       <use xlink:href="#DejaVuSans-2e" transform="translate(63.623047 0)"/>
       <use xlink:href="#DejaVuSans-35" transform="translate(95.410156 0)"/>
      </g>
     </g>
    </g>
    <g id="ytick_5">
     <g id="line2d_14">
      <g>
       <use xlink:href="#m389711baac" x="55.244" y="140.764316" style="stroke: #000000; stroke-width: 0.8"/>
      </g>
     </g>
     <g id="text_15">
      <!-- 2.0 -->
      <g transform="translate(30.750563 144.943456) scale(0.11 -0.11)">
       <use xlink:href="#DejaVuSans-32"/>
       <use xlink:href="#DejaVuSans-2e" transform="translate(63.623047 0)"/>
       <use xlink:href="#DejaVuSans-30" transform="translate(95.410156 0)"/>
      </g>
     </g>
    </g>
    <g id="ytick_6">
     <g id="line2d_15">
      <g>
       <use xlink:href="#m389711baac" x="55.244" y="115.795394" style="stroke: #000000; stroke-width: 0.8"/>
      </g>
     </g>
     <g id="text_16">
      <!-- 2.5 -->
      <g transform="translate(30.750563 119.974535) scale(0.11 -0.11)">
       <use xlink:href="#DejaVuSans-32"/>
       <use xlink:href="#DejaVuSans-2e" transform="translate(63.623047 0)"/>
       <use xlink:href="#DejaVuSans-35" transform="translate(95.410156 0)"/>
      </g>
     </g>
    </g>
    <g id="ytick_7">
     <g id="line2d_16">
      <g>
       <use xlink:href="#m389711baac" x="55.244" y="90.826473" style="stroke: #000000; stroke-width: 0.8"/>
      </g>
     </g>
     <g id="text_17">
      <!-- 3.0 -->
      <g transform="translate(30.750563 95.005614) scale(0.11 -0.11)">
       <defs>
        <path id="DejaVuSans-33" d="M 2597 2516 
Q 3050 2419 3304 2112 
Q 3559 1806 3559 1356 
Q 3559 666 3084 287 
Q 2609 -91 1734 -91 
Q 1441 -91 1130 -33 
Q 819 25 488 141 
L 488 750 
Q 750 597 1062 519 
Q 1375 441 1716 441 
Q 2309 441 2620 675 
Q 2931 909 2931 1356 
Q 2931 1769 2642 2001 
Q 2353 2234 1838 2234 
L 1294 2234 
L 1294 2753 
L 1863 2753 
Q 2328 2753 2575 2939 
Q 2822 3125 2822 3475 
Q 2822 3834 2567 4026 
Q 2313 4219 1838 4219 
Q 1578 4219 1281 4162 
Q 984 4106 628 3988 
L 628 4550 
Q 988 4650 1302 4700 
Q 1616 4750 1894 4750 
Q 2613 4750 3031 4423 
Q 3450 4097 3450 3541 
Q 3450 3153 3228 2886 
Q 3006 2619 2597 2516 
z
" transform="scale(0.015625)"/>
       </defs>
       <use xlink:href="#DejaVuSans-33"/>
       <use xlink:href="#DejaVuSans-2e" transform="translate(63.623047 0)"/>
       <use xlink:href="#DejaVuSans-30" transform="translate(95.410156 0)"/>
      </g>
     </g>
    </g>
    <g id="ytick_8">
     <g id="line2d_17">
      <g>
       <use xlink:href="#m389711baac" x="55.244" y="65.857552" style="stroke: #000000; stroke-width: 0.8"/>
      </g>
     </g>
     <g id="text_18">
      <!-- 3.5 -->
      <g transform="translate(30.750563 70.036693) scale(0.11 -0.11)">
       <use xlink:href="#DejaVuSans-33"/>
       <use xlink:href="#DejaVuSans-2e" transform="translate(63.623047 0)"/>
       <use xlink:href="#DejaVuSans-35" transform="translate(95.410156 0)"/>
      </g>
     </g>
    </g>
    <g id="ytick_9">
     <g id="line2d_18">
      <g>
       <use xlink:href="#m389711baac" x="55.244" y="40.888631" style="stroke: #000000; stroke-width: 0.8"/>
      </g>
     </g>
     <g id="text_19">
      <!-- 4.0 -->
      <g transform="translate(30.750563 45.067772) scale(0.11 -0.11)">
       <defs>
        <path id="DejaVuSans-34" d="M 2419 4116 
L 825 1625 
L 2419 1625 
L 2419 4116 
z
M 2253 4666 
L 3047 4666 
L 3047 1625 
L 3713 1625 
L 3713 1100 
L 3047 1100 
L 3047 0 
L 2419 0 
L 2419 1100 
L 313 1100 
L 313 1709 
L 2253 4666 
z
" transform="scale(0.015625)"/>
       </defs>
       <use xlink:href="#DejaVuSans-34"/>
       <use xlink:href="#DejaVuSans-2e" transform="translate(63.623047 0)"/>
       <use xlink:href="#DejaVuSans-30" transform="translate(95.410156 0)"/>
      </g>
     </g>
    </g>
    <g id="text_20">
     <!-- $\sin^2(\delta T/2)\,/\,(\delta/2)^2$ -->
     <g transform="translate(24.462906 182.471) rotate(-90) scale(0.11 -0.11)">
      <defs>
       <path id="DejaVuSans-73" d="M 2834 3397 
L 2834 2853 
Q 2591 2978 2328 3040 
Q 2066 3103 1784 3103 
Q 1356 3103 1142 2972 
Q 928 2841 928 2578 
Q 928 2378 1081 2264 
Q 1234 2150 1697 2047 
L 1894 2003 
Q 2506 1872 2764 1633 
Q 3022 1394 3022 966 
Q 3022 478 2636 193 
Q 2250 -91 1575 -91 
Q 1294 -91 989 -36 
Q 684 19 347 128 
L 347 722 
Q 666 556 975 473 
Q 1284 391 1588 391 
Q 1994 391 2212 530 
Q 2431 669 2431 922 
Q 2431 1156 2273 1281 
Q 2116 1406 1581 1522 
L 1381 1569 
Q 847 1681 609 1914 
Q 372 2147 372 2553 
Q 372 3047 722 3315 
Q 1072 3584 1716 3584 
Q 2034 3584 2315 3537 
Q 2597 3491 2834 3397 
z
" transform="scale(0.015625)"/>
       <path id="DejaVuSans-Oblique-54" d="M 378 4666 
L 4325 4666 
L 4225 4134 
L 2559 4134 
L 1759 0 
L 1125 0 
L 1925 4134 
L 275 4134 
L 378 4666 
z
" transform="scale(0.015625)"/>
      </defs>
      <use xlink:href="#DejaVuSans-73" transform="translate(0 0.765625)"/>
      <use xlink:href="#DejaVuSans-69" transform="translate(52.099609 0.765625)"/>
      <use xlink:href="#DejaVuSans-6e" transform="translate(79.882812 0.765625)"/>
      <use xlink:href="#DejaVuSans-32" transform="translate(144.21875 39.046875) scale(0.7)"/>
      <use xlink:href="#DejaVuSans-28" transform="translate(207.724934 0.765625)"/>
      <use xlink:href="#DejaVuSans-Oblique-3b4" transform="translate(246.738606 0.765625)"/>
      <use xlink:href="#DejaVuSans-Oblique-54" transform="translate(307.920247 0.765625)"/>
      <use xlink:href="#DejaVuSans-2f" transform="translate(369.004231 0.765625)"/>
      <use xlink:href="#DejaVuSans-32" transform="translate(399.070637 0.765625)"/>
      <use xlink:href="#DejaVuSans-29" transform="translate(462.693684 0.765625)"/>
      <use xlink:href="#DejaVuSans-2f" transform="translate(517.943032 0.765625)"/>
      <use xlink:href="#DejaVuSans-28" transform="translate(567.870115 0.765625)"/>
      <use xlink:href="#DejaVuSans-Oblique-3b4" transform="translate(606.883787 0.765625)"/>
      <use xlink:href="#DejaVuSans-2f" transform="translate(668.065427 0.765625)"/>
      <use xlink:href="#DejaVuSans-32" transform="translate(698.131833 0.765625)"/>
      <use xlink:href="#DejaVuSans-29" transform="translate(761.75488 0.765625)"/>
      <use xlink:href="#DejaVuSans-32" transform="translate(801.725583 39.046875) scale(0.7)"/>
     </g>
    </g>
   </g>
   <g id="line2d_19">
    <path d="M 55.244 240.180804 
L 75.560863 240.05106 
L 92.491582 240.173439 
L 132.883441 240.609237 
L 142.558138 240.389143 
L 151.265365 239.966618 
L 159.488857 239.343517 
L 167.712349 238.494309 
L 176.177709 237.396761 
L 185.852405 235.912703 
L 200.36445 233.428597 
L 214.634628 231.055371 
L 223.341855 229.834747 
L 230.597877 229.033161 
L 237.370165 228.503526 
L 243.900585 228.217307 
L 250.189138 228.162415 
L 256.477691 228.326512 
L 263.008111 228.721222 
L 269.780399 229.352978 
L 277.278289 230.280119 
L 285.985516 231.588023 
L 298.804489 233.765741 
L 315.735208 236.606225 
L 325.168038 237.956431 
L 333.633397 238.946921 
L 341.856889 239.68327 
L 350.080381 240.195181 
L 358.787609 240.511714 
L 368.462305 240.637622 
L 380.797543 240.560537 
L 426.510485 240.057388 
L 441.99 240.180804 
L 441.99 240.180804 
" clip-path="url(#pe3c51b2c62)" style="fill: none; stroke: #56b4e9; stroke-width: 2.2; stroke-linecap: square"/>
   </g>
   <g id="line2d_20">
    <path d="M 55.244 240.492204 
L 66.853636 240.639642 
L 75.318996 240.516003 
L 87.654234 240.067082 
L 97.087063 239.827008 
L 104.343086 239.874503 
L 112.566578 240.168784 
L 125.143684 240.627287 
L 130.948502 240.587746 
L 136.269585 240.332602 
L 142.31627 239.812742 
L 157.31205 238.400273 
L 161.665664 238.283434 
L 165.77741 238.388602 
L 170.131023 238.72941 
L 175.452106 239.389157 
L 183.917466 240.456478 
L 187.30361 240.635784 
L 190.206019 240.560318 
L 192.624693 240.286678 
L 195.043367 239.784348 
L 197.220174 239.111265 
L 199.396981 238.209436 
L 201.573787 237.064724 
L 203.750594 235.668197 
L 205.927401 234.016755 
L 208.346075 231.88698 
L 210.764749 229.460641 
L 213.425291 226.478444 
L 216.569567 222.593949 
L 220.439446 217.423611 
L 230.839745 203.277467 
L 233.742154 199.806732 
L 236.160828 197.2381 
L 238.337635 195.23227 
L 240.272574 193.725845 
L 242.207513 192.504366 
L 243.900585 191.684577 
L 245.593657 191.107738 
L 247.286729 190.780885 
L 248.979801 190.708017 
L 250.672873 190.890027 
L 252.365945 191.324686 
L 254.059017 192.006682 
L 255.752089 192.927706 
L 257.687028 194.258539 
L 259.621967 195.865959 
L 261.798774 197.97357 
L 264.217448 200.638498 
L 267.119857 204.198888 
L 270.747869 209.033673 
L 281.87377 224.128751 
L 285.018046 227.872171 
L 287.678588 230.709603 
L 290.097262 232.990055 
L 292.515936 234.965653 
L 294.692743 236.475459 
L 296.86955 237.73132 
L 299.046356 238.739645 
L 301.223163 239.512343 
L 303.39997 240.066128 
L 305.818644 240.449994 
L 308.479186 240.629025 
L 311.381595 240.588733 
L 314.767739 240.315692 
L 320.088822 239.626712 
L 327.586712 238.680946 
L 331.940325 238.364937 
L 336.052071 238.285272 
L 340.405685 238.426236 
L 345.484901 238.82039 
L 364.350559 240.519665 
L 369.671642 240.639325 
L 375.718328 240.545691 
L 386.118627 240.10463 
L 394.825854 239.83935 
L 402.081876 239.852476 
L 410.789103 240.112994 
L 426.268618 240.607171 
L 434.733977 240.618726 
L 441.99 240.492204 
L 441.99 240.492204 
" clip-path="url(#pe3c51b2c62)" style="fill: none; stroke: #0072b2; stroke-width: 2.2; stroke-linecap: square"/>
   </g>
   <g id="line2d_21">
    <path d="M 55.244 240.223784 
L 69.030443 240.597171 
L 74.109659 240.323978 
L 80.881946 239.979505 
L 84.751825 240.017885 
L 89.831041 240.321801 
L 95.635859 240.629598 
L 99.26387 240.584337 
L 103.375616 240.284745 
L 110.873506 239.667507 
L 114.017782 239.656621 
L 117.403926 239.86749 
L 127.078623 240.63998 
L 129.981032 240.526962 
L 133.125308 240.165505 
L 141.590668 239.018676 
L 144.009342 238.986046 
L 146.669884 239.185332 
L 149.81416 239.66691 
L 155.135243 240.515523 
L 157.553917 240.639908 
L 159.730724 240.515548 
L 161.907531 240.157057 
L 164.568073 239.459608 
L 170.856625 237.660293 
L 172.791565 237.392618 
L 174.484637 237.359194 
L 176.177709 237.527286 
L 178.112648 237.949903 
L 180.531322 238.733335 
L 184.884936 240.216342 
L 186.578008 240.554268 
L 188.029212 240.63857 
L 189.480417 240.492703 
L 190.931621 240.094874 
L 192.382826 239.442883 
L 193.83403 238.55623 
L 195.768969 237.084076 
L 201.573787 232.398603 
L 203.024992 231.656617 
L 204.234329 231.300743 
L 205.201799 231.213734 
L 206.169268 231.315175 
L 207.136738 231.609625 
L 208.346075 232.243602 
L 209.555412 233.149247 
L 211.006617 234.528289 
L 213.909026 237.729686 
L 215.602098 239.394226 
L 216.569567 240.101376 
L 217.537037 240.537401 
L 218.262639 240.639908 
L 218.988241 240.513552 
L 219.713844 240.126025 
L 220.439446 239.445975 
L 221.165048 238.443497 
L 221.89065 237.090628 
L 222.85812 234.698026 
L 223.82559 231.585147 
L 224.793059 227.71072 
L 226.002396 221.754584 
L 227.211734 214.540658 
L 228.662938 204.24583 
L 230.114143 192.262195 
L 231.807215 176.398992 
L 233.984021 153.718592 
L 240.756309 81.198479 
L 242.207513 68.48752 
L 243.416851 59.421465 
L 244.626188 51.977882 
L 245.593657 47.314802 
L 246.31926 44.620869 
L 247.044862 42.642865 
L 247.770464 41.39853 
L 248.254199 40.982364 
L 248.737934 40.899048 
L 249.221669 41.148914 
L 249.705403 41.730962 
L 250.189138 42.642865 
L 250.91474 44.620869 
L 251.640343 47.314802 
L 252.607812 51.977882 
L 253.575282 57.79656 
L 254.784619 66.55453 
L 256.235824 78.95744 
L 257.928896 95.496939 
L 260.34757 121.55938 
L 264.943051 171.548798 
L 266.87799 190.112529 
L 268.571062 204.24583 
L 270.022266 214.540658 
L 271.231604 221.754584 
L 272.440941 227.71072 
L 273.650278 232.433355 
L 274.617747 235.361834 
L 275.585217 237.582148 
L 276.310819 238.815253 
L 277.036422 239.707042 
L 277.762024 240.28618 
L 278.487626 240.583109 
L 279.213228 240.629555 
L 279.938831 240.458035 
L 280.9063 239.947008 
L 282.115637 238.962722 
L 283.808709 237.1974 
L 287.194853 233.578004 
L 288.646058 232.404154 
L 289.855395 231.713211 
L 291.064732 231.315175 
L 292.032201 231.213734 
L 292.999671 231.300743 
L 294.209008 231.656617 
L 295.418345 232.254006 
L 296.86955 233.224877 
L 299.046356 235.005899 
L 302.674368 238.037086 
L 304.36744 239.171799 
L 305.818644 239.905279 
L 307.269849 240.388628 
L 308.721053 240.616969 
L 310.172258 240.605888 
L 311.86533 240.335189 
L 313.800269 239.778949 
L 320.330689 237.65901 
L 322.265629 237.386694 
L 323.9587 237.362815 
L 325.89364 237.572632 
L 328.070447 238.05625 
L 331.45659 239.085483 
L 334.842734 240.048486 
L 337.019541 240.455525 
L 339.196348 240.632762 
L 341.373154 240.578802 
L 344.033696 240.261723 
L 352.499056 239.016669 
L 354.91773 238.987474 
L 357.578271 239.182317 
L 361.206283 239.705304 
L 366.285498 240.439082 
L 369.187907 240.62818 
L 372.090316 240.589677 
L 375.718328 240.293541 
L 382.490615 239.683862 
L 385.634892 239.64652 
L 389.021036 239.82597 
L 400.388804 240.639908 
L 404.258683 240.528797 
L 416.110186 239.9757 
L 420.4638 240.150285 
L 430.138497 240.636791 
L 434.49211 240.567507 
L 441.99 240.223784 
L 441.99 240.223784 
" clip-path="url(#pe3c51b2c62)" style="fill: none; stroke: #d55e00; stroke-width: 2.2; stroke-linecap: square"/>
   </g>
   <g id="patch_3">
    <path d="M 55.244 240.64 
L 55.244 30.912 
" style="fill: none; stroke: #000000; stroke-linejoin: miter; stroke-linecap: square"/>
   </g>
   <g id="patch_4">
    <path d="M 55.244 240.64 
L 441.99 240.64 
" style="fill: none; stroke: #000000; stroke-linejoin: miter; stroke-linecap: square"/>
   </g>
   <g id="text_21">
    <!-- Sinc-squared lineshape: peak $\propto T^2$, width $\propto 1/T$, area $\propto T$ -->
    <g transform="translate(76.657 24.912) scale(0.12 -0.12)">
     <defs>
      <path id="DejaVuSans-53" d="M 3425 4513 
L 3425 3897 
Q 3066 4069 2747 4153 
Q 2428 4238 2131 4238 
Q 1616 4238 1336 4038 
Q 1056 3838 1056 3469 
Q 1056 3159 1242 3001 
Q 1428 2844 1947 2747 
L 2328 2669 
Q 3034 2534 3370 2195 
Q 3706 1856 3706 1288 
Q 3706 609 3251 259 
Q 2797 -91 1919 -91 
Q 1588 -91 1214 -16 
Q 841 59 441 206 
L 441 856 
Q 825 641 1194 531 
Q 1563 422 1919 422 
Q 2459 422 2753 634 
Q 3047 847 3047 1241 
Q 3047 1584 2836 1778 
Q 2625 1972 2144 2069 
L 1759 2144 
Q 1053 2284 737 2584 
Q 422 2884 422 3419 
Q 422 4038 858 4394 
Q 1294 4750 2059 4750 
Q 2388 4750 2728 4690 
Q 3069 4631 3425 4513 
z
" transform="scale(0.015625)"/>
      <path id="DejaVuSans-63" d="M 3122 3366 
L 3122 2828 
Q 2878 2963 2633 3030 
Q 2388 3097 2138 3097 
Q 1578 3097 1268 2742 
Q 959 2388 959 1747 
Q 959 1106 1268 751 
Q 1578 397 2138 397 
Q 2388 397 2633 464 
Q 2878 531 3122 666 
L 3122 134 
Q 2881 22 2623 -34 
Q 2366 -91 2075 -91 
Q 1284 -91 818 406 
Q 353 903 353 1747 
Q 353 2603 823 3093 
Q 1294 3584 2113 3584 
Q 2378 3584 2631 3529 
Q 2884 3475 3122 3366 
z
" transform="scale(0.015625)"/>
      <path id="DejaVuSans-2d" d="M 313 2009 
L 1997 2009 
L 1997 1497 
L 313 1497 
L 313 2009 
z
" transform="scale(0.015625)"/>
      <path id="DejaVuSans-71" d="M 947 1747 
Q 947 1113 1208 752 
Q 1469 391 1925 391 
Q 2381 391 2643 752 
Q 2906 1113 2906 1747 
Q 2906 2381 2643 2742 
Q 2381 3103 1925 3103 
Q 1469 3103 1208 2742 
Q 947 2381 947 1747 
z
M 2906 525 
Q 2725 213 2448 61 
Q 2172 -91 1784 -91 
Q 1150 -91 751 415 
Q 353 922 353 1747 
Q 353 2572 751 3078 
Q 1150 3584 1784 3584 
Q 2172 3584 2448 3432 
Q 2725 3281 2906 2969 
L 2906 3500 
L 3481 3500 
L 3481 -1331 
L 2906 -1331 
L 2906 525 
z
" transform="scale(0.015625)"/>
      <path id="DejaVuSans-6c" d="M 603 4863 
L 1178 4863 
L 1178 0 
L 603 0 
L 603 4863 
z
" transform="scale(0.015625)"/>
      <path id="DejaVuSans-68" d="M 3513 2113 
L 3513 0 
L 2938 0 
L 2938 2094 
Q 2938 2591 2744 2837 
Q 2550 3084 2163 3084 
Q 1697 3084 1428 2787 
Q 1159 2491 1159 1978 
L 1159 0 
L 581 0 
L 581 4863 
L 1159 4863 
L 1159 2956 
Q 1366 3272 1645 3428 
Q 1925 3584 2291 3584 
Q 2894 3584 3203 3211 
Q 3513 2838 3513 2113 
z
" transform="scale(0.015625)"/>
      <path id="DejaVuSans-70" d="M 1159 525 
L 1159 -1331 
L 581 -1331 
L 581 3500 
L 1159 3500 
L 1159 2969 
Q 1341 3281 1617 3432 
Q 1894 3584 2278 3584 
Q 2916 3584 3314 3078 
Q 3713 2572 3713 1747 
Q 3713 922 3314 415 
Q 2916 -91 2278 -91 
Q 1894 -91 1617 61 
Q 1341 213 1159 525 
z
M 3116 1747 
Q 3116 2381 2855 2742 
Q 2594 3103 2138 3103 
Q 1681 3103 1420 2742 
Q 1159 2381 1159 1747 
Q 1159 1113 1420 752 
Q 1681 391 2138 391 
Q 2594 391 2855 752 
Q 3116 1113 3116 1747 
z
" transform="scale(0.015625)"/>
      <path id="DejaVuSans-3a" d="M 750 794 
L 1409 794 
L 1409 0 
L 750 0 
L 750 794 
z
M 750 3309 
L 1409 3309 
L 1409 2516 
L 750 2516 
L 750 3309 
z
" transform="scale(0.015625)"/>
      <path id="DejaVuSans-6b" d="M 581 4863 
L 1159 4863 
L 1159 1991 
L 2875 3500 
L 3609 3500 
L 1753 1863 
L 3688 0 
L 2938 0 
L 1159 1709 
L 1159 0 
L 581 0 
L 581 4863 
z
" transform="scale(0.015625)"/>
      <path id="DejaVuSans-221d" d="M 1647 1134 
Q 2163 1134 2472 1884 
Q 2075 2703 1647 2703 
Q 1334 2703 1175 2478 
Q 1006 2238 1006 1919 
Q 1006 1569 1175 1353 
Q 1350 1134 1647 1134 
z
M 3884 1128 
L 3884 716 
L 3644 716 
Q 3416 716 3247 809 
Q 3078 894 2916 1091 
Q 2819 1203 2666 1466 
Q 2456 1091 2272 925 
Q 2044 725 1681 725 
Q 1259 725 981 1041 
Q 688 1372 688 1919 
Q 688 2444 981 2800 
Q 1241 3116 1688 3116 
Q 1916 3116 2084 3022 
Q 2281 2919 2416 2741 
Q 2541 2581 2666 2366 
Q 2875 2741 3059 2906 
Q 3288 3106 3650 3106 
L 3884 3106 
L 3884 2697 
L 3684 2697 
Q 3222 2697 2859 1947 
Q 3256 1128 3684 1128 
L 3884 1128 
z
" transform="scale(0.015625)"/>
      <path id="DejaVuSans-2c" d="M 750 794 
L 1409 794 
L 1409 256 
L 897 -744 
L 494 -744 
L 750 256 
L 750 794 
z
" transform="scale(0.015625)"/>
      <path id="DejaVuSans-77" d="M 269 3500 
L 844 3500 
L 1563 769 
L 2278 3500 
L 2956 3500 
L 3675 769 
L 4391 3500 
L 4966 3500 
L 4050 0 
L 3372 0 
L 2619 2869 
L 1863 0 
L 1184 0 
L 269 3500 
z
" transform="scale(0.015625)"/>
     </defs>
     <use xlink:href="#DejaVuSans-53" transform="translate(0 0.765625)"/>
     <use xlink:href="#DejaVuSans-69" transform="translate(63.476562 0.765625)"/>
     <use xlink:href="#DejaVuSans-6e" transform="translate(91.259766 0.765625)"/>
     <use xlink:href="#DejaVuSans-63" transform="translate(154.638672 0.765625)"/>
     <use xlink:href="#DejaVuSans-2d" transform="translate(209.619141 0.765625)"/>
     <use xlink:href="#DejaVuSans-73" transform="translate(245.703125 0.765625)"/>
     <use xlink:href="#DejaVuSans-71" transform="translate(297.802734 0.765625)"/>
     <use xlink:href="#DejaVuSans-75" transform="translate(361.279297 0.765625)"/>
     <use xlink:href="#DejaVuSans-61" transform="translate(424.658203 0.765625)"/>
     <use xlink:href="#DejaVuSans-72" transform="translate(485.9375 0.765625)"/>
     <use xlink:href="#DejaVuSans-65" transform="translate(527.050781 0.765625)"/>
     <use xlink:href="#DejaVuSans-64" transform="translate(588.574219 0.765625)"/>
     <use xlink:href="#DejaVuSans-20" transform="translate(652.050781 0.765625)"/>
     <use xlink:href="#DejaVuSans-6c" transform="translate(683.837891 0.765625)"/>
     <use xlink:href="#DejaVuSans-69" transform="translate(711.621094 0.765625)"/>
     <use xlink:href="#DejaVuSans-6e" transform="translate(739.404297 0.765625)"/>
     <use xlink:href="#DejaVuSans-65" transform="translate(802.783203 0.765625)"/>
     <use xlink:href="#DejaVuSans-73" transform="translate(864.306641 0.765625)"/>
     <use xlink:href="#DejaVuSans-68" transform="translate(916.40625 0.765625)"/>
     <use xlink:href="#DejaVuSans-61" transform="translate(979.785156 0.765625)"/>
     <use xlink:href="#DejaVuSans-70" transform="translate(1041.064453 0.765625)"/>
     <use xlink:href="#DejaVuSans-65" transform="translate(1104.541016 0.765625)"/>
     <use xlink:href="#DejaVuSans-3a" transform="translate(1166.064453 0.765625)"/>
     <use xlink:href="#DejaVuSans-20" transform="translate(1199.755859 0.765625)"/>
     <use xlink:href="#DejaVuSans-70" transform="translate(1231.542969 0.765625)"/>
     <use xlink:href="#DejaVuSans-65" transform="translate(1295.019531 0.765625)"/>
     <use xlink:href="#DejaVuSans-61" transform="translate(1356.542969 0.765625)"/>
     <use xlink:href="#DejaVuSans-6b" transform="translate(1417.822266 0.765625)"/>
     <use xlink:href="#DejaVuSans-20" transform="translate(1475.732422 0.765625)"/>
     <use xlink:href="#DejaVuSans-221d" transform="translate(1527.001953 0.765625)"/>
     <use xlink:href="#DejaVuSans-Oblique-54" transform="translate(1617.919922 0.765625)"/>
     <use xlink:href="#DejaVuSans-32" transform="translate(1686.020677 39.046875) scale(0.7)"/>
     <use xlink:href="#DejaVuSans-2c" transform="translate(1733.291185 0.765625)"/>
     <use xlink:href="#DejaVuSans-20" transform="translate(1765.078294 0.765625)"/>
     <use xlink:href="#DejaVuSans-77" transform="translate(1796.865404 0.765625)"/>
     <use xlink:href="#DejaVuSans-69" transform="translate(1878.652513 0.765625)"/>
     <use xlink:href="#DejaVuSans-64" transform="translate(1906.435716 0.765625)"/>
     <use xlink:href="#DejaVuSans-74" transform="translate(1969.912279 0.765625)"/>
     <use xlink:href="#DejaVuSans-68" transform="translate(2009.121263 0.765625)"/>
     <use xlink:href="#DejaVuSans-20" transform="translate(2072.500169 0.765625)"/>
     <use xlink:href="#DejaVuSans-221d" transform="translate(2123.769701 0.765625)"/>
     <use xlink:href="#DejaVuSans-31" transform="translate(2214.687669 0.765625)"/>
     <use xlink:href="#DejaVuSans-2f" transform="translate(2278.310716 0.765625)"/>
     <use xlink:href="#DejaVuSans-Oblique-54" transform="translate(2312.002122 0.765625)"/>
     <use xlink:href="#DejaVuSans-2c" transform="translate(2373.086107 0.765625)"/>
     <use xlink:href="#DejaVuSans-20" transform="translate(2404.873216 0.765625)"/>
     <use xlink:href="#DejaVuSans-61" transform="translate(2436.660326 0.765625)"/>
     <use xlink:href="#DejaVuSans-72" transform="translate(2497.939622 0.765625)"/>
     <use xlink:href="#DejaVuSans-65" transform="translate(2539.052904 0.765625)"/>
     <use xlink:href="#DejaVuSans-61" transform="translate(2600.576341 0.765625)"/>
     <use xlink:href="#DejaVuSans-20" transform="translate(2661.855638 0.765625)"/>
     <use xlink:href="#DejaVuSans-221d" transform="translate(2713.125169 0.765625)"/>
     <use xlink:href="#DejaVuSans-Oblique-54" transform="translate(2804.043138 0.765625)"/>
    </g>
   </g>
   <g id="legend_1">
    <g id="line2d_22">
     <path d="M 370.69 44.010438 
L 380.69 44.010438 
L 390.69 44.010438 
" style="fill: none; stroke: #56b4e9; stroke-width: 2.2; stroke-linecap: square"/>
    </g>
    <g id="text_22">
     <!-- $T=0.5$ -->
     <g transform="translate(398.69 47.510438) scale(0.1 -0.1)">
      <use xlink:href="#DejaVuSans-Oblique-54" transform="translate(0 0.78125)"/>
      <use xlink:href="#DejaVuSans-3d" transform="translate(80.566406 0.78125)"/>
      <use xlink:href="#DejaVuSans-30" transform="translate(183.837891 0.78125)"/>
      <use xlink:href="#DejaVuSans-2e" transform="translate(247.460938 0.78125)"/>
      <use xlink:href="#DejaVuSans-35" transform="translate(279.248047 0.78125)"/>
     </g>
    </g>
    <g id="line2d_23">
     <path d="M 370.69 58.688563 
L 380.69 58.688563 
L 390.69 58.688563 
" style="fill: none; stroke: #0072b2; stroke-width: 2.2; stroke-linecap: square"/>
    </g>
    <g id="text_23">
     <!-- $T=1$ -->
     <g transform="translate(398.69 62.188563) scale(0.1 -0.1)">
      <use xlink:href="#DejaVuSans-Oblique-54" transform="translate(0 0.09375)"/>
      <use xlink:href="#DejaVuSans-3d" transform="translate(80.566406 0.09375)"/>
      <use xlink:href="#DejaVuSans-31" transform="translate(183.837891 0.09375)"/>
     </g>
    </g>
    <g id="line2d_24">
     <path d="M 370.69 73.366688 
L 380.69 73.366688 
L 390.69 73.366688 
" style="fill: none; stroke: #d55e00; stroke-width: 2.2; stroke-linecap: square"/>
    </g>
    <g id="text_24">
     <!-- $T=2$ -->
     <g transform="translate(398.69 76.866688) scale(0.1 -0.1)">
      <use xlink:href="#DejaVuSans-Oblique-54" transform="translate(0 0.78125)"/>
      <use xlink:href="#DejaVuSans-3d" transform="translate(80.566406 0.78125)"/>
      <use xlink:href="#DejaVuSans-32" transform="translate(183.837891 0.78125)"/>
     </g>
    </g>
   </g>
  </g>
 </g>
 <defs>
  <clipPath id="pe3c51b2c62">
   <rect x="55.244" y="30.912" width="386.746" height="209.728"/>
  </clipPath>
 </defs>
</svg>
