<?xml version="1.0" encoding="utf-8" standalone="no"?>
<!DOCTYPE svg PUBLIC "-//W3C//DTD SVG 1.1//EN"
  "http://www.w3.org/Graphics/SVG/1.1/DTD/svg11.dtd">
<svg xmlns:xlink="http://www.w3.org/1999/xlink" width="662.4pt" height="288pt" viewBox="0 0 662.4 288" xmlns="http://www.w3.org/2000/svg" version="1.1">
 <metadata>
  <rdf:RDF xmlns:dc="http://purl.org/dc/elements/1.1/" xmlns:cc="http://creativecommons.org/ns#" xmlns:rdf="http://www.w3.org/1999/02/22-rdf-syntax-ns#">
   <cc:Work>
    <dc:type rdf:resource="http://purl.org/dc/dcmitype/StillImage"/>
    <dc:date>2026-06-04T06:16:04.372421</dc:date>
    <dc:format>image/svg+xml</dc:format>
    <dc:creator>
     <cc:Agent>
      <dc:title>Matplotlib v3.10.8, https://matplotlib.org/</dc:title>
     </cc:Agent>
    </dc:creator>
   </cc:Work>
  </rdf:RDF>
 </metadata>
 <defs>
  <style type="text/css">*{stroke-linejoin: round; stroke-linecap: butt}</style>
 </defs>
 <g id="figure_1">
  <g id="patch_1">
   <path d="M 0 288 
L 662.4 288 
L 662.4 0 
L 0 0 
z
" style="fill: #ffffff"/>
  </g>
  <g id="axes_1">
   <g id="patch_2">
    <path d="M 55.082 241.36 
L 325.215 241.36 
L 325.215 52.8 
L 55.082 52.8 
z
" style="fill: #ffffff"/>
   </g>
   <g id="matplotlib.axis_1">
    <g id="xtick_1">
     <g id="line2d_1">
      <defs>
       <path id="md1b92a12f5" d="M 0 0 
L 0 3.5 
" style="stroke: #000000; stroke-width: 0.8"/>
      </defs>
      <g>
       <use xlink:href="#md1b92a12f5" x="55.082" y="241.36" style="stroke: #000000; stroke-width: 0.8"/>
      </g>
     </g>
     <g id="text_1">
      <!-- 0 -->
      <g transform="translate(51.582625 256.718281) scale(0.11 -0.11)">
       <defs>
        <path id="DejaVuSans-30" d="M 2034 4250 
Q 1547 4250 1301 3770 
Q 1056 3291 1056 2328 
Q 1056 1369 1301 889 
Q 1547 409 2034 409 
Q 2525 409 2770 889 
Q 3016 1369 3016 2328 
Q 3016 3291 2770 3770 
Q 2525 4250 2034 4250 
z
M 2034 4750 
Q 2819 4750 3233 4129 
Q 3647 3509 3647 2328 
Q 3647 1150 3233 529 
Q 2819 -91 2034 -91 
Q 1250 -91 836 529 
Q 422 1150 422 2328 
Q 422 3509 836 4129 
Q 1250 4750 2034 4750 
z
" transform="scale(0.015625)"/>
       </defs>
       <use xlink:href="#DejaVuSans-30"/>
      </g>
     </g>
    </g>
    <g id="xtick_2">
     <g id="line2d_2">
      <g>
       <use xlink:href="#md1b92a12f5" x="96.027716" y="241.36" style="stroke: #000000; stroke-width: 0.8"/>
      </g>
     </g>
     <g id="text_2">
      <!-- 1 -->
      <g transform="translate(92.528341 256.718281) scale(0.11 -0.11)">
       <defs>
        <path id="DejaVuSans-31" d="M 794 531 
L 1825 531 
L 1825 4091 
L 703 3866 
L 703 4441 
L 1819 4666 
L 2450 4666 
L 2450 531 
L 3481 531 
L 3481 0 
L 794 0 
L 794 531 
z
" transform="scale(0.015625)"/>
       </defs>
       <use xlink:href="#DejaVuSans-31"/>
      </g>
     </g>
    </g>
    <g id="xtick_3">
     <g id="line2d_3">
      <g>
       <use xlink:href="#md1b92a12f5" x="136.973433" y="241.36" style="stroke: #000000; stroke-width: 0.8"/>
      </g>
     </g>
     <g id="text_3">
      <!-- 2 -->
      <g transform="translate(133.474058 256.718281) scale(0.11 -0.11)">
       <defs>
        <path id="DejaVuSans-32" d="M 1228 531 
L 3431 531 
L 3431 0 
L 469 0 
L 469 531 
Q 828 903 1448 1529 
Q 2069 2156 2228 2338 
Q 2531 2678 2651 2914 
Q 2772 3150 2772 3378 
Q 2772 3750 2511 3984 
Q 2250 4219 1831 4219 
Q 1534 4219 1204 4116 
Q 875 4013 500 3803 
L 500 4441 
Q 881 4594 1212 4672 
Q 1544 4750 1819 4750 
Q 2544 4750 2975 4387 
Q 3406 4025 3406 3419 
Q 3406 3131 3298 2873 
Q 3191 2616 2906 2266 
Q 2828 2175 2409 1742 
Q 1991 1309 1228 531 
z
" transform="scale(0.015625)"/>
       </defs>
       <use xlink:href="#DejaVuSans-32"/>
      </g>
     </g>
    </g>
    <g id="xtick_4">
     <g id="line2d_4">
      <g>
       <use xlink:href="#md1b92a12f5" x="177.919149" y="241.36" style="stroke: #000000; stroke-width: 0.8"/>
      </g>
     </g>
     <g id="text_4">
      <!-- 3 -->
      <g transform="translate(174.419774 256.718281) scale(0.11 -0.11)">
       <defs>
        <path id="DejaVuSans-33" d="M 2597 2516 
Q 3050 2419 3304 2112 
Q 3559 1806 3559 1356 
Q 3559 666 3084 287 
Q 2609 -91 1734 -91 
Q 1441 -91 1130 -33 
Q 819 25 488 141 
L 488 750 
Q 750 597 1062 519 
Q 1375 441 1716 441 
Q 2309 441 2620 675 
Q 2931 909 2931 1356 
Q 2931 1769 2642 2001 
Q 2353 2234 1838 2234 
L 1294 2234 
L 1294 2753 
L 1863 2753 
Q 2328 2753 2575 2939 
Q 2822 3125 2822 3475 
Q 2822 3834 2567 4026 
Q 2313 4219 1838 4219 
Q 1578 4219 1281 4162 
Q 984 4106 628 3988 
L 628 4550 
Q 988 4650 1302 4700 
Q 1616 4750 1894 4750 
Q 2613 4750 3031 4423 
Q 3450 4097 3450 3541 
Q 3450 3153 3228 2886 
Q 3006 2619 2597 2516 
z
" transform="scale(0.015625)"/>
       </defs>
       <use xlink:href="#DejaVuSans-33"/>
      </g>
     </g>
    </g>
    <g id="xtick_5">
     <g id="line2d_5">
      <g>
       <use xlink:href="#md1b92a12f5" x="218.864866" y="241.36" style="stroke: #000000; stroke-width: 0.8"/>
      </g>
     </g>
     <g id="text_5">
      <!-- 4 -->
      <g transform="translate(215.365491 256.718281) scale(0.11 -0.11)">
       <defs>
        <path id="DejaVuSans-34" d="M 2419 4116 
L 825 1625 
L 2419 1625 
L 2419 4116 
z
M 2253 4666 
L 3047 4666 
L 3047 1625 
L 3713 1625 
L 3713 1100 
L 3047 1100 
L 3047 0 
L 2419 0 
L 2419 1100 
L 313 1100 
L 313 1709 
L 2253 4666 
z
" transform="scale(0.015625)"/>
       </defs>
       <use xlink:href="#DejaVuSans-34"/>
      </g>
     </g>
    </g>
    <g id="xtick_6">
     <g id="line2d_6">
      <g>
       <use xlink:href="#md1b92a12f5" x="259.810582" y="241.36" style="stroke: #000000; stroke-width: 0.8"/>
      </g>
     </g>
     <g id="text_6">
      <!-- 5 -->
      <g transform="translate(256.311207 256.718281) scale(0.11 -0.11)">
       <defs>
        <path id="DejaVuSans-35" d="M 691 4666 
L 3169 4666 
L 3169 4134 
L 1269 4134 
L 1269 2991 
Q 1406 3038 1543 3061 
Q 1681 3084 1819 3084 
Q 2600 3084 3056 2656 
Q 3513 2228 3513 1497 
Q 3513 744 3044 326 
Q 2575 -91 1722 -91 
Q 1428 -91 1123 -41 
Q 819 9 494 109 
L 494 744 
Q 775 591 1075 516 
Q 1375 441 1709 441 
Q 2250 441 2565 725 
Q 2881 1009 2881 1497 
Q 2881 1984 2565 2268 
Q 2250 2553 1709 2553 
Q 1456 2553 1204 2497 
Q 953 2441 691 2322 
L 691 4666 
z
" transform="scale(0.015625)"/>
       </defs>
       <use xlink:href="#DejaVuSans-35"/>
      </g>
     </g>
    </g>
    <g id="xtick_7">
     <g id="line2d_7">
      <g>
       <use xlink:href="#md1b92a12f5" x="300.756299" y="241.36" style="stroke: #000000; stroke-width: 0.8"/>
      </g>
     </g>
     <g id="text_7">
      <!-- 6 -->
      <g transform="translate(297.256924 256.718281) scale(0.11 -0.11)">
       <defs>
        <path id="DejaVuSans-36" d="M 2113 2584 
Q 1688 2584 1439 2293 
Q 1191 2003 1191 1497 
Q 1191 994 1439 701 
Q 1688 409 2113 409 
Q 2538 409 2786 701 
Q 3034 994 3034 1497 
Q 3034 2003 2786 2293 
Q 2538 2584 2113 2584 
z
M 3366 4563 
L 3366 3988 
Q 3128 4100 2886 4159 
Q 2644 4219 2406 4219 
Q 1781 4219 1451 3797 
Q 1122 3375 1075 2522 
Q 1259 2794 1537 2939 
Q 1816 3084 2150 3084 
Q 2853 3084 3261 2657 
Q 3669 2231 3669 1497 
Q 3669 778 3244 343 
Q 2819 -91 2113 -91 
Q 1303 -91 875 529 
Q 447 1150 447 2328 
Q 447 3434 972 4092 
Q 1497 4750 2381 4750 
Q 2619 4750 2861 4703 
Q 3103 4656 3366 4563 
z
" transform="scale(0.015625)"/>
       </defs>
       <use xlink:href="#DejaVuSans-36"/>
      </g>
     </g>
    </g>
    <g id="text_8">
     <!-- $\Omega t$  (resonance, $\Delta=0$) -->
     <g transform="translate(129.8135 271.364219) scale(0.11 -0.11)">
      <defs>
       <path id="DejaVuSans-3a9" d="M 4647 556 
L 4647 0 
L 2772 0 
L 2772 556 
Q 3325 859 3634 1378 
Q 3944 1897 3944 2528 
Q 3944 3278 3531 3731 
Q 3119 4184 2444 4184 
Q 1769 4184 1355 3729 
Q 941 3275 941 2528 
Q 941 1897 1250 1378 
Q 1563 859 2119 556 
L 2119 0 
L 244 0 
L 244 556 
L 1241 556 
Q 747 991 519 1456 
Q 294 1922 294 2497 
Q 294 3491 894 4106 
Q 1491 4722 2444 4722 
Q 3391 4722 3994 4106 
Q 4594 3494 4594 2528 
Q 4594 1922 4372 1459 
Q 4150 997 3647 556 
L 4647 556 
z
" transform="scale(0.015625)"/>
       <path id="DejaVuSans-Oblique-74" d="M 2706 3500 
L 2619 3053 
L 1472 3053 
L 1100 1153 
Q 1081 1047 1072 975 
Q 1063 903 1063 863 
Q 1063 663 1183 572 
Q 1303 481 1569 481 
L 2150 481 
L 2053 0 
L 1503 0 
Q 991 0 739 200 
Q 488 400 488 806 
Q 488 878 497 964 
Q 506 1050 525 1153 
L 897 3053 
L 409 3053 
L 500 3500 
L 978 3500 
L 1172 4494 
L 1747 4494 
L 1556 3500 
L 2706 3500 
z
" transform="scale(0.015625)"/>
       <path id="DejaVuSans-20" transform="scale(0.015625)"/>
       <path id="DejaVuSans-28" d="M 1984 4856 
Q 1566 4138 1362 3434 
Q 1159 2731 1159 2009 
Q 1159 1288 1364 580 
Q 1569 -128 1984 -844 
L 1484 -844 
Q 1016 -109 783 600 
Q 550 1309 550 2009 
Q 550 2706 781 3412 
Q 1013 4119 1484 4856 
L 1984 4856 
z
" transform="scale(0.015625)"/>
       <path id="DejaVuSans-72" d="M 2631 2963 
Q 2534 3019 2420 3045 
Q 2306 3072 2169 3072 
Q 1681 3072 1420 2755 
Q 1159 2438 1159 1844 
L 1159 0 
L 581 0 
L 581 3500 
L 1159 3500 
L 1159 2956 
Q 1341 3275 1631 3429 
Q 1922 3584 2338 3584 
Q 2397 3584 2469 3576 
Q 2541 3569 2628 3553 
L 2631 2963 
z
" transform="scale(0.015625)"/>
       <path id="DejaVuSans-65" d="M 3597 1894 
L 3597 1613 
L 953 1613 
Q 991 1019 1311 708 
Q 1631 397 2203 397 
Q 2534 397 2845 478 
Q 3156 559 3463 722 
L 3463 178 
Q 3153 47 2828 -22 
Q 2503 -91 2169 -91 
Q 1331 -91 842 396 
Q 353 884 353 1716 
Q 353 2575 817 3079 
Q 1281 3584 2069 3584 
Q 2775 3584 3186 3129 
Q 3597 2675 3597 1894 
z
M 3022 2063 
Q 3016 2534 2758 2815 
Q 2500 3097 2075 3097 
Q 1594 3097 1305 2825 
Q 1016 2553 972 2059 
L 3022 2063 
z
" transform="scale(0.015625)"/>
       <path id="DejaVuSans-73" d="M 2834 3397 
L 2834 2853 
Q 2591 2978 2328 3040 
Q 2066 3103 1784 3103 
Q 1356 3103 1142 2972 
Q 928 2841 928 2578 
Q 928 2378 1081 2264 
Q 1234 2150 1697 2047 
L 1894 2003 
Q 2506 1872 2764 1633 
Q 3022 1394 3022 966 
Q 3022 478 2636 193 
Q 2250 -91 1575 -91 
Q 1294 -91 989 -36 
Q 684 19 347 128 
L 347 722 
Q 666 556 975 473 
Q 1284 391 1588 391 
Q 1994 391 2212 530 
Q 2431 669 2431 922 
Q 2431 1156 2273 1281 
Q 2116 1406 1581 1522 
L 1381 1569 
Q 847 1681 609 1914 
Q 372 2147 372 2553 
Q 372 3047 722 3315 
Q 1072 3584 1716 3584 
Q 2034 3584 2315 3537 
Q 2597 3491 2834 3397 
z
" transform="scale(0.015625)"/>
       <path id="DejaVuSans-6f" d="M 1959 3097 
Q 1497 3097 1228 2736 
Q 959 2375 959 1747 
Q 959 1119 1226 758 
Q 1494 397 1959 397 
Q 2419 397 2687 759 
Q 2956 1122 2956 1747 
Q 2956 2369 2687 2733 
Q 2419 3097 1959 3097 
z
M 1959 3584 
Q 2709 3584 3137 3096 
Q 3566 2609 3566 1747 
Q 3566 888 3137 398 
Q 2709 -91 1959 -91 
Q 1206 -91 779 398 
Q 353 888 353 1747 
Q 353 2609 779 3096 
Q 1206 3584 1959 3584 
z
" transform="scale(0.015625)"/>
       <path id="DejaVuSans-6e" d="M 3513 2113 
L 3513 0 
L 2938 0 
L 2938 2094 
Q 2938 2591 2744 2837 
Q 2550 3084 2163 3084 
Q 1697 3084 1428 2787 
Q 1159 2491 1159 1978 
L 1159 0 
L 581 0 
L 581 3500 
L 1159 3500 
L 1159 2956 
Q 1366 3272 1645 3428 
Q 1925 3584 2291 3584 
Q 2894 3584 3203 3211 
Q 3513 2838 3513 2113 
z
" transform="scale(0.015625)"/>
       <path id="DejaVuSans-61" d="M 2194 1759 
Q 1497 1759 1228 1600 
Q 959 1441 959 1056 
Q 959 750 1161 570 
Q 1363 391 1709 391 
Q 2188 391 2477 730 
Q 2766 1069 2766 1631 
L 2766 1759 
L 2194 1759 
z
M 3341 1997 
L 3341 0 
L 2766 0 
L 2766 531 
Q 2569 213 2275 61 
Q 1981 -91 1556 -91 
Q 1019 -91 701 211 
Q 384 513 384 1019 
Q 384 1609 779 1909 
Q 1175 2209 1959 2209 
L 2766 2209 
L 2766 2266 
Q 2766 2663 2505 2880 
Q 2244 3097 1772 3097 
Q 1472 3097 1187 3025 
Q 903 2953 641 2809 
L 641 3341 
Q 956 3463 1253 3523 
Q 1550 3584 1831 3584 
Q 2591 3584 2966 3190 
Q 3341 2797 3341 1997 
z
" transform="scale(0.015625)"/>
       <path id="DejaVuSans-63" d="M 3122 3366 
L 3122 2828 
Q 2878 2963 2633 3030 
Q 2388 3097 2138 3097 
Q 1578 3097 1268 2742 
Q 959 2388 959 1747 
Q 959 1106 1268 751 
Q 1578 397 2138 397 
Q 2388 397 2633 464 
Q 2878 531 3122 666 
L 3122 134 
Q 2881 22 2623 -34 
Q 2366 -91 2075 -91 
Q 1284 -91 818 406 
Q 353 903 353 1747 
Q 353 2603 823 3093 
Q 1294 3584 2113 3584 
Q 2378 3584 2631 3529 
Q 2884 3475 3122 3366 
z
" transform="scale(0.015625)"/>
       <path id="DejaVuSans-2c" d="M 750 794 
L 1409 794 
L 1409 256 
L 897 -744 
L 494 -744 
L 750 256 
L 750 794 
z
" transform="scale(0.015625)"/>
       <path id="DejaVuSans-394" d="M 2188 4044 
L 906 525 
L 3472 525 
L 2188 4044 
z
M 50 0 
L 1831 4666 
L 2547 4666 
L 4325 0 
L 50 0 
z
" transform="scale(0.015625)"/>
       <path id="DejaVuSans-3d" d="M 678 2906 
L 4684 2906 
L 4684 2381 
L 678 2381 
L 678 2906 
z
M 678 1631 
L 4684 1631 
L 4684 1100 
L 678 1100 
L 678 1631 
z
" transform="scale(0.015625)"/>
       <path id="DejaVuSans-29" d="M 513 4856 
L 1013 4856 
Q 1481 4119 1714 3412 
Q 1947 2706 1947 2009 
Q 1947 1309 1714 600 
Q 1481 -109 1013 -844 
L 513 -844 
Q 928 -128 1133 580 
Q 1338 1288 1338 2009 
Q 1338 2731 1133 3434 
Q 928 4138 513 4856 
z
" transform="scale(0.015625)"/>
      </defs>
      <use xlink:href="#DejaVuSans-3a9" transform="translate(0 0.125)"/>
      <use xlink:href="#DejaVuSans-Oblique-74" transform="translate(76.416016 0.125)"/>
      <use xlink:href="#DejaVuSans-20" transform="translate(115.625 0.125)"/>
      <use xlink:href="#DejaVuSans-20" transform="translate(147.412109 0.125)"/>
      <use xlink:href="#DejaVuSans-28" transform="translate(179.199219 0.125)"/>
      <use xlink:href="#DejaVuSans-72" transform="translate(218.212891 0.125)"/>
      <use xlink:href="#DejaVuSans-65" transform="translate(259.326172 0.125)"/>
      <use xlink:href="#DejaVuSans-73" transform="translate(320.849609 0.125)"/>
      <use xlink:href="#DejaVuSans-6f" transform="translate(372.949219 0.125)"/>
      <use xlink:href="#DejaVuSans-6e" transform="translate(434.130859 0.125)"/>
      <use xlink:href="#DejaVuSans-61" transform="translate(497.509766 0.125)"/>
      <use xlink:href="#DejaVuSans-6e" transform="translate(558.789062 0.125)"/>
      <use xlink:href="#DejaVuSans-63" transform="translate(622.167969 0.125)"/>
      <use xlink:href="#DejaVuSans-65" transform="translate(677.148438 0.125)"/>
      <use xlink:href="#DejaVuSans-2c" transform="translate(738.671875 0.125)"/>
      <use xlink:href="#DejaVuSans-20" transform="translate(770.458984 0.125)"/>
      <use xlink:href="#DejaVuSans-394" transform="translate(802.246094 0.125)"/>
      <use xlink:href="#DejaVuSans-3d" transform="translate(890.136719 0.125)"/>
      <use xlink:href="#DejaVuSans-30" transform="translate(993.408203 0.125)"/>
      <use xlink:href="#DejaVuSans-29" transform="translate(1057.03125 0.125)"/>
     </g>
    </g>
   </g>
   <g id="matplotlib.axis_2">
    <g id="ytick_1">
     <g id="line2d_8">
      <defs>
       <path id="mf73671e762" d="M 0 0 
L -3.5 0 
" style="stroke: #000000; stroke-width: 0.8"/>
      </defs>
      <g>
       <use xlink:href="#mf73671e762" x="55.082" y="241.36" style="stroke: #000000; stroke-width: 0.8"/>
      </g>
     </g>
     <g id="text_9">
      <!-- 0.0 -->
      <g transform="translate(30.588563 245.539141) scale(0.11 -0.11)">
       <defs>
        <path id="DejaVuSans-2e" d="M 684 794 
L 1344 794 
L 1344 0 
L 684 0 
L 684 794 
z
" transform="scale(0.015625)"/>
       </defs>
       <use xlink:href="#DejaVuSans-30"/>
       <use xlink:href="#DejaVuSans-2e" transform="translate(63.623047 0)"/>
       <use xlink:href="#DejaVuSans-30" transform="translate(95.410156 0)"/>
      </g>
     </g>
    </g>
    <g id="ytick_2">
     <g id="line2d_9">
      <g>
       <use xlink:href="#mf73671e762" x="55.082" y="205.098462" style="stroke: #000000; stroke-width: 0.8"/>
      </g>
     </g>
     <g id="text_10">
      <!-- 0.5 -->
      <g transform="translate(30.588563 209.277602) scale(0.11 -0.11)">
       <use xlink:href="#DejaVuSans-30"/>
       <use xlink:href="#DejaVuSans-2e" transform="translate(63.623047 0)"/>
       <use xlink:href="#DejaVuSans-35" transform="translate(95.410156 0)"/>
      </g>
     </g>
    </g>
    <g id="ytick_3">
     <g id="line2d_10">
      <g>
       <use xlink:href="#mf73671e762" x="55.082" y="168.836923" style="stroke: #000000; stroke-width: 0.8"/>
      </g>
     </g>
     <g id="text_11">
      <!-- 1.0 -->
      <g transform="translate(30.588563 173.016064) scale(0.11 -0.11)">
       <use xlink:href="#DejaVuSans-31"/>
       <use xlink:href="#DejaVuSans-2e" transform="translate(63.623047 0)"/>
       <use xlink:href="#DejaVuSans-30" transform="translate(95.410156 0)"/>
      </g>
     </g>
    </g>
    <g id="ytick_4">
     <g id="line2d_11">
      <g>
       <use xlink:href="#mf73671e762" x="55.082" y="132.575385" style="stroke: #000000; stroke-width: 0.8"/>
      </g>
     </g>
     <g id="text_12">
      <!-- 1.5 -->
      <g transform="translate(30.588563 136.754525) scale(0.11 -0.11)">
       <use xlink:href="#DejaVuSans-31"/>
       <use xlink:href="#DejaVuSans-2e" transform="translate(63.623047 0)"/>
       <use xlink:href="#DejaVuSans-35" transform="translate(95.410156 0)"/>
      </g>
     </g>
    </g>
    <g id="ytick_5">
     <g id="line2d_12">
      <g>
       <use xlink:href="#mf73671e762" x="55.082" y="96.313846" style="stroke: #000000; stroke-width: 0.8"/>
      </g>
     </g>
     <g id="text_13">
      <!-- 2.0 -->
      <g transform="translate(30.588563 100.492987) scale(0.11 -0.11)">
       <use xlink:href="#DejaVuSans-32"/>
       <use xlink:href="#DejaVuSans-2e" transform="translate(63.623047 0)"/>
       <use xlink:href="#DejaVuSans-30" transform="translate(95.410156 0)"/>
      </g>
     </g>
    </g>
    <g id="ytick_6">
     <g id="line2d_13">
      <g>
       <use xlink:href="#mf73671e762" x="55.082" y="60.052308" style="stroke: #000000; stroke-width: 0.8"/>
      </g>
     </g>
     <g id="text_14">
      <!-- 2.5 -->
      <g transform="translate(30.588563 64.231448) scale(0.11 -0.11)">
       <use xlink:href="#DejaVuSans-32"/>
       <use xlink:href="#DejaVuSans-2e" transform="translate(63.623047 0)"/>
       <use xlink:href="#DejaVuSans-35" transform="translate(95.410156 0)"/>
      </g>
     </g>
    </g>
    <g id="text_15">
     <!-- $P_{g\to e}$ -->
     <g transform="translate(23.178563 160.115) rotate(-90) scale(0.11 -0.11)">
      <defs>
       <path id="DejaVuSans-Oblique-50" d="M 1081 4666 
L 2541 4666 
Q 3178 4666 3512 4369 
Q 3847 4072 3847 3500 
Q 3847 2731 3353 2303 
Q 2859 1875 1966 1875 
L 1172 1875 
L 806 0 
L 172 0 
L 1081 4666 
z
M 1613 4147 
L 1275 2394 
L 2069 2394 
Q 2606 2394 2893 2669 
Q 3181 2944 3181 3456 
Q 3181 3784 2986 3965 
Q 2791 4147 2438 4147 
L 1613 4147 
z
" transform="scale(0.015625)"/>
       <path id="DejaVuSans-Oblique-67" d="M 3816 3500 
L 3219 434 
Q 3047 -456 2561 -893 
Q 2075 -1331 1253 -1331 
Q 950 -1331 690 -1286 
Q 431 -1241 206 -1147 
L 313 -588 
Q 525 -725 762 -790 
Q 1000 -856 1269 -856 
Q 1816 -856 2167 -557 
Q 2519 -259 2631 300 
L 2681 563 
Q 2441 288 2122 144 
Q 1803 0 1434 0 
Q 903 0 598 351 
Q 294 703 294 1319 
Q 294 1803 478 2267 
Q 663 2731 997 3091 
Q 1219 3328 1514 3456 
Q 1809 3584 2131 3584 
Q 2484 3584 2746 3420 
Q 3009 3256 3138 2956 
L 3238 3500 
L 3816 3500 
z
M 2950 2216 
Q 2950 2641 2750 2872 
Q 2550 3103 2181 3103 
Q 1953 3103 1747 3012 
Q 1541 2922 1394 2759 
Q 1156 2491 1023 2127 
Q 891 1763 891 1375 
Q 891 944 1092 712 
Q 1294 481 1672 481 
Q 2219 481 2584 976 
Q 2950 1472 2950 2216 
z
" transform="scale(0.015625)"/>
       <path id="DejaVuSans-2192" d="M 5050 2147 
L 5050 1866 
L 3822 638 
L 3447 1013 
L 4175 1741 
L 366 1741 
L 366 2272 
L 4175 2272 
L 3447 3000 
L 3822 3375 
L 5050 2147 
z
" transform="scale(0.015625)"/>
       <path id="DejaVuSans-Oblique-65" d="M 3078 2063 
Q 3088 2113 3092 2166 
Q 3097 2219 3097 2272 
Q 3097 2653 2873 2875 
Q 2650 3097 2266 3097 
Q 1838 3097 1509 2826 
Q 1181 2556 1013 2059 
L 3078 2063 
z
M 3578 1613 
L 903 1613 
Q 884 1494 878 1425 
Q 872 1356 872 1306 
Q 872 872 1139 634 
Q 1406 397 1894 397 
Q 2269 397 2603 481 
Q 2938 566 3225 728 
L 3116 159 
Q 2806 34 2476 -28 
Q 2147 -91 1806 -91 
Q 1078 -91 686 257 
Q 294 606 294 1247 
Q 294 1794 489 2264 
Q 684 2734 1063 3103 
Q 1306 3334 1642 3459 
Q 1978 3584 2356 3584 
Q 2950 3584 3301 3228 
Q 3653 2872 3653 2272 
Q 3653 2128 3634 1964 
Q 3616 1800 3578 1613 
z
" transform="scale(0.015625)"/>
      </defs>
      <use xlink:href="#DejaVuSans-Oblique-50" transform="translate(0 0.09375)"/>
      <use xlink:href="#DejaVuSans-Oblique-67" transform="translate(60.302734 -16.3125) scale(0.7)"/>
      <use xlink:href="#DejaVuSans-2192" transform="translate(118.374023 -16.3125) scale(0.7)"/>
      <use xlink:href="#DejaVuSans-Oblique-65" transform="translate(190.664062 -16.3125) scale(0.7)"/>
     </g>
    </g>
   </g>
   <g id="line2d_14">
    <path d="M 55.082 241.36 
L 58.1248 241.25992 
L 61.505688 240.914675 
L 64.886577 240.32538 
L 68.267466 239.496051 
L 71.648354 238.432339 
L 75.029243 237.141493 
L 78.74822 235.469763 
L 82.467198 233.547656 
L 86.524264 231.18393 
L 90.58133 228.564315 
L 94.976486 225.467496 
L 100.047819 221.605303 
L 105.795329 216.925781 
L 112.895195 210.834377 
L 135.20906 191.442708 
L 140.956571 186.877219 
L 145.689815 183.38278 
L 150.08497 180.396552 
L 154.142036 177.891681 
L 158.199103 175.653698 
L 161.91808 173.855468 
L 165.637058 172.3148 
L 169.017946 171.148429 
L 172.398835 170.213391 
L 175.779723 169.516058 
L 179.160612 169.061181 
L 182.541501 168.851859 
L 185.5843 168.874634 
L 188.965189 169.134407 
L 192.346078 169.639236 
L 195.726966 170.385683 
L 199.107855 171.36866 
L 202.488743 172.58147 
L 205.869632 174.015849 
L 209.58861 175.837868 
L 213.307587 177.901109 
L 217.364653 180.406991 
L 221.759809 183.3942 
L 226.493053 186.889548 
L 231.902474 191.178973 
L 238.326163 196.581394 
L 247.792651 204.884597 
L 259.625761 215.22743 
L 266.049449 220.543034 
L 271.458871 224.730181 
L 276.192115 228.115623 
L 280.58727 230.98505 
L 284.644337 233.369966 
L 288.363314 235.313034 
L 292.082292 237.007017 
L 295.46318 238.319061 
L 298.844069 239.404741 
L 302.224957 240.256661 
L 305.605846 240.869015 
L 308.986735 241.237631 
L 312.367623 241.359997 
L 315.410423 241.258859 
L 318.791312 240.912444 
L 322.1722 240.321996 
L 325.215 239.585234 
L 325.215 239.585234 
" clip-path="url(#p7562b8fa89)" style="fill: none; stroke: #0072b2; stroke-width: 2.2; stroke-linecap: square"/>
   </g>
   <g id="line2d_15">
    <path d="M 55.082 241.36 
L 58.1248 241.259874 
L 61.505688 240.91376 
L 64.886577 240.320422 
L 68.267466 239.47986 
L 71.648354 238.392073 
L 75.029243 237.057063 
L 78.410131 235.474828 
L 81.79102 233.645368 
L 85.171909 231.568685 
L 88.552797 229.244777 
L 92.271775 226.402935 
L 95.990752 223.261952 
L 99.70973 219.821827 
L 103.428707 216.08256 
L 107.147685 212.044153 
L 111.204751 207.297448 
L 115.261817 202.19474 
L 119.318884 196.73603 
L 123.37595 190.921316 
L 127.771105 184.220304 
L 132.16626 177.101483 
L 136.561416 169.564853 
L 141.29466 160.981228 
L 146.027904 151.913044 
L 150.761148 142.3603 
L 155.494392 132.322997 
L 160.565725 121.031031 
L 165.637058 109.182811 
L 170.70839 96.778336 
L 176.117812 82.93378 
L 181.527234 68.45633 
L 186.936656 53.345986 
L 192.346078 37.602749 
L 198.093588 20.182094 
L 203.841099 2.046962 
L 204.78505 -1 
L 204.78505 -1 
" clip-path="url(#p7562b8fa89)" style="fill: none; stroke: #e69f00; stroke-width: 2.2; stroke-linecap: square"/>
   </g>
   <g id="line2d_16">
    <path d="M 55.082 168.836923 
L 325.215 168.836923 
" clip-path="url(#p7562b8fa89)" style="fill: none; stroke-dasharray: 1.3,2.145; stroke-dashoffset: 0; stroke: #999999; stroke-width: 1.3"/>
   </g>
   <g id="line2d_17">
    <path d="M 136.973433 241.36 
L 136.973433 52.8 
" clip-path="url(#p7562b8fa89)" style="fill: none; stroke-dasharray: 4.44,1.92; stroke-dashoffset: 0; stroke: #d55e00; stroke-width: 1.2"/>
   </g>
   <g id="patch_3">
    <path d="M 55.082 241.36 
L 55.082 52.8 
" style="fill: none; stroke: #000000; stroke-linejoin: miter; stroke-linecap: square"/>
   </g>
   <g id="patch_4">
    <path d="M 55.082 241.36 
L 325.215 241.36 
" style="fill: none; stroke: #000000; stroke-linejoin: miter; stroke-linecap: square"/>
   </g>
   <g id="text_16">
    <!-- PT invalid -->
    <g style="fill: #d55e00" transform="translate(145.162576 96.313846) scale(0.1 -0.1)">
     <defs>
      <path id="DejaVuSans-50" d="M 1259 4147 
L 1259 2394 
L 2053 2394 
Q 2494 2394 2734 2622 
Q 2975 2850 2975 3272 
Q 2975 3691 2734 3919 
Q 2494 4147 2053 4147 
L 1259 4147 
z
M 628 4666 
L 2053 4666 
Q 2838 4666 3239 4311 
Q 3641 3956 3641 3272 
Q 3641 2581 3239 2228 
Q 2838 1875 2053 1875 
L 1259 1875 
L 1259 0 
L 628 0 
L 628 4666 
z
" transform="scale(0.015625)"/>
      <path id="DejaVuSans-54" d="M -19 4666 
L 3928 4666 
L 3928 4134 
L 2272 4134 
L 2272 0 
L 1638 0 
L 1638 4134 
L -19 4134 
L -19 4666 
z
" transform="scale(0.015625)"/>
      <path id="DejaVuSans-69" d="M 603 3500 
L 1178 3500 
L 1178 0 
L 603 0 
L 603 3500 
z
M 603 4863 
L 1178 4863 
L 1178 4134 
L 603 4134 
L 603 4863 
z
" transform="scale(0.015625)"/>
      <path id="DejaVuSans-76" d="M 191 3500 
L 800 3500 
L 1894 563 
L 2988 3500 
L 3597 3500 
L 2284 0 
L 1503 0 
L 191 3500 
z
" transform="scale(0.015625)"/>
      <path id="DejaVuSans-6c" d="M 603 4863 
L 1178 4863 
L 1178 0 
L 603 0 
L 603 4863 
z
" transform="scale(0.015625)"/>
      <path id="DejaVuSans-64" d="M 2906 2969 
L 2906 4863 
L 3481 4863 
L 3481 0 
L 2906 0 
L 2906 525 
Q 2725 213 2448 61 
Q 2172 -91 1784 -91 
Q 1150 -91 751 415 
Q 353 922 353 1747 
Q 353 2572 751 3078 
Q 1150 3584 1784 3584 
Q 2172 3584 2448 3432 
Q 2725 3281 2906 2969 
z
M 947 1747 
Q 947 1113 1208 752 
Q 1469 391 1925 391 
Q 2381 391 2643 752 
Q 2906 1113 2906 1747 
Q 2906 2381 2643 2742 
Q 2381 3103 1925 3103 
Q 1469 3103 1208 2742 
Q 947 2381 947 1747 
z
" transform="scale(0.015625)"/>
     </defs>
     <use xlink:href="#DejaVuSans-50"/>
     <use xlink:href="#DejaVuSans-54" transform="translate(60.302734 0)"/>
     <use xlink:href="#DejaVuSans-20" transform="translate(121.386719 0)"/>
     <use xlink:href="#DejaVuSans-69" transform="translate(153.173828 0)"/>
     <use xlink:href="#DejaVuSans-6e" transform="translate(180.957031 0)"/>
     <use xlink:href="#DejaVuSans-76" transform="translate(244.335938 0)"/>
     <use xlink:href="#DejaVuSans-61" transform="translate(303.515625 0)"/>
     <use xlink:href="#DejaVuSans-6c" transform="translate(364.794922 0)"/>
     <use xlink:href="#DejaVuSans-69" transform="translate(392.578125 0)"/>
     <use xlink:href="#DejaVuSans-64" transform="translate(420.361328 0)"/>
    </g>
   </g>
   <g id="text_17">
    <!-- On resonance -->
    <g transform="translate(148.622875 46.8) scale(0.12 -0.12)">
     <defs>
      <path id="DejaVuSans-4f" d="M 2522 4238 
Q 1834 4238 1429 3725 
Q 1025 3213 1025 2328 
Q 1025 1447 1429 934 
Q 1834 422 2522 422 
Q 3209 422 3611 934 
Q 4013 1447 4013 2328 
Q 4013 3213 3611 3725 
Q 3209 4238 2522 4238 
z
M 2522 4750 
Q 3503 4750 4090 4092 
Q 4678 3434 4678 2328 
Q 4678 1225 4090 567 
Q 3503 -91 2522 -91 
Q 1538 -91 948 565 
Q 359 1222 359 2328 
Q 359 3434 948 4092 
Q 1538 4750 2522 4750 
z
" transform="scale(0.015625)"/>
     </defs>
     <use xlink:href="#DejaVuSans-4f"/>
     <use xlink:href="#DejaVuSans-6e" transform="translate(78.710938 0)"/>
     <use xlink:href="#DejaVuSans-20" transform="translate(142.089844 0)"/>
     <use xlink:href="#DejaVuSans-72" transform="translate(173.876953 0)"/>
     <use xlink:href="#DejaVuSans-65" transform="translate(212.740234 0)"/>
     <use xlink:href="#DejaVuSans-73" transform="translate(274.263672 0)"/>
     <use xlink:href="#DejaVuSans-6f" transform="translate(326.363281 0)"/>
     <use xlink:href="#DejaVuSans-6e" transform="translate(387.544922 0)"/>
     <use xlink:href="#DejaVuSans-61" transform="translate(450.923828 0)"/>
     <use xlink:href="#DejaVuSans-6e" transform="translate(512.203125 0)"/>
     <use xlink:href="#DejaVuSans-63" transform="translate(575.582031 0)"/>
     <use xlink:href="#DejaVuSans-65" transform="translate(630.5625 0)"/>
    </g>
   </g>
   <g id="legend_1">
    <g id="line2d_18">
     <path d="M 63.182 65.328281 
L 72.182 65.328281 
L 81.182 65.328281 
" style="fill: none; stroke: #0072b2; stroke-width: 2.2; stroke-linecap: square"/>
    </g>
    <g id="text_18">
     <!-- Rabi  $\sin^2(\Omega t/2)$ -->
     <g transform="translate(88.382 68.478281) scale(0.09 -0.09)">
      <defs>
       <path id="DejaVuSans-52" d="M 2841 2188 
Q 3044 2119 3236 1894 
Q 3428 1669 3622 1275 
L 4263 0 
L 3584 0 
L 2988 1197 
Q 2756 1666 2539 1819 
Q 2322 1972 1947 1972 
L 1259 1972 
L 1259 0 
L 628 0 
L 628 4666 
L 2053 4666 
Q 2853 4666 3247 4331 
Q 3641 3997 3641 3322 
Q 3641 2881 3436 2590 
Q 3231 2300 2841 2188 
z
M 1259 4147 
L 1259 2491 
L 2053 2491 
Q 2509 2491 2742 2702 
Q 2975 2913 2975 3322 
Q 2975 3731 2742 3939 
Q 2509 4147 2053 4147 
L 1259 4147 
z
" transform="scale(0.015625)"/>
       <path id="DejaVuSans-62" d="M 3116 1747 
Q 3116 2381 2855 2742 
Q 2594 3103 2138 3103 
Q 1681 3103 1420 2742 
Q 1159 2381 1159 1747 
Q 1159 1113 1420 752 
Q 1681 391 2138 391 
Q 2594 391 2855 752 
Q 3116 1113 3116 1747 
z
M 1159 2969 
Q 1341 3281 1617 3432 
Q 1894 3584 2278 3584 
Q 2916 3584 3314 3078 
Q 3713 2572 3713 1747 
Q 3713 922 3314 415 
Q 2916 -91 2278 -91 
Q 1894 -91 1617 61 
Q 1341 213 1159 525 
L 1159 0 
L 581 0 
L 581 4863 
L 1159 4863 
L 1159 2969 
z
" transform="scale(0.015625)"/>
       <path id="DejaVuSans-2f" d="M 1625 4666 
L 2156 4666 
L 531 -594 
L 0 -594 
L 1625 4666 
z
" transform="scale(0.015625)"/>
      </defs>
      <use xlink:href="#DejaVuSans-52" transform="translate(0 0.765625)"/>
      <use xlink:href="#DejaVuSans-61" transform="translate(69.482422 0.765625)"/>
      <use xlink:href="#DejaVuSans-62" transform="translate(130.761719 0.765625)"/>
      <use xlink:href="#DejaVuSans-69" transform="translate(194.238281 0.765625)"/>
      <use xlink:href="#DejaVuSans-20" transform="translate(222.021484 0.765625)"/>
      <use xlink:href="#DejaVuSans-20" transform="translate(253.808594 0.765625)"/>
      <use xlink:href="#DejaVuSans-73" transform="translate(285.595703 0.765625)"/>
      <use xlink:href="#DejaVuSans-69" transform="translate(337.695312 0.765625)"/>
      <use xlink:href="#DejaVuSans-6e" transform="translate(365.478516 0.765625)"/>
      <use xlink:href="#DejaVuSans-32" transform="translate(429.814453 39.046875) scale(0.7)"/>
      <use xlink:href="#DejaVuSans-28" transform="translate(493.320637 0.765625)"/>
      <use xlink:href="#DejaVuSans-3a9" transform="translate(532.334309 0.765625)"/>
      <use xlink:href="#DejaVuSans-Oblique-74" transform="translate(608.750325 0.765625)"/>
      <use xlink:href="#DejaVuSans-2f" transform="translate(647.959309 0.765625)"/>
      <use xlink:href="#DejaVuSans-32" transform="translate(678.025715 0.765625)"/>
      <use xlink:href="#DejaVuSans-29" transform="translate(741.648762 0.765625)"/>
     </g>
    </g>
    <g id="line2d_19">
     <path d="M 63.182 79.278281 
L 72.182 79.278281 
L 81.182 79.278281 
" style="fill: none; stroke: #e69f00; stroke-width: 2.2; stroke-linecap: square"/>
    </g>
    <g id="text_19">
     <!-- PT  $(\Omega t/2)^2$ -->
     <g transform="translate(88.382 82.428281) scale(0.09 -0.09)">
      <use xlink:href="#DejaVuSans-50" transform="translate(0 0.765625)"/>
      <use xlink:href="#DejaVuSans-54" transform="translate(60.302734 0.765625)"/>
      <use xlink:href="#DejaVuSans-20" transform="translate(121.386719 0.765625)"/>
      <use xlink:href="#DejaVuSans-20" transform="translate(153.173828 0.765625)"/>
      <use xlink:href="#DejaVuSans-28" transform="translate(184.960938 0.765625)"/>
      <use xlink:href="#DejaVuSans-3a9" transform="translate(223.974609 0.765625)"/>
      <use xlink:href="#DejaVuSans-Oblique-74" transform="translate(300.390625 0.765625)"/>
      <use xlink:href="#DejaVuSans-2f" transform="translate(339.599609 0.765625)"/>
      <use xlink:href="#DejaVuSans-32" transform="translate(369.666016 0.765625)"/>
      <use xlink:href="#DejaVuSans-29" transform="translate(433.289062 0.765625)"/>
      <use xlink:href="#DejaVuSans-32" transform="translate(473.259766 39.046875) scale(0.7)"/>
     </g>
    </g>
   </g>
  </g>
  <g id="axes_2">
   <g id="patch_5">
    <path d="M 380.387 241.36 
L 650.52 241.36 
L 650.52 52.8 
L 380.387 52.8 
z
" style="fill: #ffffff"/>
   </g>
   <g id="matplotlib.axis_3">
    <g id="xtick_8">
     <g id="line2d_20">
      <g>
       <use xlink:href="#md1b92a12f5" x="380.387" y="241.36" style="stroke: #000000; stroke-width: 0.8"/>
      </g>
     </g>
     <g id="text_20">
      <!-- 0 -->
      <g transform="translate(376.887625 256.718281) scale(0.11 -0.11)">
       <use xlink:href="#DejaVuSans-30"/>
      </g>
     </g>
    </g>
    <g id="xtick_9">
     <g id="line2d_21">
      <g>
       <use xlink:href="#md1b92a12f5" x="421.332716" y="241.36" style="stroke: #000000; stroke-width: 0.8"/>
      </g>
     </g>
     <g id="text_21">
      <!-- 1 -->
      <g transform="translate(417.833341 256.718281) scale(0.11 -0.11)">
       <use xlink:href="#DejaVuSans-31"/>
      </g>
     </g>
    </g>
    <g id="xtick_10">
     <g id="line2d_22">
      <g>
       <use xlink:href="#md1b92a12f5" x="462.278433" y="241.36" style="stroke: #000000; stroke-width: 0.8"/>
      </g>
     </g>
     <g id="text_22">
      <!-- 2 -->
      <g transform="translate(458.779058 256.718281) scale(0.11 -0.11)">
       <use xlink:href="#DejaVuSans-32"/>
      </g>
     </g>
    </g>
    <g id="xtick_11">
     <g id="line2d_23">
      <g>
       <use xlink:href="#md1b92a12f5" x="503.224149" y="241.36" style="stroke: #000000; stroke-width: 0.8"/>
      </g>
     </g>
     <g id="text_23">
      <!-- 3 -->
      <g transform="translate(499.724774 256.718281) scale(0.11 -0.11)">
       <use xlink:href="#DejaVuSans-33"/>
      </g>
     </g>
    </g>
    <g id="xtick_12">
     <g id="line2d_24">
      <g>
       <use xlink:href="#md1b92a12f5" x="544.169866" y="241.36" style="stroke: #000000; stroke-width: 0.8"/>
      </g>
     </g>
     <g id="text_24">
      <!-- 4 -->
      <g transform="translate(540.670491 256.718281) scale(0.11 -0.11)">
       <use xlink:href="#DejaVuSans-34"/>
      </g>
     </g>
    </g>
    <g id="xtick_13">
     <g id="line2d_25">
      <g>
       <use xlink:href="#md1b92a12f5" x="585.115582" y="241.36" style="stroke: #000000; stroke-width: 0.8"/>
      </g>
     </g>
     <g id="text_25">
      <!-- 5 -->
      <g transform="translate(581.616207 256.718281) scale(0.11 -0.11)">
       <use xlink:href="#DejaVuSans-35"/>
      </g>
     </g>
    </g>
    <g id="xtick_14">
     <g id="line2d_26">
      <g>
       <use xlink:href="#md1b92a12f5" x="626.061299" y="241.36" style="stroke: #000000; stroke-width: 0.8"/>
      </g>
     </g>
     <g id="text_26">
      <!-- 6 -->
      <g transform="translate(622.561924 256.718281) scale(0.11 -0.11)">
       <use xlink:href="#DejaVuSans-36"/>
      </g>
     </g>
    </g>
    <g id="text_27">
     <!-- $\Omega t$  (off resonance) -->
     <g transform="translate(463.6435 271.364219) scale(0.11 -0.11)">
      <defs>
       <path id="DejaVuSans-66" d="M 2375 4863 
L 2375 4384 
L 1825 4384 
Q 1516 4384 1395 4259 
Q 1275 4134 1275 3809 
L 1275 3500 
L 2222 3500 
L 2222 3053 
L 1275 3053 
L 1275 0 
L 697 0 
L 697 3053 
L 147 3053 
L 147 3500 
L 697 3500 
L 697 3744 
Q 697 4328 969 4595 
Q 1241 4863 1831 4863 
L 2375 4863 
z
" transform="scale(0.015625)"/>
      </defs>
      <use xlink:href="#DejaVuSans-3a9" transform="translate(0 0.015625)"/>
      <use xlink:href="#DejaVuSans-Oblique-74" transform="translate(76.416016 0.015625)"/>
      <use xlink:href="#DejaVuSans-20" transform="translate(115.625 0.015625)"/>
      <use xlink:href="#DejaVuSans-20" transform="translate(147.412109 0.015625)"/>
      <use xlink:href="#DejaVuSans-28" transform="translate(179.199219 0.015625)"/>
      <use xlink:href="#DejaVuSans-6f" transform="translate(218.212891 0.015625)"/>
      <use xlink:href="#DejaVuSans-66" transform="translate(279.394531 0.015625)"/>
      <use xlink:href="#DejaVuSans-66" transform="translate(314.599609 0.015625)"/>
      <use xlink:href="#DejaVuSans-20" transform="translate(349.804688 0.015625)"/>
      <use xlink:href="#DejaVuSans-72" transform="translate(381.591797 0.015625)"/>
      <use xlink:href="#DejaVuSans-65" transform="translate(422.705078 0.015625)"/>
      <use xlink:href="#DejaVuSans-73" transform="translate(484.228516 0.015625)"/>
      <use xlink:href="#DejaVuSans-6f" transform="translate(536.328125 0.015625)"/>
      <use xlink:href="#DejaVuSans-6e" transform="translate(597.509766 0.015625)"/>
      <use xlink:href="#DejaVuSans-61" transform="translate(660.888672 0.015625)"/>
      <use xlink:href="#DejaVuSans-6e" transform="translate(722.167969 0.015625)"/>
      <use xlink:href="#DejaVuSans-63" transform="translate(785.546875 0.015625)"/>
      <use xlink:href="#DejaVuSans-65" transform="translate(840.527344 0.015625)"/>
      <use xlink:href="#DejaVuSans-29" transform="translate(902.050781 0.015625)"/>
     </g>
    </g>
   </g>
   <g id="matplotlib.axis_4">
    <g id="ytick_7">
     <g id="line2d_27">
      <g>
       <use xlink:href="#mf73671e762" x="380.387" y="241.36" style="stroke: #000000; stroke-width: 0.8"/>
      </g>
     </g>
     <g id="text_28">
      <!-- 0.0 -->
      <g transform="translate(355.893563 245.539141) scale(0.11 -0.11)">
       <use xlink:href="#DejaVuSans-30"/>
       <use xlink:href="#DejaVuSans-2e" transform="translate(63.623047 0)"/>
       <use xlink:href="#DejaVuSans-30" transform="translate(95.410156 0)"/>
      </g>
     </g>
    </g>
    <g id="ytick_8">
     <g id="line2d_28">
      <g>
       <use xlink:href="#mf73671e762" x="380.387" y="203.648" style="stroke: #000000; stroke-width: 0.8"/>
      </g>
     </g>
     <g id="text_29">
      <!-- 0.2 -->
      <g transform="translate(355.893563 207.827141) scale(0.11 -0.11)">
       <use xlink:href="#DejaVuSans-30"/>
       <use xlink:href="#DejaVuSans-2e" transform="translate(63.623047 0)"/>
       <use xlink:href="#DejaVuSans-32" transform="translate(95.410156 0)"/>
      </g>
     </g>
    </g>
    <g id="ytick_9">
     <g id="line2d_29">
      <g>
       <use xlink:href="#mf73671e762" x="380.387" y="165.936" style="stroke: #000000; stroke-width: 0.8"/>
      </g>
     </g>
     <g id="text_30">
      <!-- 0.4 -->
      <g transform="translate(355.893563 170.115141) scale(0.11 -0.11)">
       <use xlink:href="#DejaVuSans-30"/>
       <use xlink:href="#DejaVuSans-2e" transform="translate(63.623047 0)"/>
       <use xlink:href="#DejaVuSans-34" transform="translate(95.410156 0)"/>
      </g>
     </g>
    </g>
    <g id="ytick_10">
     <g id="line2d_30">
      <g>
       <use xlink:href="#mf73671e762" x="380.387" y="128.224" style="stroke: #000000; stroke-width: 0.8"/>
      </g>
     </g>
     <g id="text_31">
      <!-- 0.6 -->
      <g transform="translate(355.893563 132.403141) scale(0.11 -0.11)">
       <use xlink:href="#DejaVuSans-30"/>
       <use xlink:href="#DejaVuSans-2e" transform="translate(63.623047 0)"/>
       <use xlink:href="#DejaVuSans-36" transform="translate(95.410156 0)"/>
      </g>
     </g>
    </g>
    <g id="ytick_11">
     <g id="line2d_31">
      <g>
       <use xlink:href="#mf73671e762" x="380.387" y="90.512" style="stroke: #000000; stroke-width: 0.8"/>
      </g>
     </g>
     <g id="text_32">
      <!-- 0.8 -->
      <g transform="translate(355.893563 94.691141) scale(0.11 -0.11)">
       <defs>
        <path id="DejaVuSans-38" d="M 2034 2216 
Q 1584 2216 1326 1975 
Q 1069 1734 1069 1313 
Q 1069 891 1326 650 
Q 1584 409 2034 409 
Q 2484 409 2743 651 
Q 3003 894 3003 1313 
Q 3003 1734 2745 1975 
Q 2488 2216 2034 2216 
z
M 1403 2484 
Q 997 2584 770 2862 
Q 544 3141 544 3541 
Q 544 4100 942 4425 
Q 1341 4750 2034 4750 
Q 2731 4750 3128 4425 
Q 3525 4100 3525 3541 
Q 3525 3141 3298 2862 
Q 3072 2584 2669 2484 
Q 3125 2378 3379 2068 
Q 3634 1759 3634 1313 
Q 3634 634 3220 271 
Q 2806 -91 2034 -91 
Q 1263 -91 848 271 
Q 434 634 434 1313 
Q 434 1759 690 2068 
Q 947 2378 1403 2484 
z
M 1172 3481 
Q 1172 3119 1398 2916 
Q 1625 2713 2034 2713 
Q 2441 2713 2670 2916 
Q 2900 3119 2900 3481 
Q 2900 3844 2670 4047 
Q 2441 4250 2034 4250 
Q 1625 4250 1398 4047 
Q 1172 3844 1172 3481 
z
" transform="scale(0.015625)"/>
       </defs>
       <use xlink:href="#DejaVuSans-30"/>
       <use xlink:href="#DejaVuSans-2e" transform="translate(63.623047 0)"/>
       <use xlink:href="#DejaVuSans-38" transform="translate(95.410156 0)"/>
      </g>
     </g>
    </g>
    <g id="ytick_12">
     <g id="line2d_32">
      <g>
       <use xlink:href="#mf73671e762" x="380.387" y="52.8" style="stroke: #000000; stroke-width: 0.8"/>
      </g>
     </g>
     <g id="text_33">
      <!-- 1.0 -->
      <g transform="translate(355.893563 56.979141) scale(0.11 -0.11)">
       <use xlink:href="#DejaVuSans-31"/>
       <use xlink:href="#DejaVuSans-2e" transform="translate(63.623047 0)"/>
       <use xlink:href="#DejaVuSans-30" transform="translate(95.410156 0)"/>
      </g>
     </g>
    </g>
    <g id="text_34">
     <!-- $P_{g\to e}$ -->
     <g transform="translate(348.483563 160.115) rotate(-90) scale(0.11 -0.11)">
      <use xlink:href="#DejaVuSans-Oblique-50" transform="translate(0 0.09375)"/>
      <use xlink:href="#DejaVuSans-Oblique-67" transform="translate(60.302734 -16.3125) scale(0.7)"/>
      <use xlink:href="#DejaVuSans-2192" transform="translate(118.374023 -16.3125) scale(0.7)"/>
      <use xlink:href="#DejaVuSans-Oblique-65" transform="translate(190.664062 -16.3125) scale(0.7)"/>
     </g>
    </g>
   </g>
   <g id="line2d_33">
    <path d="M 380.387 241.36 
L 382.415533 241.244417 
L 384.444066 240.899086 
L 386.472599 240.328241 
L 388.501133 239.538878 
L 390.867755 238.354829 
L 393.234377 236.906382 
L 395.939088 234.958442 
L 398.643798 232.739277 
L 402.024687 229.658013 
L 406.419842 225.305557 
L 416.900597 214.759677 
L 420.281486 211.735058 
L 423.324285 209.323196 
L 426.028996 207.482304 
L 428.395618 206.138675 
L 430.76224 205.068027 
L 432.790773 204.381265 
L 434.819307 203.916679 
L 436.84784 203.679965 
L 438.876373 203.674024 
L 440.904906 203.898929 
L 442.933439 204.351923 
L 444.961972 205.027453 
L 446.990506 205.917236 
L 449.357128 207.211418 
L 451.72375 208.760685 
L 454.428461 210.810298 
L 457.47126 213.418061 
L 461.190238 216.937437 
L 466.59966 222.423514 
L 473.361437 229.234563 
L 477.080414 232.648983 
L 480.123214 235.13824 
L 482.827925 237.060644 
L 485.194547 238.483969 
L 487.561169 239.640743 
L 489.589702 240.405356 
L 491.618235 240.950507 
L 493.646768 241.269512 
L 495.675302 241.358462 
L 497.703835 241.216265 
L 499.732368 240.844666 
L 501.760901 240.248218 
L 503.789434 239.434235 
L 506.156056 238.223104 
L 508.522678 236.749772 
L 511.227389 234.776612 
L 514.270189 232.239716 
L 517.651078 229.109678 
L 522.384322 224.375768 
L 531.174632 215.499183 
L 534.555521 212.404288 
L 537.59832 209.909642 
L 540.303031 207.981522 
L 542.669653 206.552579 
L 545.036275 205.389712 
L 547.064809 204.619574 
L 549.093342 204.06869 
L 551.121875 203.743814 
L 553.150408 203.648929 
L 555.178941 203.785198 
L 557.207474 204.15095 
L 559.236008 204.741701 
L 561.264541 205.55021 
L 563.631163 206.755324 
L 565.997785 208.223133 
L 568.702496 210.190701 
L 571.745295 212.722371 
L 575.126184 215.848091 
L 579.521339 220.232872 
L 588.987827 229.781363 
L 592.368716 232.85115 
L 595.411516 235.315977 
L 598.116227 237.212531 
L 600.482849 238.610503 
L 602.849471 239.739812 
L 604.878004 240.479551 
L 606.906537 240.998918 
L 608.93507 241.291546 
L 610.963603 241.353849 
L 612.992136 241.185061 
L 615.02067 240.787253 
L 617.049203 240.165301 
L 619.077736 239.32683 
L 621.444358 238.088814 
L 623.81098 236.590837 
L 626.515691 234.592781 
L 629.558491 232.032684 
L 632.939379 228.88358 
L 637.672623 224.135984 
L 646.124845 215.598931 
L 649.843822 212.201749 
L 650.52 211.625733 
L 650.52 211.625733 
" clip-path="url(#pea57627b0e)" style="fill: none; stroke: #0072b2; stroke-width: 2.2; stroke-linecap: square"/>
   </g>
   <g id="line2d_34">
    <path d="M 380.387 241.36 
L 382.415533 241.244299 
L 384.444066 240.897196 
L 386.472599 240.318692 
L 388.501133 239.508785 
L 390.529666 238.467477 
L 392.558199 237.194766 
L 394.924821 235.417472 
L 397.291443 233.325213 
L 399.658065 230.917991 
L 402.024687 228.195805 
L 404.391309 225.158656 
L 407.09602 221.301958 
L 409.800731 217.033879 
L 412.505442 212.354419 
L 415.210153 207.263578 
L 418.252952 201.044653 
L 421.295752 194.305074 
L 424.338552 187.044841 
L 427.719441 178.367271 
L 431.100329 169.046918 
L 434.481218 159.083782 
L 438.200195 147.381918 
L 441.919173 134.902287 
L 445.63815 121.644889 
L 449.357128 107.609723 
L 453.414194 91.411593 
L 457.47126 74.287855 
L 461.528327 56.23851 
L 465.923482 35.64053 
L 470.318637 13.956247 
L 473.228783 -1 
L 473.228783 -1 
" clip-path="url(#pea57627b0e)" style="fill: none; stroke: #e69f00; stroke-width: 2.2; stroke-linecap: square"/>
   </g>
   <g id="line2d_35">
    <path d="M 380.387 203.648 
L 650.52 203.648 
" clip-path="url(#pea57627b0e)" style="fill: none; stroke-dasharray: 1.3,2.145; stroke-dashoffset: 0; stroke: #999999; stroke-width: 1.3"/>
   </g>
   <g id="patch_6">
    <path d="M 380.387 241.36 
L 380.387 52.8 
" style="fill: none; stroke: #000000; stroke-linejoin: miter; stroke-linecap: square"/>
   </g>
   <g id="patch_7">
    <path d="M 380.387 241.36 
L 650.52 241.36 
" style="fill: none; stroke: #000000; stroke-linejoin: miter; stroke-linecap: square"/>
   </g>
   <g id="patch_8">
    <path d="M 490.375611 168.187655 
Q 496.458748 184.976345 502.161012 200.713875 
" style="fill: none; stroke: #999999; stroke-linecap: round"/>
    <path d="M 502.678733 196.271808 
L 502.161012 200.713875 
L 498.917991 197.634458 
" style="fill: none; stroke: #999999; stroke-linecap: round"/>
   </g>
   <g id="text_35">
    <!-- max $=\dfrac{\Omega^2}{\Omega^2+\Delta^2}=\dfrac{1}{5}$ -->
    <g transform="translate(437.711003 156.508) scale(0.1 -0.1)">
     <defs>
      <path id="DejaVuSans-6d" d="M 3328 2828 
Q 3544 3216 3844 3400 
Q 4144 3584 4550 3584 
Q 5097 3584 5394 3201 
Q 5691 2819 5691 2113 
L 5691 0 
L 5113 0 
L 5113 2094 
Q 5113 2597 4934 2840 
Q 4756 3084 4391 3084 
Q 3944 3084 3684 2787 
Q 3425 2491 3425 1978 
L 3425 0 
L 2847 0 
L 2847 2094 
Q 2847 2600 2669 2842 
Q 2491 3084 2119 3084 
Q 1678 3084 1418 2786 
Q 1159 2488 1159 1978 
L 1159 0 
L 581 0 
L 581 3500 
L 1159 3500 
L 1159 2956 
Q 1356 3278 1631 3431 
Q 1906 3584 2284 3584 
Q 2666 3584 2933 3390 
Q 3200 3197 3328 2828 
z
" transform="scale(0.015625)"/>
      <path id="DejaVuSans-78" d="M 3513 3500 
L 2247 1797 
L 3578 0 
L 2900 0 
L 1881 1375 
L 863 0 
L 184 0 
L 1544 1831 
L 300 3500 
L 978 3500 
L 1906 2253 
L 2834 3500 
L 3513 3500 
z
" transform="scale(0.015625)"/>
      <path id="DejaVuSans-2b" d="M 2944 4013 
L 2944 2272 
L 4684 2272 
L 4684 1741 
L 2944 1741 
L 2944 0 
L 2419 0 
L 2419 1741 
L 678 1741 
L 678 2272 
L 2419 2272 
L 2419 4013 
L 2944 4013 
z
" transform="scale(0.015625)"/>
     </defs>
     <use xlink:href="#DejaVuSans-6d" transform="translate(0 0.96875)"/>
     <use xlink:href="#DejaVuSans-61" transform="translate(97.412109 0.96875)"/>
     <use xlink:href="#DejaVuSans-78" transform="translate(158.691406 0.96875)"/>
     <use xlink:href="#DejaVuSans-20" transform="translate(217.871094 0.96875)"/>
     <use xlink:href="#DejaVuSans-3d" transform="translate(269.140625 0.96875)"/>
     <use xlink:href="#DejaVuSans-3a9" transform="translate(492.412109 44.765625)"/>
     <use xlink:href="#DejaVuSans-32" transform="translate(569.785156 83.046875) scale(0.7)"/>
     <use xlink:href="#DejaVuSans-3a9" transform="translate(372.412109 -76.71875)"/>
     <use xlink:href="#DejaVuSans-32" transform="translate(449.785156 -38.4375) scale(0.7)"/>
     <use xlink:href="#DejaVuSans-2b" transform="translate(516.538086 -76.71875)"/>
     <use xlink:href="#DejaVuSans-394" transform="translate(619.80957 -76.71875)"/>
     <use xlink:href="#DejaVuSans-32" transform="translate(689.174805 -38.4375) scale(0.7)"/>
     <use xlink:href="#DejaVuSans-3d" transform="translate(768.427734 0.96875)"/>
     <use xlink:href="#DejaVuSans-31" transform="translate(871.699219 44.765625)"/>
     <use xlink:href="#DejaVuSans-35" transform="translate(871.699219 -59.390625)"/>
     <path d="M 372.412109 19.765625 
L 372.412109 26.015625 
L 736.445312 26.015625 
L 736.445312 19.765625 
L 372.412109 19.765625 
z
"/>
     <path d="M 871.699219 19.765625 
L 871.699219 26.015625 
L 935.322266 26.015625 
L 935.322266 19.765625 
L 871.699219 19.765625 
z
"/>
    </g>
   </g>
   <g id="text_36">
    <!-- Off resonance -->
    <g transform="translate(473.506 46.8) scale(0.12 -0.12)">
     <use xlink:href="#DejaVuSans-4f"/>
     <use xlink:href="#DejaVuSans-66" transform="translate(78.710938 0)"/>
     <use xlink:href="#DejaVuSans-66" transform="translate(113.916016 0)"/>
     <use xlink:href="#DejaVuSans-20" transform="translate(149.121094 0)"/>
     <use xlink:href="#DejaVuSans-72" transform="translate(180.908203 0)"/>
     <use xlink:href="#DejaVuSans-65" transform="translate(219.771484 0)"/>
     <use xlink:href="#DejaVuSans-73" transform="translate(281.294922 0)"/>
     <use xlink:href="#DejaVuSans-6f" transform="translate(333.394531 0)"/>
     <use xlink:href="#DejaVuSans-6e" transform="translate(394.576172 0)"/>
     <use xlink:href="#DejaVuSans-61" transform="translate(457.955078 0)"/>
     <use xlink:href="#DejaVuSans-6e" transform="translate(519.234375 0)"/>
     <use xlink:href="#DejaVuSans-63" transform="translate(582.613281 0)"/>
     <use xlink:href="#DejaVuSans-65" transform="translate(637.59375 0)"/>
    </g>
   </g>
   <g id="legend_2">
    <g id="line2d_36">
     <path d="M 388.487 64.588594 
L 397.487 64.588594 
L 406.487 64.588594 
" style="fill: none; stroke: #0072b2; stroke-width: 2.2; stroke-linecap: square"/>
    </g>
    <g id="text_37">
     <!-- Rabi, $\Delta=2\Omega$ -->
     <g transform="translate(413.687 67.738594) scale(0.09 -0.09)">
      <use xlink:href="#DejaVuSans-52" transform="translate(0 0.015625)"/>
      <use xlink:href="#DejaVuSans-61" transform="translate(69.482422 0.015625)"/>
      <use xlink:href="#DejaVuSans-62" transform="translate(130.761719 0.015625)"/>
      <use xlink:href="#DejaVuSans-69" transform="translate(194.238281 0.015625)"/>
      <use xlink:href="#DejaVuSans-2c" transform="translate(222.021484 0.015625)"/>
      <use xlink:href="#DejaVuSans-20" transform="translate(253.808594 0.015625)"/>
      <use xlink:href="#DejaVuSans-394" transform="translate(285.595703 0.015625)"/>
      <use xlink:href="#DejaVuSans-3d" transform="translate(373.486328 0.015625)"/>
      <use xlink:href="#DejaVuSans-32" transform="translate(476.757812 0.015625)"/>
      <use xlink:href="#DejaVuSans-3a9" transform="translate(540.380859 0.015625)"/>
     </g>
    </g>
    <g id="line2d_37">
     <path d="M 388.487 78.538594 
L 397.487 78.538594 
L 406.487 78.538594 
" style="fill: none; stroke: #e69f00; stroke-width: 2.2; stroke-linecap: square"/>
    </g>
    <g id="text_38">
     <!-- PT $(\Omega t/2)^2$ -->
     <g transform="translate(413.687 81.688594) scale(0.09 -0.09)">
      <use xlink:href="#DejaVuSans-50" transform="translate(0 0.765625)"/>
      <use xlink:href="#DejaVuSans-54" transform="translate(60.302734 0.765625)"/>
      <use xlink:href="#DejaVuSans-20" transform="translate(121.386719 0.765625)"/>
      <use xlink:href="#DejaVuSans-28" transform="translate(153.173828 0.765625)"/>
      <use xlink:href="#DejaVuSans-3a9" transform="translate(192.1875 0.765625)"/>
      <use xlink:href="#DejaVuSans-Oblique-74" transform="translate(268.603516 0.765625)"/>
      <use xlink:href="#DejaVuSans-2f" transform="translate(307.8125 0.765625)"/>
      <use xlink:href="#DejaVuSans-32" transform="translate(337.878906 0.765625)"/>
      <use xlink:href="#DejaVuSans-29" transform="translate(401.501953 0.765625)"/>
      <use xlink:href="#DejaVuSans-32" transform="translate(441.472656 39.046875) scale(0.7)"/>
     </g>
    </g>
   </g>
  </g>
  <g id="text_39">
   <!-- Exact Rabi solution vs first-order perturbation theory -->
   <g transform="translate(172.36125 14.878125) scale(0.12 -0.12)">
    <defs>
     <path id="DejaVuSans-45" d="M 628 4666 
L 3578 4666 
L 3578 4134 
L 1259 4134 
L 1259 2753 
L 3481 2753 
L 3481 2222 
L 1259 2222 
L 1259 531 
L 3634 531 
L 3634 0 
L 628 0 
L 628 4666 
z
" transform="scale(0.015625)"/>
     <path id="DejaVuSans-74" d="M 1172 4494 
L 1172 3500 
L 2356 3500 
L 2356 3053 
L 1172 3053 
L 1172 1153 
Q 1172 725 1289 603 
Q 1406 481 1766 481 
L 2356 481 
L 2356 0 
L 1766 0 
Q 1100 0 847 248 
Q 594 497 594 1153 
L 594 3053 
L 172 3053 
L 172 3500 
L 594 3500 
L 594 4494 
L 1172 4494 
z
" transform="scale(0.015625)"/>
     <path id="DejaVuSans-75" d="M 544 1381 
L 544 3500 
L 1119 3500 
L 1119 1403 
Q 1119 906 1312 657 
Q 1506 409 1894 409 
Q 2359 409 2629 706 
Q 2900 1003 2900 1516 
L 2900 3500 
L 3475 3500 
L 3475 0 
L 2900 0 
L 2900 538 
Q 2691 219 2414 64 
Q 2138 -91 1772 -91 
Q 1169 -91 856 284 
Q 544 659 544 1381 
z
M 1991 3584 
L 1991 3584 
z
" transform="scale(0.015625)"/>
     <path id="DejaVuSans-2d" d="M 313 2009 
L 1997 2009 
L 1997 1497 
L 313 1497 
L 313 2009 
z
" transform="scale(0.015625)"/>
     <path id="DejaVuSans-70" d="M 1159 525 
L 1159 -1331 
L 581 -1331 
L 581 3500 
L 1159 3500 
L 1159 2969 
Q 1341 3281 1617 3432 
Q 1894 3584 2278 3584 
Q 2916 3584 3314 3078 
Q 3713 2572 3713 1747 
Q 3713 922 3314 415 
Q 2916 -91 2278 -91 
Q 1894 -91 1617 61 
Q 1341 213 1159 525 
z
M 3116 1747 
Q 3116 2381 2855 2742 
Q 2594 3103 2138 3103 
Q 1681 3103 1420 2742 
Q 1159 2381 1159 1747 
Q 1159 1113 1420 752 
Q 1681 391 2138 391 
Q 2594 391 2855 752 
Q 3116 1113 3116 1747 
z
" transform="scale(0.015625)"/>
     <path id="DejaVuSans-68" d="M 3513 2113 
L 3513 0 
L 2938 0 
L 2938 2094 
Q 2938 2591 2744 2837 
Q 2550 3084 2163 3084 
Q 1697 3084 1428 2787 
Q 1159 2491 1159 1978 
L 1159 0 
L 581 0 
L 581 4863 
L 1159 4863 
L 1159 2956 
Q 1366 3272 1645 3428 
Q 1925 3584 2291 3584 
Q 2894 3584 3203 3211 
Q 3513 2838 3513 2113 
z
" transform="scale(0.015625)"/>
     <path id="DejaVuSans-79" d="M 2059 -325 
Q 1816 -950 1584 -1140 
Q 1353 -1331 966 -1331 
L 506 -1331 
L 506 -850 
L 844 -850 
Q 1081 -850 1212 -737 
Q 1344 -625 1503 -206 
L 1606 56 
L 191 3500 
L 800 3500 
L 1894 763 
L 2988 3500 
L 3597 3500 
L 2059 -325 
z
" transform="scale(0.015625)"/>
    </defs>
    <use xlink:href="#DejaVuSans-45"/>
    <use xlink:href="#DejaVuSans-78" transform="translate(63.183594 0)"/>
    <use xlink:href="#DejaVuSans-61" transform="translate(122.363281 0)"/>
    <use xlink:href="#DejaVuSans-63" transform="translate(183.642578 0)"/>
    <use xlink:href="#DejaVuSans-74" transform="translate(238.623047 0)"/>
    <use xlink:href="#DejaVuSans-20" transform="translate(277.832031 0)"/>
    <use xlink:href="#DejaVuSans-52" transform="translate(309.619141 0)"/>
    <use xlink:href="#DejaVuSans-61" transform="translate(376.851562 0)"/>
    <use xlink:href="#DejaVuSans-62" transform="translate(438.130859 0)"/>
    <use xlink:href="#DejaVuSans-69" transform="translate(501.607422 0)"/>
    <use xlink:href="#DejaVuSans-20" transform="translate(529.390625 0)"/>
    <use xlink:href="#DejaVuSans-73" transform="translate(561.177734 0)"/>
    <use xlink:href="#DejaVuSans-6f" transform="translate(613.277344 0)"/>
    <use xlink:href="#DejaVuSans-6c" transform="translate(674.458984 0)"/>
    <use xlink:href="#DejaVuSans-75" transform="translate(702.242188 0)"/>
    <use xlink:href="#DejaVuSans-74" transform="translate(765.621094 0)"/>
    <use xlink:href="#DejaVuSans-69" transform="translate(804.830078 0)"/>
    <use xlink:href="#DejaVuSans-6f" transform="translate(832.613281 0)"/>
    <use xlink:href="#DejaVuSans-6e" transform="translate(893.794922 0)"/>
    <use xlink:href="#DejaVuSans-20" transform="translate(957.173828 0)"/>
    <use xlink:href="#DejaVuSans-76" transform="translate(988.960938 0)"/>
    <use xlink:href="#DejaVuSans-73" transform="translate(1048.140625 0)"/>
    <use xlink:href="#DejaVuSans-20" transform="translate(1100.240234 0)"/>
    <use xlink:href="#DejaVuSans-66" transform="translate(1132.027344 0)"/>
    <use xlink:href="#DejaVuSans-69" transform="translate(1167.232422 0)"/>
    <use xlink:href="#DejaVuSans-72" transform="translate(1195.015625 0)"/>
    <use xlink:href="#DejaVuSans-73" transform="translate(1236.128906 0)"/>
    <use xlink:href="#DejaVuSans-74" transform="translate(1288.228516 0)"/>
    <use xlink:href="#DejaVuSans-2d" transform="translate(1327.4375 0)"/>
    <use xlink:href="#DejaVuSans-6f" transform="translate(1365.396484 0)"/>
    <use xlink:href="#DejaVuSans-72" transform="translate(1426.578125 0)"/>
    <use xlink:href="#DejaVuSans-64" transform="translate(1465.941406 0)"/>
    <use xlink:href="#DejaVuSans-65" transform="translate(1529.417969 0)"/>
    <use xlink:href="#DejaVuSans-72" transform="translate(1590.941406 0)"/>
    <use xlink:href="#DejaVuSans-20" transform="translate(1632.054688 0)"/>
    <use xlink:href="#DejaVuSans-70" transform="translate(1663.841797 0)"/>
    <use xlink:href="#DejaVuSans-65" transform="translate(1727.318359 0)"/>
    <use xlink:href="#DejaVuSans-72" transform="translate(1788.841797 0)"/>
    <use xlink:href="#DejaVuSans-74" transform="translate(1829.955078 0)"/>
    <use xlink:href="#DejaVuSans-75" transform="translate(1869.164062 0)"/>
    <use xlink:href="#DejaVuSans-72" transform="translate(1932.542969 0)"/>
    <use xlink:href="#DejaVuSans-62" transform="translate(1973.65625 0)"/>
    <use xlink:href="#DejaVuSans-61" transform="translate(2037.132812 0)"/>
    <use xlink:href="#DejaVuSans-74" transform="translate(2098.412109 0)"/>
    <use xlink:href="#DejaVuSans-69" transform="translate(2137.621094 0)"/>
    <use xlink:href="#DejaVuSans-6f" transform="translate(2165.404297 0)"/>
    <use xlink:href="#DejaVuSans-6e" transform="translate(2226.585938 0)"/>
    <use xlink:href="#DejaVuSans-20" transform="translate(2289.964844 0)"/>
    <use xlink:href="#DejaVuSans-74" transform="translate(2321.751953 0)"/>
    <use xlink:href="#DejaVuSans-68" transform="translate(2360.960938 0)"/>
    <use xlink:href="#DejaVuSans-65" transform="translate(2424.339844 0)"/>
    <use xlink:href="#DejaVuSans-6f" transform="translate(2485.863281 0)"/>
    <use xlink:href="#DejaVuSans-72" transform="translate(2547.044922 0)"/>
    <use xlink:href="#DejaVuSans-79" transform="translate(2588.158203 0)"/>
   </g>
  </g>
 </g>
 <defs>
  <clipPath id="p7562b8fa89">
   <rect x="55.082" y="52.8" width="270.133" height="188.56"/>
  </clipPath>
  <clipPath id="pea57627b0e">
   <rect x="380.387" y="52.8" width="270.133" height="188.56"/>
  </clipPath>
 </defs>
</svg>
