<!-- CAJAL SVG | quantum-mechanics-vol3 | 07-scattering-i-partial-waves | fig 05 | Scattering Length a_s(V₀) — Spherical Square Well | 2026-06-06 -->
<svg viewBox="0 0 700 420" xmlns="http://www.w3.org/2000/svg" role="img" aria-labelledby="fig-title-05">
  <title id="fig-title-05">Scattering Length a_s(V₀) — Spherical Square Well</title>
  <desc>Scattering length a_s normalized by a versus well depth V₀ for the spherical square well, showing divergences at threshold values (π/2)² and (3π/2)² where new bound states appear, with a zero-crossing at V₀ ≈ 20.2.</desc>
  <metadata><cajal:figure xmlns:cajal="https://bearbrown.ai/cajal/1.0" book="Quantum Mechanics — Approximation Methods and Real Systems" book-slug="quantum-mechanics-vol3" chapter="07-scattering-i-partial-waves" figure-number="05" figure-title="Scattering Length a_s(V₀) — Spherical Square Well" figure-slug="scattering-length-spherical-square-well" figure-type="chart" priority="Important" author="Humanitarians AI Incorporated" date-generated="2026-06-06" source-file="pantry/07-scattering-i-partial-waves-cajal.md"/></metadata>
  <defs><marker id="arrow" markerWidth="8" markerHeight="6" refX="7" refY="3" orient="auto"><polygon points="0 0, 8 3, 0 6" fill="#2a1a0e"/></marker></defs>
  <rect width="700" height="420" fill="#FFFFFF"/>
  <text x="350" y="28" text-anchor="middle" font-family="'EB Garamond','Garamond',Georgia,serif" font-size="14" fill="#2a1a0e">Scattering length a<tspan baseline-shift="sub" font-size="10">s</tspan>(V₀) — spherical square well</text>
  <rect x="80" y="50" width="570" height="320" fill="#F5F5F5" stroke="#D4D4D4" stroke-width="0.75"/>
  <!-- Zero line -->
  <line x1="80" y1="210.0" x2="650" y2="210.0" stroke="#D4D4D4" stroke-width="0.75"/>
  <!-- Threshold verticals -->
  <line x1="136.3" y1="50" x2="136.3" y2="370" stroke="#C8102E" stroke-width="1" stroke-dasharray="4 3"/>
  <line x1="586.3" y1="50" x2="586.3" y2="370" stroke="#C8102E" stroke-width="1" stroke-dasharray="4 3"/>
  <!-- Curve segments -->
  <polyline points="80.9,210.4 81.0,210.5 81.2,210.6 81.3,210.6 81.5,210.7 81.6,210.8 81.7,210.8 81.9,210.9 82.0,211.0 82.1,211.0 82.3,211.1 82.4,211.2 82.5,211.2 82.7,211.3 82.8,211.4 82.9,211.4 83.1,211.5 83.2,211.6 83.3,211.7 83.5,211.7 83.6,211.8 83.7,211.9 83.9,211.9 84.0,212.0 84.2,212.1 84.3,212.2 84.4,212.2 84.6,212.3 84.7,212.4 84.8,212.5 85.0,212.5 85.1,212.6 85.2,212.7 85.4,212.8 85.5,212.8 85.6,212.9 85.8,213.0 85.9,213.1 86.0,213.2 86.2,213.2 86.3,213.3 86.4,213.4 86.6,213.5 86.7,213.6 86.8,213.6 87.0,213.7 87.1,213.8 87.3,213.9 87.4,214.0 87.5,214.1 87.7,214.1 87.8,214.2 87.9,214.3 88.1,214.4 88.2,214.5 88.3,214.6 88.5,214.7 88.6,214.7 88.7,214.8 88.9,214.9 89.0,215.0 89.1,215.1 89.3,215.2 89.4,215.3 89.5,215.4 89.7,215.5 89.8,215.6 90.0,215.6 90.1,215.7 90.2,215.8 90.4,215.9 90.5,216.0 90.6,216.1 90.8,216.2 90.9,216.3 91.0,216.4 91.2,216.5 91.3,216.6 91.4,216.7 91.6,216.8 91.7,216.9 91.8,217.0 92.0,217.1 92.1,217.2 92.2,217.3 92.4,217.4 92.5,217.5 92.7,217.6 92.8,217.7 92.9,217.8 93.1,217.9 93.2,218.0 93.3,218.1 93.5,218.3 93.6,218.4 93.7,218.5 93.9,218.6 94.0,218.7 94.1,218.8 94.3,218.9 94.4,219.0 94.5,219.1 94.7,219.3 94.8,219.4 94.9,219.5 95.1,219.6 95.2,219.7 95.4,219.8 95.5,220.0 95.6,220.1 95.8,220.2 95.9,220.3 96.0,220.4 96.2,220.6 96.3,220.7 96.4,220.8 96.6,220.9 96.7,221.1 96.8,221.2 97.0,221.3 97.1,221.5 97.2,221.6 97.4,221.7 97.5,221.8 97.6,222.0 97.8,222.1 97.9,222.2 98.0,222.4 98.2,222.5 98.3,222.7 98.5,222.8 98.6,222.9 98.7,223.1 98.9,223.2 99.0,223.4 99.1,223.5 99.3,223.6 99.4,223.8 99.5,223.9 99.7,224.1 99.8,224.2 99.9,224.4 100.1,224.5 100.2,224.7 100.3,224.8 100.5,225.0 100.6,225.1 100.7,225.3 100.9,225.5 101.0,225.6 101.2,225.8 101.3,225.9 101.4,226.1 101.6,226.3 101.7,226.4 101.8,226.6 102.0,226.8 102.1,226.9 102.2,227.1 102.4,227.3 102.5,227.5 102.6,227.6 102.8,227.8 102.9,228.0 103.0,228.2 103.2,228.3 103.3,228.5 103.4,228.7 103.6,228.9 103.7,229.1 103.9,229.3 104.0,229.5 104.1,229.6 104.3,229.8 104.4,230.0 104.5,230.2 104.7,230.4 104.8,230.6 104.9,230.8 105.1,231.0 105.2,231.2 105.3,231.4 105.5,231.6 105.6,231.9 105.7,232.1 105.9,232.3 106.0,232.5 106.1,232.7 106.3,232.9 106.4,233.1 106.6,233.4 106.7,233.6 106.8,233.8 107.0,234.1 107.1,234.3 107.2,234.5 107.4,234.8 107.5,235.0 107.6,235.2 107.8,235.5 107.9,235.7 108.0,236.0 108.2,236.2 108.3,236.5 108.4,236.7 108.6,237.0 108.7,237.2 108.8,237.5 109.0,237.8 109.1,238.0 109.2,238.3 109.4,238.6 109.5,238.8 109.7,239.1 109.8,239.4 109.9,239.7 110.1,240.0 110.2,240.3 110.3,240.6 110.5,240.9 110.6,241.2 110.7,241.5 110.9,241.8 111.0,242.1 111.1,242.4 111.3,242.7 111.4,243.0 111.5,243.3 111.7,243.7 111.8,244.0 111.9,244.3 112.1,244.7 112.2,245.0 112.4,245.3 112.5,245.7 112.6,246.0 112.8,246.4 112.9,246.8 113.0,247.1 113.2,247.5 113.3,247.9 113.4,248.2 113.6,248.6 113.7,249.0 113.8,249.4 114.0,249.8 114.1,250.2 114.2,250.6 114.4,251.0 114.5,251.4 114.6,251.8 114.8,252.3 114.9,252.7 115.1,253.1 115.2,253.6 115.3,254.0 115.5,254.5 115.6,254.9 115.7,255.4 115.9,255.9 116.0,256.3 116.1,256.8 116.3,257.3 116.4,257.8 116.5,258.3 116.7,258.8 116.8,259.4 116.9,259.9 117.1,260.4 117.2,260.9 117.3,261.5 117.5,262.1 117.6,262.6 117.8,263.2 117.9,263.8 118.0,264.4 118.2,265.0 118.3,265.6 118.4,266.2 118.6,266.8 118.7,267.4 118.8,268.1 119.0,268.7 119.1,269.4 119.2,270.1 119.4,270.8 119.5,271.5 119.6,272.2 119.8,272.9 119.9,273.6 120.0,274.4 120.2,275.1 120.3,275.9 120.4,276.7 120.6,277.5 120.7,278.3 120.9,279.1 121.0,279.9 121.1,280.8 121.3,281.7 121.4,282.5 121.5,283.4 121.7,284.4 121.8,285.3 121.9,286.3 122.1,287.2 122.2,288.2 122.3,289.2 122.5,290.2 122.6,291.3 122.7,292.4 122.9,293.5 123.0,294.6 123.1,295.7 123.3,296.9 123.4,298.0 123.6,299.3 123.7,300.5 123.8,301.7 124.0,303.0 124.1,304.4 124.2,305.7 124.4,307.1 124.5,308.5 124.6,309.9 124.8,311.4 124.9,312.9 125.0,314.5 125.2,316.0 125.3,317.7 125.4,319.3 125.6,321.0 125.7,322.8 125.8,324.6 126.0,326.4 126.1,328.3 126.3,330.3 126.4,332.3 126.5,334.3 126.7,336.4 126.8,338.6 126.9,340.8 127.1,343.1 127.2,345.5 127.3,347.9 127.5,350.4 127.6,353.0 127.7,355.7 127.9,358.4 128.0,361.3 128.1,364.2 128.3,367.3 128.4,370.4 128.5,373.7 128.7,377.0" fill="none" stroke="#2a1a0e" stroke-width="1.8"/>
  <polyline points="146.5,42.7 147.7,56.6 148.8,68.0 149.9,77.6 151.0,85.7 152.1,92.6 153.2,98.7 154.3,104.0 155.5,108.7 156.6,112.9 157.7,116.6 158.8,120.0 159.9,123.0 161.0,125.8 162.2,128.4 163.3,130.7 164.4,132.9 165.5,134.8 166.6,136.7 167.7,138.4 168.8,140.0 170.0,141.5 171.1,142.9 172.2,144.2 173.3,145.4 174.4,146.6 175.5,147.7 176.6,148.7 177.8,149.7 178.9,150.6 180.0,151.5 181.1,152.4 182.2,153.2 183.3,153.9 184.4,154.7 185.6,155.3 186.7,156.0 187.8,156.7 188.9,157.3 190.0,157.8 191.1,158.4 192.3,159.0 193.4,159.5 194.5,160.0 195.6,160.5 196.7,160.9 197.8,161.4 198.9,161.8 200.1,162.2 201.2,162.6 202.3,163.0 203.4,163.4 204.5,163.8 205.6,164.1 206.7,164.5 207.9,164.8 209.0,165.1 210.1,165.4 211.2,165.8 212.3,166.1 213.4,166.3 214.6,166.6 215.7,166.9 216.8,167.2 217.9,167.4 219.0,167.7 220.1,167.9 221.2,168.2 222.4,168.4 223.5,168.6 224.6,168.9 225.7,169.1 226.8,169.3 227.9,169.5 229.0,169.7 230.2,169.9 231.3,170.1 232.4,170.3 233.5,170.5 234.6,170.7 235.7,170.9 236.8,171.0 238.0,171.2 239.1,171.4 240.2,171.5 241.3,171.7 242.4,171.9 243.5,172.0 244.7,172.2 245.8,172.3 246.9,172.5 248.0,172.6 249.1,172.8 250.2,172.9 251.3,173.1 252.5,173.2 253.6,173.3 254.7,173.5 255.8,173.6 256.9,173.7 258.0,173.9 259.1,174.0 260.3,174.1 261.4,174.2 262.5,174.3 263.6,174.5 264.7,174.6 265.8,174.7 267.0,174.8 268.1,174.9 269.2,175.0 270.3,175.1 271.4,175.2 272.5,175.4 273.6,175.5 274.8,175.6 275.9,175.7 277.0,175.8 278.1,175.9 279.2,176.0 280.3,176.1 281.4,176.2 282.6,176.3 283.7,176.4 284.8,176.4 285.9,176.5 287.0,176.6 288.1,176.7 289.2,176.8 290.4,176.9 291.5,177.0 292.6,177.1 293.7,177.2 294.8,177.2 295.9,177.3 297.1,177.4 298.2,177.5 299.3,177.6 300.4,177.7 301.5,177.7 302.6,177.8 303.7,177.9 304.9,178.0 306.0,178.1 307.1,178.1 308.2,178.2 309.3,178.3 310.4,178.4 311.5,178.5 312.7,178.5 313.8,178.6 314.9,178.7 316.0,178.8 317.1,178.8 318.2,178.9 319.3,179.0 320.5,179.0 321.6,179.1 322.7,179.2 323.8,179.3 324.9,179.3 326.0,179.4 327.2,179.5 328.3,179.5 329.4,179.6 330.5,179.7 331.6,179.8 332.7,179.8 333.8,179.9 335.0,180.0 336.1,180.0 337.2,180.1 338.3,180.2 339.4,180.2 340.5,180.3 341.6,180.4 342.8,180.4 343.9,180.5 345.0,180.6 346.1,180.6 347.2,180.7 348.3,180.8 349.5,180.8 350.6,180.9 351.7,181.0 352.8,181.0 353.9,181.1 355.0,181.2 356.1,181.2 357.3,181.3 358.4,181.4 359.5,181.4 360.6,181.5 361.7,181.6 362.8,181.6 363.9,181.7 365.1,181.8 366.2,181.8 367.3,181.9 368.4,182.0 369.5,182.0 370.6,182.1 371.7,182.2 372.9,182.2 374.0,182.3 375.1,182.4 376.2,182.4 377.3,182.5 378.4,182.6 379.6,182.6 380.7,182.7 381.8,182.8 382.9,182.8 384.0,182.9 385.1,183.0 386.2,183.0 387.4,183.1 388.5,183.2 389.6,183.2 390.7,183.3 391.8,183.4 392.9,183.5 394.0,183.5 395.2,183.6 396.3,183.7 397.4,183.7 398.5,183.8 399.6,183.9 400.7,184.0 401.9,184.0 403.0,184.1 404.1,184.2 405.2,184.2 406.3,184.3 407.4,184.4 408.5,184.5 409.7,184.5 410.8,184.6 411.9,184.7 413.0,184.8 414.1,184.8 415.2,184.9 416.3,185.0 417.5,185.1 418.6,185.2 419.7,185.2 420.8,185.3 421.9,185.4 423.0,185.5 424.1,185.6 425.3,185.7 426.4,185.7 427.5,185.8 428.6,185.9 429.7,186.0 430.8,186.1 432.0,186.2 433.1,186.3 434.2,186.4 435.3,186.4 436.4,186.5 437.5,186.6 438.6,186.7 439.8,186.8 440.9,186.9 442.0,187.0 443.1,187.1 444.2,187.2 445.3,187.3 446.4,187.4 447.6,187.5 448.7,187.6 449.8,187.7 450.9,187.8 452.0,187.9 453.1,188.0 454.2,188.2 455.4,188.3 456.5,188.4 457.6,188.5 458.7,188.6 459.8,188.7 460.9,188.9 462.1,189.0 463.2,189.1 464.3,189.2 465.4,189.4 466.5,189.5 467.6,189.6 468.7,189.7 469.9,189.9 471.0,190.0 472.1,190.2 473.2,190.3 474.3,190.4 475.4,190.6 476.5,190.7 477.7,190.9 478.8,191.1 479.9,191.2 481.0,191.4 482.1,191.5 483.2,191.7 484.4,191.9 485.5,192.0 486.6,192.2 487.7,192.4 488.8,192.6 489.9,192.8 491.0,193.0 492.2,193.2 493.3,193.4 494.4,193.6 495.5,193.8 496.6,194.0 497.7,194.2 498.8,194.4 500.0,194.7 501.1,194.9 502.2,195.1 503.3,195.4 504.4,195.6 505.5,195.9 506.6,196.2 507.8,196.4 508.9,196.7 510.0,197.0 511.1,197.3 512.2,197.6 513.3,197.9 514.5,198.3 515.6,198.6 516.7,198.9 517.8,199.3 518.9,199.7 520.0,200.0 521.1,200.4 522.3,200.8 523.4,201.2 524.5,201.7 525.6,202.1 526.7,202.6 527.8,203.1 528.9,203.6 530.1,204.1 531.2,204.6 532.3,205.2 533.4,205.8 534.5,206.4 535.6,207.0 536.7,207.7 537.9,208.3 539.0,209.1 540.1,209.8 541.2,210.6 542.3,211.4 543.4,212.3 544.6,213.2 545.7,214.2 546.8,215.2 547.9,216.3 549.0,217.5 550.1,218.7 551.2,220.0 552.4,221.4 553.5,222.8 554.6,224.4 555.7,226.1 556.8,227.9 557.9,229.9 559.0,232.0 560.2,234.3 561.3,236.8 562.4,239.5 563.5,242.5 564.6,245.8 565.7,249.4 566.9,253.5 568.0,258.1 569.1,263.2 570.2,269.1 571.3,275.9 572.4,283.7 573.5,292.9 574.7,303.8 575.8,317.1 576.9,333.4 578.0,354.2" fill="none" stroke="#2a1a0e" stroke-width="1.8"/>
  <polyline points="597.0,41.9 597.1,43.9 597.3,45.7 597.4,47.6 597.6,49.3 597.7,51.1 597.9,52.8 598.0,54.4 598.2,56.0 598.3,57.5 598.5,59.1 598.6,60.5 598.8,62.0 599.0,63.4 599.1,64.8 599.3,66.1 599.4,67.4 599.6,68.7 599.7,70.0 599.9,71.2 600.0,72.4 600.2,73.6 600.3,74.7 600.5,75.8 600.6,76.9 600.8,78.0 600.9,79.1 601.1,80.1 601.2,81.1 601.4,82.1 601.5,83.1 601.7,84.0 601.8,84.9 602.0,85.9 602.2,86.8 602.3,87.6 602.5,88.5 602.6,89.3 602.8,90.2 602.9,91.0 603.1,91.8 603.2,92.6 603.4,93.3 603.5,94.1 603.7,94.8 603.8,95.6 604.0,96.3 604.1,97.0 604.3,97.7 604.4,98.4 604.6,99.1 604.7,99.7 604.9,100.4 605.0,101.0 605.2,101.6 605.4,102.3 605.5,102.9 605.7,103.5 605.8,104.1 606.0,104.6 606.1,105.2 606.3,105.8 606.4,106.3 606.6,106.9 606.7,107.4 606.9,108.0 607.0,108.5 607.2,109.0 607.3,109.5 607.5,110.0 607.6,110.5 607.8,111.0 607.9,111.5 608.1,111.9 608.2,112.4 608.4,112.9 608.6,113.3 608.7,113.8 608.9,114.2 609.0,114.6 609.2,115.1 609.3,115.5 609.5,115.9 609.6,116.3 609.8,116.7 609.9,117.1 610.1,117.5 610.2,117.9 610.4,118.3 610.5,118.7 610.7,119.1 610.8,119.5 611.0,119.8 611.1,120.2 611.3,120.5 611.4,120.9 611.6,121.3 611.8,121.6 611.9,121.9 612.1,122.3 612.2,122.6 612.4,122.9 612.5,123.3 612.7,123.6 612.8,123.9 613.0,124.2 613.1,124.5 613.3,124.9 613.4,125.2 613.6,125.5 613.7,125.8 613.9,126.1 614.0,126.3 614.2,126.6 614.3,126.9 614.5,127.2 614.6,127.5 614.8,127.8 615.0,128.0 615.1,128.3 615.3,128.6 615.4,128.8 615.6,129.1 615.7,129.4 615.9,129.6 616.0,129.9 616.2,130.1 616.3,130.4 616.5,130.6 616.6,130.9 616.8,131.1 616.9,131.3 617.1,131.6 617.2,131.8 617.4,132.1 617.5,132.3 617.7,132.5 617.8,132.7 618.0,133.0 618.2,133.2 618.3,133.4 618.5,133.6 618.6,133.8 618.8,134.0 618.9,134.3 619.1,134.5 619.2,134.7 619.4,134.9 619.5,135.1 619.7,135.3 619.8,135.5 620.0,135.7 620.1,135.9 620.3,136.1 620.4,136.3 620.6,136.5 620.7,136.7 620.9,136.8 621.0,137.0 621.2,137.2 621.4,137.4 621.5,137.6 621.7,137.8 621.8,137.9 622.0,138.1 622.1,138.3 622.3,138.5 622.4,138.6 622.6,138.8 622.7,139.0 622.9,139.1 623.0,139.3 623.2,139.5 623.3,139.6 623.5,139.8 623.6,140.0 623.8,140.1 623.9,140.3 624.1,140.4 624.2,140.6 624.4,140.8 624.6,140.9 624.7,141.1 624.9,141.2 625.0,141.4 625.2,141.5 625.3,141.7 625.5,141.8 625.6,142.0 625.8,142.1 625.9,142.2 626.1,142.4 626.2,142.5 626.4,142.7 626.5,142.8 626.7,142.9 626.8,143.1 627.0,143.2 627.1,143.3 627.3,143.5 627.4,143.6 627.6,143.7 627.8,143.9 627.9,144.0 628.1,144.1 628.2,144.3 628.4,144.4 628.5,144.5 628.7,144.6 628.8,144.8 629.0,144.9 629.1,145.0 629.3,145.1 629.4,145.3 629.6,145.4 629.7,145.5 629.9,145.6 630.0,145.7 630.2,145.9 630.3,146.0 630.5,146.1 630.6,146.2 630.8,146.3 631.0,146.4 631.1,146.5 631.3,146.7 631.4,146.8 631.6,146.9 631.7,147.0 631.9,147.1 632.0,147.2 632.2,147.3 632.3,147.4 632.5,147.5 632.6,147.6 632.8,147.7 632.9,147.8 633.1,147.9 633.2,148.0 633.4,148.1 633.5,148.2 633.7,148.3 633.8,148.4 634.0,148.5 634.2,148.6 634.3,148.7 634.5,148.8 634.6,148.9 634.8,149.0 634.9,149.1 635.1,149.2 635.2,149.3 635.4,149.4 635.5,149.5 635.7,149.6 635.8,149.7 636.0,149.8 636.1,149.9 636.3,150.0 636.4,150.1 636.6,150.1 636.7,150.2 636.9,150.3 637.0,150.4 637.2,150.5 637.4,150.6 637.5,150.7 637.7,150.8 637.8,150.8 638.0,150.9 638.1,151.0 638.3,151.1 638.4,151.2 638.6,151.3 638.7,151.3 638.9,151.4 639.0,151.5 639.2,151.6 639.3,151.7 639.5,151.7 639.6,151.8 639.8,151.9 639.9,152.0 640.1,152.1 640.2,152.1 640.4,152.2 640.6,152.3 640.7,152.4 640.9,152.4 641.0,152.5 641.2,152.6 641.3,152.7 641.5,152.8 641.6,152.8 641.8,152.9 641.9,153.0 642.1,153.0 642.2,153.1 642.4,153.2 642.5,153.3 642.7,153.3 642.8,153.4 643.0,153.5 643.1,153.5 643.3,153.6 643.4,153.7 643.6,153.8 643.8,153.8 643.9,153.9 644.1,154.0 644.2,154.0 644.4,154.1 644.5,154.2 644.7,154.2 644.8,154.3 645.0,154.4 645.1,154.4 645.3,154.5 645.4,154.6 645.6,154.6 645.7,154.7 645.9,154.7 646.0,154.8 646.2,154.9 646.3,154.9 646.5,155.0 646.6,155.1 646.8,155.1 647.0,155.2 647.1,155.3 647.3,155.3 647.4,155.4 647.6,155.4 647.7,155.5 647.9,155.6 648.0,155.6 648.2,155.7 648.3,155.7 648.5,155.8 648.6,155.8 648.8,155.9 648.9,156.0 649.1,156.0 649.2,156.1 649.4,156.1 649.5,156.2 649.7,156.3 649.8,156.3 650.0,156.4" fill="none" stroke="#2a1a0e" stroke-width="1.8"/>
  <!-- Zero-crossing marker (V0 ~ 20.19) -->
  <circle cx="540.3" cy="210.0" r="5" fill="#787878" stroke="#2a1a0e" stroke-width="1"/>
  <!-- Axes -->
  <line x1="80" y1="370" x2="650" y2="370" stroke="#2a1a0e" stroke-width="1"/>
  <line x1="80" y1="370" x2="80" y2="50" stroke="#2a1a0e" stroke-width="1"/>
  <line x1="80.0" y1="370" x2="80.0" y2="375" stroke="#2a1a0e" stroke-width="1"/>
  <text x="80.0" y="386" text-anchor="middle" font-family="'JetBrains Mono','Fira Code','Courier New',monospace" font-size="11" fill="#545454">0</text>
  <line x1="194.0" y1="370" x2="194.0" y2="375" stroke="#2a1a0e" stroke-width="1"/>
  <text x="194.0" y="386" text-anchor="middle" font-family="'JetBrains Mono','Fira Code','Courier New',monospace" font-size="11" fill="#545454">5</text>
  <line x1="308.0" y1="370" x2="308.0" y2="375" stroke="#2a1a0e" stroke-width="1"/>
  <text x="308.0" y="386" text-anchor="middle" font-family="'JetBrains Mono','Fira Code','Courier New',monospace" font-size="11" fill="#545454">10</text>
  <line x1="422.0" y1="370" x2="422.0" y2="375" stroke="#2a1a0e" stroke-width="1"/>
  <text x="422.0" y="386" text-anchor="middle" font-family="'JetBrains Mono','Fira Code','Courier New',monospace" font-size="11" fill="#545454">15</text>
  <line x1="536.0" y1="370" x2="536.0" y2="375" stroke="#2a1a0e" stroke-width="1"/>
  <text x="536.0" y="386" text-anchor="middle" font-family="'JetBrains Mono','Fira Code','Courier New',monospace" font-size="11" fill="#545454">20</text>
  <line x1="650.0" y1="370" x2="650.0" y2="375" stroke="#2a1a0e" stroke-width="1"/>
  <text x="650.0" y="386" text-anchor="middle" font-family="'JetBrains Mono','Fira Code','Courier New',monospace" font-size="11" fill="#545454">25</text>
  <line x1="80" y1="370.0" x2="75" y2="370.0" stroke="#2a1a0e" stroke-width="1"/>
  <text x="72.0" y="374.0" text-anchor="end" font-family="'JetBrains Mono','Fira Code','Courier New',monospace" font-size="11" fill="#545454">-5</text>
  <line x1="80" y1="306.0" x2="75" y2="306.0" stroke="#2a1a0e" stroke-width="1"/>
  <text x="72.0" y="310.0" text-anchor="end" font-family="'JetBrains Mono','Fira Code','Courier New',monospace" font-size="11" fill="#545454">-3</text>
  <line x1="80" y1="210.0" x2="75" y2="210.0" stroke="#2a1a0e" stroke-width="1"/>
  <text x="72.0" y="214.0" text-anchor="end" font-family="'JetBrains Mono','Fira Code','Courier New',monospace" font-size="11" fill="#545454">0</text>
  <line x1="80" y1="114.0" x2="75" y2="114.0" stroke="#2a1a0e" stroke-width="1"/>
  <text x="72.0" y="118.0" text-anchor="end" font-family="'JetBrains Mono','Fira Code','Courier New',monospace" font-size="11" fill="#545454">3</text>
  <line x1="80" y1="50.0" x2="75" y2="50.0" stroke="#2a1a0e" stroke-width="1"/>
  <text x="72.0" y="54.0" text-anchor="end" font-family="'JetBrains Mono','Fira Code','Courier New',monospace" font-size="11" fill="#545454">5</text>
  <!-- Axis labels -->
  <text x="365.0" y="410" text-anchor="middle" font-family="'EB Garamond','Garamond',Georgia,serif" font-size="13" fill="#545454" font-style="italic">V₀  (units ℏ²/2ma²)</text>
  <text x="25" y="210" text-anchor="middle" font-family="'EB Garamond','Garamond',Georgia,serif" font-size="12" fill="#545454" transform="rotate(-90,25,210)">a<tspan baseline-shift="sub" font-size="9">s</tspan>/a</text>
  <!-- Threshold annotations -->
  <text x="136.3" y="62.0" text-anchor="middle" font-family="'Inter',-apple-system,'Helvetica Neue',sans-serif" font-size="10" fill="#C8102E">(π/2)²</text>
  <text x="586.3" y="62.0" text-anchor="middle" font-family="'Inter',-apple-system,'Helvetica Neue',sans-serif" font-size="10" fill="#C8102E">(3π/2)²</text>
  <!-- Bound-state threshold note -->
  <text x="140.3" y="202.0" font-family="'Inter',-apple-system,'Helvetica Neue',sans-serif" font-size="10" fill="#545454">new bound state</text>
</svg>