<!-- CAJAL SVG | quantum-mechanics-vol3 | 07-scattering-i-partial-waves | fig 06 | Breit–Wigner Resonance σ₀(E) near E_R | 2026-06-06 -->
<svg viewBox="0 0 700 420" xmlns="http://www.w3.org/2000/svg" role="img" aria-labelledby="fig-title-06">
  <title id="fig-title-06">Breit–Wigner Resonance σ₀(E) near E_R</title>
  <desc>Breit–Wigner Lorentzian line shapes for the s-wave cross-section near a resonance energy E_R, showing a narrow peak (solid) and a broader peak with width 3Γ (dashed), with the FWHM width Γ marked by a double arrow at half-maximum height.</desc>
  <metadata><cajal:figure xmlns:cajal="https://bearbrown.ai/cajal/1.0" book="Quantum Mechanics — Approximation Methods and Real Systems" book-slug="quantum-mechanics-vol3" chapter="07-scattering-i-partial-waves" figure-number="06" figure-title="Breit–Wigner Resonance σ₀(E) near E_R" figure-slug="breit-wigner-resonance" figure-type="chart" priority="Supplementary" author="Humanitarians AI Incorporated" date-generated="2026-06-06" source-file="pantry/07-scattering-i-partial-waves-cajal.md"/></metadata>
  <defs><marker id="arrow" markerWidth="8" markerHeight="6" refX="7" refY="3" orient="auto"><polygon points="0 0, 8 3, 0 6" fill="#2a1a0e"/></marker></defs>
  <rect width="700" height="420" fill="#FFFFFF"/>
  <text x="350" y="28" text-anchor="middle" font-family="'EB Garamond','Garamond',Georgia,serif" font-size="14" fill="#2a1a0e">Breit–Wigner resonance: σ₀(E) near E<tspan baseline-shift="sub" font-size="10">R</tspan></text>
  <rect x="80" y="50" width="570" height="320" fill="#F5F5F5" stroke="#D4D4D4" stroke-width="0.75"/>
  <!-- Background cross-section line -->
  <line x1="80" y1="364.2" x2="650" y2="364.2" stroke="#ADADAD" stroke-width="0.75"/>
  <!-- Unitarity bound -->
  <line x1="80" y1="79.1" x2="650" y2="79.1" stroke="#C8860E" stroke-width="1" stroke-dasharray="4 3"/>
  <!-- Half-maximum dotted -->
  <line x1="80" y1="224.5" x2="650" y2="224.5" stroke="#D4D4D4" stroke-width="0.75" stroke-dasharray="2 2"/>
  <!-- E_R dashed vertical -->
  <line x1="365.0" y1="50" x2="365.0" y2="370" stroke="#787878" stroke-width="1" stroke-dasharray="4 3"/>
  <!-- Broad peak (draw first, behind) -->
  <polyline points="80.0,346.0 82.9,345.5 85.7,345.1 88.5,344.6 91.4,344.1 94.2,343.6 97.1,343.1 100.0,342.6 102.8,342.0 105.7,341.5 108.5,340.9 111.4,340.3 114.2,339.7 117.1,339.1 119.9,338.4 122.8,337.8 125.6,337.1 128.4,336.4 131.3,335.7 134.1,334.9 137.0,334.1 139.8,333.3 142.7,332.5 145.6,331.7 148.4,330.8 151.2,329.9 154.1,328.9 156.9,328.0 159.8,327.0 162.6,325.9 165.5,324.9 168.3,323.8 171.2,322.6 174.1,321.4 176.9,320.2 179.8,318.9 182.6,317.6 185.5,316.2 188.3,314.8 191.1,313.3 194.0,311.8 196.8,310.2 199.7,308.6 202.6,306.9 205.4,305.1 208.2,303.3 211.1,301.4 213.9,299.4 216.8,297.4 219.7,295.2 222.5,293.0 225.3,290.7 228.2,288.3 231.1,285.8 233.9,283.2 236.7,280.5 239.6,277.7 242.4,274.8 245.3,271.7 248.1,268.6 251.0,265.3 253.8,261.9 256.7,258.3 259.6,254.6 262.4,250.8 265.2,246.8 268.1,242.7 270.9,238.4 273.8,233.9 276.6,229.3 279.5,224.5 282.4,219.6 285.2,214.5 288.0,209.3 290.9,203.9 293.8,198.3 296.6,192.6 299.5,186.8 302.3,180.8 305.1,174.8 308.0,168.6 310.9,162.4 313.7,156.1 316.6,149.8 319.4,143.5 322.2,137.3 325.1,131.1 327.9,125.1 330.8,119.2 333.6,113.6 336.5,108.2 339.4,103.1 342.2,98.4 345.1,94.1 347.9,90.3 350.8,87.0 353.6,84.2 356.5,82.0 359.3,80.4 362.2,79.4 365.0,79.1 367.9,79.4 370.7,80.4 373.6,82.0 376.4,84.2 379.2,87.0 382.1,90.3 385.0,94.1 387.8,98.4 390.7,103.1 393.5,108.2 396.4,113.6 399.2,119.2 402.1,125.1 404.9,131.1 407.8,137.3 410.6,143.5 413.4,149.8 416.3,156.1 419.1,162.4 422.0,168.6 424.8,174.8 427.7,180.8 430.6,186.8 433.4,192.6 436.2,198.3 439.1,203.9 441.9,209.3 444.8,214.5 447.7,219.6 450.5,224.5 453.4,229.3 456.2,233.9 459.1,238.4 461.9,242.7 464.7,246.8 467.6,250.8 470.5,254.6 473.3,258.3 476.1,261.9 479.0,265.3 481.9,268.6 484.7,271.7 487.5,274.8 490.4,277.7 493.2,280.5 496.1,283.2 498.9,285.8 501.8,288.3 504.6,290.7 507.5,293.0 510.4,295.2 513.2,297.4 516.0,299.4 518.9,301.4 521.8,303.3 524.6,305.1 527.5,306.9 530.3,308.6 533.1,310.2 536.0,311.8 538.9,313.3 541.7,314.8 544.5,316.2 547.4,317.6 550.2,318.9 553.1,320.2 556.0,321.4 558.8,322.6 561.7,323.8 564.5,324.9 567.3,325.9 570.2,327.0 573.1,328.0 575.9,328.9 578.8,329.9 581.6,330.8 584.4,331.7 587.3,332.5 590.2,333.3 593.0,334.1 595.8,334.9 598.7,335.7 601.6,336.4 604.4,337.1 607.2,337.8 610.1,338.4 613.0,339.1 615.8,339.7 618.6,340.3 621.5,340.9 624.4,341.5 627.2,342.0 630.0,342.6 632.9,343.1 635.8,343.6 638.6,344.1 641.5,344.6 644.3,345.1 647.1,345.5 650.0,346.0" fill="none" stroke="#ADADAD" stroke-width="1.5" stroke-dasharray="5 3"/>
  <!-- Narrow peak -->
  <polyline points="80.0,367.1 82.9,367.1 85.7,367.0 88.5,366.9 91.4,366.9 94.2,366.8 97.1,366.7 100.0,366.7 102.8,366.6 105.7,366.5 108.5,366.5 111.4,366.4 114.2,366.3 117.1,366.2 119.9,366.1 122.8,366.0 125.6,365.9 128.4,365.8 131.3,365.7 134.1,365.6 137.0,365.5 139.8,365.4 142.7,365.3 145.6,365.2 148.4,365.0 151.2,364.9 154.1,364.8 156.9,364.6 159.8,364.5 162.6,364.3 165.5,364.2 168.3,364.0 171.2,363.8 174.1,363.7 176.9,363.5 179.8,363.3 182.6,363.1 185.5,362.9 188.3,362.6 191.1,362.4 194.0,362.1 196.8,361.9 199.7,361.6 202.6,361.3 205.4,361.0 208.2,360.7 211.1,360.4 213.9,360.0 216.8,359.6 219.7,359.2 222.5,358.8 225.3,358.4 228.2,357.9 231.1,357.4 233.9,356.9 236.7,356.3 239.6,355.7 242.4,355.1 245.3,354.4 248.1,353.7 251.0,352.9 253.8,352.1 256.7,351.2 259.6,350.2 262.4,349.2 265.2,348.0 268.1,346.8 270.9,345.5 273.8,344.1 276.6,342.6 279.5,340.9 282.4,339.1 285.2,337.1 288.0,334.9 290.9,332.5 293.8,329.9 296.6,327.0 299.5,323.8 302.3,320.2 305.1,316.2 308.0,311.8 310.9,306.9 313.7,301.4 316.6,295.2 319.4,288.3 322.2,280.5 325.1,271.7 327.9,261.9 330.8,250.8 333.6,238.4 336.5,224.5 339.4,209.3 342.2,192.6 345.1,174.8 347.9,156.1 350.8,137.3 353.6,119.2 356.5,103.1 359.3,90.3 362.2,82.0 365.0,79.1 367.9,82.0 370.7,90.3 373.6,103.1 376.4,119.2 379.2,137.3 382.1,156.1 385.0,174.8 387.8,192.6 390.7,209.3 393.5,224.5 396.4,238.4 399.2,250.8 402.1,261.9 404.9,271.7 407.8,280.5 410.6,288.3 413.4,295.2 416.3,301.4 419.1,306.9 422.0,311.8 424.8,316.2 427.7,320.2 430.6,323.8 433.4,327.0 436.2,329.9 439.1,332.5 441.9,334.9 444.8,337.1 447.7,339.1 450.5,340.9 453.4,342.6 456.2,344.1 459.1,345.5 461.9,346.8 464.7,348.0 467.6,349.2 470.5,350.2 473.3,351.2 476.1,352.1 479.0,352.9 481.9,353.7 484.7,354.4 487.5,355.1 490.4,355.7 493.2,356.3 496.1,356.9 498.9,357.4 501.8,357.9 504.6,358.4 507.5,358.8 510.4,359.2 513.2,359.6 516.0,360.0 518.9,360.4 521.8,360.7 524.6,361.0 527.5,361.3 530.3,361.6 533.1,361.9 536.0,362.1 538.9,362.4 541.7,362.6 544.5,362.9 547.4,363.1 550.2,363.3 553.1,363.5 556.0,363.7 558.8,363.8 561.7,364.0 564.5,364.2 567.3,364.3 570.2,364.5 573.1,364.6 575.9,364.8 578.8,364.9 581.6,365.0 584.4,365.2 587.3,365.3 590.2,365.4 593.0,365.5 595.8,365.6 598.7,365.7 601.6,365.8 604.4,365.9 607.2,366.0 610.1,366.1 613.0,366.2 615.8,366.3 618.6,366.4 621.5,366.5 624.4,366.5 627.2,366.6 630.0,366.7 632.9,366.7 635.8,366.8 638.6,366.9 641.5,366.9 644.3,367.0 647.1,367.1 650.0,367.1" fill="none" stroke="#2a1a0e" stroke-width="2.2"/>
  <!-- Width arrow at half-max level -->
  <line x1="336.5" y1="224.5" x2="393.5" y2="224.5" stroke="#545454" stroke-width="1.2" marker-end="url(#arrow)"/>
  <line x1="393.5" y1="224.5" x2="336.5" y2="224.5" stroke="#545454" stroke-width="1.2" marker-end="url(#arrow)"/>
  <!-- Gamma label -->
  <text x="365.0" y="218.5" text-anchor="middle" font-family="'EB Garamond','Garamond',Georgia,serif" font-size="13" fill="#545454" font-style="italic">Γ</text>
  <!-- Axes -->
  <line x1="80" y1="370" x2="650" y2="370" stroke="#2a1a0e" stroke-width="1"/>
  <line x1="80" y1="370" x2="80" y2="50" stroke="#2a1a0e" stroke-width="1"/>
  <line x1="80" y1="370.0" x2="75" y2="370.0" stroke="#2a1a0e" stroke-width="1"/>
  <text x="72.0" y="374.0" text-anchor="end" font-family="'JetBrains Mono','Fira Code','Courier New',monospace" font-size="11" fill="#545454">0.0</text>
  <line x1="80" y1="224.5" x2="75" y2="224.5" stroke="#2a1a0e" stroke-width="1"/>
  <text x="72.0" y="228.5" text-anchor="end" font-family="'JetBrains Mono','Fira Code','Courier New',monospace" font-size="11" fill="#545454">0.5</text>
  <line x1="80" y1="79.1" x2="75" y2="79.1" stroke="#2a1a0e" stroke-width="1"/>
  <text x="72.0" y="83.1" text-anchor="end" font-family="'JetBrains Mono','Fira Code','Courier New',monospace" font-size="11" fill="#545454">1.0</text>
  <!-- E_R tick -->
  <line x1="365.0" y1="370" x2="365.0" y2="375" stroke="#2a1a0e" stroke-width="1"/>
  <text x="365.0" y="386" text-anchor="middle" font-family="'EB Garamond','Garamond',Georgia,serif" font-size="12" fill="#545454" font-style="italic">E<tspan baseline-shift="sub" font-size="9">R</tspan></text>
  <!-- Axis labels -->
  <text x="365.0" y="410" text-anchor="middle" font-family="'EB Garamond','Garamond',Georgia,serif" font-size="13" fill="#545454" font-style="italic">E</text>
  <text x="25" y="210" text-anchor="middle" font-family="'EB Garamond','Garamond',Georgia,serif" font-size="12" fill="#545454" transform="rotate(-90,25,210)">σ₀(E)</text>
  <!-- Unitarity label -->
  <text x="646.0" y="74.1" text-anchor="end" font-family="'Inter',-apple-system,'Helvetica Neue',sans-serif" font-size="10" fill="#C8860E">4π/k<tspan baseline-shift="sub" font-size="8">R</tspan>² (unitarity)</text>
  <!-- Legend -->
  <line x1="430" y1="320" x2="460" y2="320" stroke="#2a1a0e" stroke-width="2.2"/>
  <text x="466" y="324" font-family="'Inter',-apple-system,'Helvetica Neue',sans-serif" font-size="11" fill="#545454">narrow  Γ</text>
  <line x1="430" y1="336" x2="460" y2="336" stroke="#ADADAD" stroke-width="1.5" stroke-dasharray="5 3"/>
  <text x="466" y="340" font-family="'Inter',-apple-system,'Helvetica Neue',sans-serif" font-size="11" fill="#545454">broad  3Γ</text>
</svg>