<!-- CAJAL SVG | quantum-mechanics-vol3 | 07-scattering-i-partial-waves | fig 04 | Hard-Sphere Cross-Section σ_tot(ka) | 2026-06-06 -->
<svg viewBox="0 0 700 420" xmlns="http://www.w3.org/2000/svg" role="img" aria-labelledby="fig-title-04">
  <title id="fig-title-04">Hard-Sphere Cross-Section σ_tot(ka)</title>
  <desc>Hard-sphere total cross-section normalized by πa² plotted against ka from 0 to 8, showing the quantum low-energy limit of 4 and the large-ka geometric-plus-diffraction limit of 2, with classical geometric value of 1 shown as a dotted reference.</desc>
  <metadata><cajal:figure xmlns:cajal="https://bearbrown.ai/cajal/1.0" book="Quantum Mechanics — Approximation Methods and Real Systems" book-slug="quantum-mechanics-vol3" chapter="07-scattering-i-partial-waves" figure-number="04" figure-title="Hard-Sphere Cross-Section σ_tot(ka)" figure-slug="hard-sphere-cross-section-sigma-tot" figure-type="chart" priority="Important" author="Humanitarians AI Incorporated" date-generated="2026-06-06" source-file="pantry/07-scattering-i-partial-waves-cajal.md"/></metadata>
  <defs><marker id="arrow" markerWidth="8" markerHeight="6" refX="7" refY="3" orient="auto"><polygon points="0 0, 8 3, 0 6" fill="#2a1a0e"/></marker></defs>
  <rect width="700" height="420" fill="#FFFFFF"/>
  <text x="350" y="28" text-anchor="middle" font-family="'EB Garamond','Garamond',Georgia,serif" font-size="14" fill="#2a1a0e">Hard-sphere total cross-section σ<tspan baseline-shift="sub" font-size="10">tot</tspan>(ka)</text>
  <rect x="80" y="50" width="570" height="320" fill="#F5F5F5" stroke="#D4D4D4" stroke-width="0.75"/>
  <!-- Reference lines -->
  <line x1="80" y1="114.0" x2="650" y2="114.0" stroke="#787878" stroke-width="1" stroke-dasharray="4 3"/>
  <line x1="80" y1="242.0" x2="650" y2="242.0" stroke="#ADADAD" stroke-width="1" stroke-dasharray="4 3"/>
  <line x1="80" y1="306.0" x2="650" y2="306.0" stroke="#D4D4D4" stroke-width="0.75" stroke-dasharray="2 3"/>
  <!-- Main curve -->
  <polyline points="87.1,114.8 90.0,115.6 92.8,116.7 95.7,117.9 98.5,119.4 101.4,121.0 104.2,122.7 107.1,124.6 109.9,126.5 112.8,128.5 115.6,130.6 118.5,132.6 121.3,134.7 124.2,136.7 127.0,138.7 129.9,140.7 132.7,142.6 135.6,144.5 138.4,146.2 141.3,148.0 144.1,149.6 147.0,151.2 149.8,152.8 152.7,154.3 155.5,155.7 158.4,157.0 161.2,158.4 164.1,159.6 166.9,160.8 169.8,162.0 172.6,163.1 175.5,164.2 178.3,165.3 181.2,166.3 184.0,167.3 186.9,168.2 189.7,169.2 192.6,170.1 195.4,170.9 198.3,171.8 201.1,172.6 204.0,173.4 206.8,174.2 209.7,174.9 212.5,175.7 215.4,176.4 218.2,177.1 221.1,177.7 223.9,178.4 226.8,179.0 229.6,179.6 232.5,180.3 235.3,180.8 238.2,181.4 241.0,182.0 243.9,182.5 246.7,183.1 249.6,183.6 252.4,184.1 255.3,184.6 258.1,185.1 261.0,185.6 263.8,186.1 266.7,186.5 269.5,187.0 272.4,187.4 275.2,187.9 278.1,188.3 280.9,188.7 283.8,189.1 286.6,189.5 289.5,189.9 292.3,190.3 295.2,190.7 298.0,191.0 300.9,191.4 303.7,191.7 306.6,192.1 309.4,192.4 312.3,192.8 315.1,193.1 318.0,193.4 320.8,193.8 323.7,194.1 326.5,194.4 329.4,194.7 332.2,195.0 335.1,195.3 337.9,195.6 340.8,195.9 343.6,196.2 346.5,196.4 349.3,196.7 352.2,197.0 355.0,197.2 357.9,197.5 360.7,197.8 363.6,198.0 366.4,198.3 369.3,198.5 372.1,198.8 375.0,199.0 377.8,199.2 380.7,199.5 383.5,199.7 386.4,199.9 389.2,200.1 392.1,200.4 394.9,200.6 397.8,200.8 400.6,201.0 403.5,201.2 406.3,201.4 409.2,201.6 412.0,201.8 414.9,202.0 417.7,202.2 420.6,202.4 423.4,202.6 426.3,202.8 429.1,203.0 432.0,203.2 434.8,203.4 437.7,203.5 440.5,203.7 443.4,203.9 446.2,204.1 449.1,204.2 451.9,204.4 454.8,204.6 457.6,204.7 460.5,204.9 463.3,205.1 466.2,205.2 469.0,205.4 471.9,205.5 474.7,205.7 477.6,205.9 480.4,206.0 483.3,206.2 486.1,206.3 489.0,206.5 491.8,206.6 494.7,206.7 497.5,206.9 500.4,207.0 503.2,207.2 506.1,207.3 508.9,207.4 511.8,207.6 514.6,207.7 517.5,207.8 520.3,208.0 523.2,208.1 526.0,208.2 528.9,208.4 531.7,208.5 534.6,208.6 537.4,208.7 540.3,208.9 543.1,209.0 546.0,209.1 548.8,209.2 551.7,209.3 554.5,209.5 557.4,209.6 560.2,209.7 563.1,209.8 565.9,209.9 568.8,210.0 571.6,210.1 574.5,210.3 577.3,210.4 580.2,210.5 583.0,210.6 585.9,210.7 588.7,210.8 591.6,210.9 594.4,211.0 597.3,211.1 600.1,211.2 603.0,211.3 605.8,211.4 608.7,211.5 611.5,211.6 614.4,211.7 617.2,211.8 620.1,211.9 622.9,212.0 625.8,212.1 628.6,212.2 631.5,212.3 634.3,212.4 637.2,212.5 640.0,212.6 642.9,212.6 645.7,212.7 648.6,212.8" fill="none" stroke="#2a1a0e" stroke-width="2"/>
  <!-- Axes -->
  <line x1="80" y1="370" x2="650" y2="370" stroke="#2a1a0e" stroke-width="1"/>
  <line x1="80" y1="370" x2="80" y2="50" stroke="#2a1a0e" stroke-width="1"/>
  <line x1="80.0" y1="370" x2="80.0" y2="375" stroke="#2a1a0e" stroke-width="1"/>
  <text x="80.0" y="386" text-anchor="middle" font-family="'JetBrains Mono','Fira Code','Courier New',monospace" font-size="11" fill="#545454">0</text>
  <line x1="151.2" y1="370" x2="151.2" y2="375" stroke="#2a1a0e" stroke-width="1"/>
  <text x="151.2" y="386" text-anchor="middle" font-family="'JetBrains Mono','Fira Code','Courier New',monospace" font-size="11" fill="#545454">1</text>
  <line x1="222.5" y1="370" x2="222.5" y2="375" stroke="#2a1a0e" stroke-width="1"/>
  <text x="222.5" y="386" text-anchor="middle" font-family="'JetBrains Mono','Fira Code','Courier New',monospace" font-size="11" fill="#545454">2</text>
  <line x1="293.8" y1="370" x2="293.8" y2="375" stroke="#2a1a0e" stroke-width="1"/>
  <text x="293.8" y="386" text-anchor="middle" font-family="'JetBrains Mono','Fira Code','Courier New',monospace" font-size="11" fill="#545454">3</text>
  <line x1="365.0" y1="370" x2="365.0" y2="375" stroke="#2a1a0e" stroke-width="1"/>
  <text x="365.0" y="386" text-anchor="middle" font-family="'JetBrains Mono','Fira Code','Courier New',monospace" font-size="11" fill="#545454">4</text>
  <line x1="436.2" y1="370" x2="436.2" y2="375" stroke="#2a1a0e" stroke-width="1"/>
  <text x="436.2" y="386" text-anchor="middle" font-family="'JetBrains Mono','Fira Code','Courier New',monospace" font-size="11" fill="#545454">5</text>
  <line x1="507.5" y1="370" x2="507.5" y2="375" stroke="#2a1a0e" stroke-width="1"/>
  <text x="507.5" y="386" text-anchor="middle" font-family="'JetBrains Mono','Fira Code','Courier New',monospace" font-size="11" fill="#545454">6</text>
  <line x1="578.8" y1="370" x2="578.8" y2="375" stroke="#2a1a0e" stroke-width="1"/>
  <text x="578.8" y="386" text-anchor="middle" font-family="'JetBrains Mono','Fira Code','Courier New',monospace" font-size="11" fill="#545454">7</text>
  <line x1="650.0" y1="370" x2="650.0" y2="375" stroke="#2a1a0e" stroke-width="1"/>
  <text x="650.0" y="386" text-anchor="middle" font-family="'JetBrains Mono','Fira Code','Courier New',monospace" font-size="11" fill="#545454">8</text>
  <line x1="80" y1="370.0" x2="75" y2="370.0" stroke="#2a1a0e" stroke-width="1"/>
  <text x="72.0" y="374.0" text-anchor="end" font-family="'JetBrains Mono','Fira Code','Courier New',monospace" font-size="11" fill="#545454">0</text>
  <line x1="80" y1="306.0" x2="75" y2="306.0" stroke="#2a1a0e" stroke-width="1"/>
  <text x="72.0" y="310.0" text-anchor="end" font-family="'JetBrains Mono','Fira Code','Courier New',monospace" font-size="11" fill="#545454">1</text>
  <line x1="80" y1="242.0" x2="75" y2="242.0" stroke="#2a1a0e" stroke-width="1"/>
  <text x="72.0" y="246.0" text-anchor="end" font-family="'JetBrains Mono','Fira Code','Courier New',monospace" font-size="11" fill="#545454">2</text>
  <line x1="80" y1="178.0" x2="75" y2="178.0" stroke="#2a1a0e" stroke-width="1"/>
  <text x="72.0" y="182.0" text-anchor="end" font-family="'JetBrains Mono','Fira Code','Courier New',monospace" font-size="11" fill="#545454">3</text>
  <line x1="80" y1="114.0" x2="75" y2="114.0" stroke="#2a1a0e" stroke-width="1"/>
  <text x="72.0" y="118.0" text-anchor="end" font-family="'JetBrains Mono','Fira Code','Courier New',monospace" font-size="11" fill="#545454">4</text>
  <line x1="80" y1="50.0" x2="75" y2="50.0" stroke="#2a1a0e" stroke-width="1"/>
  <text x="72.0" y="54.0" text-anchor="end" font-family="'JetBrains Mono','Fira Code','Courier New',monospace" font-size="11" fill="#545454">5</text>
  <!-- Axis labels -->
  <text x="365.0" y="410" text-anchor="middle" font-family="'EB Garamond','Garamond',Georgia,serif" font-size="13" fill="#545454" font-style="italic">ka</text>
  <text x="25" y="210" text-anchor="middle" font-family="'EB Garamond','Garamond',Georgia,serif" font-size="12" fill="#545454" transform="rotate(-90,25,210)">σ<tspan baseline-shift="sub" font-size="9">tot</tspan> / πa²</text>
  <!-- Reference labels -->
  <text x="646.0" y="109.0" text-anchor="end" font-family="'Inter',-apple-system,'Helvetica Neue',sans-serif" font-size="10" fill="#545454">4 (low-energy limit)</text>
  <text x="646.0" y="237.0" text-anchor="end" font-family="'Inter',-apple-system,'Helvetica Neue',sans-serif" font-size="10" fill="#545454">2 (geometric + diffraction)</text>
  <text x="646.0" y="301.0" text-anchor="end" font-family="'Inter',-apple-system,'Helvetica Neue',sans-serif" font-size="10" fill="#545454">1 (classical geometric)</text>
</svg>