<!-- CAJAL SVG | quantum-mechanics-vol3 | 08-scattering-ii-the-born-approximation | fig 05 | Nuclear Form Factor |F(q)|² — Uniform Sphere | 2026-06-06 -->
<svg viewBox="0 0 700 420" xmlns="http://www.w3.org/2000/svg" role="img" aria-labelledby="fig-title-05">
  <title id="fig-title-05">Nuclear Form Factor |F(q)|² — Uniform Sphere</title>
  <desc>Nuclear form factor |F(q)|² for a uniform sphere plotted against qR from 0 to 15, starting at unity, oscillating with decreasing amplitude, and reaching its first zero at qR ≈ 4.49 which determines the nuclear radius; a dotted power-law envelope shows the (qR)⁻⁴ asymptotic decay.</desc>
  <metadata><cajal:figure xmlns:cajal="https://bearbrown.ai/cajal/1.0" book="Quantum Mechanics — Approximation Methods and Real Systems" book-slug="quantum-mechanics-vol3" chapter="08-scattering-ii-the-born-approximation" figure-number="05" figure-title="Nuclear Form Factor |F(q)|² — Uniform Sphere" figure-slug="nuclear-form-factor-uniform-sphere" figure-type="chart" priority="Supplementary" author="Humanitarians AI Incorporated" date-generated="2026-06-06" source-file="pantry/08-scattering-ii-the-born-approximation-cajal.md"/></metadata>
  <defs><marker id="arrow" markerWidth="8" markerHeight="6" refX="7" refY="3" orient="auto"><polygon points="0 0, 8 3, 0 6" fill="#2a1a0e"/></marker></defs>
  <rect width="700" height="420" fill="#FFFFFF"/>
  <text x="350" y="28" text-anchor="middle" font-family="'EB Garamond','Garamond',Georgia,serif" font-size="14" fill="#2a1a0e">Nuclear form factor |F(q)|² — uniform sphere</text>
  <rect x="80" y="50" width="570" height="320" fill="#F5F5F5" stroke="#D4D4D4" stroke-width="0.75"/>
  <!-- y=1 reference -->
  <line x1="80" y1="65.2" x2="650" y2="65.2" stroke="#D4D4D4" stroke-width="0.75"/>
  <!-- Envelope -->
  <polyline points="118.9,65.2 119.9,65.2 120.8,65.2 121.8,65.2 122.8,65.2 123.7,65.2 124.7,65.2 125.6,65.2 126.6,65.2 127.5,65.2 128.4,65.2 129.4,65.2 130.3,65.2 131.3,65.2 132.2,65.2 133.2,65.2 134.2,65.2 135.1,65.2 136.1,65.2 137.0,65.2 137.9,65.2 138.9,65.2 139.8,65.2 140.8,65.2 141.8,65.2 142.7,65.2 143.7,65.2 144.6,65.2 145.6,65.2 146.5,65.2 147.4,65.2 148.4,65.2 149.3,65.2 150.3,65.2 151.2,65.2 152.2,65.2 153.1,65.2 154.1,65.2 155.1,65.2 156.0,65.2 156.9,65.2 157.9,65.2 158.9,65.2 159.8,65.2 160.8,65.2 161.7,65.2 162.6,65.2 163.6,65.2 164.6,65.2 165.5,65.2 166.4,65.2 167.4,65.2 168.3,65.2 169.3,65.2 170.2,65.2 171.2,65.2 172.1,65.2 173.1,65.2 174.1,65.2 175.0,65.2 175.9,65.2 176.9,65.2 177.9,65.2 178.8,65.2 179.8,65.2 180.7,65.2 181.6,65.2 182.6,65.2 183.6,65.2 184.5,65.2 185.4,65.2 186.4,65.2 187.4,65.2 188.3,65.2 189.2,65.2 190.2,65.2 191.1,65.2 192.1,65.2 193.1,65.2 194.0,65.2 194.9,65.2 195.9,65.2 196.9,65.2 197.8,65.2 198.8,65.2 199.7,65.2 200.6,65.2 201.6,65.2 202.6,65.2 203.5,65.2 204.4,65.2 205.4,65.2 206.4,65.2 207.3,65.2 208.2,65.2 209.2,65.2 210.2,65.2 211.1,65.2 212.0,65.2 213.0,65.2 213.9,65.2 214.9,65.2 215.8,65.2 216.8,65.2 217.8,65.2 218.7,65.2 219.7,65.2 220.6,65.2 221.6,65.2 222.5,65.2 223.4,65.2 224.4,65.2 225.3,65.2 226.3,65.2 227.3,65.2 228.2,65.2 229.2,65.2 230.1,65.2 231.1,65.2 232.0,65.2 233.0,364.9 233.9,365.0 234.8,365.1 235.8,365.3 236.8,365.4 237.7,365.5 238.7,365.6 239.6,365.7 240.5,365.8 241.5,365.9 242.5,366.0 243.4,366.1 244.3,366.2 245.3,366.3 246.2,366.3 247.2,366.4 248.1,366.5 249.1,366.6 250.0,366.7 251.0,366.7 252.0,366.8 252.9,366.9 253.8,366.9 254.8,367.0 255.8,367.1 256.7,367.1 257.6,367.2 258.6,367.3 259.6,367.3 260.5,367.4 261.5,367.4 262.4,367.5 263.4,367.5 264.3,367.6 265.2,367.6 266.2,367.7 267.1,367.7 268.1,367.8 269.1,367.8 270.0,367.9 271.0,367.9 271.9,367.9 272.9,368.0 273.8,368.0 274.8,368.1 275.7,368.1 276.6,368.1 277.6,368.2 278.5,368.2 279.5,368.2 280.5,368.3 281.4,368.3 282.4,368.3 283.3,368.4 284.2,368.4 285.2,368.4 286.1,368.5 287.1,368.5 288.0,368.5 289.0,368.5 290.0,368.6 290.9,368.6 291.9,368.6 292.8,368.6 293.8,368.7 294.7,368.7 295.6,368.7 296.6,368.7 297.5,368.8 298.5,368.8 299.5,368.8 300.4,368.8 301.4,368.8 302.3,368.9 303.2,368.9 304.2,368.9 305.1,368.9 306.1,368.9 307.0,368.9 308.0,369.0 309.0,369.0 309.9,369.0 310.9,369.0 311.8,369.0 312.8,369.0 313.7,369.1 314.6,369.1 315.6,369.1 316.5,369.1 317.5,369.1 318.4,369.1 319.4,369.1 320.4,369.2 321.3,369.2 322.2,369.2 323.2,369.2 324.1,369.2 325.1,369.2 326.0,369.2 327.0,369.2 327.9,369.3 328.9,369.3 329.9,369.3 330.8,369.3 331.8,369.3 332.7,369.3 333.6,369.3 334.6,369.3 335.5,369.3 336.5,369.4 337.5,369.4 338.4,369.4 339.4,369.4 340.3,369.4 341.2,369.4 342.2,369.4 343.1,369.4 344.1,369.4 345.0,369.4 346.0,369.4 347.0,369.4 347.9,369.5 348.9,369.5 349.8,369.5 350.8,369.5 351.7,369.5 352.6,369.5 353.6,369.5 354.5,369.5 355.5,369.5 356.5,369.5 357.4,369.5 358.4,369.5 359.3,369.5 360.2,369.5 361.2,369.6 362.1,369.6 363.1,369.6 364.0,369.6 365.0,369.6 366.0,369.6 366.9,369.6 367.9,369.6 368.8,369.6 369.8,369.6 370.7,369.6 371.6,369.6 372.6,369.6 373.6,369.6 374.5,369.6 375.4,369.6 376.4,369.6 377.4,369.6 378.3,369.6 379.2,369.7 380.2,369.7 381.1,369.7 382.1,369.7 383.0,369.7 384.0,369.7 385.0,369.7 385.9,369.7 386.9,369.7 387.8,369.7 388.8,369.7" fill="none" stroke="#ADADAD" stroke-width="1" stroke-dasharray="3 3"/>
  <!-- Main form factor curve -->
  <polyline points="81.0,65.3 84.8,66.2 88.5,68.3 92.3,71.6 96.2,76.1 100.0,81.6 103.8,88.3 107.5,95.9 111.3,104.4 115.2,113.7 118.9,123.8 122.8,134.5 126.6,145.8 130.3,157.5 134.2,169.5 137.9,181.7 141.8,194.1 145.6,206.5 149.3,218.9 153.1,231.0 156.9,243.0 160.8,254.6 164.6,265.7 168.3,276.5 172.1,286.7 175.9,296.3 179.8,305.4 183.6,313.8 187.4,321.6 191.1,328.7 194.9,335.1 198.8,340.9 202.6,346.1 206.4,350.7 210.2,354.6 213.9,358.0 217.8,360.9 221.6,363.3 225.3,365.2 229.2,366.8 233.0,368.0 236.8,368.8 240.5,369.4 244.3,369.8 248.1,370.0 252.0,370.0 255.8,369.9 259.6,369.7 263.4,369.5 267.1,369.2 271.0,368.9 274.8,368.7 278.5,368.4 282.4,368.2 286.1,368.0 290.0,367.9 293.8,367.8 297.5,367.7 301.4,367.7 305.1,367.8 309.0,367.9 312.8,368.0 316.5,368.1 320.4,368.3 324.1,368.5 327.9,368.7 331.8,368.9 335.5,369.1 339.4,369.2 343.1,369.4 347.0,369.5 350.8,369.7 354.5,369.8 358.4,369.9 362.1,369.9 366.0,370.0 369.8,370.0 373.6,370.0 377.4,370.0 381.1,370.0 385.0,369.9 388.8,369.9 392.6,369.9 396.3,369.8 400.2,369.8 403.9,369.7 407.8,369.7 411.6,369.7 415.3,369.6 419.2,369.6 422.9,369.6 426.7,369.6 430.6,369.6 434.3,369.6 438.2,369.7 441.9,369.7 445.8,369.7 449.6,369.7 453.3,369.8 457.2,369.8 460.9,369.8 464.8,369.9 468.6,369.9 472.3,369.9 476.2,370.0 479.9,370.0 483.8,370.0 487.5,370.0 491.3,370.0 495.2,370.0 498.9,370.0 502.8,370.0 506.5,370.0 510.4,370.0 514.2,370.0 518.0,369.9 521.8,369.9 525.5,369.9 529.4,369.9 533.2,369.9 537.0,369.9 540.8,369.9 544.5,369.9 548.3,369.9 552.2,369.9 556.0,369.9 559.8,369.9 563.5,369.9 567.3,369.9 571.2,369.9 575.0,369.9 578.8,369.9 582.5,370.0 586.3,370.0 590.2,370.0 594.0,370.0 597.8,370.0 601.5,370.0 605.4,370.0 609.1,370.0 613.0,370.0 616.8,370.0 620.6,370.0 624.4,370.0 628.1,370.0 632.0,370.0 635.8,370.0 639.6,370.0 643.4,370.0 647.1,370.0" fill="none" stroke="#2a1a0e" stroke-width="2"/>
  <!-- First zero marker -->
  <circle cx="250.7" cy="370.0" r="5" fill="none" stroke="#C8860E" stroke-width="1.8"/>
  <!-- Normalization bar at top -->
  <line x1="85" y1="65.2" x2="130" y2="65.2" stroke="#787878" stroke-width="2"/>
  <!-- Axes -->
  <line x1="80" y1="370" x2="650" y2="370" stroke="#2a1a0e" stroke-width="1"/>
  <line x1="80" y1="370" x2="80" y2="50" stroke="#2a1a0e" stroke-width="1"/>
  <line x1="80.0" y1="370" x2="80.0" y2="375" stroke="#2a1a0e" stroke-width="1"/>
  <text x="80.0" y="386" text-anchor="middle" font-family="'JetBrains Mono','Fira Code','Courier New',monospace" font-size="11" fill="#545454">0</text>
  <line x1="270.0" y1="370" x2="270.0" y2="375" stroke="#2a1a0e" stroke-width="1"/>
  <text x="270.0" y="386" text-anchor="middle" font-family="'JetBrains Mono','Fira Code','Courier New',monospace" font-size="11" fill="#545454">5</text>
  <line x1="250.7" y1="370" x2="250.7" y2="375" stroke="#2a1a0e" stroke-width="1"/>
  <text x="250.7" y="386" text-anchor="middle" font-family="'JetBrains Mono','Fira Code','Courier New',monospace" font-size="11" fill="#545454">4.49</text>
  <line x1="460.0" y1="370" x2="460.0" y2="375" stroke="#2a1a0e" stroke-width="1"/>
  <text x="460.0" y="386" text-anchor="middle" font-family="'JetBrains Mono','Fira Code','Courier New',monospace" font-size="11" fill="#545454">10</text>
  <line x1="650.0" y1="370" x2="650.0" y2="375" stroke="#2a1a0e" stroke-width="1"/>
  <text x="650.0" y="386" text-anchor="middle" font-family="'JetBrains Mono','Fira Code','Courier New',monospace" font-size="11" fill="#545454">15</text>
  <line x1="80" y1="370.0" x2="75" y2="370.0" stroke="#2a1a0e" stroke-width="1"/>
  <text x="72.0" y="374.0" text-anchor="end" font-family="'JetBrains Mono','Fira Code','Courier New',monospace" font-size="11" fill="#545454">0.0</text>
  <line x1="80" y1="217.6" x2="75" y2="217.6" stroke="#2a1a0e" stroke-width="1"/>
  <text x="72.0" y="221.6" text-anchor="end" font-family="'JetBrains Mono','Fira Code','Courier New',monospace" font-size="11" fill="#545454">0.5</text>
  <line x1="80" y1="65.2" x2="75" y2="65.2" stroke="#2a1a0e" stroke-width="1"/>
  <text x="72.0" y="69.2" text-anchor="end" font-family="'JetBrains Mono','Fira Code','Courier New',monospace" font-size="11" fill="#545454">1.0</text>
  <text x="365.0" y="410" text-anchor="middle" font-family="'EB Garamond','Garamond',Georgia,serif" font-size="13" fill="#545454" font-style="italic">qR</text>
  <text x="25" y="210" text-anchor="middle" font-family="'EB Garamond','Garamond',Georgia,serif" font-size="12" fill="#545454" transform="rotate(-90,25,210)">|F(q)|²</text>
  <!-- First zero annotation -->
  <text x="250.7" y="388.0" text-anchor="middle" font-family="'Inter',-apple-system,'Helvetica Neue',sans-serif" font-size="10" fill="#C8860E">first zero → R</text>
  <!-- Normalization annotation -->
  <text x="135" y="69.2" font-family="'Inter',-apple-system,'Helvetica Neue',sans-serif" font-size="10" fill="#545454">|F(0)|² = 1</text>
  <!-- Envelope annotation -->
  <text x="498.0" y="345.6" font-family="'Inter',-apple-system,'Helvetica Neue',sans-serif" font-size="10" fill="#787878">~ (qR)⁻⁴ envelope</text>
</svg>