<?xml version="1.0" encoding="utf-8" standalone="no"?>
<!DOCTYPE svg PUBLIC "-//W3C//DTD SVG 1.1//EN"
  "http://www.w3.org/Graphics/SVG/1.1/DTD/svg11.dtd">
<svg xmlns:xlink="http://www.w3.org/1999/xlink" width="460.8pt" height="288pt" viewBox="0 0 460.8 288" xmlns="http://www.w3.org/2000/svg" version="1.1">
 <metadata>
  <rdf:RDF xmlns:dc="http://purl.org/dc/elements/1.1/" xmlns:cc="http://creativecommons.org/ns#" xmlns:rdf="http://www.w3.org/1999/02/22-rdf-syntax-ns#">
   <cc:Work>
    <dc:type rdf:resource="http://purl.org/dc/dcmitype/StillImage"/>
    <dc:date>2026-06-04T06:17:08.204700</dc:date>
    <dc:format>image/svg+xml</dc:format>
    <dc:creator>
     <cc:Agent>
      <dc:title>Matplotlib v3.10.8, https://matplotlib.org/</dc:title>
     </cc:Agent>
    </dc:creator>
   </cc:Work>
  </rdf:RDF>
 </metadata>
 <defs>
  <style type="text/css">*{stroke-linejoin: round; stroke-linecap: butt}</style>
 </defs>
 <g id="figure_1">
  <g id="patch_1">
   <path d="M 0 288 
L 460.8 288 
L 460.8 0 
L 0 0 
z
" style="fill: #ffffff"/>
  </g>
  <g id="axes_1">
   <g id="patch_2">
    <path d="M 64.867798 240.64 
L 438.525 240.64 
L 438.525 29.4 
L 64.867798 29.4 
z
" style="fill: #ffffff"/>
   </g>
   <g id="matplotlib.axis_1">
    <g id="xtick_1">
     <g id="line2d_1">
      <defs>
       <path id="m21ac4ff657" d="M 0 0 
L 0 3.5 
" style="stroke: #000000; stroke-width: 0.8"/>
      </defs>
      <g>
       <use xlink:href="#m21ac4ff657" x="64.867798" y="240.64" style="stroke: #000000; stroke-width: 0.8"/>
      </g>
     </g>
     <g id="text_1">
      <!-- 0 -->
      <g transform="translate(61.368423 255.998281) scale(0.11 -0.11)">
       <defs>
        <path id="DejaVuSans-30" d="M 2034 4250 
Q 1547 4250 1301 3770 
Q 1056 3291 1056 2328 
Q 1056 1369 1301 889 
Q 1547 409 2034 409 
Q 2525 409 2770 889 
Q 3016 1369 3016 2328 
Q 3016 3291 2770 3770 
Q 2525 4250 2034 4250 
z
M 2034 4750 
Q 2819 4750 3233 4129 
Q 3647 3509 3647 2328 
Q 3647 1150 3233 529 
Q 2819 -91 2034 -91 
Q 1250 -91 836 529 
Q 422 1150 422 2328 
Q 422 3509 836 4129 
Q 1250 4750 2034 4750 
z
" transform="scale(0.015625)"/>
       </defs>
       <use xlink:href="#DejaVuSans-30"/>
      </g>
     </g>
    </g>
    <g id="xtick_2">
     <g id="line2d_2">
      <g>
       <use xlink:href="#m21ac4ff657" x="106.385265" y="240.64" style="stroke: #000000; stroke-width: 0.8"/>
      </g>
     </g>
     <g id="text_2">
      <!-- 20 -->
      <g transform="translate(99.386515 255.998281) scale(0.11 -0.11)">
       <defs>
        <path id="DejaVuSans-32" d="M 1228 531 
L 3431 531 
L 3431 0 
L 469 0 
L 469 531 
Q 828 903 1448 1529 
Q 2069 2156 2228 2338 
Q 2531 2678 2651 2914 
Q 2772 3150 2772 3378 
Q 2772 3750 2511 3984 
Q 2250 4219 1831 4219 
Q 1534 4219 1204 4116 
Q 875 4013 500 3803 
L 500 4441 
Q 881 4594 1212 4672 
Q 1544 4750 1819 4750 
Q 2544 4750 2975 4387 
Q 3406 4025 3406 3419 
Q 3406 3131 3298 2873 
Q 3191 2616 2906 2266 
Q 2828 2175 2409 1742 
Q 1991 1309 1228 531 
z
" transform="scale(0.015625)"/>
       </defs>
       <use xlink:href="#DejaVuSans-32"/>
       <use xlink:href="#DejaVuSans-30" transform="translate(63.623047 0)"/>
      </g>
     </g>
    </g>
    <g id="xtick_3">
     <g id="line2d_3">
      <g>
       <use xlink:href="#m21ac4ff657" x="147.902732" y="240.64" style="stroke: #000000; stroke-width: 0.8"/>
      </g>
     </g>
     <g id="text_3">
      <!-- 40 -->
      <g transform="translate(140.903982 255.998281) scale(0.11 -0.11)">
       <defs>
        <path id="DejaVuSans-34" d="M 2419 4116 
L 825 1625 
L 2419 1625 
L 2419 4116 
z
M 2253 4666 
L 3047 4666 
L 3047 1625 
L 3713 1625 
L 3713 1100 
L 3047 1100 
L 3047 0 
L 2419 0 
L 2419 1100 
L 313 1100 
L 313 1709 
L 2253 4666 
z
" transform="scale(0.015625)"/>
       </defs>
       <use xlink:href="#DejaVuSans-34"/>
       <use xlink:href="#DejaVuSans-30" transform="translate(63.623047 0)"/>
      </g>
     </g>
    </g>
    <g id="xtick_4">
     <g id="line2d_4">
      <g>
       <use xlink:href="#m21ac4ff657" x="189.420199" y="240.64" style="stroke: #000000; stroke-width: 0.8"/>
      </g>
     </g>
     <g id="text_4">
      <!-- 60 -->
      <g transform="translate(182.421449 255.998281) scale(0.11 -0.11)">
       <defs>
        <path id="DejaVuSans-36" d="M 2113 2584 
Q 1688 2584 1439 2293 
Q 1191 2003 1191 1497 
Q 1191 994 1439 701 
Q 1688 409 2113 409 
Q 2538 409 2786 701 
Q 3034 994 3034 1497 
Q 3034 2003 2786 2293 
Q 2538 2584 2113 2584 
z
M 3366 4563 
L 3366 3988 
Q 3128 4100 2886 4159 
Q 2644 4219 2406 4219 
Q 1781 4219 1451 3797 
Q 1122 3375 1075 2522 
Q 1259 2794 1537 2939 
Q 1816 3084 2150 3084 
Q 2853 3084 3261 2657 
Q 3669 2231 3669 1497 
Q 3669 778 3244 343 
Q 2819 -91 2113 -91 
Q 1303 -91 875 529 
Q 447 1150 447 2328 
Q 447 3434 972 4092 
Q 1497 4750 2381 4750 
Q 2619 4750 2861 4703 
Q 3103 4656 3366 4563 
z
" transform="scale(0.015625)"/>
       </defs>
       <use xlink:href="#DejaVuSans-36"/>
       <use xlink:href="#DejaVuSans-30" transform="translate(63.623047 0)"/>
      </g>
     </g>
    </g>
    <g id="xtick_5">
     <g id="line2d_5">
      <g>
       <use xlink:href="#m21ac4ff657" x="230.937666" y="240.64" style="stroke: #000000; stroke-width: 0.8"/>
      </g>
     </g>
     <g id="text_5">
      <!-- 80 -->
      <g transform="translate(223.938916 255.998281) scale(0.11 -0.11)">
       <defs>
        <path id="DejaVuSans-38" d="M 2034 2216 
Q 1584 2216 1326 1975 
Q 1069 1734 1069 1313 
Q 1069 891 1326 650 
Q 1584 409 2034 409 
Q 2484 409 2743 651 
Q 3003 894 3003 1313 
Q 3003 1734 2745 1975 
Q 2488 2216 2034 2216 
z
M 1403 2484 
Q 997 2584 770 2862 
Q 544 3141 544 3541 
Q 544 4100 942 4425 
Q 1341 4750 2034 4750 
Q 2731 4750 3128 4425 
Q 3525 4100 3525 3541 
Q 3525 3141 3298 2862 
Q 3072 2584 2669 2484 
Q 3125 2378 3379 2068 
Q 3634 1759 3634 1313 
Q 3634 634 3220 271 
Q 2806 -91 2034 -91 
Q 1263 -91 848 271 
Q 434 634 434 1313 
Q 434 1759 690 2068 
Q 947 2378 1403 2484 
z
M 1172 3481 
Q 1172 3119 1398 2916 
Q 1625 2713 2034 2713 
Q 2441 2713 2670 2916 
Q 2900 3119 2900 3481 
Q 2900 3844 2670 4047 
Q 2441 4250 2034 4250 
Q 1625 4250 1398 4047 
Q 1172 3844 1172 3481 
z
" transform="scale(0.015625)"/>
       </defs>
       <use xlink:href="#DejaVuSans-38"/>
       <use xlink:href="#DejaVuSans-30" transform="translate(63.623047 0)"/>
      </g>
     </g>
    </g>
    <g id="xtick_6">
     <g id="line2d_6">
      <g>
       <use xlink:href="#m21ac4ff657" x="272.455133" y="240.64" style="stroke: #000000; stroke-width: 0.8"/>
      </g>
     </g>
     <g id="text_6">
      <!-- 100 -->
      <g transform="translate(261.957008 255.998281) scale(0.11 -0.11)">
       <defs>
        <path id="DejaVuSans-31" d="M 794 531 
L 1825 531 
L 1825 4091 
L 703 3866 
L 703 4441 
L 1819 4666 
L 2450 4666 
L 2450 531 
L 3481 531 
L 3481 0 
L 794 0 
L 794 531 
z
" transform="scale(0.015625)"/>
       </defs>
       <use xlink:href="#DejaVuSans-31"/>
       <use xlink:href="#DejaVuSans-30" transform="translate(63.623047 0)"/>
       <use xlink:href="#DejaVuSans-30" transform="translate(127.246094 0)"/>
      </g>
     </g>
    </g>
    <g id="xtick_7">
     <g id="line2d_7">
      <g>
       <use xlink:href="#m21ac4ff657" x="313.972599" y="240.64" style="stroke: #000000; stroke-width: 0.8"/>
      </g>
     </g>
     <g id="text_7">
      <!-- 120 -->
      <g transform="translate(303.474474 255.998281) scale(0.11 -0.11)">
       <use xlink:href="#DejaVuSans-31"/>
       <use xlink:href="#DejaVuSans-32" transform="translate(63.623047 0)"/>
       <use xlink:href="#DejaVuSans-30" transform="translate(127.246094 0)"/>
      </g>
     </g>
    </g>
    <g id="xtick_8">
     <g id="line2d_8">
      <g>
       <use xlink:href="#m21ac4ff657" x="355.490066" y="240.64" style="stroke: #000000; stroke-width: 0.8"/>
      </g>
     </g>
     <g id="text_8">
      <!-- 140 -->
      <g transform="translate(344.991941 255.998281) scale(0.11 -0.11)">
       <use xlink:href="#DejaVuSans-31"/>
       <use xlink:href="#DejaVuSans-34" transform="translate(63.623047 0)"/>
       <use xlink:href="#DejaVuSans-30" transform="translate(127.246094 0)"/>
      </g>
     </g>
    </g>
    <g id="xtick_9">
     <g id="line2d_9">
      <g>
       <use xlink:href="#m21ac4ff657" x="397.007533" y="240.64" style="stroke: #000000; stroke-width: 0.8"/>
      </g>
     </g>
     <g id="text_9">
      <!-- 160 -->
      <g transform="translate(386.509408 255.998281) scale(0.11 -0.11)">
       <use xlink:href="#DejaVuSans-31"/>
       <use xlink:href="#DejaVuSans-36" transform="translate(63.623047 0)"/>
       <use xlink:href="#DejaVuSans-30" transform="translate(127.246094 0)"/>
      </g>
     </g>
    </g>
    <g id="xtick_10">
     <g id="line2d_10">
      <g>
       <use xlink:href="#m21ac4ff657" x="438.525" y="240.64" style="stroke: #000000; stroke-width: 0.8"/>
      </g>
     </g>
     <g id="text_10">
      <!-- 180 -->
      <g transform="translate(428.026875 255.998281) scale(0.11 -0.11)">
       <use xlink:href="#DejaVuSans-31"/>
       <use xlink:href="#DejaVuSans-38" transform="translate(63.623047 0)"/>
       <use xlink:href="#DejaVuSans-30" transform="translate(127.246094 0)"/>
      </g>
     </g>
    </g>
    <g id="text_11">
     <!-- scattering angle  $\theta$  (degrees) -->
     <g transform="translate(170.021399 270.755938) scale(0.11 -0.11)">
      <defs>
       <path id="DejaVuSans-73" d="M 2834 3397 
L 2834 2853 
Q 2591 2978 2328 3040 
Q 2066 3103 1784 3103 
Q 1356 3103 1142 2972 
Q 928 2841 928 2578 
Q 928 2378 1081 2264 
Q 1234 2150 1697 2047 
L 1894 2003 
Q 2506 1872 2764 1633 
Q 3022 1394 3022 966 
Q 3022 478 2636 193 
Q 2250 -91 1575 -91 
Q 1294 -91 989 -36 
Q 684 19 347 128 
L 347 722 
Q 666 556 975 473 
Q 1284 391 1588 391 
Q 1994 391 2212 530 
Q 2431 669 2431 922 
Q 2431 1156 2273 1281 
Q 2116 1406 1581 1522 
L 1381 1569 
Q 847 1681 609 1914 
Q 372 2147 372 2553 
Q 372 3047 722 3315 
Q 1072 3584 1716 3584 
Q 2034 3584 2315 3537 
Q 2597 3491 2834 3397 
z
" transform="scale(0.015625)"/>
       <path id="DejaVuSans-63" d="M 3122 3366 
L 3122 2828 
Q 2878 2963 2633 3030 
Q 2388 3097 2138 3097 
Q 1578 3097 1268 2742 
Q 959 2388 959 1747 
Q 959 1106 1268 751 
Q 1578 397 2138 397 
Q 2388 397 2633 464 
Q 2878 531 3122 666 
L 3122 134 
Q 2881 22 2623 -34 
Q 2366 -91 2075 -91 
Q 1284 -91 818 406 
Q 353 903 353 1747 
Q 353 2603 823 3093 
Q 1294 3584 2113 3584 
Q 2378 3584 2631 3529 
Q 2884 3475 3122 3366 
z
" transform="scale(0.015625)"/>
       <path id="DejaVuSans-61" d="M 2194 1759 
Q 1497 1759 1228 1600 
Q 959 1441 959 1056 
Q 959 750 1161 570 
Q 1363 391 1709 391 
Q 2188 391 2477 730 
Q 2766 1069 2766 1631 
L 2766 1759 
L 2194 1759 
z
M 3341 1997 
L 3341 0 
L 2766 0 
L 2766 531 
Q 2569 213 2275 61 
Q 1981 -91 1556 -91 
Q 1019 -91 701 211 
Q 384 513 384 1019 
Q 384 1609 779 1909 
Q 1175 2209 1959 2209 
L 2766 2209 
L 2766 2266 
Q 2766 2663 2505 2880 
Q 2244 3097 1772 3097 
Q 1472 3097 1187 3025 
Q 903 2953 641 2809 
L 641 3341 
Q 956 3463 1253 3523 
Q 1550 3584 1831 3584 
Q 2591 3584 2966 3190 
Q 3341 2797 3341 1997 
z
" transform="scale(0.015625)"/>
       <path id="DejaVuSans-74" d="M 1172 4494 
L 1172 3500 
L 2356 3500 
L 2356 3053 
L 1172 3053 
L 1172 1153 
Q 1172 725 1289 603 
Q 1406 481 1766 481 
L 2356 481 
L 2356 0 
L 1766 0 
Q 1100 0 847 248 
Q 594 497 594 1153 
L 594 3053 
L 172 3053 
L 172 3500 
L 594 3500 
L 594 4494 
L 1172 4494 
z
" transform="scale(0.015625)"/>
       <path id="DejaVuSans-65" d="M 3597 1894 
L 3597 1613 
L 953 1613 
Q 991 1019 1311 708 
Q 1631 397 2203 397 
Q 2534 397 2845 478 
Q 3156 559 3463 722 
L 3463 178 
Q 3153 47 2828 -22 
Q 2503 -91 2169 -91 
Q 1331 -91 842 396 
Q 353 884 353 1716 
Q 353 2575 817 3079 
Q 1281 3584 2069 3584 
Q 2775 3584 3186 3129 
Q 3597 2675 3597 1894 
z
M 3022 2063 
Q 3016 2534 2758 2815 
Q 2500 3097 2075 3097 
Q 1594 3097 1305 2825 
Q 1016 2553 972 2059 
L 3022 2063 
z
" transform="scale(0.015625)"/>
       <path id="DejaVuSans-72" d="M 2631 2963 
Q 2534 3019 2420 3045 
Q 2306 3072 2169 3072 
Q 1681 3072 1420 2755 
Q 1159 2438 1159 1844 
L 1159 0 
L 581 0 
L 581 3500 
L 1159 3500 
L 1159 2956 
Q 1341 3275 1631 3429 
Q 1922 3584 2338 3584 
Q 2397 3584 2469 3576 
Q 2541 3569 2628 3553 
L 2631 2963 
z
" transform="scale(0.015625)"/>
       <path id="DejaVuSans-69" d="M 603 3500 
L 1178 3500 
L 1178 0 
L 603 0 
L 603 3500 
z
M 603 4863 
L 1178 4863 
L 1178 4134 
L 603 4134 
L 603 4863 
z
" transform="scale(0.015625)"/>
       <path id="DejaVuSans-6e" d="M 3513 2113 
L 3513 0 
L 2938 0 
L 2938 2094 
Q 2938 2591 2744 2837 
Q 2550 3084 2163 3084 
Q 1697 3084 1428 2787 
Q 1159 2491 1159 1978 
L 1159 0 
L 581 0 
L 581 3500 
L 1159 3500 
L 1159 2956 
Q 1366 3272 1645 3428 
Q 1925 3584 2291 3584 
Q 2894 3584 3203 3211 
Q 3513 2838 3513 2113 
z
" transform="scale(0.015625)"/>
       <path id="DejaVuSans-67" d="M 2906 1791 
Q 2906 2416 2648 2759 
Q 2391 3103 1925 3103 
Q 1463 3103 1205 2759 
Q 947 2416 947 1791 
Q 947 1169 1205 825 
Q 1463 481 1925 481 
Q 2391 481 2648 825 
Q 2906 1169 2906 1791 
z
M 3481 434 
Q 3481 -459 3084 -895 
Q 2688 -1331 1869 -1331 
Q 1566 -1331 1297 -1286 
Q 1028 -1241 775 -1147 
L 775 -588 
Q 1028 -725 1275 -790 
Q 1522 -856 1778 -856 
Q 2344 -856 2625 -561 
Q 2906 -266 2906 331 
L 2906 616 
Q 2728 306 2450 153 
Q 2172 0 1784 0 
Q 1141 0 747 490 
Q 353 981 353 1791 
Q 353 2603 747 3093 
Q 1141 3584 1784 3584 
Q 2172 3584 2450 3431 
Q 2728 3278 2906 2969 
L 2906 3500 
L 3481 3500 
L 3481 434 
z
" transform="scale(0.015625)"/>
       <path id="DejaVuSans-20" transform="scale(0.015625)"/>
       <path id="DejaVuSans-6c" d="M 603 4863 
L 1178 4863 
L 1178 0 
L 603 0 
L 603 4863 
z
" transform="scale(0.015625)"/>
       <path id="DejaVuSans-Oblique-3b8" d="M 2913 2219 
L 925 2219 
Q 791 1284 928 888 
Q 1100 400 1566 400 
Q 2034 400 2391 891 
Q 2703 1322 2913 2219 
z
M 3009 2750 
Q 3094 3638 2984 3950 
Q 2813 4444 2353 4444 
Q 1875 4444 1525 3956 
Q 1250 3563 1034 2750 
L 3009 2750 
z
M 2444 4913 
Q 3194 4913 3494 4250 
Q 3794 3591 3566 2422 
Q 3341 1256 2781 594 
Q 2225 -72 1475 -72 
Q 722 -72 425 594 
Q 128 1256 353 2422 
Q 581 3591 1134 4250 
Q 1691 4913 2444 4913 
z
" transform="scale(0.015625)"/>
       <path id="DejaVuSans-28" d="M 1984 4856 
Q 1566 4138 1362 3434 
Q 1159 2731 1159 2009 
Q 1159 1288 1364 580 
Q 1569 -128 1984 -844 
L 1484 -844 
Q 1016 -109 783 600 
Q 550 1309 550 2009 
Q 550 2706 781 3412 
Q 1013 4119 1484 4856 
L 1984 4856 
z
" transform="scale(0.015625)"/>
       <path id="DejaVuSans-64" d="M 2906 2969 
L 2906 4863 
L 3481 4863 
L 3481 0 
L 2906 0 
L 2906 525 
Q 2725 213 2448 61 
Q 2172 -91 1784 -91 
Q 1150 -91 751 415 
Q 353 922 353 1747 
Q 353 2572 751 3078 
Q 1150 3584 1784 3584 
Q 2172 3584 2448 3432 
Q 2725 3281 2906 2969 
z
M 947 1747 
Q 947 1113 1208 752 
Q 1469 391 1925 391 
Q 2381 391 2643 752 
Q 2906 1113 2906 1747 
Q 2906 2381 2643 2742 
Q 2381 3103 1925 3103 
Q 1469 3103 1208 2742 
Q 947 2381 947 1747 
z
" transform="scale(0.015625)"/>
       <path id="DejaVuSans-29" d="M 513 4856 
L 1013 4856 
Q 1481 4119 1714 3412 
Q 1947 2706 1947 2009 
Q 1947 1309 1714 600 
Q 1481 -109 1013 -844 
L 513 -844 
Q 928 -128 1133 580 
Q 1338 1288 1338 2009 
Q 1338 2731 1133 3434 
Q 928 4138 513 4856 
z
" transform="scale(0.015625)"/>
      </defs>
      <use xlink:href="#DejaVuSans-73" transform="translate(0 0.234375)"/>
      <use xlink:href="#DejaVuSans-63" transform="translate(52.099609 0.234375)"/>
      <use xlink:href="#DejaVuSans-61" transform="translate(107.080078 0.234375)"/>
      <use xlink:href="#DejaVuSans-74" transform="translate(168.359375 0.234375)"/>
      <use xlink:href="#DejaVuSans-74" transform="translate(207.568359 0.234375)"/>
      <use xlink:href="#DejaVuSans-65" transform="translate(246.777344 0.234375)"/>
      <use xlink:href="#DejaVuSans-72" transform="translate(308.300781 0.234375)"/>
      <use xlink:href="#DejaVuSans-69" transform="translate(349.414062 0.234375)"/>
      <use xlink:href="#DejaVuSans-6e" transform="translate(377.197266 0.234375)"/>
      <use xlink:href="#DejaVuSans-67" transform="translate(440.576172 0.234375)"/>
      <use xlink:href="#DejaVuSans-20" transform="translate(504.052734 0.234375)"/>
      <use xlink:href="#DejaVuSans-61" transform="translate(535.839844 0.234375)"/>
      <use xlink:href="#DejaVuSans-6e" transform="translate(597.119141 0.234375)"/>
      <use xlink:href="#DejaVuSans-67" transform="translate(660.498047 0.234375)"/>
      <use xlink:href="#DejaVuSans-6c" transform="translate(723.974609 0.234375)"/>
      <use xlink:href="#DejaVuSans-65" transform="translate(751.757812 0.234375)"/>
      <use xlink:href="#DejaVuSans-20" transform="translate(813.28125 0.234375)"/>
      <use xlink:href="#DejaVuSans-20" transform="translate(845.068359 0.234375)"/>
      <use xlink:href="#DejaVuSans-Oblique-3b8" transform="translate(876.855469 0.234375)"/>
      <use xlink:href="#DejaVuSans-20" transform="translate(938.037109 0.234375)"/>
      <use xlink:href="#DejaVuSans-20" transform="translate(969.824219 0.234375)"/>
      <use xlink:href="#DejaVuSans-28" transform="translate(1001.611328 0.234375)"/>
      <use xlink:href="#DejaVuSans-64" transform="translate(1040.625 0.234375)"/>
      <use xlink:href="#DejaVuSans-65" transform="translate(1104.101562 0.234375)"/>
      <use xlink:href="#DejaVuSans-67" transform="translate(1165.625 0.234375)"/>
      <use xlink:href="#DejaVuSans-72" transform="translate(1229.101562 0.234375)"/>
      <use xlink:href="#DejaVuSans-65" transform="translate(1270.214844 0.234375)"/>
      <use xlink:href="#DejaVuSans-65" transform="translate(1331.738281 0.234375)"/>
      <use xlink:href="#DejaVuSans-73" transform="translate(1393.261719 0.234375)"/>
      <use xlink:href="#DejaVuSans-29" transform="translate(1445.361328 0.234375)"/>
     </g>
    </g>
   </g>
   <g id="matplotlib.axis_2">
    <g id="ytick_1">
     <g id="line2d_11">
      <defs>
       <path id="m4f9a62caaa" d="M 0 0 
L -3.5 0 
" style="stroke: #000000; stroke-width: 0.8"/>
      </defs>
      <g>
       <use xlink:href="#m4f9a62caaa" x="64.867798" y="230.624146" style="stroke: #000000; stroke-width: 0.8"/>
      </g>
     </g>
     <g id="text_12">
      <!-- $\mathdefault{10^{-4}}$ -->
      <g transform="translate(32.017798 234.803287) scale(0.11 -0.11)">
       <defs>
        <path id="DejaVuSans-2212" d="M 678 2272 
L 4684 2272 
L 4684 1741 
L 678 1741 
L 678 2272 
z
" transform="scale(0.015625)"/>
       </defs>
       <use xlink:href="#DejaVuSans-31" transform="translate(0 0.684375)"/>
       <use xlink:href="#DejaVuSans-30" transform="translate(63.623047 0.684375)"/>
       <use xlink:href="#DejaVuSans-2212" transform="translate(128.203125 38.965625) scale(0.7)"/>
       <use xlink:href="#DejaVuSans-34" transform="translate(186.855469 38.965625) scale(0.7)"/>
      </g>
     </g>
    </g>
    <g id="ytick_2">
     <g id="line2d_12">
      <g>
       <use xlink:href="#m4f9a62caaa" x="64.867798" y="182.718561" style="stroke: #000000; stroke-width: 0.8"/>
      </g>
     </g>
     <g id="text_13">
      <!-- $\mathdefault{10^{-3}}$ -->
      <g transform="translate(32.017798 186.897702) scale(0.11 -0.11)">
       <defs>
        <path id="DejaVuSans-33" d="M 2597 2516 
Q 3050 2419 3304 2112 
Q 3559 1806 3559 1356 
Q 3559 666 3084 287 
Q 2609 -91 1734 -91 
Q 1441 -91 1130 -33 
Q 819 25 488 141 
L 488 750 
Q 750 597 1062 519 
Q 1375 441 1716 441 
Q 2309 441 2620 675 
Q 2931 909 2931 1356 
Q 2931 1769 2642 2001 
Q 2353 2234 1838 2234 
L 1294 2234 
L 1294 2753 
L 1863 2753 
Q 2328 2753 2575 2939 
Q 2822 3125 2822 3475 
Q 2822 3834 2567 4026 
Q 2313 4219 1838 4219 
Q 1578 4219 1281 4162 
Q 984 4106 628 3988 
L 628 4550 
Q 988 4650 1302 4700 
Q 1616 4750 1894 4750 
Q 2613 4750 3031 4423 
Q 3450 4097 3450 3541 
Q 3450 3153 3228 2886 
Q 3006 2619 2597 2516 
z
" transform="scale(0.015625)"/>
       </defs>
       <use xlink:href="#DejaVuSans-31" transform="translate(0 0.765625)"/>
       <use xlink:href="#DejaVuSans-30" transform="translate(63.623047 0.765625)"/>
       <use xlink:href="#DejaVuSans-2212" transform="translate(128.203125 39.046875) scale(0.7)"/>
       <use xlink:href="#DejaVuSans-33" transform="translate(186.855469 39.046875) scale(0.7)"/>
      </g>
     </g>
    </g>
    <g id="ytick_3">
     <g id="line2d_13">
      <g>
       <use xlink:href="#m4f9a62caaa" x="64.867798" y="134.812977" style="stroke: #000000; stroke-width: 0.8"/>
      </g>
     </g>
     <g id="text_14">
      <!-- $\mathdefault{10^{-2}}$ -->
      <g transform="translate(32.017798 138.992117) scale(0.11 -0.11)">
       <use xlink:href="#DejaVuSans-31" transform="translate(0 0.765625)"/>
       <use xlink:href="#DejaVuSans-30" transform="translate(63.623047 0.765625)"/>
       <use xlink:href="#DejaVuSans-2212" transform="translate(128.203125 39.046875) scale(0.7)"/>
       <use xlink:href="#DejaVuSans-32" transform="translate(186.855469 39.046875) scale(0.7)"/>
      </g>
     </g>
    </g>
    <g id="ytick_4">
     <g id="line2d_14">
      <g>
       <use xlink:href="#m4f9a62caaa" x="64.867798" y="86.907392" style="stroke: #000000; stroke-width: 0.8"/>
      </g>
     </g>
     <g id="text_15">
      <!-- $\mathdefault{10^{-1}}$ -->
      <g transform="translate(32.017798 91.086533) scale(0.11 -0.11)">
       <use xlink:href="#DejaVuSans-31" transform="translate(0 0.684375)"/>
       <use xlink:href="#DejaVuSans-30" transform="translate(63.623047 0.684375)"/>
       <use xlink:href="#DejaVuSans-2212" transform="translate(128.203125 38.965625) scale(0.7)"/>
       <use xlink:href="#DejaVuSans-31" transform="translate(186.855469 38.965625) scale(0.7)"/>
      </g>
     </g>
    </g>
    <g id="ytick_5">
     <g id="line2d_15">
      <g>
       <use xlink:href="#m4f9a62caaa" x="64.867798" y="39.001808" style="stroke: #000000; stroke-width: 0.8"/>
      </g>
     </g>
     <g id="text_16">
      <!-- $\mathdefault{10^{0}}$ -->
      <g transform="translate(38.507798 43.180948) scale(0.11 -0.11)">
       <use xlink:href="#DejaVuSans-31" transform="translate(0 0.765625)"/>
       <use xlink:href="#DejaVuSans-30" transform="translate(63.623047 0.765625)"/>
       <use xlink:href="#DejaVuSans-30" transform="translate(128.203125 39.046875) scale(0.7)"/>
      </g>
     </g>
    </g>
    <g id="ytick_6">
     <g id="line2d_16">
      <defs>
       <path id="m1eba6b5753" d="M 0 0 
L -2 0 
" style="stroke: #000000; stroke-width: 0.6"/>
      </defs>
      <g>
       <use xlink:href="#m1eba6b5753" x="64.867798" y="238.044815" style="stroke: #000000; stroke-width: 0.6"/>
      </g>
     </g>
    </g>
    <g id="ytick_7">
     <g id="line2d_17">
      <g>
       <use xlink:href="#m1eba6b5753" x="64.867798" y="235.266677" style="stroke: #000000; stroke-width: 0.6"/>
      </g>
     </g>
    </g>
    <g id="ytick_8">
     <g id="line2d_18">
      <g>
       <use xlink:href="#m1eba6b5753" x="64.867798" y="232.816185" style="stroke: #000000; stroke-width: 0.6"/>
      </g>
     </g>
    </g>
    <g id="ytick_9">
     <g id="line2d_19">
      <g>
       <use xlink:href="#m1eba6b5753" x="64.867798" y="216.203128" style="stroke: #000000; stroke-width: 0.6"/>
      </g>
     </g>
    </g>
    <g id="ytick_10">
     <g id="line2d_20">
      <g>
       <use xlink:href="#m1eba6b5753" x="64.867798" y="207.767373" style="stroke: #000000; stroke-width: 0.6"/>
      </g>
     </g>
    </g>
    <g id="ytick_11">
     <g id="line2d_21">
      <g>
       <use xlink:href="#m1eba6b5753" x="64.867798" y="201.78211" style="stroke: #000000; stroke-width: 0.6"/>
      </g>
     </g>
    </g>
    <g id="ytick_12">
     <g id="line2d_22">
      <g>
       <use xlink:href="#m1eba6b5753" x="64.867798" y="197.139579" style="stroke: #000000; stroke-width: 0.6"/>
      </g>
     </g>
    </g>
    <g id="ytick_13">
     <g id="line2d_23">
      <g>
       <use xlink:href="#m1eba6b5753" x="64.867798" y="193.346355" style="stroke: #000000; stroke-width: 0.6"/>
      </g>
     </g>
    </g>
    <g id="ytick_14">
     <g id="line2d_24">
      <g>
       <use xlink:href="#m1eba6b5753" x="64.867798" y="190.13923" style="stroke: #000000; stroke-width: 0.6"/>
      </g>
     </g>
    </g>
    <g id="ytick_15">
     <g id="line2d_25">
      <g>
       <use xlink:href="#m1eba6b5753" x="64.867798" y="187.361092" style="stroke: #000000; stroke-width: 0.6"/>
      </g>
     </g>
    </g>
    <g id="ytick_16">
     <g id="line2d_26">
      <g>
       <use xlink:href="#m1eba6b5753" x="64.867798" y="184.910601" style="stroke: #000000; stroke-width: 0.6"/>
      </g>
     </g>
    </g>
    <g id="ytick_17">
     <g id="line2d_27">
      <g>
       <use xlink:href="#m1eba6b5753" x="64.867798" y="168.297543" style="stroke: #000000; stroke-width: 0.6"/>
      </g>
     </g>
    </g>
    <g id="ytick_18">
     <g id="line2d_28">
      <g>
       <use xlink:href="#m1eba6b5753" x="64.867798" y="159.861789" style="stroke: #000000; stroke-width: 0.6"/>
      </g>
     </g>
    </g>
    <g id="ytick_19">
     <g id="line2d_29">
      <g>
       <use xlink:href="#m1eba6b5753" x="64.867798" y="153.876526" style="stroke: #000000; stroke-width: 0.6"/>
      </g>
     </g>
    </g>
    <g id="ytick_20">
     <g id="line2d_30">
      <g>
       <use xlink:href="#m1eba6b5753" x="64.867798" y="149.233995" style="stroke: #000000; stroke-width: 0.6"/>
      </g>
     </g>
    </g>
    <g id="ytick_21">
     <g id="line2d_31">
      <g>
       <use xlink:href="#m1eba6b5753" x="64.867798" y="145.440771" style="stroke: #000000; stroke-width: 0.6"/>
      </g>
     </g>
    </g>
    <g id="ytick_22">
     <g id="line2d_32">
      <g>
       <use xlink:href="#m1eba6b5753" x="64.867798" y="142.233646" style="stroke: #000000; stroke-width: 0.6"/>
      </g>
     </g>
    </g>
    <g id="ytick_23">
     <g id="line2d_33">
      <g>
       <use xlink:href="#m1eba6b5753" x="64.867798" y="139.455508" style="stroke: #000000; stroke-width: 0.6"/>
      </g>
     </g>
    </g>
    <g id="ytick_24">
     <g id="line2d_34">
      <g>
       <use xlink:href="#m1eba6b5753" x="64.867798" y="137.005016" style="stroke: #000000; stroke-width: 0.6"/>
      </g>
     </g>
    </g>
    <g id="ytick_25">
     <g id="line2d_35">
      <g>
       <use xlink:href="#m1eba6b5753" x="64.867798" y="120.391959" style="stroke: #000000; stroke-width: 0.6"/>
      </g>
     </g>
    </g>
    <g id="ytick_26">
     <g id="line2d_36">
      <g>
       <use xlink:href="#m1eba6b5753" x="64.867798" y="111.956204" style="stroke: #000000; stroke-width: 0.6"/>
      </g>
     </g>
    </g>
    <g id="ytick_27">
     <g id="line2d_37">
      <g>
       <use xlink:href="#m1eba6b5753" x="64.867798" y="105.970941" style="stroke: #000000; stroke-width: 0.6"/>
      </g>
     </g>
    </g>
    <g id="ytick_28">
     <g id="line2d_38">
      <g>
       <use xlink:href="#m1eba6b5753" x="64.867798" y="101.32841" style="stroke: #000000; stroke-width: 0.6"/>
      </g>
     </g>
    </g>
    <g id="ytick_29">
     <g id="line2d_39">
      <g>
       <use xlink:href="#m1eba6b5753" x="64.867798" y="97.535186" style="stroke: #000000; stroke-width: 0.6"/>
      </g>
     </g>
    </g>
    <g id="ytick_30">
     <g id="line2d_40">
      <g>
       <use xlink:href="#m1eba6b5753" x="64.867798" y="94.328061" style="stroke: #000000; stroke-width: 0.6"/>
      </g>
     </g>
    </g>
    <g id="ytick_31">
     <g id="line2d_41">
      <g>
       <use xlink:href="#m1eba6b5753" x="64.867798" y="91.549923" style="stroke: #000000; stroke-width: 0.6"/>
      </g>
     </g>
    </g>
    <g id="ytick_32">
     <g id="line2d_42">
      <g>
       <use xlink:href="#m1eba6b5753" x="64.867798" y="89.099432" style="stroke: #000000; stroke-width: 0.6"/>
      </g>
     </g>
    </g>
    <g id="ytick_33">
     <g id="line2d_43">
      <g>
       <use xlink:href="#m1eba6b5753" x="64.867798" y="72.486374" style="stroke: #000000; stroke-width: 0.6"/>
      </g>
     </g>
    </g>
    <g id="ytick_34">
     <g id="line2d_44">
      <g>
       <use xlink:href="#m1eba6b5753" x="64.867798" y="64.05062" style="stroke: #000000; stroke-width: 0.6"/>
      </g>
     </g>
    </g>
    <g id="ytick_35">
     <g id="line2d_45">
      <g>
       <use xlink:href="#m1eba6b5753" x="64.867798" y="58.065357" style="stroke: #000000; stroke-width: 0.6"/>
      </g>
     </g>
    </g>
    <g id="ytick_36">
     <g id="line2d_46">
      <g>
       <use xlink:href="#m1eba6b5753" x="64.867798" y="53.422826" style="stroke: #000000; stroke-width: 0.6"/>
      </g>
     </g>
    </g>
    <g id="ytick_37">
     <g id="line2d_47">
      <g>
       <use xlink:href="#m1eba6b5753" x="64.867798" y="49.629602" style="stroke: #000000; stroke-width: 0.6"/>
      </g>
     </g>
    </g>
    <g id="ytick_38">
     <g id="line2d_48">
      <g>
       <use xlink:href="#m1eba6b5753" x="64.867798" y="46.422477" style="stroke: #000000; stroke-width: 0.6"/>
      </g>
     </g>
    </g>
    <g id="ytick_39">
     <g id="line2d_49">
      <g>
       <use xlink:href="#m1eba6b5753" x="64.867798" y="43.644339" style="stroke: #000000; stroke-width: 0.6"/>
      </g>
     </g>
    </g>
    <g id="ytick_40">
     <g id="line2d_50">
      <g>
       <use xlink:href="#m1eba6b5753" x="64.867798" y="41.193847" style="stroke: #000000; stroke-width: 0.6"/>
      </g>
     </g>
    </g>
    <g id="text_17">
     <!-- $d\sigma/d\Omega$  (units of $(2mV_0/\hbar^2\mu)^2\,\mu^{-4}$) -->
     <g transform="translate(25.707798 226.375) rotate(-90) scale(0.11 -0.11)">
      <defs>
       <path id="DejaVuSans-Oblique-64" d="M 2675 525 
Q 2444 222 2128 65 
Q 1813 -91 1428 -91 
Q 903 -91 598 267 
Q 294 625 294 1247 
Q 294 1766 478 2236 
Q 663 2706 1013 3078 
Q 1244 3325 1534 3454 
Q 1825 3584 2144 3584 
Q 2481 3584 2739 3421 
Q 2997 3259 3138 2956 
L 3513 4863 
L 4091 4863 
L 3144 0 
L 2566 0 
L 2675 525 
z
M 891 1350 
Q 891 897 1095 644 
Q 1300 391 1663 391 
Q 1931 391 2161 520 
Q 2391 650 2566 903 
Q 2750 1166 2856 1509 
Q 2963 1853 2963 2188 
Q 2963 2622 2758 2865 
Q 2553 3109 2194 3109 
Q 1922 3109 1687 2981 
Q 1453 2853 1288 2613 
Q 1106 2353 998 2009 
Q 891 1666 891 1350 
z
" transform="scale(0.015625)"/>
       <path id="DejaVuSans-Oblique-3c3" d="M 2219 3044 
Q 1744 3044 1422 2700 
Q 1081 2341 969 1747 
Q 844 1119 1044 756 
Q 1241 397 1706 397 
Q 2166 397 2503 759 
Q 2844 1122 2966 1747 
Q 3075 2319 2881 2700 
Q 2700 3044 2219 3044 
z
M 2309 3503 
L 4219 3500 
L 4106 2925 
L 3463 2925 
Q 3706 2438 3575 1747 
Q 3406 888 2884 400 
Q 2359 -91 1609 -91 
Q 856 -91 525 400 
Q 194 888 363 1747 
Q 528 2609 1050 3097 
Q 1484 3503 2309 3503 
z
" transform="scale(0.015625)"/>
       <path id="DejaVuSans-2f" d="M 1625 4666 
L 2156 4666 
L 531 -594 
L 0 -594 
L 1625 4666 
z
" transform="scale(0.015625)"/>
       <path id="DejaVuSans-3a9" d="M 4647 556 
L 4647 0 
L 2772 0 
L 2772 556 
Q 3325 859 3634 1378 
Q 3944 1897 3944 2528 
Q 3944 3278 3531 3731 
Q 3119 4184 2444 4184 
Q 1769 4184 1355 3729 
Q 941 3275 941 2528 
Q 941 1897 1250 1378 
Q 1563 859 2119 556 
L 2119 0 
L 244 0 
L 244 556 
L 1241 556 
Q 747 991 519 1456 
Q 294 1922 294 2497 
Q 294 3491 894 4106 
Q 1491 4722 2444 4722 
Q 3391 4722 3994 4106 
Q 4594 3494 4594 2528 
Q 4594 1922 4372 1459 
Q 4150 997 3647 556 
L 4647 556 
z
" transform="scale(0.015625)"/>
       <path id="DejaVuSans-75" d="M 544 1381 
L 544 3500 
L 1119 3500 
L 1119 1403 
Q 1119 906 1312 657 
Q 1506 409 1894 409 
Q 2359 409 2629 706 
Q 2900 1003 2900 1516 
L 2900 3500 
L 3475 3500 
L 3475 0 
L 2900 0 
L 2900 538 
Q 2691 219 2414 64 
Q 2138 -91 1772 -91 
Q 1169 -91 856 284 
Q 544 659 544 1381 
z
M 1991 3584 
L 1991 3584 
z
" transform="scale(0.015625)"/>
       <path id="DejaVuSans-6f" d="M 1959 3097 
Q 1497 3097 1228 2736 
Q 959 2375 959 1747 
Q 959 1119 1226 758 
Q 1494 397 1959 397 
Q 2419 397 2687 759 
Q 2956 1122 2956 1747 
Q 2956 2369 2687 2733 
Q 2419 3097 1959 3097 
z
M 1959 3584 
Q 2709 3584 3137 3096 
Q 3566 2609 3566 1747 
Q 3566 888 3137 398 
Q 2709 -91 1959 -91 
Q 1206 -91 779 398 
Q 353 888 353 1747 
Q 353 2609 779 3096 
Q 1206 3584 1959 3584 
z
" transform="scale(0.015625)"/>
       <path id="DejaVuSans-66" d="M 2375 4863 
L 2375 4384 
L 1825 4384 
Q 1516 4384 1395 4259 
Q 1275 4134 1275 3809 
L 1275 3500 
L 2222 3500 
L 2222 3053 
L 1275 3053 
L 1275 0 
L 697 0 
L 697 3053 
L 147 3053 
L 147 3500 
L 697 3500 
L 697 3744 
Q 697 4328 969 4595 
Q 1241 4863 1831 4863 
L 2375 4863 
z
" transform="scale(0.015625)"/>
       <path id="DejaVuSans-Oblique-6d" d="M 5747 2113 
L 5338 0 
L 4763 0 
L 5166 2094 
Q 5191 2228 5203 2325 
Q 5216 2422 5216 2491 
Q 5216 2772 5059 2928 
Q 4903 3084 4622 3084 
Q 4203 3084 3875 2770 
Q 3547 2456 3450 1953 
L 3066 0 
L 2491 0 
L 2900 2094 
Q 2925 2209 2937 2307 
Q 2950 2406 2950 2484 
Q 2950 2769 2794 2926 
Q 2638 3084 2363 3084 
Q 1938 3084 1609 2770 
Q 1281 2456 1184 1953 
L 800 0 
L 225 0 
L 909 3500 
L 1484 3500 
L 1375 2956 
Q 1609 3263 1923 3423 
Q 2238 3584 2597 3584 
Q 2978 3584 3223 3384 
Q 3469 3184 3519 2828 
Q 3781 3197 4126 3390 
Q 4472 3584 4856 3584 
Q 5306 3584 5551 3325 
Q 5797 3066 5797 2591 
Q 5797 2488 5784 2364 
Q 5772 2241 5747 2113 
z
" transform="scale(0.015625)"/>
       <path id="DejaVuSans-Oblique-56" d="M 1319 0 
L 500 4666 
L 1119 4666 
L 1797 653 
L 4063 4666 
L 4750 4666 
L 2053 0 
L 1319 0 
z
" transform="scale(0.015625)"/>
       <path id="DejaVuSans-Oblique-127" d="M 3634 2113 
L 3225 0 
L 2650 0 
L 3056 2094 
Q 3094 2291 3094 2450 
Q 3094 2688 3006 2838 
Q 2863 3084 2475 3084 
Q 2009 3084 1681 2788 
Q 1356 2491 1256 1978 
L 872 0 
L 294 0 
L 1066 3969 
L 675 3969 
L 775 4481 
L 1166 4481 
L 1238 4863 
L 1816 4863 
L 1744 4481 
L 2844 4481 
L 2744 3969 
L 1644 3969 
L 1447 2956 
Q 1713 3272 2025 3428 
Q 2331 3584 2700 3584 
Q 3300 3584 3538 3213 
Q 3688 2975 3688 2606 
Q 3688 2381 3634 2113 
z
" transform="scale(0.015625)"/>
       <path id="DejaVuSans-Oblique-3bc" d="M -84 -1331 
L 856 3500 
L 1434 3500 
L 1009 1322 
Q 997 1256 987 1175 
Q 978 1094 978 1013 
Q 978 722 1161 565 
Q 1344 409 1684 409 
Q 2147 409 2431 671 
Q 2716 934 2816 1459 
L 3213 3500 
L 3788 3500 
L 3266 809 
Q 3253 750 3248 706 
Q 3244 663 3244 628 
Q 3244 531 3283 486 
Q 3322 441 3406 441 
Q 3438 441 3492 456 
Q 3547 472 3647 513 
L 3559 50 
Q 3422 -19 3297 -55 
Q 3172 -91 3053 -91 
Q 2847 -91 2730 40 
Q 2613 172 2613 403 
Q 2438 153 2195 31 
Q 1953 -91 1625 -91 
Q 1334 -91 1117 43 
Q 900 178 831 397 
L 494 -1331 
L -84 -1331 
z
" transform="scale(0.015625)"/>
      </defs>
      <use xlink:href="#DejaVuSans-Oblique-64" transform="translate(0 0.765625)"/>
      <use xlink:href="#DejaVuSans-Oblique-3c3" transform="translate(63.476562 0.765625)"/>
      <use xlink:href="#DejaVuSans-2f" transform="translate(126.855469 0.765625)"/>
      <use xlink:href="#DejaVuSans-Oblique-64" transform="translate(160.546875 0.765625)"/>
      <use xlink:href="#DejaVuSans-3a9" transform="translate(224.023438 0.765625)"/>
      <use xlink:href="#DejaVuSans-20" transform="translate(300.439453 0.765625)"/>
      <use xlink:href="#DejaVuSans-20" transform="translate(332.226562 0.765625)"/>
      <use xlink:href="#DejaVuSans-28" transform="translate(364.013672 0.765625)"/>
      <use xlink:href="#DejaVuSans-75" transform="translate(403.027344 0.765625)"/>
      <use xlink:href="#DejaVuSans-6e" transform="translate(466.40625 0.765625)"/>
      <use xlink:href="#DejaVuSans-69" transform="translate(529.785156 0.765625)"/>
      <use xlink:href="#DejaVuSans-74" transform="translate(557.568359 0.765625)"/>
      <use xlink:href="#DejaVuSans-73" transform="translate(596.777344 0.765625)"/>
      <use xlink:href="#DejaVuSans-20" transform="translate(648.876953 0.765625)"/>
      <use xlink:href="#DejaVuSans-6f" transform="translate(680.664062 0.765625)"/>
      <use xlink:href="#DejaVuSans-66" transform="translate(741.845703 0.765625)"/>
      <use xlink:href="#DejaVuSans-20" transform="translate(777.050781 0.765625)"/>
      <use xlink:href="#DejaVuSans-28" transform="translate(808.837891 0.765625)"/>
      <use xlink:href="#DejaVuSans-32" transform="translate(847.851562 0.765625)"/>
      <use xlink:href="#DejaVuSans-Oblique-6d" transform="translate(909.724609 0.765625)"/>
      <use xlink:href="#DejaVuSans-Oblique-56" transform="translate(1007.136719 0.765625)"/>
      <use xlink:href="#DejaVuSans-30" transform="translate(1075.544922 -15.640625) scale(0.7)"/>
      <use xlink:href="#DejaVuSans-2f" transform="translate(1122.81543 0.765625)"/>
      <use xlink:href="#DejaVuSans-Oblique-127" transform="translate(1156.506836 0.765625)"/>
      <use xlink:href="#DejaVuSans-32" transform="translate(1233.436966 39.046875) scale(0.7)"/>
      <use xlink:href="#DejaVuSans-Oblique-3bc" transform="translate(1280.707474 0.765625)"/>
      <use xlink:href="#DejaVuSans-29" transform="translate(1344.330521 0.765625)"/>
      <use xlink:href="#DejaVuSans-32" transform="translate(1384.301224 39.046875) scale(0.7)"/>
      <use xlink:href="#DejaVuSans-Oblique-3bc" transform="translate(1447.807408 0.765625)"/>
      <use xlink:href="#DejaVuSans-2212" transform="translate(1515.896601 39.046875) scale(0.7)"/>
      <use xlink:href="#DejaVuSans-34" transform="translate(1574.548944 39.046875) scale(0.7)"/>
      <use xlink:href="#DejaVuSans-29" transform="translate(1621.819452 0.765625)"/>
     </g>
    </g>
   </g>
   <g id="line2d_51">
    <path d="M 64.986737 39.001818 
L 77.141925 39.112346 
L 89.764619 39.453493 
L 102.387314 40.015954 
L 115.945023 40.849316 
L 129.97024 41.935523 
L 145.397978 43.355309 
L 163.163252 45.22241 
L 185.136091 47.769991 
L 226.744233 52.879656 
L 258.067216 56.609349 
L 281.442577 59.171863 
L 302.480401 61.253837 
L 322.115704 62.972328 
L 340.815993 64.386962 
L 359.048774 65.544184 
L 376.814048 66.451752 
L 394.579322 67.135834 
L 411.877089 67.583028 
L 429.174856 67.811704 
L 438.525 67.843844 
L 438.525 67.843844 
" clip-path="url(#p87eaadd442)" style="fill: none; stroke: #56b4e9; stroke-width: 2.2; stroke-linecap: square"/>
   </g>
   <g id="line2d_52">
    <path d="M 64.986737 39.001974 
L 68.259288 39.136909 
L 71.531838 39.520922 
L 74.804389 40.146915 
L 78.076939 41.003639 
L 81.34949 42.076336 
L 85.089547 43.544193 
L 88.829605 45.242177 
L 93.03717 47.389277 
L 97.712242 50.017722 
L 103.322329 53.431171 
L 110.334937 57.96812 
L 122.022617 65.841492 
L 137.450355 76.185696 
L 147.268007 82.497569 
L 156.150644 87.952193 
L 165.033281 93.139131 
L 173.448411 97.79897 
L 181.86354 102.212666 
L 190.27867 106.385882 
L 199.161307 110.539156 
L 208.043944 114.444868 
L 216.926581 118.114817 
L 226.276726 121.736137 
L 235.62687 125.122456 
L 245.444521 128.438779 
L 255.262173 131.523083 
L 265.547331 134.518712 
L 275.83249 137.285857 
L 286.585156 139.94692 
L 297.337822 142.382498 
L 308.557995 144.694801 
L 319.778168 146.783327 
L 331.465848 148.730755 
L 343.153529 150.454253 
L 355.308716 152.017441 
L 367.463904 153.354169 
L 379.619091 154.47061 
L 392.241786 155.402241 
L 404.864481 156.106231 
L 417.487175 156.585915 
L 430.10987 156.843539 
L 438.525 156.892557 
L 438.525 156.892557 
" clip-path="url(#p87eaadd442)" style="fill: none; stroke: #0072b2; stroke-width: 2.2; stroke-linecap: square"/>
   </g>
   <g id="line2d_53">
    <path d="M 64.986737 39.002848 
L 66.389259 39.17168 
L 67.79178 39.625773 
L 69.194302 40.355857 
L 70.596824 41.347507 
L 71.999345 42.582055 
L 73.869374 44.567923 
L 75.739403 46.88976 
L 78.076939 50.175148 
L 80.881982 54.535177 
L 84.62204 60.787672 
L 99.582271 86.275305 
L 104.257343 93.632088 
L 108.932415 100.579294 
L 113.607487 107.117872 
L 118.282559 113.264896 
L 122.957632 119.044714 
L 127.632704 124.484127 
L 132.775283 130.106158 
L 137.917862 135.382226 
L 143.060442 140.343152 
L 148.670528 145.428206 
L 154.280615 150.203251 
L 159.890701 154.696471 
L 165.968295 159.274731 
L 172.045889 163.578753 
L 178.59099 167.934579 
L 185.136091 172.026111 
L 192.148699 176.142194 
L 199.161307 180.004826 
L 206.641423 183.869067 
L 214.121538 187.490608 
L 222.069161 191.093831 
L 230.48429 194.655774 
L 238.89942 197.977195 
L 247.782057 201.241651 
L 256.664694 204.275715 
L 266.014839 207.237675 
L 275.83249 210.108796 
L 285.650142 212.750682 
L 295.9353 215.287378 
L 306.220459 217.601074 
L 316.973125 219.794226 
L 328.193298 221.849018 
L 339.413471 223.676183 
L 351.101151 225.347714 
L 362.788832 226.791727 
L 374.476512 228.015819 
L 386.631699 229.062282 
L 398.786887 229.883251 
L 410.942074 230.483046 
L 423.097262 230.864773 
L 435.25245 231.030384 
L 438.525 231.038182 
L 438.525 231.038182 
" clip-path="url(#p87eaadd442)" style="fill: none; stroke: #d55e00; stroke-width: 2.2; stroke-linecap: square"/>
   </g>
   <g id="patch_3">
    <path d="M 64.867798 240.64 
L 64.867798 29.4 
" style="fill: none; stroke: #000000; stroke-linejoin: miter; stroke-linecap: square"/>
   </g>
   <g id="patch_4">
    <path d="M 64.867798 240.64 
L 438.525 240.64 
" style="fill: none; stroke: #000000; stroke-linejoin: miter; stroke-linecap: square"/>
   </g>
   <g id="text_18">
    <!-- Born cross-section, Yukawa potential — forward peak sharpens with $ka$ -->
    <g transform="translate(38.036399 23.4) scale(0.12 -0.12)">
     <defs>
      <path id="DejaVuSans-42" d="M 1259 2228 
L 1259 519 
L 2272 519 
Q 2781 519 3026 730 
Q 3272 941 3272 1375 
Q 3272 1813 3026 2020 
Q 2781 2228 2272 2228 
L 1259 2228 
z
M 1259 4147 
L 1259 2741 
L 2194 2741 
Q 2656 2741 2882 2914 
Q 3109 3088 3109 3444 
Q 3109 3797 2882 3972 
Q 2656 4147 2194 4147 
L 1259 4147 
z
M 628 4666 
L 2241 4666 
Q 2963 4666 3353 4366 
Q 3744 4066 3744 3513 
Q 3744 3084 3544 2831 
Q 3344 2578 2956 2516 
Q 3422 2416 3680 2098 
Q 3938 1781 3938 1306 
Q 3938 681 3513 340 
Q 3088 0 2303 0 
L 628 0 
L 628 4666 
z
" transform="scale(0.015625)"/>
      <path id="DejaVuSans-2d" d="M 313 2009 
L 1997 2009 
L 1997 1497 
L 313 1497 
L 313 2009 
z
" transform="scale(0.015625)"/>
      <path id="DejaVuSans-2c" d="M 750 794 
L 1409 794 
L 1409 256 
L 897 -744 
L 494 -744 
L 750 256 
L 750 794 
z
" transform="scale(0.015625)"/>
      <path id="DejaVuSans-59" d="M -13 4666 
L 666 4666 
L 1959 2747 
L 3244 4666 
L 3922 4666 
L 2272 2222 
L 2272 0 
L 1638 0 
L 1638 2222 
L -13 4666 
z
" transform="scale(0.015625)"/>
      <path id="DejaVuSans-6b" d="M 581 4863 
L 1159 4863 
L 1159 1991 
L 2875 3500 
L 3609 3500 
L 1753 1863 
L 3688 0 
L 2938 0 
L 1159 1709 
L 1159 0 
L 581 0 
L 581 4863 
z
" transform="scale(0.015625)"/>
      <path id="DejaVuSans-77" d="M 269 3500 
L 844 3500 
L 1563 769 
L 2278 3500 
L 2956 3500 
L 3675 769 
L 4391 3500 
L 4966 3500 
L 4050 0 
L 3372 0 
L 2619 2869 
L 1863 0 
L 1184 0 
L 269 3500 
z
" transform="scale(0.015625)"/>
      <path id="DejaVuSans-70" d="M 1159 525 
L 1159 -1331 
L 581 -1331 
L 581 3500 
L 1159 3500 
L 1159 2969 
Q 1341 3281 1617 3432 
Q 1894 3584 2278 3584 
Q 2916 3584 3314 3078 
Q 3713 2572 3713 1747 
Q 3713 922 3314 415 
Q 2916 -91 2278 -91 
Q 1894 -91 1617 61 
Q 1341 213 1159 525 
z
M 3116 1747 
Q 3116 2381 2855 2742 
Q 2594 3103 2138 3103 
Q 1681 3103 1420 2742 
Q 1159 2381 1159 1747 
Q 1159 1113 1420 752 
Q 1681 391 2138 391 
Q 2594 391 2855 752 
Q 3116 1113 3116 1747 
z
" transform="scale(0.015625)"/>
      <path id="DejaVuSansDisplay-2014" d="M 313 1978 
L 6088 1978 
L 6088 1528 
L 313 1528 
L 313 1978 
z
" transform="scale(0.015625)"/>
      <path id="DejaVuSans-68" d="M 3513 2113 
L 3513 0 
L 2938 0 
L 2938 2094 
Q 2938 2591 2744 2837 
Q 2550 3084 2163 3084 
Q 1697 3084 1428 2787 
Q 1159 2491 1159 1978 
L 1159 0 
L 581 0 
L 581 4863 
L 1159 4863 
L 1159 2956 
Q 1366 3272 1645 3428 
Q 1925 3584 2291 3584 
Q 2894 3584 3203 3211 
Q 3513 2838 3513 2113 
z
" transform="scale(0.015625)"/>
      <path id="DejaVuSans-Oblique-6b" d="M 1172 4863 
L 1747 4863 
L 1197 2028 
L 3169 3500 
L 3916 3500 
L 1716 1825 
L 3322 0 
L 2625 0 
L 1131 1709 
L 800 0 
L 225 0 
L 1172 4863 
z
" transform="scale(0.015625)"/>
      <path id="DejaVuSans-Oblique-61" d="M 3438 1997 
L 3047 0 
L 2472 0 
L 2578 531 
Q 2325 219 2001 64 
Q 1678 -91 1281 -91 
Q 834 -91 548 182 
Q 263 456 263 884 
Q 263 1497 752 1853 
Q 1241 2209 2100 2209 
L 2900 2209 
L 2931 2363 
Q 2938 2388 2941 2417 
Q 2944 2447 2944 2509 
Q 2944 2788 2717 2942 
Q 2491 3097 2081 3097 
Q 1800 3097 1504 3025 
Q 1209 2953 897 2809 
L 997 3341 
Q 1322 3463 1633 3523 
Q 1944 3584 2234 3584 
Q 2853 3584 3176 3315 
Q 3500 3047 3500 2534 
Q 3500 2431 3484 2292 
Q 3469 2153 3438 1997 
z
M 2816 1759 
L 2241 1759 
Q 1534 1759 1195 1570 
Q 856 1381 856 984 
Q 856 709 1029 553 
Q 1203 397 1509 397 
Q 1978 397 2328 733 
Q 2678 1069 2791 1631 
L 2816 1759 
z
" transform="scale(0.015625)"/>
     </defs>
     <use xlink:href="#DejaVuSans-42" transform="translate(0 0.015625)"/>
     <use xlink:href="#DejaVuSans-6f" transform="translate(68.603516 0.015625)"/>
     <use xlink:href="#DejaVuSans-72" transform="translate(129.785156 0.015625)"/>
     <use xlink:href="#DejaVuSans-6e" transform="translate(170.898438 0.015625)"/>
     <use xlink:href="#DejaVuSans-20" transform="translate(234.277344 0.015625)"/>
     <use xlink:href="#DejaVuSans-63" transform="translate(266.064453 0.015625)"/>
     <use xlink:href="#DejaVuSans-72" transform="translate(321.044922 0.015625)"/>
     <use xlink:href="#DejaVuSans-6f" transform="translate(362.158203 0.015625)"/>
     <use xlink:href="#DejaVuSans-73" transform="translate(423.339844 0.015625)"/>
     <use xlink:href="#DejaVuSans-73" transform="translate(475.439453 0.015625)"/>
     <use xlink:href="#DejaVuSans-2d" transform="translate(527.539062 0.015625)"/>
     <use xlink:href="#DejaVuSans-73" transform="translate(563.623047 0.015625)"/>
     <use xlink:href="#DejaVuSans-65" transform="translate(615.722656 0.015625)"/>
     <use xlink:href="#DejaVuSans-63" transform="translate(677.246094 0.015625)"/>
     <use xlink:href="#DejaVuSans-74" transform="translate(732.226562 0.015625)"/>
     <use xlink:href="#DejaVuSans-69" transform="translate(771.435547 0.015625)"/>
     <use xlink:href="#DejaVuSans-6f" transform="translate(799.21875 0.015625)"/>
     <use xlink:href="#DejaVuSans-6e" transform="translate(860.400391 0.015625)"/>
     <use xlink:href="#DejaVuSans-2c" transform="translate(923.779297 0.015625)"/>
     <use xlink:href="#DejaVuSans-20" transform="translate(955.566406 0.015625)"/>
     <use xlink:href="#DejaVuSans-59" transform="translate(987.353516 0.015625)"/>
     <use xlink:href="#DejaVuSans-75" transform="translate(1048.4375 0.015625)"/>
     <use xlink:href="#DejaVuSans-6b" transform="translate(1111.816406 0.015625)"/>
     <use xlink:href="#DejaVuSans-61" transform="translate(1169.726562 0.015625)"/>
     <use xlink:href="#DejaVuSans-77" transform="translate(1231.005859 0.015625)"/>
     <use xlink:href="#DejaVuSans-61" transform="translate(1312.792969 0.015625)"/>
     <use xlink:href="#DejaVuSans-20" transform="translate(1374.072266 0.015625)"/>
     <use xlink:href="#DejaVuSans-70" transform="translate(1405.859375 0.015625)"/>
     <use xlink:href="#DejaVuSans-6f" transform="translate(1469.335938 0.015625)"/>
     <use xlink:href="#DejaVuSans-74" transform="translate(1530.517578 0.015625)"/>
     <use xlink:href="#DejaVuSans-65" transform="translate(1569.726562 0.015625)"/>
     <use xlink:href="#DejaVuSans-6e" transform="translate(1631.25 0.015625)"/>
     <use xlink:href="#DejaVuSans-74" transform="translate(1694.628906 0.015625)"/>
     <use xlink:href="#DejaVuSans-69" transform="translate(1733.837891 0.015625)"/>
     <use xlink:href="#DejaVuSans-61" transform="translate(1761.621094 0.015625)"/>
     <use xlink:href="#DejaVuSans-6c" transform="translate(1822.900391 0.015625)"/>
     <use xlink:href="#DejaVuSans-20" transform="translate(1850.683594 0.015625)"/>
     <use xlink:href="#DejaVuSansDisplay-2014" transform="translate(1882.470703 0.015625)"/>
     <use xlink:href="#DejaVuSans-20" transform="translate(1982.470703 0.015625)"/>
     <use xlink:href="#DejaVuSans-66" transform="translate(2014.257812 0.015625)"/>
     <use xlink:href="#DejaVuSans-6f" transform="translate(2049.462891 0.015625)"/>
     <use xlink:href="#DejaVuSans-72" transform="translate(2110.644531 0.015625)"/>
     <use xlink:href="#DejaVuSans-77" transform="translate(2151.757812 0.015625)"/>
     <use xlink:href="#DejaVuSans-61" transform="translate(2233.544922 0.015625)"/>
     <use xlink:href="#DejaVuSans-72" transform="translate(2294.824219 0.015625)"/>
     <use xlink:href="#DejaVuSans-64" transform="translate(2335.9375 0.015625)"/>
     <use xlink:href="#DejaVuSans-20" transform="translate(2399.414062 0.015625)"/>
     <use xlink:href="#DejaVuSans-70" transform="translate(2431.201172 0.015625)"/>
     <use xlink:href="#DejaVuSans-65" transform="translate(2494.677734 0.015625)"/>
     <use xlink:href="#DejaVuSans-61" transform="translate(2556.201172 0.015625)"/>
     <use xlink:href="#DejaVuSans-6b" transform="translate(2617.480469 0.015625)"/>
     <use xlink:href="#DejaVuSans-20" transform="translate(2675.390625 0.015625)"/>
     <use xlink:href="#DejaVuSans-73" transform="translate(2707.177734 0.015625)"/>
     <use xlink:href="#DejaVuSans-68" transform="translate(2759.277344 0.015625)"/>
     <use xlink:href="#DejaVuSans-61" transform="translate(2822.65625 0.015625)"/>
     <use xlink:href="#DejaVuSans-72" transform="translate(2883.935547 0.015625)"/>
     <use xlink:href="#DejaVuSans-70" transform="translate(2925.048828 0.015625)"/>
     <use xlink:href="#DejaVuSans-65" transform="translate(2988.525391 0.015625)"/>
     <use xlink:href="#DejaVuSans-6e" transform="translate(3050.048828 0.015625)"/>
     <use xlink:href="#DejaVuSans-73" transform="translate(3113.427734 0.015625)"/>
     <use xlink:href="#DejaVuSans-20" transform="translate(3165.527344 0.015625)"/>
     <use xlink:href="#DejaVuSans-77" transform="translate(3197.314453 0.015625)"/>
     <use xlink:href="#DejaVuSans-69" transform="translate(3279.101562 0.015625)"/>
     <use xlink:href="#DejaVuSans-74" transform="translate(3306.884766 0.015625)"/>
     <use xlink:href="#DejaVuSans-68" transform="translate(3346.09375 0.015625)"/>
     <use xlink:href="#DejaVuSans-20" transform="translate(3409.472656 0.015625)"/>
     <use xlink:href="#DejaVuSans-Oblique-6b" transform="translate(3441.259766 0.015625)"/>
     <use xlink:href="#DejaVuSans-Oblique-61" transform="translate(3499.169922 0.015625)"/>
    </g>
   </g>
   <g id="legend_1">
    <g id="line2d_54">
     <path d="M 361.425 42.498437 
L 371.425 42.498437 
L 381.425 42.498437 
" style="fill: none; stroke: #56b4e9; stroke-width: 2.2; stroke-linecap: square"/>
    </g>
    <g id="text_19">
     <!-- $ka=0.5$ -->
     <g transform="translate(389.425 45.998437) scale(0.1 -0.1)">
      <defs>
       <path id="DejaVuSans-3d" d="M 678 2906 
L 4684 2906 
L 4684 2381 
L 678 2381 
L 678 2906 
z
M 678 1631 
L 4684 1631 
L 4684 1100 
L 678 1100 
L 678 1631 
z
" transform="scale(0.015625)"/>
       <path id="DejaVuSans-2e" d="M 684 794 
L 1344 794 
L 1344 0 
L 684 0 
L 684 794 
z
" transform="scale(0.015625)"/>
       <path id="DejaVuSans-35" d="M 691 4666 
L 3169 4666 
L 3169 4134 
L 1269 4134 
L 1269 2991 
Q 1406 3038 1543 3061 
Q 1681 3084 1819 3084 
Q 2600 3084 3056 2656 
Q 3513 2228 3513 1497 
Q 3513 744 3044 326 
Q 2575 -91 1722 -91 
Q 1428 -91 1123 -41 
Q 819 9 494 109 
L 494 744 
Q 775 591 1075 516 
Q 1375 441 1709 441 
Q 2250 441 2565 725 
Q 2881 1009 2881 1497 
Q 2881 1984 2565 2268 
Q 2250 2553 1709 2553 
Q 1456 2553 1204 2497 
Q 953 2441 691 2322 
L 691 4666 
z
" transform="scale(0.015625)"/>
      </defs>
      <use xlink:href="#DejaVuSans-Oblique-6b" transform="translate(0 0.015625)"/>
      <use xlink:href="#DejaVuSans-Oblique-61" transform="translate(57.910156 0.015625)"/>
      <use xlink:href="#DejaVuSans-3d" transform="translate(138.671875 0.015625)"/>
      <use xlink:href="#DejaVuSans-30" transform="translate(241.943359 0.015625)"/>
      <use xlink:href="#DejaVuSans-2e" transform="translate(305.566406 0.015625)"/>
      <use xlink:href="#DejaVuSans-35" transform="translate(337.353516 0.015625)"/>
     </g>
    </g>
    <g id="line2d_55">
     <path d="M 361.425 57.176562 
L 371.425 57.176562 
L 381.425 57.176562 
" style="fill: none; stroke: #0072b2; stroke-width: 2.2; stroke-linecap: square"/>
    </g>
    <g id="text_20">
     <!-- $ka=2$ -->
     <g transform="translate(389.425 60.676562) scale(0.1 -0.1)">
      <use xlink:href="#DejaVuSans-Oblique-6b" transform="translate(0 0.015625)"/>
      <use xlink:href="#DejaVuSans-Oblique-61" transform="translate(57.910156 0.015625)"/>
      <use xlink:href="#DejaVuSans-3d" transform="translate(138.671875 0.015625)"/>
      <use xlink:href="#DejaVuSans-32" transform="translate(241.943359 0.015625)"/>
     </g>
    </g>
    <g id="line2d_56">
     <path d="M 361.425 71.854688 
L 371.425 71.854688 
L 381.425 71.854688 
" style="fill: none; stroke: #d55e00; stroke-width: 2.2; stroke-linecap: square"/>
    </g>
    <g id="text_21">
     <!-- $ka=5$ -->
     <g transform="translate(389.425 75.354688) scale(0.1 -0.1)">
      <use xlink:href="#DejaVuSans-Oblique-6b" transform="translate(0 0.015625)"/>
      <use xlink:href="#DejaVuSans-Oblique-61" transform="translate(57.910156 0.015625)"/>
      <use xlink:href="#DejaVuSans-3d" transform="translate(138.671875 0.015625)"/>
      <use xlink:href="#DejaVuSans-35" transform="translate(241.943359 0.015625)"/>
     </g>
    </g>
   </g>
  </g>
 </g>
 <defs>
  <clipPath id="p87eaadd442">
   <rect x="64.867798" y="29.4" width="373.657202" height="211.24"/>
  </clipPath>
 </defs>
</svg>
