<?xml version="1.0" encoding="utf-8" standalone="no"?>
<!DOCTYPE svg PUBLIC "-//W3C//DTD SVG 1.1//EN"
  "http://www.w3.org/Graphics/SVG/1.1/DTD/svg11.dtd">
<svg xmlns:xlink="http://www.w3.org/1999/xlink" width="460.8pt" height="288pt" viewBox="0 0 460.8 288" xmlns="http://www.w3.org/2000/svg" version="1.1">
 <metadata>
  <rdf:RDF xmlns:dc="http://purl.org/dc/elements/1.1/" xmlns:cc="http://creativecommons.org/ns#" xmlns:rdf="http://www.w3.org/1999/02/22-rdf-syntax-ns#">
   <cc:Work>
    <dc:type rdf:resource="http://purl.org/dc/dcmitype/StillImage"/>
    <dc:date>2026-06-04T06:17:08.785343</dc:date>
    <dc:format>image/svg+xml</dc:format>
    <dc:creator>
     <cc:Agent>
      <dc:title>Matplotlib v3.10.8, https://matplotlib.org/</dc:title>
     </cc:Agent>
    </dc:creator>
   </cc:Work>
  </rdf:RDF>
 </metadata>
 <defs>
  <style type="text/css">*{stroke-linejoin: round; stroke-linecap: butt}</style>
 </defs>
 <g id="figure_1">
  <g id="patch_1">
   <path d="M 0 288 
L 460.8 288 
L 460.8 0 
L 0 0 
z
" style="fill: #ffffff"/>
  </g>
  <g id="axes_1">
   <g id="patch_2">
    <path d="M 52.76 241.072 
L 440.235 241.072 
L 440.235 29.4 
L 52.76 29.4 
z
" style="fill: #ffffff"/>
   </g>
   <g id="matplotlib.axis_1">
    <g id="xtick_1">
     <g id="line2d_1">
      <defs>
       <path id="ma17aafb4c9" d="M 0 0 
L 0 3.5 
" style="stroke: #000000; stroke-width: 0.8"/>
      </defs>
      <g>
       <use xlink:href="#ma17aafb4c9" x="52.76" y="241.072" style="stroke: #000000; stroke-width: 0.8"/>
      </g>
     </g>
     <g id="text_1">
      <!-- 0.0 -->
      <g transform="translate(44.013281 256.430281) scale(0.11 -0.11)">
       <defs>
        <path id="DejaVuSans-30" d="M 2034 4250 
Q 1547 4250 1301 3770 
Q 1056 3291 1056 2328 
Q 1056 1369 1301 889 
Q 1547 409 2034 409 
Q 2525 409 2770 889 
Q 3016 1369 3016 2328 
Q 3016 3291 2770 3770 
Q 2525 4250 2034 4250 
z
M 2034 4750 
Q 2819 4750 3233 4129 
Q 3647 3509 3647 2328 
Q 3647 1150 3233 529 
Q 2819 -91 2034 -91 
Q 1250 -91 836 529 
Q 422 1150 422 2328 
Q 422 3509 836 4129 
Q 1250 4750 2034 4750 
z
" transform="scale(0.015625)"/>
        <path id="DejaVuSans-2e" d="M 684 794 
L 1344 794 
L 1344 0 
L 684 0 
L 684 794 
z
" transform="scale(0.015625)"/>
       </defs>
       <use xlink:href="#DejaVuSans-30"/>
       <use xlink:href="#DejaVuSans-2e" transform="translate(63.623047 0)"/>
       <use xlink:href="#DejaVuSans-30" transform="translate(95.410156 0)"/>
      </g>
     </g>
    </g>
    <g id="xtick_2">
     <g id="line2d_2">
      <g>
       <use xlink:href="#ma17aafb4c9" x="130.255" y="241.072" style="stroke: #000000; stroke-width: 0.8"/>
      </g>
     </g>
     <g id="text_2">
      <!-- 0.2 -->
      <g transform="translate(121.508281 256.430281) scale(0.11 -0.11)">
       <defs>
        <path id="DejaVuSans-32" d="M 1228 531 
L 3431 531 
L 3431 0 
L 469 0 
L 469 531 
Q 828 903 1448 1529 
Q 2069 2156 2228 2338 
Q 2531 2678 2651 2914 
Q 2772 3150 2772 3378 
Q 2772 3750 2511 3984 
Q 2250 4219 1831 4219 
Q 1534 4219 1204 4116 
Q 875 4013 500 3803 
L 500 4441 
Q 881 4594 1212 4672 
Q 1544 4750 1819 4750 
Q 2544 4750 2975 4387 
Q 3406 4025 3406 3419 
Q 3406 3131 3298 2873 
Q 3191 2616 2906 2266 
Q 2828 2175 2409 1742 
Q 1991 1309 1228 531 
z
" transform="scale(0.015625)"/>
       </defs>
       <use xlink:href="#DejaVuSans-30"/>
       <use xlink:href="#DejaVuSans-2e" transform="translate(63.623047 0)"/>
       <use xlink:href="#DejaVuSans-32" transform="translate(95.410156 0)"/>
      </g>
     </g>
    </g>
    <g id="xtick_3">
     <g id="line2d_3">
      <g>
       <use xlink:href="#ma17aafb4c9" x="207.75" y="241.072" style="stroke: #000000; stroke-width: 0.8"/>
      </g>
     </g>
     <g id="text_3">
      <!-- 0.4 -->
      <g transform="translate(199.003281 256.430281) scale(0.11 -0.11)">
       <defs>
        <path id="DejaVuSans-34" d="M 2419 4116 
L 825 1625 
L 2419 1625 
L 2419 4116 
z
M 2253 4666 
L 3047 4666 
L 3047 1625 
L 3713 1625 
L 3713 1100 
L 3047 1100 
L 3047 0 
L 2419 0 
L 2419 1100 
L 313 1100 
L 313 1709 
L 2253 4666 
z
" transform="scale(0.015625)"/>
       </defs>
       <use xlink:href="#DejaVuSans-30"/>
       <use xlink:href="#DejaVuSans-2e" transform="translate(63.623047 0)"/>
       <use xlink:href="#DejaVuSans-34" transform="translate(95.410156 0)"/>
      </g>
     </g>
    </g>
    <g id="xtick_4">
     <g id="line2d_4">
      <g>
       <use xlink:href="#ma17aafb4c9" x="285.245" y="241.072" style="stroke: #000000; stroke-width: 0.8"/>
      </g>
     </g>
     <g id="text_4">
      <!-- 0.6 -->
      <g transform="translate(276.498281 256.430281) scale(0.11 -0.11)">
       <defs>
        <path id="DejaVuSans-36" d="M 2113 2584 
Q 1688 2584 1439 2293 
Q 1191 2003 1191 1497 
Q 1191 994 1439 701 
Q 1688 409 2113 409 
Q 2538 409 2786 701 
Q 3034 994 3034 1497 
Q 3034 2003 2786 2293 
Q 2538 2584 2113 2584 
z
M 3366 4563 
L 3366 3988 
Q 3128 4100 2886 4159 
Q 2644 4219 2406 4219 
Q 1781 4219 1451 3797 
Q 1122 3375 1075 2522 
Q 1259 2794 1537 2939 
Q 1816 3084 2150 3084 
Q 2853 3084 3261 2657 
Q 3669 2231 3669 1497 
Q 3669 778 3244 343 
Q 2819 -91 2113 -91 
Q 1303 -91 875 529 
Q 447 1150 447 2328 
Q 447 3434 972 4092 
Q 1497 4750 2381 4750 
Q 2619 4750 2861 4703 
Q 3103 4656 3366 4563 
z
" transform="scale(0.015625)"/>
       </defs>
       <use xlink:href="#DejaVuSans-30"/>
       <use xlink:href="#DejaVuSans-2e" transform="translate(63.623047 0)"/>
       <use xlink:href="#DejaVuSans-36" transform="translate(95.410156 0)"/>
      </g>
     </g>
    </g>
    <g id="xtick_5">
     <g id="line2d_5">
      <g>
       <use xlink:href="#ma17aafb4c9" x="362.74" y="241.072" style="stroke: #000000; stroke-width: 0.8"/>
      </g>
     </g>
     <g id="text_5">
      <!-- 0.8 -->
      <g transform="translate(353.993281 256.430281) scale(0.11 -0.11)">
       <defs>
        <path id="DejaVuSans-38" d="M 2034 2216 
Q 1584 2216 1326 1975 
Q 1069 1734 1069 1313 
Q 1069 891 1326 650 
Q 1584 409 2034 409 
Q 2484 409 2743 651 
Q 3003 894 3003 1313 
Q 3003 1734 2745 1975 
Q 2488 2216 2034 2216 
z
M 1403 2484 
Q 997 2584 770 2862 
Q 544 3141 544 3541 
Q 544 4100 942 4425 
Q 1341 4750 2034 4750 
Q 2731 4750 3128 4425 
Q 3525 4100 3525 3541 
Q 3525 3141 3298 2862 
Q 3072 2584 2669 2484 
Q 3125 2378 3379 2068 
Q 3634 1759 3634 1313 
Q 3634 634 3220 271 
Q 2806 -91 2034 -91 
Q 1263 -91 848 271 
Q 434 634 434 1313 
Q 434 1759 690 2068 
Q 947 2378 1403 2484 
z
M 1172 3481 
Q 1172 3119 1398 2916 
Q 1625 2713 2034 2713 
Q 2441 2713 2670 2916 
Q 2900 3119 2900 3481 
Q 2900 3844 2670 4047 
Q 2441 4250 2034 4250 
Q 1625 4250 1398 4047 
Q 1172 3844 1172 3481 
z
" transform="scale(0.015625)"/>
       </defs>
       <use xlink:href="#DejaVuSans-30"/>
       <use xlink:href="#DejaVuSans-2e" transform="translate(63.623047 0)"/>
       <use xlink:href="#DejaVuSans-38" transform="translate(95.410156 0)"/>
      </g>
     </g>
    </g>
    <g id="xtick_6">
     <g id="line2d_6">
      <g>
       <use xlink:href="#ma17aafb4c9" x="440.235" y="241.072" style="stroke: #000000; stroke-width: 0.8"/>
      </g>
     </g>
     <g id="text_6">
      <!-- 1.0 -->
      <g transform="translate(431.488281 256.430281) scale(0.11 -0.11)">
       <defs>
        <path id="DejaVuSans-31" d="M 794 531 
L 1825 531 
L 1825 4091 
L 703 3866 
L 703 4441 
L 1819 4666 
L 2450 4666 
L 2450 531 
L 3481 531 
L 3481 0 
L 794 0 
L 794 531 
z
" transform="scale(0.015625)"/>
       </defs>
       <use xlink:href="#DejaVuSans-31"/>
       <use xlink:href="#DejaVuSans-2e" transform="translate(63.623047 0)"/>
       <use xlink:href="#DejaVuSans-30" transform="translate(95.410156 0)"/>
      </g>
     </g>
    </g>
    <g id="text_7">
     <!-- electric field  $\mathcal{E}$  (arb. units, $a_0 e\,\mathcal{E}$) -->
     <g transform="translate(155.3075 271.076219) scale(0.11 -0.11)">
      <defs>
       <path id="DejaVuSans-65" d="M 3597 1894 
L 3597 1613 
L 953 1613 
Q 991 1019 1311 708 
Q 1631 397 2203 397 
Q 2534 397 2845 478 
Q 3156 559 3463 722 
L 3463 178 
Q 3153 47 2828 -22 
Q 2503 -91 2169 -91 
Q 1331 -91 842 396 
Q 353 884 353 1716 
Q 353 2575 817 3079 
Q 1281 3584 2069 3584 
Q 2775 3584 3186 3129 
Q 3597 2675 3597 1894 
z
M 3022 2063 
Q 3016 2534 2758 2815 
Q 2500 3097 2075 3097 
Q 1594 3097 1305 2825 
Q 1016 2553 972 2059 
L 3022 2063 
z
" transform="scale(0.015625)"/>
       <path id="DejaVuSans-6c" d="M 603 4863 
L 1178 4863 
L 1178 0 
L 603 0 
L 603 4863 
z
" transform="scale(0.015625)"/>
       <path id="DejaVuSans-63" d="M 3122 3366 
L 3122 2828 
Q 2878 2963 2633 3030 
Q 2388 3097 2138 3097 
Q 1578 3097 1268 2742 
Q 959 2388 959 1747 
Q 959 1106 1268 751 
Q 1578 397 2138 397 
Q 2388 397 2633 464 
Q 2878 531 3122 666 
L 3122 134 
Q 2881 22 2623 -34 
Q 2366 -91 2075 -91 
Q 1284 -91 818 406 
Q 353 903 353 1747 
Q 353 2603 823 3093 
Q 1294 3584 2113 3584 
Q 2378 3584 2631 3529 
Q 2884 3475 3122 3366 
z
" transform="scale(0.015625)"/>
       <path id="DejaVuSans-74" d="M 1172 4494 
L 1172 3500 
L 2356 3500 
L 2356 3053 
L 1172 3053 
L 1172 1153 
Q 1172 725 1289 603 
Q 1406 481 1766 481 
L 2356 481 
L 2356 0 
L 1766 0 
Q 1100 0 847 248 
Q 594 497 594 1153 
L 594 3053 
L 172 3053 
L 172 3500 
L 594 3500 
L 594 4494 
L 1172 4494 
z
" transform="scale(0.015625)"/>
       <path id="DejaVuSans-72" d="M 2631 2963 
Q 2534 3019 2420 3045 
Q 2306 3072 2169 3072 
Q 1681 3072 1420 2755 
Q 1159 2438 1159 1844 
L 1159 0 
L 581 0 
L 581 3500 
L 1159 3500 
L 1159 2956 
Q 1341 3275 1631 3429 
Q 1922 3584 2338 3584 
Q 2397 3584 2469 3576 
Q 2541 3569 2628 3553 
L 2631 2963 
z
" transform="scale(0.015625)"/>
       <path id="DejaVuSans-69" d="M 603 3500 
L 1178 3500 
L 1178 0 
L 603 0 
L 603 3500 
z
M 603 4863 
L 1178 4863 
L 1178 4134 
L 603 4134 
L 603 4863 
z
" transform="scale(0.015625)"/>
       <path id="DejaVuSans-20" transform="scale(0.015625)"/>
       <path id="DejaVuSans-66" d="M 2375 4863 
L 2375 4384 
L 1825 4384 
Q 1516 4384 1395 4259 
Q 1275 4134 1275 3809 
L 1275 3500 
L 2222 3500 
L 2222 3053 
L 1275 3053 
L 1275 0 
L 697 0 
L 697 3053 
L 147 3053 
L 147 3500 
L 697 3500 
L 697 3744 
Q 697 4328 969 4595 
Q 1241 4863 1831 4863 
L 2375 4863 
z
" transform="scale(0.015625)"/>
       <path id="DejaVuSans-64" d="M 2906 2969 
L 2906 4863 
L 3481 4863 
L 3481 0 
L 2906 0 
L 2906 525 
Q 2725 213 2448 61 
Q 2172 -91 1784 -91 
Q 1150 -91 751 415 
Q 353 922 353 1747 
Q 353 2572 751 3078 
Q 1150 3584 1784 3584 
Q 2172 3584 2448 3432 
Q 2725 3281 2906 2969 
z
M 947 1747 
Q 947 1113 1208 752 
Q 1469 391 1925 391 
Q 2381 391 2643 752 
Q 2906 1113 2906 1747 
Q 2906 2381 2643 2742 
Q 2381 3103 1925 3103 
Q 1469 3103 1208 2742 
Q 947 2381 947 1747 
z
" transform="scale(0.015625)"/>
       <path id="STIXNonUnicode-Italic-e231" d="M 3270 973 
L 3373 858 
Q 2893 346 2272 128 
Q 1856 -26 1331 -26 
Q 896 -26 576 169 
Q 256 365 256 736 
Q 256 1267 659 1651 
Q 1062 2035 1619 2259 
Q 1485 2323 1414 2368 
Q 1344 2413 1257 2493 
Q 1171 2573 1132 2688 
Q 1094 2803 1094 2963 
Q 1094 3309 1401 3629 
Q 1709 3949 2112 4118 
Q 2515 4288 2848 4288 
Q 3296 4288 3565 4128 
Q 3834 3968 3834 3654 
Q 3834 3514 3718 3338 
Q 3603 3162 3373 3162 
Q 3238 3162 3132 3251 
Q 3027 3341 3027 3475 
Q 3027 3622 3123 3731 
Q 3219 3840 3219 3859 
Q 3219 3981 3148 4029 
Q 3078 4077 2918 4077 
Q 2432 4077 2038 3792 
Q 1645 3507 1645 3155 
Q 1645 2893 1881 2742 
Q 2118 2592 2502 2592 
L 2938 2592 
L 2880 2349 
Q 2605 2349 2275 2243 
Q 1946 2138 1645 1958 
Q 1344 1779 1142 1494 
Q 941 1210 941 896 
Q 941 614 1155 467 
Q 1370 320 1741 320 
Q 2131 320 2576 515 
Q 3021 710 3270 973 
z
" transform="scale(0.015625)"/>
       <path id="DejaVuSans-28" d="M 1984 4856 
Q 1566 4138 1362 3434 
Q 1159 2731 1159 2009 
Q 1159 1288 1364 580 
Q 1569 -128 1984 -844 
L 1484 -844 
Q 1016 -109 783 600 
Q 550 1309 550 2009 
Q 550 2706 781 3412 
Q 1013 4119 1484 4856 
L 1984 4856 
z
" transform="scale(0.015625)"/>
       <path id="DejaVuSans-61" d="M 2194 1759 
Q 1497 1759 1228 1600 
Q 959 1441 959 1056 
Q 959 750 1161 570 
Q 1363 391 1709 391 
Q 2188 391 2477 730 
Q 2766 1069 2766 1631 
L 2766 1759 
L 2194 1759 
z
M 3341 1997 
L 3341 0 
L 2766 0 
L 2766 531 
Q 2569 213 2275 61 
Q 1981 -91 1556 -91 
Q 1019 -91 701 211 
Q 384 513 384 1019 
Q 384 1609 779 1909 
Q 1175 2209 1959 2209 
L 2766 2209 
L 2766 2266 
Q 2766 2663 2505 2880 
Q 2244 3097 1772 3097 
Q 1472 3097 1187 3025 
Q 903 2953 641 2809 
L 641 3341 
Q 956 3463 1253 3523 
Q 1550 3584 1831 3584 
Q 2591 3584 2966 3190 
Q 3341 2797 3341 1997 
z
" transform="scale(0.015625)"/>
       <path id="DejaVuSans-62" d="M 3116 1747 
Q 3116 2381 2855 2742 
Q 2594 3103 2138 3103 
Q 1681 3103 1420 2742 
Q 1159 2381 1159 1747 
Q 1159 1113 1420 752 
Q 1681 391 2138 391 
Q 2594 391 2855 752 
Q 3116 1113 3116 1747 
z
M 1159 2969 
Q 1341 3281 1617 3432 
Q 1894 3584 2278 3584 
Q 2916 3584 3314 3078 
Q 3713 2572 3713 1747 
Q 3713 922 3314 415 
Q 2916 -91 2278 -91 
Q 1894 -91 1617 61 
Q 1341 213 1159 525 
L 1159 0 
L 581 0 
L 581 4863 
L 1159 4863 
L 1159 2969 
z
" transform="scale(0.015625)"/>
       <path id="DejaVuSans-75" d="M 544 1381 
L 544 3500 
L 1119 3500 
L 1119 1403 
Q 1119 906 1312 657 
Q 1506 409 1894 409 
Q 2359 409 2629 706 
Q 2900 1003 2900 1516 
L 2900 3500 
L 3475 3500 
L 3475 0 
L 2900 0 
L 2900 538 
Q 2691 219 2414 64 
Q 2138 -91 1772 -91 
Q 1169 -91 856 284 
Q 544 659 544 1381 
z
M 1991 3584 
L 1991 3584 
z
" transform="scale(0.015625)"/>
       <path id="DejaVuSans-6e" d="M 3513 2113 
L 3513 0 
L 2938 0 
L 2938 2094 
Q 2938 2591 2744 2837 
Q 2550 3084 2163 3084 
Q 1697 3084 1428 2787 
Q 1159 2491 1159 1978 
L 1159 0 
L 581 0 
L 581 3500 
L 1159 3500 
L 1159 2956 
Q 1366 3272 1645 3428 
Q 1925 3584 2291 3584 
Q 2894 3584 3203 3211 
Q 3513 2838 3513 2113 
z
" transform="scale(0.015625)"/>
       <path id="DejaVuSans-73" d="M 2834 3397 
L 2834 2853 
Q 2591 2978 2328 3040 
Q 2066 3103 1784 3103 
Q 1356 3103 1142 2972 
Q 928 2841 928 2578 
Q 928 2378 1081 2264 
Q 1234 2150 1697 2047 
L 1894 2003 
Q 2506 1872 2764 1633 
Q 3022 1394 3022 966 
Q 3022 478 2636 193 
Q 2250 -91 1575 -91 
Q 1294 -91 989 -36 
Q 684 19 347 128 
L 347 722 
Q 666 556 975 473 
Q 1284 391 1588 391 
Q 1994 391 2212 530 
Q 2431 669 2431 922 
Q 2431 1156 2273 1281 
Q 2116 1406 1581 1522 
L 1381 1569 
Q 847 1681 609 1914 
Q 372 2147 372 2553 
Q 372 3047 722 3315 
Q 1072 3584 1716 3584 
Q 2034 3584 2315 3537 
Q 2597 3491 2834 3397 
z
" transform="scale(0.015625)"/>
       <path id="DejaVuSans-2c" d="M 750 794 
L 1409 794 
L 1409 256 
L 897 -744 
L 494 -744 
L 750 256 
L 750 794 
z
" transform="scale(0.015625)"/>
       <path id="DejaVuSans-Oblique-61" d="M 3438 1997 
L 3047 0 
L 2472 0 
L 2578 531 
Q 2325 219 2001 64 
Q 1678 -91 1281 -91 
Q 834 -91 548 182 
Q 263 456 263 884 
Q 263 1497 752 1853 
Q 1241 2209 2100 2209 
L 2900 2209 
L 2931 2363 
Q 2938 2388 2941 2417 
Q 2944 2447 2944 2509 
Q 2944 2788 2717 2942 
Q 2491 3097 2081 3097 
Q 1800 3097 1504 3025 
Q 1209 2953 897 2809 
L 997 3341 
Q 1322 3463 1633 3523 
Q 1944 3584 2234 3584 
Q 2853 3584 3176 3315 
Q 3500 3047 3500 2534 
Q 3500 2431 3484 2292 
Q 3469 2153 3438 1997 
z
M 2816 1759 
L 2241 1759 
Q 1534 1759 1195 1570 
Q 856 1381 856 984 
Q 856 709 1029 553 
Q 1203 397 1509 397 
Q 1978 397 2328 733 
Q 2678 1069 2791 1631 
L 2816 1759 
z
" transform="scale(0.015625)"/>
       <path id="DejaVuSans-Oblique-65" d="M 3078 2063 
Q 3088 2113 3092 2166 
Q 3097 2219 3097 2272 
Q 3097 2653 2873 2875 
Q 2650 3097 2266 3097 
Q 1838 3097 1509 2826 
Q 1181 2556 1013 2059 
L 3078 2063 
z
M 3578 1613 
L 903 1613 
Q 884 1494 878 1425 
Q 872 1356 872 1306 
Q 872 872 1139 634 
Q 1406 397 1894 397 
Q 2269 397 2603 481 
Q 2938 566 3225 728 
L 3116 159 
Q 2806 34 2476 -28 
Q 2147 -91 1806 -91 
Q 1078 -91 686 257 
Q 294 606 294 1247 
Q 294 1794 489 2264 
Q 684 2734 1063 3103 
Q 1306 3334 1642 3459 
Q 1978 3584 2356 3584 
Q 2950 3584 3301 3228 
Q 3653 2872 3653 2272 
Q 3653 2128 3634 1964 
Q 3616 1800 3578 1613 
z
" transform="scale(0.015625)"/>
       <path id="DejaVuSans-29" d="M 513 4856 
L 1013 4856 
Q 1481 4119 1714 3412 
Q 1947 2706 1947 2009 
Q 1947 1309 1714 600 
Q 1481 -109 1013 -844 
L 513 -844 
Q 928 -128 1133 580 
Q 1338 1288 1338 2009 
Q 1338 2731 1133 3434 
Q 928 4138 513 4856 
z
" transform="scale(0.015625)"/>
      </defs>
      <use xlink:href="#DejaVuSans-65" transform="translate(0 0.015625)"/>
      <use xlink:href="#DejaVuSans-6c" transform="translate(61.523438 0.015625)"/>
      <use xlink:href="#DejaVuSans-65" transform="translate(89.306641 0.015625)"/>
      <use xlink:href="#DejaVuSans-63" transform="translate(150.830078 0.015625)"/>
      <use xlink:href="#DejaVuSans-74" transform="translate(205.810547 0.015625)"/>
      <use xlink:href="#DejaVuSans-72" transform="translate(245.019531 0.015625)"/>
      <use xlink:href="#DejaVuSans-69" transform="translate(286.132812 0.015625)"/>
      <use xlink:href="#DejaVuSans-63" transform="translate(313.916016 0.015625)"/>
      <use xlink:href="#DejaVuSans-20" transform="translate(368.896484 0.015625)"/>
      <use xlink:href="#DejaVuSans-66" transform="translate(400.683594 0.015625)"/>
      <use xlink:href="#DejaVuSans-69" transform="translate(435.888672 0.015625)"/>
      <use xlink:href="#DejaVuSans-65" transform="translate(463.671875 0.015625)"/>
      <use xlink:href="#DejaVuSans-6c" transform="translate(525.195312 0.015625)"/>
      <use xlink:href="#DejaVuSans-64" transform="translate(552.978516 0.015625)"/>
      <use xlink:href="#DejaVuSans-20" transform="translate(616.455078 0.015625)"/>
      <use xlink:href="#DejaVuSans-20" transform="translate(648.242188 0.015625)"/>
      <use xlink:href="#STIXNonUnicode-Italic-e231" transform="translate(680.029297 0.015625)"/>
      <use xlink:href="#DejaVuSans-20" transform="translate(735.329285 0.015625)"/>
      <use xlink:href="#DejaVuSans-20" transform="translate(767.116394 0.015625)"/>
      <use xlink:href="#DejaVuSans-28" transform="translate(798.903503 0.015625)"/>
      <use xlink:href="#DejaVuSans-61" transform="translate(837.917175 0.015625)"/>
      <use xlink:href="#DejaVuSans-72" transform="translate(899.196472 0.015625)"/>
      <use xlink:href="#DejaVuSans-62" transform="translate(940.309753 0.015625)"/>
      <use xlink:href="#DejaVuSans-2e" transform="translate(1003.786316 0.015625)"/>
      <use xlink:href="#DejaVuSans-20" transform="translate(1035.573425 0.015625)"/>
      <use xlink:href="#DejaVuSans-75" transform="translate(1067.360535 0.015625)"/>
      <use xlink:href="#DejaVuSans-6e" transform="translate(1130.739441 0.015625)"/>
      <use xlink:href="#DejaVuSans-69" transform="translate(1194.118347 0.015625)"/>
      <use xlink:href="#DejaVuSans-74" transform="translate(1221.90155 0.015625)"/>
      <use xlink:href="#DejaVuSans-73" transform="translate(1261.110535 0.015625)"/>
      <use xlink:href="#DejaVuSans-2c" transform="translate(1313.210144 0.015625)"/>
      <use xlink:href="#DejaVuSans-20" transform="translate(1344.997253 0.015625)"/>
      <use xlink:href="#DejaVuSans-Oblique-61" transform="translate(1376.784363 0.015625)"/>
      <use xlink:href="#DejaVuSans-30" transform="translate(1438.06366 -16.390625) scale(0.7)"/>
      <use xlink:href="#DejaVuSans-Oblique-65" transform="translate(1485.334167 0.015625)"/>
      <use xlink:href="#STIXNonUnicode-Italic-e231" transform="translate(1563.093281 0.015625)"/>
      <use xlink:href="#DejaVuSans-29" transform="translate(1618.393269 0.015625)"/>
     </g>
    </g>
   </g>
   <g id="matplotlib.axis_2">
    <g id="ytick_1">
     <g id="line2d_7">
      <defs>
       <path id="m56ce7c3801" d="M 0 0 
L -3.5 0 
" style="stroke: #000000; stroke-width: 0.8"/>
      </defs>
      <g>
       <use xlink:href="#m56ce7c3801" x="52.76" y="231.450545" style="stroke: #000000; stroke-width: 0.8"/>
      </g>
     </g>
     <g id="text_8">
      <!-- −3 -->
      <g transform="translate(29.543594 235.629686) scale(0.11 -0.11)">
       <defs>
        <path id="DejaVuSans-2212" d="M 678 2272 
L 4684 2272 
L 4684 1741 
L 678 1741 
L 678 2272 
z
" transform="scale(0.015625)"/>
        <path id="DejaVuSans-33" d="M 2597 2516 
Q 3050 2419 3304 2112 
Q 3559 1806 3559 1356 
Q 3559 666 3084 287 
Q 2609 -91 1734 -91 
Q 1441 -91 1130 -33 
Q 819 25 488 141 
L 488 750 
Q 750 597 1062 519 
Q 1375 441 1716 441 
Q 2309 441 2620 675 
Q 2931 909 2931 1356 
Q 2931 1769 2642 2001 
Q 2353 2234 1838 2234 
L 1294 2234 
L 1294 2753 
L 1863 2753 
Q 2328 2753 2575 2939 
Q 2822 3125 2822 3475 
Q 2822 3834 2567 4026 
Q 2313 4219 1838 4219 
Q 1578 4219 1281 4162 
Q 984 4106 628 3988 
L 628 4550 
Q 988 4650 1302 4700 
Q 1616 4750 1894 4750 
Q 2613 4750 3031 4423 
Q 3450 4097 3450 3541 
Q 3450 3153 3228 2886 
Q 3006 2619 2597 2516 
z
" transform="scale(0.015625)"/>
       </defs>
       <use xlink:href="#DejaVuSans-2212"/>
       <use xlink:href="#DejaVuSans-33" transform="translate(83.789062 0)"/>
      </g>
     </g>
    </g>
    <g id="ytick_2">
     <g id="line2d_8">
      <g>
       <use xlink:href="#m56ce7c3801" x="52.76" y="199.37903" style="stroke: #000000; stroke-width: 0.8"/>
      </g>
     </g>
     <g id="text_9">
      <!-- −2 -->
      <g transform="translate(29.543594 203.558171) scale(0.11 -0.11)">
       <use xlink:href="#DejaVuSans-2212"/>
       <use xlink:href="#DejaVuSans-32" transform="translate(83.789062 0)"/>
      </g>
     </g>
    </g>
    <g id="ytick_3">
     <g id="line2d_9">
      <g>
       <use xlink:href="#m56ce7c3801" x="52.76" y="167.307515" style="stroke: #000000; stroke-width: 0.8"/>
      </g>
     </g>
     <g id="text_10">
      <!-- −1 -->
      <g transform="translate(29.543594 171.486656) scale(0.11 -0.11)">
       <use xlink:href="#DejaVuSans-2212"/>
       <use xlink:href="#DejaVuSans-31" transform="translate(83.789062 0)"/>
      </g>
     </g>
    </g>
    <g id="ytick_4">
     <g id="line2d_10">
      <g>
       <use xlink:href="#m56ce7c3801" x="52.76" y="135.236" style="stroke: #000000; stroke-width: 0.8"/>
      </g>
     </g>
     <g id="text_11">
      <!-- 0 -->
      <g transform="translate(38.76125 139.415141) scale(0.11 -0.11)">
       <use xlink:href="#DejaVuSans-30"/>
      </g>
     </g>
    </g>
    <g id="ytick_5">
     <g id="line2d_11">
      <g>
       <use xlink:href="#m56ce7c3801" x="52.76" y="103.164485" style="stroke: #000000; stroke-width: 0.8"/>
      </g>
     </g>
     <g id="text_12">
      <!-- 1 -->
      <g transform="translate(38.76125 107.343625) scale(0.11 -0.11)">
       <use xlink:href="#DejaVuSans-31"/>
      </g>
     </g>
    </g>
    <g id="ytick_6">
     <g id="line2d_12">
      <g>
       <use xlink:href="#m56ce7c3801" x="52.76" y="71.09297" style="stroke: #000000; stroke-width: 0.8"/>
      </g>
     </g>
     <g id="text_13">
      <!-- 2 -->
      <g transform="translate(38.76125 75.27211) scale(0.11 -0.11)">
       <use xlink:href="#DejaVuSans-32"/>
      </g>
     </g>
    </g>
    <g id="ytick_7">
     <g id="line2d_13">
      <g>
       <use xlink:href="#m56ce7c3801" x="52.76" y="39.021455" style="stroke: #000000; stroke-width: 0.8"/>
      </g>
     </g>
     <g id="text_14">
      <!-- 3 -->
      <g transform="translate(38.76125 43.200595) scale(0.11 -0.11)">
       <use xlink:href="#DejaVuSans-33"/>
      </g>
     </g>
    </g>
    <g id="text_15">
     <!-- energy shift  ($a_0 e\,\mathcal{E}$) -->
     <g transform="translate(23.233594 189.301) rotate(-90) scale(0.11 -0.11)">
      <defs>
       <path id="DejaVuSans-67" d="M 2906 1791 
Q 2906 2416 2648 2759 
Q 2391 3103 1925 3103 
Q 1463 3103 1205 2759 
Q 947 2416 947 1791 
Q 947 1169 1205 825 
Q 1463 481 1925 481 
Q 2391 481 2648 825 
Q 2906 1169 2906 1791 
z
M 3481 434 
Q 3481 -459 3084 -895 
Q 2688 -1331 1869 -1331 
Q 1566 -1331 1297 -1286 
Q 1028 -1241 775 -1147 
L 775 -588 
Q 1028 -725 1275 -790 
Q 1522 -856 1778 -856 
Q 2344 -856 2625 -561 
Q 2906 -266 2906 331 
L 2906 616 
Q 2728 306 2450 153 
Q 2172 0 1784 0 
Q 1141 0 747 490 
Q 353 981 353 1791 
Q 353 2603 747 3093 
Q 1141 3584 1784 3584 
Q 2172 3584 2450 3431 
Q 2728 3278 2906 2969 
L 2906 3500 
L 3481 3500 
L 3481 434 
z
" transform="scale(0.015625)"/>
       <path id="DejaVuSans-79" d="M 2059 -325 
Q 1816 -950 1584 -1140 
Q 1353 -1331 966 -1331 
L 506 -1331 
L 506 -850 
L 844 -850 
Q 1081 -850 1212 -737 
Q 1344 -625 1503 -206 
L 1606 56 
L 191 3500 
L 800 3500 
L 1894 763 
L 2988 3500 
L 3597 3500 
L 2059 -325 
z
" transform="scale(0.015625)"/>
       <path id="DejaVuSans-68" d="M 3513 2113 
L 3513 0 
L 2938 0 
L 2938 2094 
Q 2938 2591 2744 2837 
Q 2550 3084 2163 3084 
Q 1697 3084 1428 2787 
Q 1159 2491 1159 1978 
L 1159 0 
L 581 0 
L 581 4863 
L 1159 4863 
L 1159 2956 
Q 1366 3272 1645 3428 
Q 1925 3584 2291 3584 
Q 2894 3584 3203 3211 
Q 3513 2838 3513 2113 
z
" transform="scale(0.015625)"/>
      </defs>
      <use xlink:href="#DejaVuSans-65" transform="translate(0 0.015625)"/>
      <use xlink:href="#DejaVuSans-6e" transform="translate(61.523438 0.015625)"/>
      <use xlink:href="#DejaVuSans-65" transform="translate(124.902344 0.015625)"/>
      <use xlink:href="#DejaVuSans-72" transform="translate(186.425781 0.015625)"/>
      <use xlink:href="#DejaVuSans-67" transform="translate(227.539062 0.015625)"/>
      <use xlink:href="#DejaVuSans-79" transform="translate(291.015625 0.015625)"/>
      <use xlink:href="#DejaVuSans-20" transform="translate(350.195312 0.015625)"/>
      <use xlink:href="#DejaVuSans-73" transform="translate(381.982422 0.015625)"/>
      <use xlink:href="#DejaVuSans-68" transform="translate(434.082031 0.015625)"/>
      <use xlink:href="#DejaVuSans-69" transform="translate(497.460938 0.015625)"/>
      <use xlink:href="#DejaVuSans-66" transform="translate(525.244141 0.015625)"/>
      <use xlink:href="#DejaVuSans-74" transform="translate(560.449219 0.015625)"/>
      <use xlink:href="#DejaVuSans-20" transform="translate(599.658203 0.015625)"/>
      <use xlink:href="#DejaVuSans-20" transform="translate(631.445312 0.015625)"/>
      <use xlink:href="#DejaVuSans-28" transform="translate(663.232422 0.015625)"/>
      <use xlink:href="#DejaVuSans-Oblique-61" transform="translate(702.246094 0.015625)"/>
      <use xlink:href="#DejaVuSans-30" transform="translate(763.525391 -16.390625) scale(0.7)"/>
      <use xlink:href="#DejaVuSans-Oblique-65" transform="translate(810.795898 0.015625)"/>
      <use xlink:href="#STIXNonUnicode-Italic-e231" transform="translate(888.555012 0.015625)"/>
      <use xlink:href="#DejaVuSans-29" transform="translate(943.855 0.015625)"/>
     </g>
    </g>
   </g>
   <g id="line2d_14">
    <path d="M 52.76 135.236 
L 440.235 39.021455 
L 440.235 39.021455 
" clip-path="url(#p52ff4d1d41)" style="fill: none; stroke: #0072b2; stroke-width: 2.2; stroke-linecap: square"/>
   </g>
   <g id="line2d_15">
    <path d="M 52.76 135.236 
L 440.235 231.450545 
L 440.235 231.450545 
" clip-path="url(#p52ff4d1d41)" style="fill: none; stroke: #d55e00; stroke-width: 2.2; stroke-linecap: square"/>
   </g>
   <g id="line2d_16">
    <path d="M 52.76 135.236 
L 440.235 135.236 
L 440.235 135.236 
" clip-path="url(#p52ff4d1d41)" style="fill: none; stroke: #999999; stroke-width: 2.6; stroke-linecap: square"/>
   </g>
   <g id="patch_3">
    <path d="M 52.76 241.072 
L 52.76 29.4 
" style="fill: none; stroke: #000000; stroke-linejoin: miter; stroke-linecap: square"/>
   </g>
   <g id="patch_4">
    <path d="M 52.76 241.072 
L 440.235 241.072 
" style="fill: none; stroke: #000000; stroke-linejoin: miter; stroke-linecap: square"/>
   </g>
   <g id="text_16">
    <!-- Linear Stark effect, hydrogen $n=2$ manifold (4 states $\to$ 3 levels) -->
    <g transform="translate(48.5575 23.4) scale(0.12 -0.12)">
     <defs>
      <path id="DejaVuSans-4c" d="M 628 4666 
L 1259 4666 
L 1259 531 
L 3531 531 
L 3531 0 
L 628 0 
L 628 4666 
z
" transform="scale(0.015625)"/>
      <path id="DejaVuSans-53" d="M 3425 4513 
L 3425 3897 
Q 3066 4069 2747 4153 
Q 2428 4238 2131 4238 
Q 1616 4238 1336 4038 
Q 1056 3838 1056 3469 
Q 1056 3159 1242 3001 
Q 1428 2844 1947 2747 
L 2328 2669 
Q 3034 2534 3370 2195 
Q 3706 1856 3706 1288 
Q 3706 609 3251 259 
Q 2797 -91 1919 -91 
Q 1588 -91 1214 -16 
Q 841 59 441 206 
L 441 856 
Q 825 641 1194 531 
Q 1563 422 1919 422 
Q 2459 422 2753 634 
Q 3047 847 3047 1241 
Q 3047 1584 2836 1778 
Q 2625 1972 2144 2069 
L 1759 2144 
Q 1053 2284 737 2584 
Q 422 2884 422 3419 
Q 422 4038 858 4394 
Q 1294 4750 2059 4750 
Q 2388 4750 2728 4690 
Q 3069 4631 3425 4513 
z
" transform="scale(0.015625)"/>
      <path id="DejaVuSans-6b" d="M 581 4863 
L 1159 4863 
L 1159 1991 
L 2875 3500 
L 3609 3500 
L 1753 1863 
L 3688 0 
L 2938 0 
L 1159 1709 
L 1159 0 
L 581 0 
L 581 4863 
z
" transform="scale(0.015625)"/>
      <path id="DejaVuSans-6f" d="M 1959 3097 
Q 1497 3097 1228 2736 
Q 959 2375 959 1747 
Q 959 1119 1226 758 
Q 1494 397 1959 397 
Q 2419 397 2687 759 
Q 2956 1122 2956 1747 
Q 2956 2369 2687 2733 
Q 2419 3097 1959 3097 
z
M 1959 3584 
Q 2709 3584 3137 3096 
Q 3566 2609 3566 1747 
Q 3566 888 3137 398 
Q 2709 -91 1959 -91 
Q 1206 -91 779 398 
Q 353 888 353 1747 
Q 353 2609 779 3096 
Q 1206 3584 1959 3584 
z
" transform="scale(0.015625)"/>
      <path id="DejaVuSans-Oblique-6e" d="M 3566 2113 
L 3156 0 
L 2578 0 
L 2988 2091 
Q 3016 2238 3031 2350 
Q 3047 2463 3047 2528 
Q 3047 2791 2881 2937 
Q 2716 3084 2419 3084 
Q 1956 3084 1622 2776 
Q 1288 2469 1184 1941 
L 800 0 
L 225 0 
L 903 3500 
L 1478 3500 
L 1363 2950 
Q 1603 3253 1940 3418 
Q 2278 3584 2650 3584 
Q 3113 3584 3367 3334 
Q 3622 3084 3622 2631 
Q 3622 2519 3608 2391 
Q 3594 2263 3566 2113 
z
" transform="scale(0.015625)"/>
      <path id="DejaVuSans-3d" d="M 678 2906 
L 4684 2906 
L 4684 2381 
L 678 2381 
L 678 2906 
z
M 678 1631 
L 4684 1631 
L 4684 1100 
L 678 1100 
L 678 1631 
z
" transform="scale(0.015625)"/>
      <path id="DejaVuSans-6d" d="M 3328 2828 
Q 3544 3216 3844 3400 
Q 4144 3584 4550 3584 
Q 5097 3584 5394 3201 
Q 5691 2819 5691 2113 
L 5691 0 
L 5113 0 
L 5113 2094 
Q 5113 2597 4934 2840 
Q 4756 3084 4391 3084 
Q 3944 3084 3684 2787 
Q 3425 2491 3425 1978 
L 3425 0 
L 2847 0 
L 2847 2094 
Q 2847 2600 2669 2842 
Q 2491 3084 2119 3084 
Q 1678 3084 1418 2786 
Q 1159 2488 1159 1978 
L 1159 0 
L 581 0 
L 581 3500 
L 1159 3500 
L 1159 2956 
Q 1356 3278 1631 3431 
Q 1906 3584 2284 3584 
Q 2666 3584 2933 3390 
Q 3200 3197 3328 2828 
z
" transform="scale(0.015625)"/>
      <path id="DejaVuSans-2192" d="M 5050 2147 
L 5050 1866 
L 3822 638 
L 3447 1013 
L 4175 1741 
L 366 1741 
L 366 2272 
L 4175 2272 
L 3447 3000 
L 3822 3375 
L 5050 2147 
z
" transform="scale(0.015625)"/>
      <path id="DejaVuSans-76" d="M 191 3500 
L 800 3500 
L 1894 563 
L 2988 3500 
L 3597 3500 
L 2284 0 
L 1503 0 
L 191 3500 
z
" transform="scale(0.015625)"/>
     </defs>
     <use xlink:href="#DejaVuSans-4c" transform="translate(0 0.015625)"/>
     <use xlink:href="#DejaVuSans-69" transform="translate(55.712891 0.015625)"/>
     <use xlink:href="#DejaVuSans-6e" transform="translate(83.496094 0.015625)"/>
     <use xlink:href="#DejaVuSans-65" transform="translate(146.875 0.015625)"/>
     <use xlink:href="#DejaVuSans-61" transform="translate(208.398438 0.015625)"/>
     <use xlink:href="#DejaVuSans-72" transform="translate(269.677734 0.015625)"/>
     <use xlink:href="#DejaVuSans-20" transform="translate(310.791016 0.015625)"/>
     <use xlink:href="#DejaVuSans-53" transform="translate(342.578125 0.015625)"/>
     <use xlink:href="#DejaVuSans-74" transform="translate(406.054688 0.015625)"/>
     <use xlink:href="#DejaVuSans-61" transform="translate(445.263672 0.015625)"/>
     <use xlink:href="#DejaVuSans-72" transform="translate(506.542969 0.015625)"/>
     <use xlink:href="#DejaVuSans-6b" transform="translate(547.65625 0.015625)"/>
     <use xlink:href="#DejaVuSans-20" transform="translate(605.566406 0.015625)"/>
     <use xlink:href="#DejaVuSans-65" transform="translate(637.353516 0.015625)"/>
     <use xlink:href="#DejaVuSans-66" transform="translate(698.876953 0.015625)"/>
     <use xlink:href="#DejaVuSans-66" transform="translate(734.082031 0.015625)"/>
     <use xlink:href="#DejaVuSans-65" transform="translate(769.287109 0.015625)"/>
     <use xlink:href="#DejaVuSans-63" transform="translate(830.810547 0.015625)"/>
     <use xlink:href="#DejaVuSans-74" transform="translate(885.791016 0.015625)"/>
     <use xlink:href="#DejaVuSans-2c" transform="translate(925 0.015625)"/>
     <use xlink:href="#DejaVuSans-20" transform="translate(956.787109 0.015625)"/>
     <use xlink:href="#DejaVuSans-68" transform="translate(988.574219 0.015625)"/>
     <use xlink:href="#DejaVuSans-79" transform="translate(1051.953125 0.015625)"/>
     <use xlink:href="#DejaVuSans-64" transform="translate(1111.132812 0.015625)"/>
     <use xlink:href="#DejaVuSans-72" transform="translate(1174.609375 0.015625)"/>
     <use xlink:href="#DejaVuSans-6f" transform="translate(1215.722656 0.015625)"/>
     <use xlink:href="#DejaVuSans-67" transform="translate(1276.904297 0.015625)"/>
     <use xlink:href="#DejaVuSans-65" transform="translate(1340.380859 0.015625)"/>
     <use xlink:href="#DejaVuSans-6e" transform="translate(1401.904297 0.015625)"/>
     <use xlink:href="#DejaVuSans-20" transform="translate(1465.283203 0.015625)"/>
     <use xlink:href="#DejaVuSans-Oblique-6e" transform="translate(1497.070312 0.015625)"/>
     <use xlink:href="#DejaVuSans-3d" transform="translate(1579.931641 0.015625)"/>
     <use xlink:href="#DejaVuSans-32" transform="translate(1683.203125 0.015625)"/>
     <use xlink:href="#DejaVuSans-20" transform="translate(1746.826172 0.015625)"/>
     <use xlink:href="#DejaVuSans-6d" transform="translate(1778.613281 0.015625)"/>
     <use xlink:href="#DejaVuSans-61" transform="translate(1876.025391 0.015625)"/>
     <use xlink:href="#DejaVuSans-6e" transform="translate(1937.304688 0.015625)"/>
     <use xlink:href="#DejaVuSans-69" transform="translate(2000.683594 0.015625)"/>
     <use xlink:href="#DejaVuSans-66" transform="translate(2028.466797 0.015625)"/>
     <use xlink:href="#DejaVuSans-6f" transform="translate(2063.671875 0.015625)"/>
     <use xlink:href="#DejaVuSans-6c" transform="translate(2124.853516 0.015625)"/>
     <use xlink:href="#DejaVuSans-64" transform="translate(2152.636719 0.015625)"/>
     <use xlink:href="#DejaVuSans-20" transform="translate(2216.113281 0.015625)"/>
     <use xlink:href="#DejaVuSans-28" transform="translate(2247.900391 0.015625)"/>
     <use xlink:href="#DejaVuSans-34" transform="translate(2286.914062 0.015625)"/>
     <use xlink:href="#DejaVuSans-20" transform="translate(2350.537109 0.015625)"/>
     <use xlink:href="#DejaVuSans-73" transform="translate(2382.324219 0.015625)"/>
     <use xlink:href="#DejaVuSans-74" transform="translate(2434.423828 0.015625)"/>
     <use xlink:href="#DejaVuSans-61" transform="translate(2473.632812 0.015625)"/>
     <use xlink:href="#DejaVuSans-74" transform="translate(2534.912109 0.015625)"/>
     <use xlink:href="#DejaVuSans-65" transform="translate(2574.121094 0.015625)"/>
     <use xlink:href="#DejaVuSans-73" transform="translate(2635.644531 0.015625)"/>
     <use xlink:href="#DejaVuSans-20" transform="translate(2687.744141 0.015625)"/>
     <use xlink:href="#DejaVuSans-2192" transform="translate(2739.013672 0.015625)"/>
     <use xlink:href="#DejaVuSans-20" transform="translate(2842.285156 0.015625)"/>
     <use xlink:href="#DejaVuSans-33" transform="translate(2874.072266 0.015625)"/>
     <use xlink:href="#DejaVuSans-20" transform="translate(2937.695312 0.015625)"/>
     <use xlink:href="#DejaVuSans-6c" transform="translate(2969.482422 0.015625)"/>
     <use xlink:href="#DejaVuSans-65" transform="translate(2997.265625 0.015625)"/>
     <use xlink:href="#DejaVuSans-76" transform="translate(3058.789062 0.015625)"/>
     <use xlink:href="#DejaVuSans-65" transform="translate(3117.96875 0.015625)"/>
     <use xlink:href="#DejaVuSans-6c" transform="translate(3179.492188 0.015625)"/>
     <use xlink:href="#DejaVuSans-73" transform="translate(3207.275391 0.015625)"/>
     <use xlink:href="#DejaVuSans-29" transform="translate(3259.375 0.015625)"/>
    </g>
   </g>
   <g id="legend_1">
    <g id="line2d_17">
     <path d="M 60.86 44.43 
L 69.86 44.43 
L 78.86 44.43 
" style="fill: none; stroke: #0072b2; stroke-width: 2.2; stroke-linecap: square"/>
    </g>
    <g id="text_17">
     <!-- $(|2s\rangle-|2p_0\rangle)/\sqrt{2}$:  $+3a_0e\mathcal{E}$ -->
     <g transform="translate(86.06 47.58) scale(0.09 -0.09)">
      <defs>
       <path id="DejaVuSans-7c" d="M 1344 4891 
L 1344 -1509 
L 813 -1509 
L 813 4891 
L 1344 4891 
z
" transform="scale(0.015625)"/>
       <path id="DejaVuSans-Oblique-73" d="M 3200 3397 
L 3091 2853 
Q 2863 2978 2609 3040 
Q 2356 3103 2088 3103 
Q 1634 3103 1373 2948 
Q 1113 2794 1113 2528 
Q 1113 2219 1719 2053 
Q 1766 2041 1788 2034 
L 1972 1978 
Q 2547 1819 2739 1644 
Q 2931 1469 2931 1166 
Q 2931 609 2489 259 
Q 2047 -91 1331 -91 
Q 1053 -91 747 -37 
Q 441 16 72 128 
L 184 722 
Q 500 559 806 475 
Q 1113 391 1394 391 
Q 1816 391 2080 572 
Q 2344 753 2344 1031 
Q 2344 1331 1650 1516 
L 1591 1531 
L 1394 1581 
Q 956 1697 753 1886 
Q 550 2075 550 2369 
Q 550 2928 970 3256 
Q 1391 3584 2113 3584 
Q 2397 3584 2667 3537 
Q 2938 3491 3200 3397 
z
" transform="scale(0.015625)"/>
       <path id="DejaVuSans-27e9" d="M 1925 2006 
L 1044 -844 
L 513 -844 
L 1394 2006 
L 513 4856 
L 1044 4856 
L 1925 2006 
z
" transform="scale(0.015625)"/>
       <path id="DejaVuSans-Oblique-70" d="M 3175 2156 
Q 3175 2616 2975 2859 
Q 2775 3103 2400 3103 
Q 2144 3103 1911 2972 
Q 1678 2841 1497 2591 
Q 1319 2344 1212 1994 
Q 1106 1644 1106 1300 
Q 1106 863 1306 627 
Q 1506 391 1875 391 
Q 2147 391 2380 519 
Q 2613 647 2778 891 
Q 2956 1147 3065 1494 
Q 3175 1841 3175 2156 
z
M 1394 2969 
Q 1625 3272 1939 3428 
Q 2253 3584 2638 3584 
Q 3175 3584 3472 3232 
Q 3769 2881 3769 2247 
Q 3769 1728 3584 1258 
Q 3400 788 3053 416 
Q 2822 169 2531 39 
Q 2241 -91 1919 -91 
Q 1547 -91 1294 64 
Q 1041 219 916 525 
L 556 -1331 
L -19 -1331 
L 922 3500 
L 1497 3500 
L 1394 2969 
z
" transform="scale(0.015625)"/>
       <path id="DejaVuSans-2f" d="M 1625 4666 
L 2156 4666 
L 531 -594 
L 0 -594 
L 1625 4666 
z
" transform="scale(0.015625)"/>
       <path id="STIXSizeOneSym-Regular-221a" d="M 6970 9933 
L 3373 -1888 
L 3104 -1888 
L 1626 2918 
Q 1555 3149 1465 3251 
Q 1376 3354 1229 3354 
Q 1011 3354 794 3181 
L 717 3309 
L 1766 4115 
L 1926 4115 
L 3379 -602 
L 3405 -602 
L 6605 9933 
L 6970 9933 
z
" transform="scale(0.015625)"/>
       <path id="DejaVuSans-3a" d="M 750 794 
L 1409 794 
L 1409 0 
L 750 0 
L 750 794 
z
M 750 3309 
L 1409 3309 
L 1409 2516 
L 750 2516 
L 750 3309 
z
" transform="scale(0.015625)"/>
       <path id="DejaVuSans-2b" d="M 2944 4013 
L 2944 2272 
L 4684 2272 
L 4684 1741 
L 2944 1741 
L 2944 0 
L 2419 0 
L 2419 1741 
L 678 1741 
L 678 2272 
L 2419 2272 
L 2419 4013 
L 2944 4013 
z
" transform="scale(0.015625)"/>
      </defs>
      <use xlink:href="#DejaVuSans-28" transform="translate(0 0.71875)"/>
      <use xlink:href="#DejaVuSans-7c" transform="translate(39.013672 0.71875)"/>
      <use xlink:href="#DejaVuSans-32" transform="translate(72.705078 0.71875)"/>
      <use xlink:href="#DejaVuSans-Oblique-73" transform="translate(136.328125 0.71875)"/>
      <use xlink:href="#DejaVuSans-27e9" transform="translate(188.427734 0.71875)"/>
      <use xlink:href="#DejaVuSans-2212" transform="translate(246.923828 0.71875)"/>
      <use xlink:href="#DejaVuSans-7c" transform="translate(350.195312 0.71875)"/>
      <use xlink:href="#DejaVuSans-32" transform="translate(383.886719 0.71875)"/>
      <use xlink:href="#DejaVuSans-Oblique-70" transform="translate(447.509766 0.71875)"/>
      <use xlink:href="#DejaVuSans-30" transform="translate(510.986328 -15.6875) scale(0.7)"/>
      <use xlink:href="#DejaVuSans-27e9" transform="translate(558.256836 0.71875)"/>
      <use xlink:href="#DejaVuSans-29" transform="translate(597.270508 0.71875)"/>
      <use xlink:href="#DejaVuSans-2f" transform="translate(636.28418 0.71875)"/>
      <use xlink:href="#STIXSizeOneSym-Regular-221a" transform="translate(669.975586 17.53125) scale(0.571018)"/>
      <use xlink:href="#DejaVuSans-32" transform="translate(742.856705 0.53125)"/>
      <use xlink:href="#DejaVuSans-3a" transform="translate(818.979752 0.71875)"/>
      <use xlink:href="#DejaVuSans-20" transform="translate(852.671158 0.71875)"/>
      <use xlink:href="#DejaVuSans-20" transform="translate(884.458267 0.71875)"/>
      <use xlink:href="#DejaVuSans-2b" transform="translate(916.245377 0.71875)"/>
      <use xlink:href="#DejaVuSans-33" transform="translate(1000.034439 0.71875)"/>
      <use xlink:href="#DejaVuSans-Oblique-61" transform="translate(1063.657486 0.71875)"/>
      <use xlink:href="#DejaVuSans-30" transform="translate(1124.936783 -15.6875) scale(0.7)"/>
      <use xlink:href="#DejaVuSans-Oblique-65" transform="translate(1172.207291 0.71875)"/>
      <use xlink:href="#STIXNonUnicode-Italic-e231" transform="translate(1233.730728 0.71875)"/>
      <path d="M 730.356705 99.5 
L 730.356705 105.75 
L 818.979752 105.75 
L 818.979752 99.5 
L 730.356705 99.5 
z
"/>
     </g>
    </g>
    <g id="line2d_18">
     <path d="M 60.86 61.17 
L 69.86 61.17 
L 78.86 61.17 
" style="fill: none; stroke: #d55e00; stroke-width: 2.2; stroke-linecap: square"/>
    </g>
    <g id="text_18">
     <!-- $(|2s\rangle+|2p_0\rangle)/\sqrt{2}$:  $-3a_0e\mathcal{E}$ -->
     <g transform="translate(86.06 64.32) scale(0.09 -0.09)">
      <use xlink:href="#DejaVuSans-28" transform="translate(0 0.71875)"/>
      <use xlink:href="#DejaVuSans-7c" transform="translate(39.013672 0.71875)"/>
      <use xlink:href="#DejaVuSans-32" transform="translate(72.705078 0.71875)"/>
      <use xlink:href="#DejaVuSans-Oblique-73" transform="translate(136.328125 0.71875)"/>
      <use xlink:href="#DejaVuSans-27e9" transform="translate(188.427734 0.71875)"/>
      <use xlink:href="#DejaVuSans-2b" transform="translate(246.923828 0.71875)"/>
      <use xlink:href="#DejaVuSans-7c" transform="translate(350.195312 0.71875)"/>
      <use xlink:href="#DejaVuSans-32" transform="translate(383.886719 0.71875)"/>
      <use xlink:href="#DejaVuSans-Oblique-70" transform="translate(447.509766 0.71875)"/>
      <use xlink:href="#DejaVuSans-30" transform="translate(510.986328 -15.6875) scale(0.7)"/>
      <use xlink:href="#DejaVuSans-27e9" transform="translate(558.256836 0.71875)"/>
      <use xlink:href="#DejaVuSans-29" transform="translate(597.270508 0.71875)"/>
      <use xlink:href="#DejaVuSans-2f" transform="translate(636.28418 0.71875)"/>
      <use xlink:href="#STIXSizeOneSym-Regular-221a" transform="translate(669.975586 17.53125) scale(0.571018)"/>
      <use xlink:href="#DejaVuSans-32" transform="translate(742.856705 0.53125)"/>
      <use xlink:href="#DejaVuSans-3a" transform="translate(818.979752 0.71875)"/>
      <use xlink:href="#DejaVuSans-20" transform="translate(852.671158 0.71875)"/>
      <use xlink:href="#DejaVuSans-20" transform="translate(884.458267 0.71875)"/>
      <use xlink:href="#DejaVuSans-2212" transform="translate(916.245377 0.71875)"/>
      <use xlink:href="#DejaVuSans-33" transform="translate(1000.034439 0.71875)"/>
      <use xlink:href="#DejaVuSans-Oblique-61" transform="translate(1063.657486 0.71875)"/>
      <use xlink:href="#DejaVuSans-30" transform="translate(1124.936783 -15.6875) scale(0.7)"/>
      <use xlink:href="#DejaVuSans-Oblique-65" transform="translate(1172.207291 0.71875)"/>
      <use xlink:href="#STIXNonUnicode-Italic-e231" transform="translate(1233.730728 0.71875)"/>
      <path d="M 730.356705 99.5 
L 730.356705 105.75 
L 818.979752 105.75 
L 818.979752 99.5 
L 730.356705 99.5 
z
"/>
     </g>
    </g>
    <g id="line2d_19">
     <path d="M 60.86 74.76 
L 69.86 74.76 
L 78.86 74.76 
" style="fill: none; stroke: #999999; stroke-width: 2.6; stroke-linecap: square"/>
    </g>
    <g id="text_19">
     <!-- $|2p_{+1}\rangle,|2p_{-1}\rangle$:  unshifted (2-fold) -->
     <g transform="translate(86.06 77.91) scale(0.09 -0.09)">
      <defs>
       <path id="DejaVuSans-2d" d="M 313 2009 
L 1997 2009 
L 1997 1497 
L 313 1497 
L 313 2009 
z
" transform="scale(0.015625)"/>
      </defs>
      <use xlink:href="#DejaVuSans-7c" transform="translate(0 0.578125)"/>
      <use xlink:href="#DejaVuSans-32" transform="translate(33.691406 0.578125)"/>
      <use xlink:href="#DejaVuSans-Oblique-70" transform="translate(97.314453 0.578125)"/>
      <use xlink:href="#DejaVuSans-2b" transform="translate(160.791016 -15.828125) scale(0.7)"/>
      <use xlink:href="#DejaVuSans-31" transform="translate(219.443359 -15.828125) scale(0.7)"/>
      <use xlink:href="#DejaVuSans-27e9" transform="translate(266.713867 0.578125)"/>
      <use xlink:href="#DejaVuSans-2c" transform="translate(305.727539 0.578125)"/>
      <use xlink:href="#DejaVuSans-7c" transform="translate(356.99707 0.578125)"/>
      <use xlink:href="#DejaVuSans-32" transform="translate(390.688477 0.578125)"/>
      <use xlink:href="#DejaVuSans-Oblique-70" transform="translate(454.311523 0.578125)"/>
      <use xlink:href="#DejaVuSans-2212" transform="translate(517.788086 -15.828125) scale(0.7)"/>
      <use xlink:href="#DejaVuSans-31" transform="translate(576.44043 -15.828125) scale(0.7)"/>
      <use xlink:href="#DejaVuSans-27e9" transform="translate(623.710938 0.578125)"/>
      <use xlink:href="#DejaVuSans-3a" transform="translate(662.724609 0.578125)"/>
      <use xlink:href="#DejaVuSans-20" transform="translate(696.416016 0.578125)"/>
      <use xlink:href="#DejaVuSans-20" transform="translate(728.203125 0.578125)"/>
      <use xlink:href="#DejaVuSans-75" transform="translate(759.990234 0.578125)"/>
      <use xlink:href="#DejaVuSans-6e" transform="translate(823.369141 0.578125)"/>
      <use xlink:href="#DejaVuSans-73" transform="translate(886.748047 0.578125)"/>
      <use xlink:href="#DejaVuSans-68" transform="translate(938.847656 0.578125)"/>
      <use xlink:href="#DejaVuSans-69" transform="translate(1002.226562 0.578125)"/>
      <use xlink:href="#DejaVuSans-66" transform="translate(1030.009766 0.578125)"/>
      <use xlink:href="#DejaVuSans-74" transform="translate(1065.214844 0.578125)"/>
      <use xlink:href="#DejaVuSans-65" transform="translate(1104.423828 0.578125)"/>
      <use xlink:href="#DejaVuSans-64" transform="translate(1165.947266 0.578125)"/>
      <use xlink:href="#DejaVuSans-20" transform="translate(1229.423828 0.578125)"/>
      <use xlink:href="#DejaVuSans-28" transform="translate(1261.210938 0.578125)"/>
      <use xlink:href="#DejaVuSans-32" transform="translate(1300.224609 0.578125)"/>
      <use xlink:href="#DejaVuSans-2d" transform="translate(1363.847656 0.578125)"/>
      <use xlink:href="#DejaVuSans-66" transform="translate(1399.931641 0.578125)"/>
      <use xlink:href="#DejaVuSans-6f" transform="translate(1435.136719 0.578125)"/>
      <use xlink:href="#DejaVuSans-6c" transform="translate(1496.318359 0.578125)"/>
      <use xlink:href="#DejaVuSans-64" transform="translate(1524.101562 0.578125)"/>
      <use xlink:href="#DejaVuSans-29" transform="translate(1587.578125 0.578125)"/>
     </g>
    </g>
   </g>
  </g>
 </g>
 <defs>
  <clipPath id="p52ff4d1d41">
   <rect x="52.76" y="29.4" width="387.475" height="211.672"/>
  </clipPath>
 </defs>
</svg>
