<?xml version="1.0" encoding="utf-8" standalone="no"?>
<!DOCTYPE svg PUBLIC "-//W3C//DTD SVG 1.1//EN"
  "http://www.w3.org/Graphics/SVG/1.1/DTD/svg11.dtd">
<svg xmlns:xlink="http://www.w3.org/1999/xlink" width="460.8pt" height="288pt" viewBox="0 0 460.8 288" xmlns="http://www.w3.org/2000/svg" version="1.1">
 <metadata>
  <rdf:RDF xmlns:dc="http://purl.org/dc/elements/1.1/" xmlns:cc="http://creativecommons.org/ns#" xmlns:rdf="http://www.w3.org/1999/02/22-rdf-syntax-ns#">
   <cc:Work>
    <dc:type rdf:resource="http://purl.org/dc/dcmitype/StillImage"/>
    <dc:date>2026-06-04T06:17:41.426813</dc:date>
    <dc:format>image/svg+xml</dc:format>
    <dc:creator>
     <cc:Agent>
      <dc:title>Matplotlib v3.10.8, https://matplotlib.org/</dc:title>
     </cc:Agent>
    </dc:creator>
   </cc:Work>
  </rdf:RDF>
 </metadata>
 <defs>
  <style type="text/css">*{stroke-linejoin: round; stroke-linecap: butt}</style>
 </defs>
 <g id="figure_1">
  <g id="patch_1">
   <path d="M 0 288 
L 460.8 288 
L 460.8 0 
L 0 0 
z
" style="fill: #ffffff"/>
  </g>
  <g id="axes_1">
   <g id="patch_2">
    <path d="M 59.6 240.64 
L 445.455 240.64 
L 445.455 29.4 
L 59.6 29.4 
z
" style="fill: #ffffff"/>
   </g>
   <g id="matplotlib.axis_1">
    <g id="xtick_1">
     <g id="line2d_1">
      <defs>
       <path id="m9882a2cc50" d="M 0 0 
L 0 3.5 
" style="stroke: #000000; stroke-width: 0.8"/>
      </defs>
      <g>
       <use xlink:href="#m9882a2cc50" x="59.6" y="240.64" style="stroke: #000000; stroke-width: 0.8"/>
      </g>
     </g>
     <g id="text_1">
      <!-- 0 -->
      <g transform="translate(56.100625 255.998281) scale(0.11 -0.11)">
       <defs>
        <path id="DejaVuSans-30" d="M 2034 4250 
Q 1547 4250 1301 3770 
Q 1056 3291 1056 2328 
Q 1056 1369 1301 889 
Q 1547 409 2034 409 
Q 2525 409 2770 889 
Q 3016 1369 3016 2328 
Q 3016 3291 2770 3770 
Q 2525 4250 2034 4250 
z
M 2034 4750 
Q 2819 4750 3233 4129 
Q 3647 3509 3647 2328 
Q 3647 1150 3233 529 
Q 2819 -91 2034 -91 
Q 1250 -91 836 529 
Q 422 1150 422 2328 
Q 422 3509 836 4129 
Q 1250 4750 2034 4750 
z
" transform="scale(0.015625)"/>
       </defs>
       <use xlink:href="#DejaVuSans-30"/>
      </g>
     </g>
    </g>
    <g id="xtick_2">
     <g id="line2d_2">
      <g>
       <use xlink:href="#m9882a2cc50" x="107.831875" y="240.64" style="stroke: #000000; stroke-width: 0.8"/>
      </g>
     </g>
     <g id="text_2">
      <!-- 1 -->
      <g transform="translate(104.3325 255.998281) scale(0.11 -0.11)">
       <defs>
        <path id="DejaVuSans-31" d="M 794 531 
L 1825 531 
L 1825 4091 
L 703 3866 
L 703 4441 
L 1819 4666 
L 2450 4666 
L 2450 531 
L 3481 531 
L 3481 0 
L 794 0 
L 794 531 
z
" transform="scale(0.015625)"/>
       </defs>
       <use xlink:href="#DejaVuSans-31"/>
      </g>
     </g>
    </g>
    <g id="xtick_3">
     <g id="line2d_3">
      <g>
       <use xlink:href="#m9882a2cc50" x="156.06375" y="240.64" style="stroke: #000000; stroke-width: 0.8"/>
      </g>
     </g>
     <g id="text_3">
      <!-- 2 -->
      <g transform="translate(152.564375 255.998281) scale(0.11 -0.11)">
       <defs>
        <path id="DejaVuSans-32" d="M 1228 531 
L 3431 531 
L 3431 0 
L 469 0 
L 469 531 
Q 828 903 1448 1529 
Q 2069 2156 2228 2338 
Q 2531 2678 2651 2914 
Q 2772 3150 2772 3378 
Q 2772 3750 2511 3984 
Q 2250 4219 1831 4219 
Q 1534 4219 1204 4116 
Q 875 4013 500 3803 
L 500 4441 
Q 881 4594 1212 4672 
Q 1544 4750 1819 4750 
Q 2544 4750 2975 4387 
Q 3406 4025 3406 3419 
Q 3406 3131 3298 2873 
Q 3191 2616 2906 2266 
Q 2828 2175 2409 1742 
Q 1991 1309 1228 531 
z
" transform="scale(0.015625)"/>
       </defs>
       <use xlink:href="#DejaVuSans-32"/>
      </g>
     </g>
    </g>
    <g id="xtick_4">
     <g id="line2d_4">
      <g>
       <use xlink:href="#m9882a2cc50" x="204.295625" y="240.64" style="stroke: #000000; stroke-width: 0.8"/>
      </g>
     </g>
     <g id="text_4">
      <!-- 3 -->
      <g transform="translate(200.79625 255.998281) scale(0.11 -0.11)">
       <defs>
        <path id="DejaVuSans-33" d="M 2597 2516 
Q 3050 2419 3304 2112 
Q 3559 1806 3559 1356 
Q 3559 666 3084 287 
Q 2609 -91 1734 -91 
Q 1441 -91 1130 -33 
Q 819 25 488 141 
L 488 750 
Q 750 597 1062 519 
Q 1375 441 1716 441 
Q 2309 441 2620 675 
Q 2931 909 2931 1356 
Q 2931 1769 2642 2001 
Q 2353 2234 1838 2234 
L 1294 2234 
L 1294 2753 
L 1863 2753 
Q 2328 2753 2575 2939 
Q 2822 3125 2822 3475 
Q 2822 3834 2567 4026 
Q 2313 4219 1838 4219 
Q 1578 4219 1281 4162 
Q 984 4106 628 3988 
L 628 4550 
Q 988 4650 1302 4700 
Q 1616 4750 1894 4750 
Q 2613 4750 3031 4423 
Q 3450 4097 3450 3541 
Q 3450 3153 3228 2886 
Q 3006 2619 2597 2516 
z
" transform="scale(0.015625)"/>
       </defs>
       <use xlink:href="#DejaVuSans-33"/>
      </g>
     </g>
    </g>
    <g id="xtick_5">
     <g id="line2d_5">
      <g>
       <use xlink:href="#m9882a2cc50" x="252.5275" y="240.64" style="stroke: #000000; stroke-width: 0.8"/>
      </g>
     </g>
     <g id="text_5">
      <!-- 4 -->
      <g transform="translate(249.028125 255.998281) scale(0.11 -0.11)">
       <defs>
        <path id="DejaVuSans-34" d="M 2419 4116 
L 825 1625 
L 2419 1625 
L 2419 4116 
z
M 2253 4666 
L 3047 4666 
L 3047 1625 
L 3713 1625 
L 3713 1100 
L 3047 1100 
L 3047 0 
L 2419 0 
L 2419 1100 
L 313 1100 
L 313 1709 
L 2253 4666 
z
" transform="scale(0.015625)"/>
       </defs>
       <use xlink:href="#DejaVuSans-34"/>
      </g>
     </g>
    </g>
    <g id="xtick_6">
     <g id="line2d_6">
      <g>
       <use xlink:href="#m9882a2cc50" x="300.759375" y="240.64" style="stroke: #000000; stroke-width: 0.8"/>
      </g>
     </g>
     <g id="text_6">
      <!-- 5 -->
      <g transform="translate(297.26 255.998281) scale(0.11 -0.11)">
       <defs>
        <path id="DejaVuSans-35" d="M 691 4666 
L 3169 4666 
L 3169 4134 
L 1269 4134 
L 1269 2991 
Q 1406 3038 1543 3061 
Q 1681 3084 1819 3084 
Q 2600 3084 3056 2656 
Q 3513 2228 3513 1497 
Q 3513 744 3044 326 
Q 2575 -91 1722 -91 
Q 1428 -91 1123 -41 
Q 819 9 494 109 
L 494 744 
Q 775 591 1075 516 
Q 1375 441 1709 441 
Q 2250 441 2565 725 
Q 2881 1009 2881 1497 
Q 2881 1984 2565 2268 
Q 2250 2553 1709 2553 
Q 1456 2553 1204 2497 
Q 953 2441 691 2322 
L 691 4666 
z
" transform="scale(0.015625)"/>
       </defs>
       <use xlink:href="#DejaVuSans-35"/>
      </g>
     </g>
    </g>
    <g id="xtick_7">
     <g id="line2d_7">
      <g>
       <use xlink:href="#m9882a2cc50" x="348.99125" y="240.64" style="stroke: #000000; stroke-width: 0.8"/>
      </g>
     </g>
     <g id="text_7">
      <!-- 6 -->
      <g transform="translate(345.491875 255.998281) scale(0.11 -0.11)">
       <defs>
        <path id="DejaVuSans-36" d="M 2113 2584 
Q 1688 2584 1439 2293 
Q 1191 2003 1191 1497 
Q 1191 994 1439 701 
Q 1688 409 2113 409 
Q 2538 409 2786 701 
Q 3034 994 3034 1497 
Q 3034 2003 2786 2293 
Q 2538 2584 2113 2584 
z
M 3366 4563 
L 3366 3988 
Q 3128 4100 2886 4159 
Q 2644 4219 2406 4219 
Q 1781 4219 1451 3797 
Q 1122 3375 1075 2522 
Q 1259 2794 1537 2939 
Q 1816 3084 2150 3084 
Q 2853 3084 3261 2657 
Q 3669 2231 3669 1497 
Q 3669 778 3244 343 
Q 2819 -91 2113 -91 
Q 1303 -91 875 529 
Q 447 1150 447 2328 
Q 447 3434 972 4092 
Q 1497 4750 2381 4750 
Q 2619 4750 2861 4703 
Q 3103 4656 3366 4563 
z
" transform="scale(0.015625)"/>
       </defs>
       <use xlink:href="#DejaVuSans-36"/>
      </g>
     </g>
    </g>
    <g id="xtick_8">
     <g id="line2d_8">
      <g>
       <use xlink:href="#m9882a2cc50" x="397.223125" y="240.64" style="stroke: #000000; stroke-width: 0.8"/>
      </g>
     </g>
     <g id="text_8">
      <!-- 7 -->
      <g transform="translate(393.72375 255.998281) scale(0.11 -0.11)">
       <defs>
        <path id="DejaVuSans-37" d="M 525 4666 
L 3525 4666 
L 3525 4397 
L 1831 0 
L 1172 0 
L 2766 4134 
L 525 4134 
L 525 4666 
z
" transform="scale(0.015625)"/>
       </defs>
       <use xlink:href="#DejaVuSans-37"/>
      </g>
     </g>
    </g>
    <g id="xtick_9">
     <g id="line2d_9">
      <g>
       <use xlink:href="#m9882a2cc50" x="445.455" y="240.64" style="stroke: #000000; stroke-width: 0.8"/>
      </g>
     </g>
     <g id="text_9">
      <!-- 8 -->
      <g transform="translate(441.955625 255.998281) scale(0.11 -0.11)">
       <defs>
        <path id="DejaVuSans-38" d="M 2034 2216 
Q 1584 2216 1326 1975 
Q 1069 1734 1069 1313 
Q 1069 891 1326 650 
Q 1584 409 2034 409 
Q 2484 409 2743 651 
Q 3003 894 3003 1313 
Q 3003 1734 2745 1975 
Q 2488 2216 2034 2216 
z
M 1403 2484 
Q 997 2584 770 2862 
Q 544 3141 544 3541 
Q 544 4100 942 4425 
Q 1341 4750 2034 4750 
Q 2731 4750 3128 4425 
Q 3525 4100 3525 3541 
Q 3525 3141 3298 2862 
Q 3072 2584 2669 2484 
Q 3125 2378 3379 2068 
Q 3634 1759 3634 1313 
Q 3634 634 3220 271 
Q 2806 -91 2034 -91 
Q 1263 -91 848 271 
Q 434 634 434 1313 
Q 434 1759 690 2068 
Q 947 2378 1403 2484 
z
M 1172 3481 
Q 1172 3119 1398 2916 
Q 1625 2713 2034 2713 
Q 2441 2713 2670 2916 
Q 2900 3119 2900 3481 
Q 2900 3844 2670 4047 
Q 2441 4250 2034 4250 
Q 1625 4250 1398 4047 
Q 1172 3844 1172 3481 
z
" transform="scale(0.015625)"/>
       </defs>
       <use xlink:href="#DejaVuSans-38"/>
      </g>
     </g>
    </g>
    <g id="text_10">
     <!-- magnetic field  $\mu_B B / A_{\rm SO}$  (weak $\to$ strong) -->
     <g transform="translate(138.1825 270.645938) scale(0.11 -0.11)">
      <defs>
       <path id="DejaVuSans-6d" d="M 3328 2828 
Q 3544 3216 3844 3400 
Q 4144 3584 4550 3584 
Q 5097 3584 5394 3201 
Q 5691 2819 5691 2113 
L 5691 0 
L 5113 0 
L 5113 2094 
Q 5113 2597 4934 2840 
Q 4756 3084 4391 3084 
Q 3944 3084 3684 2787 
Q 3425 2491 3425 1978 
L 3425 0 
L 2847 0 
L 2847 2094 
Q 2847 2600 2669 2842 
Q 2491 3084 2119 3084 
Q 1678 3084 1418 2786 
Q 1159 2488 1159 1978 
L 1159 0 
L 581 0 
L 581 3500 
L 1159 3500 
L 1159 2956 
Q 1356 3278 1631 3431 
Q 1906 3584 2284 3584 
Q 2666 3584 2933 3390 
Q 3200 3197 3328 2828 
z
" transform="scale(0.015625)"/>
       <path id="DejaVuSans-61" d="M 2194 1759 
Q 1497 1759 1228 1600 
Q 959 1441 959 1056 
Q 959 750 1161 570 
Q 1363 391 1709 391 
Q 2188 391 2477 730 
Q 2766 1069 2766 1631 
L 2766 1759 
L 2194 1759 
z
M 3341 1997 
L 3341 0 
L 2766 0 
L 2766 531 
Q 2569 213 2275 61 
Q 1981 -91 1556 -91 
Q 1019 -91 701 211 
Q 384 513 384 1019 
Q 384 1609 779 1909 
Q 1175 2209 1959 2209 
L 2766 2209 
L 2766 2266 
Q 2766 2663 2505 2880 
Q 2244 3097 1772 3097 
Q 1472 3097 1187 3025 
Q 903 2953 641 2809 
L 641 3341 
Q 956 3463 1253 3523 
Q 1550 3584 1831 3584 
Q 2591 3584 2966 3190 
Q 3341 2797 3341 1997 
z
" transform="scale(0.015625)"/>
       <path id="DejaVuSans-67" d="M 2906 1791 
Q 2906 2416 2648 2759 
Q 2391 3103 1925 3103 
Q 1463 3103 1205 2759 
Q 947 2416 947 1791 
Q 947 1169 1205 825 
Q 1463 481 1925 481 
Q 2391 481 2648 825 
Q 2906 1169 2906 1791 
z
M 3481 434 
Q 3481 -459 3084 -895 
Q 2688 -1331 1869 -1331 
Q 1566 -1331 1297 -1286 
Q 1028 -1241 775 -1147 
L 775 -588 
Q 1028 -725 1275 -790 
Q 1522 -856 1778 -856 
Q 2344 -856 2625 -561 
Q 2906 -266 2906 331 
L 2906 616 
Q 2728 306 2450 153 
Q 2172 0 1784 0 
Q 1141 0 747 490 
Q 353 981 353 1791 
Q 353 2603 747 3093 
Q 1141 3584 1784 3584 
Q 2172 3584 2450 3431 
Q 2728 3278 2906 2969 
L 2906 3500 
L 3481 3500 
L 3481 434 
z
" transform="scale(0.015625)"/>
       <path id="DejaVuSans-6e" d="M 3513 2113 
L 3513 0 
L 2938 0 
L 2938 2094 
Q 2938 2591 2744 2837 
Q 2550 3084 2163 3084 
Q 1697 3084 1428 2787 
Q 1159 2491 1159 1978 
L 1159 0 
L 581 0 
L 581 3500 
L 1159 3500 
L 1159 2956 
Q 1366 3272 1645 3428 
Q 1925 3584 2291 3584 
Q 2894 3584 3203 3211 
Q 3513 2838 3513 2113 
z
" transform="scale(0.015625)"/>
       <path id="DejaVuSans-65" d="M 3597 1894 
L 3597 1613 
L 953 1613 
Q 991 1019 1311 708 
Q 1631 397 2203 397 
Q 2534 397 2845 478 
Q 3156 559 3463 722 
L 3463 178 
Q 3153 47 2828 -22 
Q 2503 -91 2169 -91 
Q 1331 -91 842 396 
Q 353 884 353 1716 
Q 353 2575 817 3079 
Q 1281 3584 2069 3584 
Q 2775 3584 3186 3129 
Q 3597 2675 3597 1894 
z
M 3022 2063 
Q 3016 2534 2758 2815 
Q 2500 3097 2075 3097 
Q 1594 3097 1305 2825 
Q 1016 2553 972 2059 
L 3022 2063 
z
" transform="scale(0.015625)"/>
       <path id="DejaVuSans-74" d="M 1172 4494 
L 1172 3500 
L 2356 3500 
L 2356 3053 
L 1172 3053 
L 1172 1153 
Q 1172 725 1289 603 
Q 1406 481 1766 481 
L 2356 481 
L 2356 0 
L 1766 0 
Q 1100 0 847 248 
Q 594 497 594 1153 
L 594 3053 
L 172 3053 
L 172 3500 
L 594 3500 
L 594 4494 
L 1172 4494 
z
" transform="scale(0.015625)"/>
       <path id="DejaVuSans-69" d="M 603 3500 
L 1178 3500 
L 1178 0 
L 603 0 
L 603 3500 
z
M 603 4863 
L 1178 4863 
L 1178 4134 
L 603 4134 
L 603 4863 
z
" transform="scale(0.015625)"/>
       <path id="DejaVuSans-63" d="M 3122 3366 
L 3122 2828 
Q 2878 2963 2633 3030 
Q 2388 3097 2138 3097 
Q 1578 3097 1268 2742 
Q 959 2388 959 1747 
Q 959 1106 1268 751 
Q 1578 397 2138 397 
Q 2388 397 2633 464 
Q 2878 531 3122 666 
L 3122 134 
Q 2881 22 2623 -34 
Q 2366 -91 2075 -91 
Q 1284 -91 818 406 
Q 353 903 353 1747 
Q 353 2603 823 3093 
Q 1294 3584 2113 3584 
Q 2378 3584 2631 3529 
Q 2884 3475 3122 3366 
z
" transform="scale(0.015625)"/>
       <path id="DejaVuSans-20" transform="scale(0.015625)"/>
       <path id="DejaVuSans-66" d="M 2375 4863 
L 2375 4384 
L 1825 4384 
Q 1516 4384 1395 4259 
Q 1275 4134 1275 3809 
L 1275 3500 
L 2222 3500 
L 2222 3053 
L 1275 3053 
L 1275 0 
L 697 0 
L 697 3053 
L 147 3053 
L 147 3500 
L 697 3500 
L 697 3744 
Q 697 4328 969 4595 
Q 1241 4863 1831 4863 
L 2375 4863 
z
" transform="scale(0.015625)"/>
       <path id="DejaVuSans-6c" d="M 603 4863 
L 1178 4863 
L 1178 0 
L 603 0 
L 603 4863 
z
" transform="scale(0.015625)"/>
       <path id="DejaVuSans-64" d="M 2906 2969 
L 2906 4863 
L 3481 4863 
L 3481 0 
L 2906 0 
L 2906 525 
Q 2725 213 2448 61 
Q 2172 -91 1784 -91 
Q 1150 -91 751 415 
Q 353 922 353 1747 
Q 353 2572 751 3078 
Q 1150 3584 1784 3584 
Q 2172 3584 2448 3432 
Q 2725 3281 2906 2969 
z
M 947 1747 
Q 947 1113 1208 752 
Q 1469 391 1925 391 
Q 2381 391 2643 752 
Q 2906 1113 2906 1747 
Q 2906 2381 2643 2742 
Q 2381 3103 1925 3103 
Q 1469 3103 1208 2742 
Q 947 2381 947 1747 
z
" transform="scale(0.015625)"/>
       <path id="DejaVuSans-Oblique-3bc" d="M -84 -1331 
L 856 3500 
L 1434 3500 
L 1009 1322 
Q 997 1256 987 1175 
Q 978 1094 978 1013 
Q 978 722 1161 565 
Q 1344 409 1684 409 
Q 2147 409 2431 671 
Q 2716 934 2816 1459 
L 3213 3500 
L 3788 3500 
L 3266 809 
Q 3253 750 3248 706 
Q 3244 663 3244 628 
Q 3244 531 3283 486 
Q 3322 441 3406 441 
Q 3438 441 3492 456 
Q 3547 472 3647 513 
L 3559 50 
Q 3422 -19 3297 -55 
Q 3172 -91 3053 -91 
Q 2847 -91 2730 40 
Q 2613 172 2613 403 
Q 2438 153 2195 31 
Q 1953 -91 1625 -91 
Q 1334 -91 1117 43 
Q 900 178 831 397 
L 494 -1331 
L -84 -1331 
z
" transform="scale(0.015625)"/>
       <path id="DejaVuSans-Oblique-42" d="M 1081 4666 
L 2694 4666 
Q 3350 4666 3675 4422 
Q 4000 4178 4000 3688 
Q 4000 3238 3720 2911 
Q 3441 2584 2988 2516 
Q 3375 2428 3569 2181 
Q 3763 1934 3763 1522 
Q 3763 819 3242 409 
Q 2722 0 1819 0 
L 172 0 
L 1081 4666 
z
M 1234 2228 
L 903 519 
L 1919 519 
Q 2491 519 2800 781 
Q 3109 1044 3109 1522 
Q 3109 1891 2904 2059 
Q 2700 2228 2247 2228 
L 1234 2228 
z
M 1606 4147 
L 1331 2741 
L 2272 2741 
Q 2775 2741 3058 2959 
Q 3341 3178 3341 3566 
Q 3341 3869 3150 4008 
Q 2959 4147 2541 4147 
L 1606 4147 
z
" transform="scale(0.015625)"/>
       <path id="DejaVuSans-2f" d="M 1625 4666 
L 2156 4666 
L 531 -594 
L 0 -594 
L 1625 4666 
z
" transform="scale(0.015625)"/>
       <path id="DejaVuSans-Oblique-41" d="M 2356 4666 
L 3072 4666 
L 3938 0 
L 3278 0 
L 3084 1197 
L 984 1197 
L 325 0 
L -341 0 
L 2356 4666 
z
M 2584 4044 
L 1275 1722 
L 2988 1722 
L 2584 4044 
z
" transform="scale(0.015625)"/>
       <path id="DejaVuSans-53" d="M 3425 4513 
L 3425 3897 
Q 3066 4069 2747 4153 
Q 2428 4238 2131 4238 
Q 1616 4238 1336 4038 
Q 1056 3838 1056 3469 
Q 1056 3159 1242 3001 
Q 1428 2844 1947 2747 
L 2328 2669 
Q 3034 2534 3370 2195 
Q 3706 1856 3706 1288 
Q 3706 609 3251 259 
Q 2797 -91 1919 -91 
Q 1588 -91 1214 -16 
Q 841 59 441 206 
L 441 856 
Q 825 641 1194 531 
Q 1563 422 1919 422 
Q 2459 422 2753 634 
Q 3047 847 3047 1241 
Q 3047 1584 2836 1778 
Q 2625 1972 2144 2069 
L 1759 2144 
Q 1053 2284 737 2584 
Q 422 2884 422 3419 
Q 422 4038 858 4394 
Q 1294 4750 2059 4750 
Q 2388 4750 2728 4690 
Q 3069 4631 3425 4513 
z
" transform="scale(0.015625)"/>
       <path id="DejaVuSans-4f" d="M 2522 4238 
Q 1834 4238 1429 3725 
Q 1025 3213 1025 2328 
Q 1025 1447 1429 934 
Q 1834 422 2522 422 
Q 3209 422 3611 934 
Q 4013 1447 4013 2328 
Q 4013 3213 3611 3725 
Q 3209 4238 2522 4238 
z
M 2522 4750 
Q 3503 4750 4090 4092 
Q 4678 3434 4678 2328 
Q 4678 1225 4090 567 
Q 3503 -91 2522 -91 
Q 1538 -91 948 565 
Q 359 1222 359 2328 
Q 359 3434 948 4092 
Q 1538 4750 2522 4750 
z
" transform="scale(0.015625)"/>
       <path id="DejaVuSans-28" d="M 1984 4856 
Q 1566 4138 1362 3434 
Q 1159 2731 1159 2009 
Q 1159 1288 1364 580 
Q 1569 -128 1984 -844 
L 1484 -844 
Q 1016 -109 783 600 
Q 550 1309 550 2009 
Q 550 2706 781 3412 
Q 1013 4119 1484 4856 
L 1984 4856 
z
" transform="scale(0.015625)"/>
       <path id="DejaVuSans-77" d="M 269 3500 
L 844 3500 
L 1563 769 
L 2278 3500 
L 2956 3500 
L 3675 769 
L 4391 3500 
L 4966 3500 
L 4050 0 
L 3372 0 
L 2619 2869 
L 1863 0 
L 1184 0 
L 269 3500 
z
" transform="scale(0.015625)"/>
       <path id="DejaVuSans-6b" d="M 581 4863 
L 1159 4863 
L 1159 1991 
L 2875 3500 
L 3609 3500 
L 1753 1863 
L 3688 0 
L 2938 0 
L 1159 1709 
L 1159 0 
L 581 0 
L 581 4863 
z
" transform="scale(0.015625)"/>
       <path id="DejaVuSans-2192" d="M 5050 2147 
L 5050 1866 
L 3822 638 
L 3447 1013 
L 4175 1741 
L 366 1741 
L 366 2272 
L 4175 2272 
L 3447 3000 
L 3822 3375 
L 5050 2147 
z
" transform="scale(0.015625)"/>
       <path id="DejaVuSans-73" d="M 2834 3397 
L 2834 2853 
Q 2591 2978 2328 3040 
Q 2066 3103 1784 3103 
Q 1356 3103 1142 2972 
Q 928 2841 928 2578 
Q 928 2378 1081 2264 
Q 1234 2150 1697 2047 
L 1894 2003 
Q 2506 1872 2764 1633 
Q 3022 1394 3022 966 
Q 3022 478 2636 193 
Q 2250 -91 1575 -91 
Q 1294 -91 989 -36 
Q 684 19 347 128 
L 347 722 
Q 666 556 975 473 
Q 1284 391 1588 391 
Q 1994 391 2212 530 
Q 2431 669 2431 922 
Q 2431 1156 2273 1281 
Q 2116 1406 1581 1522 
L 1381 1569 
Q 847 1681 609 1914 
Q 372 2147 372 2553 
Q 372 3047 722 3315 
Q 1072 3584 1716 3584 
Q 2034 3584 2315 3537 
Q 2597 3491 2834 3397 
z
" transform="scale(0.015625)"/>
       <path id="DejaVuSans-72" d="M 2631 2963 
Q 2534 3019 2420 3045 
Q 2306 3072 2169 3072 
Q 1681 3072 1420 2755 
Q 1159 2438 1159 1844 
L 1159 0 
L 581 0 
L 581 3500 
L 1159 3500 
L 1159 2956 
Q 1341 3275 1631 3429 
Q 1922 3584 2338 3584 
Q 2397 3584 2469 3576 
Q 2541 3569 2628 3553 
L 2631 2963 
z
" transform="scale(0.015625)"/>
       <path id="DejaVuSans-6f" d="M 1959 3097 
Q 1497 3097 1228 2736 
Q 959 2375 959 1747 
Q 959 1119 1226 758 
Q 1494 397 1959 397 
Q 2419 397 2687 759 
Q 2956 1122 2956 1747 
Q 2956 2369 2687 2733 
Q 2419 3097 1959 3097 
z
M 1959 3584 
Q 2709 3584 3137 3096 
Q 3566 2609 3566 1747 
Q 3566 888 3137 398 
Q 2709 -91 1959 -91 
Q 1206 -91 779 398 
Q 353 888 353 1747 
Q 353 2609 779 3096 
Q 1206 3584 1959 3584 
z
" transform="scale(0.015625)"/>
       <path id="DejaVuSans-29" d="M 513 4856 
L 1013 4856 
Q 1481 4119 1714 3412 
Q 1947 2706 1947 2009 
Q 1947 1309 1714 600 
Q 1481 -109 1013 -844 
L 513 -844 
Q 928 -128 1133 580 
Q 1338 1288 1338 2009 
Q 1338 2731 1133 3434 
Q 928 4138 513 4856 
z
" transform="scale(0.015625)"/>
      </defs>
      <use xlink:href="#DejaVuSans-6d" transform="translate(0 0.015625)"/>
      <use xlink:href="#DejaVuSans-61" transform="translate(97.412109 0.015625)"/>
      <use xlink:href="#DejaVuSans-67" transform="translate(158.691406 0.015625)"/>
      <use xlink:href="#DejaVuSans-6e" transform="translate(222.167969 0.015625)"/>
      <use xlink:href="#DejaVuSans-65" transform="translate(285.546875 0.015625)"/>
      <use xlink:href="#DejaVuSans-74" transform="translate(347.070312 0.015625)"/>
      <use xlink:href="#DejaVuSans-69" transform="translate(386.279297 0.015625)"/>
      <use xlink:href="#DejaVuSans-63" transform="translate(414.0625 0.015625)"/>
      <use xlink:href="#DejaVuSans-20" transform="translate(469.042969 0.015625)"/>
      <use xlink:href="#DejaVuSans-66" transform="translate(500.830078 0.015625)"/>
      <use xlink:href="#DejaVuSans-69" transform="translate(536.035156 0.015625)"/>
      <use xlink:href="#DejaVuSans-65" transform="translate(563.818359 0.015625)"/>
      <use xlink:href="#DejaVuSans-6c" transform="translate(625.341797 0.015625)"/>
      <use xlink:href="#DejaVuSans-64" transform="translate(653.125 0.015625)"/>
      <use xlink:href="#DejaVuSans-20" transform="translate(716.601562 0.015625)"/>
      <use xlink:href="#DejaVuSans-20" transform="translate(748.388672 0.015625)"/>
      <use xlink:href="#DejaVuSans-Oblique-3bc" transform="translate(780.175781 0.015625)"/>
      <use xlink:href="#DejaVuSans-Oblique-42" transform="translate(843.798828 -16.390625) scale(0.7)"/>
      <use xlink:href="#DejaVuSans-Oblique-42" transform="translate(894.555664 0.015625)"/>
      <use xlink:href="#DejaVuSans-2f" transform="translate(963.15918 0.015625)"/>
      <use xlink:href="#DejaVuSans-Oblique-41" transform="translate(996.850586 0.015625)"/>
      <use xlink:href="#DejaVuSans-53" transform="translate(1065.258789 -16.390625) scale(0.7)"/>
      <use xlink:href="#DejaVuSans-4f" transform="translate(1109.692383 -16.390625) scale(0.7)"/>
      <use xlink:href="#DejaVuSans-20" transform="translate(1167.524414 0.015625)"/>
      <use xlink:href="#DejaVuSans-20" transform="translate(1199.311523 0.015625)"/>
      <use xlink:href="#DejaVuSans-28" transform="translate(1231.098633 0.015625)"/>
      <use xlink:href="#DejaVuSans-77" transform="translate(1270.112305 0.015625)"/>
      <use xlink:href="#DejaVuSans-65" transform="translate(1351.899414 0.015625)"/>
      <use xlink:href="#DejaVuSans-61" transform="translate(1413.422852 0.015625)"/>
      <use xlink:href="#DejaVuSans-6b" transform="translate(1474.702148 0.015625)"/>
      <use xlink:href="#DejaVuSans-20" transform="translate(1532.612305 0.015625)"/>
      <use xlink:href="#DejaVuSans-2192" transform="translate(1583.881836 0.015625)"/>
      <use xlink:href="#DejaVuSans-20" transform="translate(1687.15332 0.015625)"/>
      <use xlink:href="#DejaVuSans-73" transform="translate(1718.94043 0.015625)"/>
      <use xlink:href="#DejaVuSans-74" transform="translate(1771.040039 0.015625)"/>
      <use xlink:href="#DejaVuSans-72" transform="translate(1810.249023 0.015625)"/>
      <use xlink:href="#DejaVuSans-6f" transform="translate(1851.362305 0.015625)"/>
      <use xlink:href="#DejaVuSans-6e" transform="translate(1912.543945 0.015625)"/>
      <use xlink:href="#DejaVuSans-67" transform="translate(1975.922852 0.015625)"/>
      <use xlink:href="#DejaVuSans-29" transform="translate(2039.399414 0.015625)"/>
     </g>
    </g>
   </g>
   <g id="matplotlib.axis_2">
    <g id="ytick_1">
     <g id="line2d_10">
      <defs>
       <path id="mc8c5fd8572" d="M 0 0 
L -3.5 0 
" style="stroke: #000000; stroke-width: 0.8"/>
      </defs>
      <g>
       <use xlink:href="#mc8c5fd8572" x="59.6" y="228.037614" style="stroke: #000000; stroke-width: 0.8"/>
      </g>
     </g>
     <g id="text_11">
      <!-- −15 -->
      <g transform="translate(29.384844 232.216754) scale(0.11 -0.11)">
       <defs>
        <path id="DejaVuSans-2212" d="M 678 2272 
L 4684 2272 
L 4684 1741 
L 678 1741 
L 678 2272 
z
" transform="scale(0.015625)"/>
       </defs>
       <use xlink:href="#DejaVuSans-2212"/>
       <use xlink:href="#DejaVuSans-31" transform="translate(83.789062 0)"/>
       <use xlink:href="#DejaVuSans-35" transform="translate(147.412109 0)"/>
      </g>
     </g>
    </g>
    <g id="ytick_2">
     <g id="line2d_11">
      <g>
       <use xlink:href="#mc8c5fd8572" x="59.6" y="198.031932" style="stroke: #000000; stroke-width: 0.8"/>
      </g>
     </g>
     <g id="text_12">
      <!-- −10 -->
      <g transform="translate(29.384844 202.211072) scale(0.11 -0.11)">
       <use xlink:href="#DejaVuSans-2212"/>
       <use xlink:href="#DejaVuSans-31" transform="translate(83.789062 0)"/>
       <use xlink:href="#DejaVuSans-30" transform="translate(147.412109 0)"/>
      </g>
     </g>
    </g>
    <g id="ytick_3">
     <g id="line2d_12">
      <g>
       <use xlink:href="#mc8c5fd8572" x="59.6" y="168.02625" style="stroke: #000000; stroke-width: 0.8"/>
      </g>
     </g>
     <g id="text_13">
      <!-- −5 -->
      <g transform="translate(36.383594 172.205391) scale(0.11 -0.11)">
       <use xlink:href="#DejaVuSans-2212"/>
       <use xlink:href="#DejaVuSans-35" transform="translate(83.789062 0)"/>
      </g>
     </g>
    </g>
    <g id="ytick_4">
     <g id="line2d_13">
      <g>
       <use xlink:href="#mc8c5fd8572" x="59.6" y="138.020568" style="stroke: #000000; stroke-width: 0.8"/>
      </g>
     </g>
     <g id="text_14">
      <!-- 0 -->
      <g transform="translate(45.60125 142.199709) scale(0.11 -0.11)">
       <use xlink:href="#DejaVuSans-30"/>
      </g>
     </g>
    </g>
    <g id="ytick_5">
     <g id="line2d_14">
      <g>
       <use xlink:href="#mc8c5fd8572" x="59.6" y="108.014886" style="stroke: #000000; stroke-width: 0.8"/>
      </g>
     </g>
     <g id="text_15">
      <!-- 5 -->
      <g transform="translate(45.60125 112.194027) scale(0.11 -0.11)">
       <use xlink:href="#DejaVuSans-35"/>
      </g>
     </g>
    </g>
    <g id="ytick_6">
     <g id="line2d_15">
      <g>
       <use xlink:href="#mc8c5fd8572" x="59.6" y="78.009205" style="stroke: #000000; stroke-width: 0.8"/>
      </g>
     </g>
     <g id="text_16">
      <!-- 10 -->
      <g transform="translate(38.6025 82.188345) scale(0.11 -0.11)">
       <use xlink:href="#DejaVuSans-31"/>
       <use xlink:href="#DejaVuSans-30" transform="translate(63.623047 0)"/>
      </g>
     </g>
    </g>
    <g id="ytick_7">
     <g id="line2d_16">
      <g>
       <use xlink:href="#mc8c5fd8572" x="59.6" y="48.003523" style="stroke: #000000; stroke-width: 0.8"/>
      </g>
     </g>
     <g id="text_17">
      <!-- 15 -->
      <g transform="translate(38.6025 52.182663) scale(0.11 -0.11)">
       <use xlink:href="#DejaVuSans-31"/>
       <use xlink:href="#DejaVuSans-35" transform="translate(63.623047 0)"/>
      </g>
     </g>
    </g>
    <g id="text_18">
     <!-- energy shift  (units of spin-orbit $A_{\rm SO}$) -->
     <g transform="translate(23.074844 235.45) rotate(-90) scale(0.11 -0.11)">
      <defs>
       <path id="DejaVuSans-79" d="M 2059 -325 
Q 1816 -950 1584 -1140 
Q 1353 -1331 966 -1331 
L 506 -1331 
L 506 -850 
L 844 -850 
Q 1081 -850 1212 -737 
Q 1344 -625 1503 -206 
L 1606 56 
L 191 3500 
L 800 3500 
L 1894 763 
L 2988 3500 
L 3597 3500 
L 2059 -325 
z
" transform="scale(0.015625)"/>
       <path id="DejaVuSans-68" d="M 3513 2113 
L 3513 0 
L 2938 0 
L 2938 2094 
Q 2938 2591 2744 2837 
Q 2550 3084 2163 3084 
Q 1697 3084 1428 2787 
Q 1159 2491 1159 1978 
L 1159 0 
L 581 0 
L 581 4863 
L 1159 4863 
L 1159 2956 
Q 1366 3272 1645 3428 
Q 1925 3584 2291 3584 
Q 2894 3584 3203 3211 
Q 3513 2838 3513 2113 
z
" transform="scale(0.015625)"/>
       <path id="DejaVuSans-75" d="M 544 1381 
L 544 3500 
L 1119 3500 
L 1119 1403 
Q 1119 906 1312 657 
Q 1506 409 1894 409 
Q 2359 409 2629 706 
Q 2900 1003 2900 1516 
L 2900 3500 
L 3475 3500 
L 3475 0 
L 2900 0 
L 2900 538 
Q 2691 219 2414 64 
Q 2138 -91 1772 -91 
Q 1169 -91 856 284 
Q 544 659 544 1381 
z
M 1991 3584 
L 1991 3584 
z
" transform="scale(0.015625)"/>
       <path id="DejaVuSans-70" d="M 1159 525 
L 1159 -1331 
L 581 -1331 
L 581 3500 
L 1159 3500 
L 1159 2969 
Q 1341 3281 1617 3432 
Q 1894 3584 2278 3584 
Q 2916 3584 3314 3078 
Q 3713 2572 3713 1747 
Q 3713 922 3314 415 
Q 2916 -91 2278 -91 
Q 1894 -91 1617 61 
Q 1341 213 1159 525 
z
M 3116 1747 
Q 3116 2381 2855 2742 
Q 2594 3103 2138 3103 
Q 1681 3103 1420 2742 
Q 1159 2381 1159 1747 
Q 1159 1113 1420 752 
Q 1681 391 2138 391 
Q 2594 391 2855 752 
Q 3116 1113 3116 1747 
z
" transform="scale(0.015625)"/>
       <path id="DejaVuSans-2d" d="M 313 2009 
L 1997 2009 
L 1997 1497 
L 313 1497 
L 313 2009 
z
" transform="scale(0.015625)"/>
       <path id="DejaVuSans-62" d="M 3116 1747 
Q 3116 2381 2855 2742 
Q 2594 3103 2138 3103 
Q 1681 3103 1420 2742 
Q 1159 2381 1159 1747 
Q 1159 1113 1420 752 
Q 1681 391 2138 391 
Q 2594 391 2855 752 
Q 3116 1113 3116 1747 
z
M 1159 2969 
Q 1341 3281 1617 3432 
Q 1894 3584 2278 3584 
Q 2916 3584 3314 3078 
Q 3713 2572 3713 1747 
Q 3713 922 3314 415 
Q 2916 -91 2278 -91 
Q 1894 -91 1617 61 
Q 1341 213 1159 525 
L 1159 0 
L 581 0 
L 581 4863 
L 1159 4863 
L 1159 2969 
z
" transform="scale(0.015625)"/>
      </defs>
      <use xlink:href="#DejaVuSans-65" transform="translate(0 0.015625)"/>
      <use xlink:href="#DejaVuSans-6e" transform="translate(61.523438 0.015625)"/>
      <use xlink:href="#DejaVuSans-65" transform="translate(124.902344 0.015625)"/>
      <use xlink:href="#DejaVuSans-72" transform="translate(186.425781 0.015625)"/>
      <use xlink:href="#DejaVuSans-67" transform="translate(227.539062 0.015625)"/>
      <use xlink:href="#DejaVuSans-79" transform="translate(291.015625 0.015625)"/>
      <use xlink:href="#DejaVuSans-20" transform="translate(350.195312 0.015625)"/>
      <use xlink:href="#DejaVuSans-73" transform="translate(381.982422 0.015625)"/>
      <use xlink:href="#DejaVuSans-68" transform="translate(434.082031 0.015625)"/>
      <use xlink:href="#DejaVuSans-69" transform="translate(497.460938 0.015625)"/>
      <use xlink:href="#DejaVuSans-66" transform="translate(525.244141 0.015625)"/>
      <use xlink:href="#DejaVuSans-74" transform="translate(560.449219 0.015625)"/>
      <use xlink:href="#DejaVuSans-20" transform="translate(599.658203 0.015625)"/>
      <use xlink:href="#DejaVuSans-20" transform="translate(631.445312 0.015625)"/>
      <use xlink:href="#DejaVuSans-28" transform="translate(663.232422 0.015625)"/>
      <use xlink:href="#DejaVuSans-75" transform="translate(702.246094 0.015625)"/>
      <use xlink:href="#DejaVuSans-6e" transform="translate(765.625 0.015625)"/>
      <use xlink:href="#DejaVuSans-69" transform="translate(829.003906 0.015625)"/>
      <use xlink:href="#DejaVuSans-74" transform="translate(856.787109 0.015625)"/>
      <use xlink:href="#DejaVuSans-73" transform="translate(895.996094 0.015625)"/>
      <use xlink:href="#DejaVuSans-20" transform="translate(948.095703 0.015625)"/>
      <use xlink:href="#DejaVuSans-6f" transform="translate(979.882812 0.015625)"/>
      <use xlink:href="#DejaVuSans-66" transform="translate(1041.064453 0.015625)"/>
      <use xlink:href="#DejaVuSans-20" transform="translate(1076.269531 0.015625)"/>
      <use xlink:href="#DejaVuSans-73" transform="translate(1108.056641 0.015625)"/>
      <use xlink:href="#DejaVuSans-70" transform="translate(1160.15625 0.015625)"/>
      <use xlink:href="#DejaVuSans-69" transform="translate(1223.632812 0.015625)"/>
      <use xlink:href="#DejaVuSans-6e" transform="translate(1251.416016 0.015625)"/>
      <use xlink:href="#DejaVuSans-2d" transform="translate(1314.794922 0.015625)"/>
      <use xlink:href="#DejaVuSans-6f" transform="translate(1350.878906 0.015625)"/>
      <use xlink:href="#DejaVuSans-72" transform="translate(1412.060547 0.015625)"/>
      <use xlink:href="#DejaVuSans-62" transform="translate(1453.173828 0.015625)"/>
      <use xlink:href="#DejaVuSans-69" transform="translate(1516.650391 0.015625)"/>
      <use xlink:href="#DejaVuSans-74" transform="translate(1544.433594 0.015625)"/>
      <use xlink:href="#DejaVuSans-20" transform="translate(1583.642578 0.015625)"/>
      <use xlink:href="#DejaVuSans-Oblique-41" transform="translate(1615.429688 0.015625)"/>
      <use xlink:href="#DejaVuSans-53" transform="translate(1683.837891 -16.390625) scale(0.7)"/>
      <use xlink:href="#DejaVuSans-4f" transform="translate(1728.271484 -16.390625) scale(0.7)"/>
      <use xlink:href="#DejaVuSans-29" transform="translate(1786.103516 0.015625)"/>
     </g>
    </g>
   </g>
   <g id="line2d_17">
    <path d="M 59.6 144.021705 
L 76.376304 144.832468 
L 91.862124 145.80152 
L 107.347943 146.982221 
L 109.928913 147.544111 
L 445.455 231.038182 
L 445.455 231.038182 
" clip-path="url(#pced2053ab9)" style="fill: none; stroke: #0072b2; stroke-width: 1.8; stroke-linecap: square"/>
   </g>
   <g id="line2d_18">
    <path d="M 59.6 144.021705 
L 77.666789 143.386229 
L 91.862124 143.048276 
L 107.347943 146.901849 
L 109.928913 147.197883 
L 127.995702 148.835009 
L 149.933946 151.054796 
L 178.324615 154.162804 
L 218.329649 158.783869 
L 278.982441 166.036536 
L 379.640268 178.323543 
L 445.455 186.42624 
L 445.455 186.42624 
" clip-path="url(#pced2053ab9)" style="fill: none; stroke: #d55e00; stroke-width: 1.8; stroke-linecap: square"/>
   </g>
   <g id="line2d_19">
    <path d="M 59.6 135.02 
L 91.862124 143.019085 
L 117.671823 142.55265 
L 152.514916 142.167508 
L 202.843829 141.852673 
L 282.853896 141.595466 
L 424.807241 141.390057 
L 445.455 141.371735 
L 445.455 141.371735 
" clip-path="url(#pced2053ab9)" style="fill: none; stroke: #e69f00; stroke-width: 1.8; stroke-linecap: square"/>
   </g>
   <g id="line2d_20">
    <path d="M 59.6 135.02 
L 76.376304 136.296588 
L 91.862124 137.254322 
L 108.638428 138.053772 
L 126.705217 138.679647 
L 148.643462 139.20185 
L 177.03413 139.635614 
L 215.748679 139.989772 
L 275.110987 140.287584 
L 371.897358 140.525785 
L 445.455 140.624555 
L 445.455 140.624555 
" clip-path="url(#pced2053ab9)" style="fill: none; stroke: #56b4e9; stroke-width: 1.8; stroke-linecap: square"/>
   </g>
   <g id="line2d_21">
    <path d="M 59.6 135.02 
L 77.666789 133.407558 
L 99.605033 131.208056 
L 127.995702 128.115345 
L 166.710251 123.656639 
L 224.782074 116.726982 
L 320.27796 105.085251 
L 445.455 89.660879 
L 445.455 89.660879 
" clip-path="url(#pced2053ab9)" style="fill: none; stroke: #009e73; stroke-width: 1.8; stroke-linecap: square"/>
   </g>
   <g id="line2d_22">
    <path d="M 59.6 135.02 
L 445.455 39.001818 
L 445.455 39.001818 
" clip-path="url(#pced2053ab9)" style="fill: none; stroke: #cc79a7; stroke-width: 1.8; stroke-linecap: square"/>
   </g>
   <g id="patch_3">
    <path d="M 59.6 240.64 
L 59.6 29.4 
" style="fill: none; stroke: #000000; stroke-linejoin: miter; stroke-linecap: square"/>
   </g>
   <g id="patch_4">
    <path d="M 59.6 240.64 
L 445.455 240.64 
" style="fill: none; stroke: #000000; stroke-linejoin: miter; stroke-linecap: square"/>
   </g>
   <g id="text_19">
    <!-- weak field -->
    <g style="fill: #999999" transform="translate(69.246375 46.925509) scale(0.09 -0.09)">
     <use xlink:href="#DejaVuSans-77"/>
     <use xlink:href="#DejaVuSans-65" transform="translate(81.787109 0)"/>
     <use xlink:href="#DejaVuSans-61" transform="translate(143.310547 0)"/>
     <use xlink:href="#DejaVuSans-6b" transform="translate(204.589844 0)"/>
     <use xlink:href="#DejaVuSans-20" transform="translate(262.5 0)"/>
     <use xlink:href="#DejaVuSans-66" transform="translate(294.287109 0)"/>
     <use xlink:href="#DejaVuSans-69" transform="translate(329.492188 0)"/>
     <use xlink:href="#DejaVuSans-65" transform="translate(357.275391 0)"/>
     <use xlink:href="#DejaVuSans-6c" transform="translate(418.798828 0)"/>
     <use xlink:href="#DejaVuSans-64" transform="translate(446.582031 0)"/>
    </g>
    <!-- (Zeeman, good $m_j$) -->
    <g style="fill: #999999" transform="translate(69.246375 57.005227) scale(0.09 -0.09)">
     <defs>
      <path id="DejaVuSans-5a" d="M 359 4666 
L 4025 4666 
L 4025 4184 
L 1075 531 
L 4097 531 
L 4097 0 
L 288 0 
L 288 481 
L 3238 4134 
L 359 4134 
L 359 4666 
z
" transform="scale(0.015625)"/>
      <path id="DejaVuSans-2c" d="M 750 794 
L 1409 794 
L 1409 256 
L 897 -744 
L 494 -744 
L 750 256 
L 750 794 
z
" transform="scale(0.015625)"/>
      <path id="DejaVuSans-Oblique-6d" d="M 5747 2113 
L 5338 0 
L 4763 0 
L 5166 2094 
Q 5191 2228 5203 2325 
Q 5216 2422 5216 2491 
Q 5216 2772 5059 2928 
Q 4903 3084 4622 3084 
Q 4203 3084 3875 2770 
Q 3547 2456 3450 1953 
L 3066 0 
L 2491 0 
L 2900 2094 
Q 2925 2209 2937 2307 
Q 2950 2406 2950 2484 
Q 2950 2769 2794 2926 
Q 2638 3084 2363 3084 
Q 1938 3084 1609 2770 
Q 1281 2456 1184 1953 
L 800 0 
L 225 0 
L 909 3500 
L 1484 3500 
L 1375 2956 
Q 1609 3263 1923 3423 
Q 2238 3584 2597 3584 
Q 2978 3584 3223 3384 
Q 3469 3184 3519 2828 
Q 3781 3197 4126 3390 
Q 4472 3584 4856 3584 
Q 5306 3584 5551 3325 
Q 5797 3066 5797 2591 
Q 5797 2488 5784 2364 
Q 5772 2241 5747 2113 
z
" transform="scale(0.015625)"/>
      <path id="DejaVuSans-Oblique-6a" d="M 928 3500 
L 1503 3500 
L 813 -63 
L 809 -78 
Q 694 -675 544 -897 
Q 403 -1106 132 -1218 
Q -138 -1331 -506 -1331 
L -722 -1331 
L -628 -844 
L -481 -844 
Q -144 -844 -1 -703 
Q 141 -563 238 -63 
L 928 3500 
z
M 1197 4863 
L 1772 4863 
L 1631 4134 
L 1056 4134 
L 1197 4863 
z
" transform="scale(0.015625)"/>
     </defs>
     <use xlink:href="#DejaVuSans-28" transform="translate(0 0.015625)"/>
     <use xlink:href="#DejaVuSans-5a" transform="translate(39.013672 0.015625)"/>
     <use xlink:href="#DejaVuSans-65" transform="translate(107.519531 0.015625)"/>
     <use xlink:href="#DejaVuSans-65" transform="translate(169.042969 0.015625)"/>
     <use xlink:href="#DejaVuSans-6d" transform="translate(230.566406 0.015625)"/>
     <use xlink:href="#DejaVuSans-61" transform="translate(327.978516 0.015625)"/>
     <use xlink:href="#DejaVuSans-6e" transform="translate(389.257812 0.015625)"/>
     <use xlink:href="#DejaVuSans-2c" transform="translate(452.636719 0.015625)"/>
     <use xlink:href="#DejaVuSans-20" transform="translate(484.423828 0.015625)"/>
     <use xlink:href="#DejaVuSans-67" transform="translate(516.210938 0.015625)"/>
     <use xlink:href="#DejaVuSans-6f" transform="translate(579.6875 0.015625)"/>
     <use xlink:href="#DejaVuSans-6f" transform="translate(640.869141 0.015625)"/>
     <use xlink:href="#DejaVuSans-64" transform="translate(702.050781 0.015625)"/>
     <use xlink:href="#DejaVuSans-20" transform="translate(765.527344 0.015625)"/>
     <use xlink:href="#DejaVuSans-Oblique-6d" transform="translate(797.314453 0.015625)"/>
     <use xlink:href="#DejaVuSans-Oblique-6a" transform="translate(894.726562 -16.390625) scale(0.7)"/>
     <use xlink:href="#DejaVuSans-29" transform="translate(916.90918 0.015625)"/>
    </g>
   </g>
   <g id="text_20">
    <!-- strong field -->
    <g style="fill: #999999" transform="translate(315.228937 195.877591) scale(0.09 -0.09)">
     <use xlink:href="#DejaVuSans-73"/>
     <use xlink:href="#DejaVuSans-74" transform="translate(52.099609 0)"/>
     <use xlink:href="#DejaVuSans-72" transform="translate(91.308594 0)"/>
     <use xlink:href="#DejaVuSans-6f" transform="translate(130.171875 0)"/>
     <use xlink:href="#DejaVuSans-6e" transform="translate(191.353516 0)"/>
     <use xlink:href="#DejaVuSans-67" transform="translate(254.732422 0)"/>
     <use xlink:href="#DejaVuSans-20" transform="translate(318.208984 0)"/>
     <use xlink:href="#DejaVuSans-66" transform="translate(349.996094 0)"/>
     <use xlink:href="#DejaVuSans-69" transform="translate(385.201172 0)"/>
     <use xlink:href="#DejaVuSans-65" transform="translate(412.984375 0)"/>
     <use xlink:href="#DejaVuSans-6c" transform="translate(474.507812 0)"/>
     <use xlink:href="#DejaVuSans-64" transform="translate(502.291016 0)"/>
    </g>
    <!-- (Paschen–Back, -->
    <g style="fill: #999999" transform="translate(315.228937 205.955622) scale(0.09 -0.09)">
     <defs>
      <path id="DejaVuSans-50" d="M 1259 4147 
L 1259 2394 
L 2053 2394 
Q 2494 2394 2734 2622 
Q 2975 2850 2975 3272 
Q 2975 3691 2734 3919 
Q 2494 4147 2053 4147 
L 1259 4147 
z
M 628 4666 
L 2053 4666 
Q 2838 4666 3239 4311 
Q 3641 3956 3641 3272 
Q 3641 2581 3239 2228 
Q 2838 1875 2053 1875 
L 1259 1875 
L 1259 0 
L 628 0 
L 628 4666 
z
" transform="scale(0.015625)"/>
      <path id="DejaVuSans-2013" d="M 313 1978 
L 2888 1978 
L 2888 1528 
L 313 1528 
L 313 1978 
z
" transform="scale(0.015625)"/>
      <path id="DejaVuSans-42" d="M 1259 2228 
L 1259 519 
L 2272 519 
Q 2781 519 3026 730 
Q 3272 941 3272 1375 
Q 3272 1813 3026 2020 
Q 2781 2228 2272 2228 
L 1259 2228 
z
M 1259 4147 
L 1259 2741 
L 2194 2741 
Q 2656 2741 2882 2914 
Q 3109 3088 3109 3444 
Q 3109 3797 2882 3972 
Q 2656 4147 2194 4147 
L 1259 4147 
z
M 628 4666 
L 2241 4666 
Q 2963 4666 3353 4366 
Q 3744 4066 3744 3513 
Q 3744 3084 3544 2831 
Q 3344 2578 2956 2516 
Q 3422 2416 3680 2098 
Q 3938 1781 3938 1306 
Q 3938 681 3513 340 
Q 3088 0 2303 0 
L 628 0 
L 628 4666 
z
" transform="scale(0.015625)"/>
     </defs>
     <use xlink:href="#DejaVuSans-28"/>
     <use xlink:href="#DejaVuSans-50" transform="translate(39.013672 0)"/>
     <use xlink:href="#DejaVuSans-61" transform="translate(94.816406 0)"/>
     <use xlink:href="#DejaVuSans-73" transform="translate(156.095703 0)"/>
     <use xlink:href="#DejaVuSans-63" transform="translate(208.195312 0)"/>
     <use xlink:href="#DejaVuSans-68" transform="translate(263.175781 0)"/>
     <use xlink:href="#DejaVuSans-65" transform="translate(326.554688 0)"/>
     <use xlink:href="#DejaVuSans-6e" transform="translate(388.078125 0)"/>
     <use xlink:href="#DejaVuSans-2013" transform="translate(451.457031 0)"/>
     <use xlink:href="#DejaVuSans-42" transform="translate(501.457031 0)"/>
     <use xlink:href="#DejaVuSans-61" transform="translate(570.060547 0)"/>
     <use xlink:href="#DejaVuSans-63" transform="translate(631.339844 0)"/>
     <use xlink:href="#DejaVuSans-6b" transform="translate(686.320312 0)"/>
     <use xlink:href="#DejaVuSans-2c" transform="translate(744.230469 0)"/>
    </g>
    <!-- good $m_\ell,m_s$) -->
    <g style="fill: #999999" transform="translate(315.228937 216.035341) scale(0.09 -0.09)">
     <defs>
      <path id="DejaVuSans-Oblique-2113" d="M 950 838 
Q 1078 213 1350 213 
Q 1531 213 1766 572 
L 2181 572 
Q 1994 253 1775 88 
Q 1538 -91 1319 -91 
Q 831 -91 634 344 
L 400 0 
L -88 0 
Q 250 459 500 888 
Q 469 1131 469 1397 
Q 469 1872 566 2347 
Q 931 4131 1256 4497 
Q 1481 4750 1866 4750 
Q 2256 4750 2256 4209 
Q 2253 3966 2197 3675 
Q 1972 2484 950 838 
z
M 947 1656 
Q 1531 2744 1709 3613 
Q 1803 4072 1803 4191 
Q 1803 4406 1725 4406 
Q 1384 4134 1081 2516 
Q 997 2063 947 1656 
z
" transform="scale(0.015625)"/>
      <path id="DejaVuSans-Oblique-73" d="M 3200 3397 
L 3091 2853 
Q 2863 2978 2609 3040 
Q 2356 3103 2088 3103 
Q 1634 3103 1373 2948 
Q 1113 2794 1113 2528 
Q 1113 2219 1719 2053 
Q 1766 2041 1788 2034 
L 1972 1978 
Q 2547 1819 2739 1644 
Q 2931 1469 2931 1166 
Q 2931 609 2489 259 
Q 2047 -91 1331 -91 
Q 1053 -91 747 -37 
Q 441 16 72 128 
L 184 722 
Q 500 559 806 475 
Q 1113 391 1394 391 
Q 1816 391 2080 572 
Q 2344 753 2344 1031 
Q 2344 1331 1650 1516 
L 1591 1531 
L 1394 1581 
Q 956 1697 753 1886 
Q 550 2075 550 2369 
Q 550 2928 970 3256 
Q 1391 3584 2113 3584 
Q 2397 3584 2667 3537 
Q 2938 3491 3200 3397 
z
" transform="scale(0.015625)"/>
     </defs>
     <use xlink:href="#DejaVuSans-67" transform="translate(0 0.015625)"/>
     <use xlink:href="#DejaVuSans-6f" transform="translate(63.476562 0.015625)"/>
     <use xlink:href="#DejaVuSans-6f" transform="translate(124.658203 0.015625)"/>
     <use xlink:href="#DejaVuSans-64" transform="translate(185.839844 0.015625)"/>
     <use xlink:href="#DejaVuSans-20" transform="translate(249.316406 0.015625)"/>
     <use xlink:href="#DejaVuSans-Oblique-6d" transform="translate(281.103516 0.015625)"/>
     <use xlink:href="#DejaVuSans-Oblique-2113" transform="translate(378.515625 -16.390625) scale(0.7)"/>
     <use xlink:href="#DejaVuSans-2c" transform="translate(410.166016 0.015625)"/>
     <use xlink:href="#DejaVuSans-Oblique-6d" transform="translate(461.435547 0.015625)"/>
     <use xlink:href="#DejaVuSans-Oblique-73" transform="translate(558.847656 -16.390625) scale(0.7)"/>
     <use xlink:href="#DejaVuSans-29" transform="translate(598.051758 0.015625)"/>
    </g>
   </g>
   <g id="text_21">
    <!-- Hydrogen 2p: Zeeman $\to$ Paschen–Back (6-level diagonalization) -->
    <g transform="translate(56.6275 23.4) scale(0.12 -0.12)">
     <defs>
      <path id="DejaVuSans-48" d="M 628 4666 
L 1259 4666 
L 1259 2753 
L 3553 2753 
L 3553 4666 
L 4184 4666 
L 4184 0 
L 3553 0 
L 3553 2222 
L 1259 2222 
L 1259 0 
L 628 0 
L 628 4666 
z
" transform="scale(0.015625)"/>
      <path id="DejaVuSans-3a" d="M 750 794 
L 1409 794 
L 1409 0 
L 750 0 
L 750 794 
z
M 750 3309 
L 1409 3309 
L 1409 2516 
L 750 2516 
L 750 3309 
z
" transform="scale(0.015625)"/>
      <path id="DejaVuSansDisplay-2013" d="M 313 1978 
L 2888 1978 
L 2888 1528 
L 313 1528 
L 313 1978 
z
" transform="scale(0.015625)"/>
      <path id="DejaVuSans-76" d="M 191 3500 
L 800 3500 
L 1894 563 
L 2988 3500 
L 3597 3500 
L 2284 0 
L 1503 0 
L 191 3500 
z
" transform="scale(0.015625)"/>
      <path id="DejaVuSans-7a" d="M 353 3500 
L 3084 3500 
L 3084 2975 
L 922 459 
L 3084 459 
L 3084 0 
L 275 0 
L 275 525 
L 2438 3041 
L 353 3041 
L 353 3500 
z
" transform="scale(0.015625)"/>
     </defs>
     <use xlink:href="#DejaVuSans-48" transform="translate(0 0.015625)"/>
     <use xlink:href="#DejaVuSans-79" transform="translate(75.195312 0.015625)"/>
     <use xlink:href="#DejaVuSans-64" transform="translate(134.375 0.015625)"/>
     <use xlink:href="#DejaVuSans-72" transform="translate(197.851562 0.015625)"/>
     <use xlink:href="#DejaVuSans-6f" transform="translate(238.964844 0.015625)"/>
     <use xlink:href="#DejaVuSans-67" transform="translate(300.146484 0.015625)"/>
     <use xlink:href="#DejaVuSans-65" transform="translate(363.623047 0.015625)"/>
     <use xlink:href="#DejaVuSans-6e" transform="translate(425.146484 0.015625)"/>
     <use xlink:href="#DejaVuSans-20" transform="translate(488.525391 0.015625)"/>
     <use xlink:href="#DejaVuSans-32" transform="translate(520.3125 0.015625)"/>
     <use xlink:href="#DejaVuSans-70" transform="translate(583.935547 0.015625)"/>
     <use xlink:href="#DejaVuSans-3a" transform="translate(647.412109 0.015625)"/>
     <use xlink:href="#DejaVuSans-20" transform="translate(681.103516 0.015625)"/>
     <use xlink:href="#DejaVuSans-5a" transform="translate(712.890625 0.015625)"/>
     <use xlink:href="#DejaVuSans-65" transform="translate(781.396484 0.015625)"/>
     <use xlink:href="#DejaVuSans-65" transform="translate(842.919922 0.015625)"/>
     <use xlink:href="#DejaVuSans-6d" transform="translate(904.443359 0.015625)"/>
     <use xlink:href="#DejaVuSans-61" transform="translate(1001.855469 0.015625)"/>
     <use xlink:href="#DejaVuSans-6e" transform="translate(1063.134766 0.015625)"/>
     <use xlink:href="#DejaVuSans-20" transform="translate(1126.513672 0.015625)"/>
     <use xlink:href="#DejaVuSans-2192" transform="translate(1177.783203 0.015625)"/>
     <use xlink:href="#DejaVuSans-20" transform="translate(1281.054688 0.015625)"/>
     <use xlink:href="#DejaVuSans-50" transform="translate(1312.841797 0.015625)"/>
     <use xlink:href="#DejaVuSans-61" transform="translate(1373.144531 0.015625)"/>
     <use xlink:href="#DejaVuSans-73" transform="translate(1434.423828 0.015625)"/>
     <use xlink:href="#DejaVuSans-63" transform="translate(1486.523438 0.015625)"/>
     <use xlink:href="#DejaVuSans-68" transform="translate(1541.503906 0.015625)"/>
     <use xlink:href="#DejaVuSans-65" transform="translate(1604.882812 0.015625)"/>
     <use xlink:href="#DejaVuSans-6e" transform="translate(1666.40625 0.015625)"/>
     <use xlink:href="#DejaVuSansDisplay-2013" transform="translate(1729.785156 0.015625)"/>
     <use xlink:href="#DejaVuSans-42" transform="translate(1779.785156 0.015625)"/>
     <use xlink:href="#DejaVuSans-61" transform="translate(1848.388672 0.015625)"/>
     <use xlink:href="#DejaVuSans-63" transform="translate(1909.667969 0.015625)"/>
     <use xlink:href="#DejaVuSans-6b" transform="translate(1964.648438 0.015625)"/>
     <use xlink:href="#DejaVuSans-20" transform="translate(2022.558594 0.015625)"/>
     <use xlink:href="#DejaVuSans-28" transform="translate(2054.345703 0.015625)"/>
     <use xlink:href="#DejaVuSans-36" transform="translate(2093.359375 0.015625)"/>
     <use xlink:href="#DejaVuSans-2d" transform="translate(2156.982422 0.015625)"/>
     <use xlink:href="#DejaVuSans-6c" transform="translate(2193.066406 0.015625)"/>
     <use xlink:href="#DejaVuSans-65" transform="translate(2220.849609 0.015625)"/>
     <use xlink:href="#DejaVuSans-76" transform="translate(2282.373047 0.015625)"/>
     <use xlink:href="#DejaVuSans-65" transform="translate(2341.552734 0.015625)"/>
     <use xlink:href="#DejaVuSans-6c" transform="translate(2403.076172 0.015625)"/>
     <use xlink:href="#DejaVuSans-20" transform="translate(2430.859375 0.015625)"/>
     <use xlink:href="#DejaVuSans-64" transform="translate(2462.646484 0.015625)"/>
     <use xlink:href="#DejaVuSans-69" transform="translate(2526.123047 0.015625)"/>
     <use xlink:href="#DejaVuSans-61" transform="translate(2553.90625 0.015625)"/>
     <use xlink:href="#DejaVuSans-67" transform="translate(2615.185547 0.015625)"/>
     <use xlink:href="#DejaVuSans-6f" transform="translate(2678.662109 0.015625)"/>
     <use xlink:href="#DejaVuSans-6e" transform="translate(2739.84375 0.015625)"/>
     <use xlink:href="#DejaVuSans-61" transform="translate(2803.222656 0.015625)"/>
     <use xlink:href="#DejaVuSans-6c" transform="translate(2864.501953 0.015625)"/>
     <use xlink:href="#DejaVuSans-69" transform="translate(2892.285156 0.015625)"/>
     <use xlink:href="#DejaVuSans-7a" transform="translate(2920.068359 0.015625)"/>
     <use xlink:href="#DejaVuSans-61" transform="translate(2972.558594 0.015625)"/>
     <use xlink:href="#DejaVuSans-74" transform="translate(3033.837891 0.015625)"/>
     <use xlink:href="#DejaVuSans-69" transform="translate(3073.046875 0.015625)"/>
     <use xlink:href="#DejaVuSans-6f" transform="translate(3100.830078 0.015625)"/>
     <use xlink:href="#DejaVuSans-6e" transform="translate(3162.011719 0.015625)"/>
     <use xlink:href="#DejaVuSans-29" transform="translate(3225.390625 0.015625)"/>
    </g>
   </g>
  </g>
 </g>
 <defs>
  <clipPath id="pced2053ab9">
   <rect x="59.6" y="29.4" width="385.855" height="211.24"/>
  </clipPath>
 </defs>
</svg>
