<?xml version="1.0" encoding="utf-8" standalone="no"?>
<!DOCTYPE svg PUBLIC "-//W3C//DTD SVG 1.1//EN"
  "http://www.w3.org/Graphics/SVG/1.1/DTD/svg11.dtd">
<svg xmlns:xlink="http://www.w3.org/1999/xlink" width="460.8pt" height="288pt" viewBox="0 0 460.8 288" xmlns="http://www.w3.org/2000/svg" version="1.1">
 <metadata>
  <rdf:RDF xmlns:dc="http://purl.org/dc/elements/1.1/" xmlns:cc="http://creativecommons.org/ns#" xmlns:rdf="http://www.w3.org/1999/02/22-rdf-syntax-ns#">
   <cc:Work>
    <dc:type rdf:resource="http://purl.org/dc/dcmitype/StillImage"/>
    <dc:date>2026-06-04T06:17:08.980031</dc:date>
    <dc:format>image/svg+xml</dc:format>
    <dc:creator>
     <cc:Agent>
      <dc:title>Matplotlib v3.10.8, https://matplotlib.org/</dc:title>
     </cc:Agent>
    </dc:creator>
   </cc:Work>
  </rdf:RDF>
 </metadata>
 <defs>
  <style type="text/css">*{stroke-linejoin: round; stroke-linecap: butt}</style>
 </defs>
 <g id="figure_1">
  <g id="patch_1">
   <path d="M 0 288 
L 460.8 288 
L 460.8 0 
L 0 0 
z
" style="fill: #ffffff"/>
  </g>
  <g id="axes_1">
   <g id="patch_2">
    <path d="M 56.684 232.024696 
L 440.19 232.024696 
L 440.19 29.4 
L 56.684 29.4 
z
" style="fill: #ffffff"/>
   </g>
   <g id="matplotlib.axis_1">
    <g id="xtick_1">
     <g id="line2d_1">
      <defs>
       <path id="m7f51a48350" d="M 0 0 
L 0 3.5 
" style="stroke: #000000; stroke-width: 0.8"/>
      </defs>
      <g>
       <use xlink:href="#m7f51a48350" x="56.684" y="232.024696" style="stroke: #000000; stroke-width: 0.8"/>
      </g>
     </g>
     <g id="text_1">
      <!-- 0.0 -->
      <g transform="translate(47.937281 247.382977) scale(0.11 -0.11)">
       <defs>
        <path id="DejaVuSans-30" d="M 2034 4250 
Q 1547 4250 1301 3770 
Q 1056 3291 1056 2328 
Q 1056 1369 1301 889 
Q 1547 409 2034 409 
Q 2525 409 2770 889 
Q 3016 1369 3016 2328 
Q 3016 3291 2770 3770 
Q 2525 4250 2034 4250 
z
M 2034 4750 
Q 2819 4750 3233 4129 
Q 3647 3509 3647 2328 
Q 3647 1150 3233 529 
Q 2819 -91 2034 -91 
Q 1250 -91 836 529 
Q 422 1150 422 2328 
Q 422 3509 836 4129 
Q 1250 4750 2034 4750 
z
" transform="scale(0.015625)"/>
        <path id="DejaVuSans-2e" d="M 684 794 
L 1344 794 
L 1344 0 
L 684 0 
L 684 794 
z
" transform="scale(0.015625)"/>
       </defs>
       <use xlink:href="#DejaVuSans-30"/>
       <use xlink:href="#DejaVuSans-2e" transform="translate(63.623047 0)"/>
       <use xlink:href="#DejaVuSans-30" transform="translate(95.410156 0)"/>
      </g>
     </g>
    </g>
    <g id="xtick_2">
     <g id="line2d_2">
      <g>
       <use xlink:href="#m7f51a48350" x="120.601667" y="232.024696" style="stroke: #000000; stroke-width: 0.8"/>
      </g>
     </g>
     <g id="text_2">
      <!-- 0.5 -->
      <g transform="translate(111.854948 247.382977) scale(0.11 -0.11)">
       <defs>
        <path id="DejaVuSans-35" d="M 691 4666 
L 3169 4666 
L 3169 4134 
L 1269 4134 
L 1269 2991 
Q 1406 3038 1543 3061 
Q 1681 3084 1819 3084 
Q 2600 3084 3056 2656 
Q 3513 2228 3513 1497 
Q 3513 744 3044 326 
Q 2575 -91 1722 -91 
Q 1428 -91 1123 -41 
Q 819 9 494 109 
L 494 744 
Q 775 591 1075 516 
Q 1375 441 1709 441 
Q 2250 441 2565 725 
Q 2881 1009 2881 1497 
Q 2881 1984 2565 2268 
Q 2250 2553 1709 2553 
Q 1456 2553 1204 2497 
Q 953 2441 691 2322 
L 691 4666 
z
" transform="scale(0.015625)"/>
       </defs>
       <use xlink:href="#DejaVuSans-30"/>
       <use xlink:href="#DejaVuSans-2e" transform="translate(63.623047 0)"/>
       <use xlink:href="#DejaVuSans-35" transform="translate(95.410156 0)"/>
      </g>
     </g>
    </g>
    <g id="xtick_3">
     <g id="line2d_3">
      <g>
       <use xlink:href="#m7f51a48350" x="184.519333" y="232.024696" style="stroke: #000000; stroke-width: 0.8"/>
      </g>
     </g>
     <g id="text_3">
      <!-- 1.0 -->
      <g transform="translate(175.772615 247.382977) scale(0.11 -0.11)">
       <defs>
        <path id="DejaVuSans-31" d="M 794 531 
L 1825 531 
L 1825 4091 
L 703 3866 
L 703 4441 
L 1819 4666 
L 2450 4666 
L 2450 531 
L 3481 531 
L 3481 0 
L 794 0 
L 794 531 
z
" transform="scale(0.015625)"/>
       </defs>
       <use xlink:href="#DejaVuSans-31"/>
       <use xlink:href="#DejaVuSans-2e" transform="translate(63.623047 0)"/>
       <use xlink:href="#DejaVuSans-30" transform="translate(95.410156 0)"/>
      </g>
     </g>
    </g>
    <g id="xtick_4">
     <g id="line2d_4">
      <g>
       <use xlink:href="#m7f51a48350" x="248.437" y="232.024696" style="stroke: #000000; stroke-width: 0.8"/>
      </g>
     </g>
     <g id="text_4">
      <!-- 1.5 -->
      <g transform="translate(239.690281 247.382977) scale(0.11 -0.11)">
       <use xlink:href="#DejaVuSans-31"/>
       <use xlink:href="#DejaVuSans-2e" transform="translate(63.623047 0)"/>
       <use xlink:href="#DejaVuSans-35" transform="translate(95.410156 0)"/>
      </g>
     </g>
    </g>
    <g id="xtick_5">
     <g id="line2d_5">
      <g>
       <use xlink:href="#m7f51a48350" x="312.354667" y="232.024696" style="stroke: #000000; stroke-width: 0.8"/>
      </g>
     </g>
     <g id="text_5">
      <!-- 2.0 -->
      <g transform="translate(303.607948 247.382977) scale(0.11 -0.11)">
       <defs>
        <path id="DejaVuSans-32" d="M 1228 531 
L 3431 531 
L 3431 0 
L 469 0 
L 469 531 
Q 828 903 1448 1529 
Q 2069 2156 2228 2338 
Q 2531 2678 2651 2914 
Q 2772 3150 2772 3378 
Q 2772 3750 2511 3984 
Q 2250 4219 1831 4219 
Q 1534 4219 1204 4116 
Q 875 4013 500 3803 
L 500 4441 
Q 881 4594 1212 4672 
Q 1544 4750 1819 4750 
Q 2544 4750 2975 4387 
Q 3406 4025 3406 3419 
Q 3406 3131 3298 2873 
Q 3191 2616 2906 2266 
Q 2828 2175 2409 1742 
Q 1991 1309 1228 531 
z
" transform="scale(0.015625)"/>
       </defs>
       <use xlink:href="#DejaVuSans-32"/>
       <use xlink:href="#DejaVuSans-2e" transform="translate(63.623047 0)"/>
       <use xlink:href="#DejaVuSans-30" transform="translate(95.410156 0)"/>
      </g>
     </g>
    </g>
    <g id="xtick_6">
     <g id="line2d_6">
      <g>
       <use xlink:href="#m7f51a48350" x="376.272333" y="232.024696" style="stroke: #000000; stroke-width: 0.8"/>
      </g>
     </g>
     <g id="text_6">
      <!-- 2.5 -->
      <g transform="translate(367.525615 247.382977) scale(0.11 -0.11)">
       <use xlink:href="#DejaVuSans-32"/>
       <use xlink:href="#DejaVuSans-2e" transform="translate(63.623047 0)"/>
       <use xlink:href="#DejaVuSans-35" transform="translate(95.410156 0)"/>
      </g>
     </g>
    </g>
    <g id="xtick_7">
     <g id="line2d_7">
      <g>
       <use xlink:href="#m7f51a48350" x="440.19" y="232.024696" style="stroke: #000000; stroke-width: 0.8"/>
      </g>
     </g>
     <g id="text_7">
      <!-- 3.0 -->
      <g transform="translate(431.443281 247.382977) scale(0.11 -0.11)">
       <defs>
        <path id="DejaVuSans-33" d="M 2597 2516 
Q 3050 2419 3304 2112 
Q 3559 1806 3559 1356 
Q 3559 666 3084 287 
Q 2609 -91 1734 -91 
Q 1441 -91 1130 -33 
Q 819 25 488 141 
L 488 750 
Q 750 597 1062 519 
Q 1375 441 1716 441 
Q 2309 441 2620 675 
Q 2931 909 2931 1356 
Q 2931 1769 2642 2001 
Q 2353 2234 1838 2234 
L 1294 2234 
L 1294 2753 
L 1863 2753 
Q 2328 2753 2575 2939 
Q 2822 3125 2822 3475 
Q 2822 3834 2567 4026 
Q 2313 4219 1838 4219 
Q 1578 4219 1281 4162 
Q 984 4106 628 3988 
L 628 4550 
Q 988 4650 1302 4700 
Q 1616 4750 1894 4750 
Q 2613 4750 3031 4423 
Q 3450 4097 3450 3541 
Q 3450 3153 3228 2886 
Q 3006 2619 2597 2516 
z
" transform="scale(0.015625)"/>
       </defs>
       <use xlink:href="#DejaVuSans-33"/>
       <use xlink:href="#DejaVuSans-2e" transform="translate(63.623047 0)"/>
       <use xlink:href="#DejaVuSans-30" transform="translate(95.410156 0)"/>
      </g>
     </g>
    </g>
    <g id="text_8">
     <!-- position  $x/a$ -->
     <g transform="translate(214.667 262.030633) scale(0.11 -0.11)">
      <defs>
       <path id="DejaVuSans-70" d="M 1159 525 
L 1159 -1331 
L 581 -1331 
L 581 3500 
L 1159 3500 
L 1159 2969 
Q 1341 3281 1617 3432 
Q 1894 3584 2278 3584 
Q 2916 3584 3314 3078 
Q 3713 2572 3713 1747 
Q 3713 922 3314 415 
Q 2916 -91 2278 -91 
Q 1894 -91 1617 61 
Q 1341 213 1159 525 
z
M 3116 1747 
Q 3116 2381 2855 2742 
Q 2594 3103 2138 3103 
Q 1681 3103 1420 2742 
Q 1159 2381 1159 1747 
Q 1159 1113 1420 752 
Q 1681 391 2138 391 
Q 2594 391 2855 752 
Q 3116 1113 3116 1747 
z
" transform="scale(0.015625)"/>
       <path id="DejaVuSans-6f" d="M 1959 3097 
Q 1497 3097 1228 2736 
Q 959 2375 959 1747 
Q 959 1119 1226 758 
Q 1494 397 1959 397 
Q 2419 397 2687 759 
Q 2956 1122 2956 1747 
Q 2956 2369 2687 2733 
Q 2419 3097 1959 3097 
z
M 1959 3584 
Q 2709 3584 3137 3096 
Q 3566 2609 3566 1747 
Q 3566 888 3137 398 
Q 2709 -91 1959 -91 
Q 1206 -91 779 398 
Q 353 888 353 1747 
Q 353 2609 779 3096 
Q 1206 3584 1959 3584 
z
" transform="scale(0.015625)"/>
       <path id="DejaVuSans-73" d="M 2834 3397 
L 2834 2853 
Q 2591 2978 2328 3040 
Q 2066 3103 1784 3103 
Q 1356 3103 1142 2972 
Q 928 2841 928 2578 
Q 928 2378 1081 2264 
Q 1234 2150 1697 2047 
L 1894 2003 
Q 2506 1872 2764 1633 
Q 3022 1394 3022 966 
Q 3022 478 2636 193 
Q 2250 -91 1575 -91 
Q 1294 -91 989 -36 
Q 684 19 347 128 
L 347 722 
Q 666 556 975 473 
Q 1284 391 1588 391 
Q 1994 391 2212 530 
Q 2431 669 2431 922 
Q 2431 1156 2273 1281 
Q 2116 1406 1581 1522 
L 1381 1569 
Q 847 1681 609 1914 
Q 372 2147 372 2553 
Q 372 3047 722 3315 
Q 1072 3584 1716 3584 
Q 2034 3584 2315 3537 
Q 2597 3491 2834 3397 
z
" transform="scale(0.015625)"/>
       <path id="DejaVuSans-69" d="M 603 3500 
L 1178 3500 
L 1178 0 
L 603 0 
L 603 3500 
z
M 603 4863 
L 1178 4863 
L 1178 4134 
L 603 4134 
L 603 4863 
z
" transform="scale(0.015625)"/>
       <path id="DejaVuSans-74" d="M 1172 4494 
L 1172 3500 
L 2356 3500 
L 2356 3053 
L 1172 3053 
L 1172 1153 
Q 1172 725 1289 603 
Q 1406 481 1766 481 
L 2356 481 
L 2356 0 
L 1766 0 
Q 1100 0 847 248 
Q 594 497 594 1153 
L 594 3053 
L 172 3053 
L 172 3500 
L 594 3500 
L 594 4494 
L 1172 4494 
z
" transform="scale(0.015625)"/>
       <path id="DejaVuSans-6e" d="M 3513 2113 
L 3513 0 
L 2938 0 
L 2938 2094 
Q 2938 2591 2744 2837 
Q 2550 3084 2163 3084 
Q 1697 3084 1428 2787 
Q 1159 2491 1159 1978 
L 1159 0 
L 581 0 
L 581 3500 
L 1159 3500 
L 1159 2956 
Q 1366 3272 1645 3428 
Q 1925 3584 2291 3584 
Q 2894 3584 3203 3211 
Q 3513 2838 3513 2113 
z
" transform="scale(0.015625)"/>
       <path id="DejaVuSans-20" transform="scale(0.015625)"/>
       <path id="DejaVuSans-Oblique-78" d="M 3841 3500 
L 2234 1784 
L 3219 0 
L 2559 0 
L 1819 1388 
L 531 0 
L -166 0 
L 1556 1844 
L 641 3500 
L 1300 3500 
L 1972 2234 
L 3144 3500 
L 3841 3500 
z
" transform="scale(0.015625)"/>
       <path id="DejaVuSans-2f" d="M 1625 4666 
L 2156 4666 
L 531 -594 
L 0 -594 
L 1625 4666 
z
" transform="scale(0.015625)"/>
       <path id="DejaVuSans-Oblique-61" d="M 3438 1997 
L 3047 0 
L 2472 0 
L 2578 531 
Q 2325 219 2001 64 
Q 1678 -91 1281 -91 
Q 834 -91 548 182 
Q 263 456 263 884 
Q 263 1497 752 1853 
Q 1241 2209 2100 2209 
L 2900 2209 
L 2931 2363 
Q 2938 2388 2941 2417 
Q 2944 2447 2944 2509 
Q 2944 2788 2717 2942 
Q 2491 3097 2081 3097 
Q 1800 3097 1504 3025 
Q 1209 2953 897 2809 
L 997 3341 
Q 1322 3463 1633 3523 
Q 1944 3584 2234 3584 
Q 2853 3584 3176 3315 
Q 3500 3047 3500 2534 
Q 3500 2431 3484 2292 
Q 3469 2153 3438 1997 
z
M 2816 1759 
L 2241 1759 
Q 1534 1759 1195 1570 
Q 856 1381 856 984 
Q 856 709 1029 553 
Q 1203 397 1509 397 
Q 1978 397 2328 733 
Q 2678 1069 2791 1631 
L 2816 1759 
z
" transform="scale(0.015625)"/>
      </defs>
      <use xlink:href="#DejaVuSans-70" transform="translate(0 0.015625)"/>
      <use xlink:href="#DejaVuSans-6f" transform="translate(63.476562 0.015625)"/>
      <use xlink:href="#DejaVuSans-73" transform="translate(124.658203 0.015625)"/>
      <use xlink:href="#DejaVuSans-69" transform="translate(176.757812 0.015625)"/>
      <use xlink:href="#DejaVuSans-74" transform="translate(204.541016 0.015625)"/>
      <use xlink:href="#DejaVuSans-69" transform="translate(243.75 0.015625)"/>
      <use xlink:href="#DejaVuSans-6f" transform="translate(271.533203 0.015625)"/>
      <use xlink:href="#DejaVuSans-6e" transform="translate(332.714844 0.015625)"/>
      <use xlink:href="#DejaVuSans-20" transform="translate(396.09375 0.015625)"/>
      <use xlink:href="#DejaVuSans-20" transform="translate(427.880859 0.015625)"/>
      <use xlink:href="#DejaVuSans-Oblique-78" transform="translate(459.667969 0.015625)"/>
      <use xlink:href="#DejaVuSans-2f" transform="translate(518.847656 0.015625)"/>
      <use xlink:href="#DejaVuSans-Oblique-61" transform="translate(552.539062 0.015625)"/>
     </g>
    </g>
   </g>
   <g id="matplotlib.axis_2">
    <g id="ytick_1">
     <g id="line2d_8">
      <defs>
       <path id="m73bf617b66" d="M 0 0 
L -3.5 0 
" style="stroke: #000000; stroke-width: 0.8"/>
      </defs>
      <g>
       <use xlink:href="#m73bf617b66" x="56.684" y="223.214926" style="stroke: #000000; stroke-width: 0.8"/>
      </g>
     </g>
     <g id="text_9">
      <!-- 0.0 -->
      <g transform="translate(32.190563 227.394067) scale(0.11 -0.11)">
       <use xlink:href="#DejaVuSans-30"/>
       <use xlink:href="#DejaVuSans-2e" transform="translate(63.623047 0)"/>
       <use xlink:href="#DejaVuSans-30" transform="translate(95.410156 0)"/>
      </g>
     </g>
    </g>
    <g id="ytick_2">
     <g id="line2d_9">
      <g>
       <use xlink:href="#m73bf617b66" x="56.684" y="187.975849" style="stroke: #000000; stroke-width: 0.8"/>
      </g>
     </g>
     <g id="text_10">
      <!-- 0.2 -->
      <g transform="translate(32.190563 192.154989) scale(0.11 -0.11)">
       <use xlink:href="#DejaVuSans-30"/>
       <use xlink:href="#DejaVuSans-2e" transform="translate(63.623047 0)"/>
       <use xlink:href="#DejaVuSans-32" transform="translate(95.410156 0)"/>
      </g>
     </g>
    </g>
    <g id="ytick_3">
     <g id="line2d_10">
      <g>
       <use xlink:href="#m73bf617b66" x="56.684" y="152.736771" style="stroke: #000000; stroke-width: 0.8"/>
      </g>
     </g>
     <g id="text_11">
      <!-- 0.4 -->
      <g transform="translate(32.190563 156.915912) scale(0.11 -0.11)">
       <defs>
        <path id="DejaVuSans-34" d="M 2419 4116 
L 825 1625 
L 2419 1625 
L 2419 4116 
z
M 2253 4666 
L 3047 4666 
L 3047 1625 
L 3713 1625 
L 3713 1100 
L 3047 1100 
L 3047 0 
L 2419 0 
L 2419 1100 
L 313 1100 
L 313 1709 
L 2253 4666 
z
" transform="scale(0.015625)"/>
       </defs>
       <use xlink:href="#DejaVuSans-30"/>
       <use xlink:href="#DejaVuSans-2e" transform="translate(63.623047 0)"/>
       <use xlink:href="#DejaVuSans-34" transform="translate(95.410156 0)"/>
      </g>
     </g>
    </g>
    <g id="ytick_4">
     <g id="line2d_11">
      <g>
       <use xlink:href="#m73bf617b66" x="56.684" y="117.497694" style="stroke: #000000; stroke-width: 0.8"/>
      </g>
     </g>
     <g id="text_12">
      <!-- 0.6 -->
      <g transform="translate(32.190563 121.676834) scale(0.11 -0.11)">
       <defs>
        <path id="DejaVuSans-36" d="M 2113 2584 
Q 1688 2584 1439 2293 
Q 1191 2003 1191 1497 
Q 1191 994 1439 701 
Q 1688 409 2113 409 
Q 2538 409 2786 701 
Q 3034 994 3034 1497 
Q 3034 2003 2786 2293 
Q 2538 2584 2113 2584 
z
M 3366 4563 
L 3366 3988 
Q 3128 4100 2886 4159 
Q 2644 4219 2406 4219 
Q 1781 4219 1451 3797 
Q 1122 3375 1075 2522 
Q 1259 2794 1537 2939 
Q 1816 3084 2150 3084 
Q 2853 3084 3261 2657 
Q 3669 2231 3669 1497 
Q 3669 778 3244 343 
Q 2819 -91 2113 -91 
Q 1303 -91 875 529 
Q 447 1150 447 2328 
Q 447 3434 972 4092 
Q 1497 4750 2381 4750 
Q 2619 4750 2861 4703 
Q 3103 4656 3366 4563 
z
" transform="scale(0.015625)"/>
       </defs>
       <use xlink:href="#DejaVuSans-30"/>
       <use xlink:href="#DejaVuSans-2e" transform="translate(63.623047 0)"/>
       <use xlink:href="#DejaVuSans-36" transform="translate(95.410156 0)"/>
      </g>
     </g>
    </g>
    <g id="ytick_5">
     <g id="line2d_12">
      <g>
       <use xlink:href="#m73bf617b66" x="56.684" y="82.258616" style="stroke: #000000; stroke-width: 0.8"/>
      </g>
     </g>
     <g id="text_13">
      <!-- 0.8 -->
      <g transform="translate(32.190563 86.437757) scale(0.11 -0.11)">
       <defs>
        <path id="DejaVuSans-38" d="M 2034 2216 
Q 1584 2216 1326 1975 
Q 1069 1734 1069 1313 
Q 1069 891 1326 650 
Q 1584 409 2034 409 
Q 2484 409 2743 651 
Q 3003 894 3003 1313 
Q 3003 1734 2745 1975 
Q 2488 2216 2034 2216 
z
M 1403 2484 
Q 997 2584 770 2862 
Q 544 3141 544 3541 
Q 544 4100 942 4425 
Q 1341 4750 2034 4750 
Q 2731 4750 3128 4425 
Q 3525 4100 3525 3541 
Q 3525 3141 3298 2862 
Q 3072 2584 2669 2484 
Q 3125 2378 3379 2068 
Q 3634 1759 3634 1313 
Q 3634 634 3220 271 
Q 2806 -91 2034 -91 
Q 1263 -91 848 271 
Q 434 634 434 1313 
Q 434 1759 690 2068 
Q 947 2378 1403 2484 
z
M 1172 3481 
Q 1172 3119 1398 2916 
Q 1625 2713 2034 2713 
Q 2441 2713 2670 2916 
Q 2900 3119 2900 3481 
Q 2900 3844 2670 4047 
Q 2441 4250 2034 4250 
Q 1625 4250 1398 4047 
Q 1172 3844 1172 3481 
z
" transform="scale(0.015625)"/>
       </defs>
       <use xlink:href="#DejaVuSans-30"/>
       <use xlink:href="#DejaVuSans-2e" transform="translate(63.623047 0)"/>
       <use xlink:href="#DejaVuSans-38" transform="translate(95.410156 0)"/>
      </g>
     </g>
    </g>
    <g id="ytick_6">
     <g id="line2d_13">
      <g>
       <use xlink:href="#m73bf617b66" x="56.684" y="47.019539" style="stroke: #000000; stroke-width: 0.8"/>
      </g>
     </g>
     <g id="text_14">
      <!-- 1.0 -->
      <g transform="translate(32.190563 51.198679) scale(0.11 -0.11)">
       <use xlink:href="#DejaVuSans-31"/>
       <use xlink:href="#DejaVuSans-2e" transform="translate(63.623047 0)"/>
       <use xlink:href="#DejaVuSans-30" transform="translate(95.410156 0)"/>
      </g>
     </g>
    </g>
    <g id="text_15">
     <!-- probability density  $|\psi|^2$  (arb.) -->
     <g transform="translate(25.550563 214.257348) rotate(-90) scale(0.11 -0.11)">
      <defs>
       <path id="DejaVuSans-72" d="M 2631 2963 
Q 2534 3019 2420 3045 
Q 2306 3072 2169 3072 
Q 1681 3072 1420 2755 
Q 1159 2438 1159 1844 
L 1159 0 
L 581 0 
L 581 3500 
L 1159 3500 
L 1159 2956 
Q 1341 3275 1631 3429 
Q 1922 3584 2338 3584 
Q 2397 3584 2469 3576 
Q 2541 3569 2628 3553 
L 2631 2963 
z
" transform="scale(0.015625)"/>
       <path id="DejaVuSans-62" d="M 3116 1747 
Q 3116 2381 2855 2742 
Q 2594 3103 2138 3103 
Q 1681 3103 1420 2742 
Q 1159 2381 1159 1747 
Q 1159 1113 1420 752 
Q 1681 391 2138 391 
Q 2594 391 2855 752 
Q 3116 1113 3116 1747 
z
M 1159 2969 
Q 1341 3281 1617 3432 
Q 1894 3584 2278 3584 
Q 2916 3584 3314 3078 
Q 3713 2572 3713 1747 
Q 3713 922 3314 415 
Q 2916 -91 2278 -91 
Q 1894 -91 1617 61 
Q 1341 213 1159 525 
L 1159 0 
L 581 0 
L 581 4863 
L 1159 4863 
L 1159 2969 
z
" transform="scale(0.015625)"/>
       <path id="DejaVuSans-61" d="M 2194 1759 
Q 1497 1759 1228 1600 
Q 959 1441 959 1056 
Q 959 750 1161 570 
Q 1363 391 1709 391 
Q 2188 391 2477 730 
Q 2766 1069 2766 1631 
L 2766 1759 
L 2194 1759 
z
M 3341 1997 
L 3341 0 
L 2766 0 
L 2766 531 
Q 2569 213 2275 61 
Q 1981 -91 1556 -91 
Q 1019 -91 701 211 
Q 384 513 384 1019 
Q 384 1609 779 1909 
Q 1175 2209 1959 2209 
L 2766 2209 
L 2766 2266 
Q 2766 2663 2505 2880 
Q 2244 3097 1772 3097 
Q 1472 3097 1187 3025 
Q 903 2953 641 2809 
L 641 3341 
Q 956 3463 1253 3523 
Q 1550 3584 1831 3584 
Q 2591 3584 2966 3190 
Q 3341 2797 3341 1997 
z
" transform="scale(0.015625)"/>
       <path id="DejaVuSans-6c" d="M 603 4863 
L 1178 4863 
L 1178 0 
L 603 0 
L 603 4863 
z
" transform="scale(0.015625)"/>
       <path id="DejaVuSans-79" d="M 2059 -325 
Q 1816 -950 1584 -1140 
Q 1353 -1331 966 -1331 
L 506 -1331 
L 506 -850 
L 844 -850 
Q 1081 -850 1212 -737 
Q 1344 -625 1503 -206 
L 1606 56 
L 191 3500 
L 800 3500 
L 1894 763 
L 2988 3500 
L 3597 3500 
L 2059 -325 
z
" transform="scale(0.015625)"/>
       <path id="DejaVuSans-64" d="M 2906 2969 
L 2906 4863 
L 3481 4863 
L 3481 0 
L 2906 0 
L 2906 525 
Q 2725 213 2448 61 
Q 2172 -91 1784 -91 
Q 1150 -91 751 415 
Q 353 922 353 1747 
Q 353 2572 751 3078 
Q 1150 3584 1784 3584 
Q 2172 3584 2448 3432 
Q 2725 3281 2906 2969 
z
M 947 1747 
Q 947 1113 1208 752 
Q 1469 391 1925 391 
Q 2381 391 2643 752 
Q 2906 1113 2906 1747 
Q 2906 2381 2643 2742 
Q 2381 3103 1925 3103 
Q 1469 3103 1208 2742 
Q 947 2381 947 1747 
z
" transform="scale(0.015625)"/>
       <path id="DejaVuSans-65" d="M 3597 1894 
L 3597 1613 
L 953 1613 
Q 991 1019 1311 708 
Q 1631 397 2203 397 
Q 2534 397 2845 478 
Q 3156 559 3463 722 
L 3463 178 
Q 3153 47 2828 -22 
Q 2503 -91 2169 -91 
Q 1331 -91 842 396 
Q 353 884 353 1716 
Q 353 2575 817 3079 
Q 1281 3584 2069 3584 
Q 2775 3584 3186 3129 
Q 3597 2675 3597 1894 
z
M 3022 2063 
Q 3016 2534 2758 2815 
Q 2500 3097 2075 3097 
Q 1594 3097 1305 2825 
Q 1016 2553 972 2059 
L 3022 2063 
z
" transform="scale(0.015625)"/>
       <path id="DejaVuSans-7c" d="M 1344 4891 
L 1344 -1509 
L 813 -1509 
L 813 4891 
L 1344 4891 
z
" transform="scale(0.015625)"/>
       <path id="DejaVuSans-Oblique-3c8" d="M 1591 -78 
Q 891 38 616 341 
Q 278 713 425 1472 
L 819 3500 
L 1400 3500 
L 1009 1494 
Q 900 922 1119 684 
Q 1313 478 1691 434 
L 2284 3500 
L 2856 3500 
L 2263 438 
Q 2681 481 2928 688 
Q 3247 950 3353 1497 
L 3741 3500 
L 4322 3500 
L 3928 1475 
Q 3775 688 3300 344 
Q 2872 34 2163 -75 
L 1919 -1331 
L 1347 -1331 
L 1591 -78 
z
" transform="scale(0.015625)"/>
       <path id="DejaVuSans-28" d="M 1984 4856 
Q 1566 4138 1362 3434 
Q 1159 2731 1159 2009 
Q 1159 1288 1364 580 
Q 1569 -128 1984 -844 
L 1484 -844 
Q 1016 -109 783 600 
Q 550 1309 550 2009 
Q 550 2706 781 3412 
Q 1013 4119 1484 4856 
L 1984 4856 
z
" transform="scale(0.015625)"/>
       <path id="DejaVuSans-29" d="M 513 4856 
L 1013 4856 
Q 1481 4119 1714 3412 
Q 1947 2706 1947 2009 
Q 1947 1309 1714 600 
Q 1481 -109 1013 -844 
L 513 -844 
Q 928 -128 1133 580 
Q 1338 1288 1338 2009 
Q 1338 2731 1133 3434 
Q 928 4138 513 4856 
z
" transform="scale(0.015625)"/>
      </defs>
      <use xlink:href="#DejaVuSans-70" transform="translate(0 0.765625)"/>
      <use xlink:href="#DejaVuSans-72" transform="translate(63.476562 0.765625)"/>
      <use xlink:href="#DejaVuSans-6f" transform="translate(104.589844 0.765625)"/>
      <use xlink:href="#DejaVuSans-62" transform="translate(165.771484 0.765625)"/>
      <use xlink:href="#DejaVuSans-61" transform="translate(229.248047 0.765625)"/>
      <use xlink:href="#DejaVuSans-62" transform="translate(290.527344 0.765625)"/>
      <use xlink:href="#DejaVuSans-69" transform="translate(354.003906 0.765625)"/>
      <use xlink:href="#DejaVuSans-6c" transform="translate(381.787109 0.765625)"/>
      <use xlink:href="#DejaVuSans-69" transform="translate(409.570312 0.765625)"/>
      <use xlink:href="#DejaVuSans-74" transform="translate(437.353516 0.765625)"/>
      <use xlink:href="#DejaVuSans-79" transform="translate(476.5625 0.765625)"/>
      <use xlink:href="#DejaVuSans-20" transform="translate(535.742188 0.765625)"/>
      <use xlink:href="#DejaVuSans-64" transform="translate(567.529297 0.765625)"/>
      <use xlink:href="#DejaVuSans-65" transform="translate(631.005859 0.765625)"/>
      <use xlink:href="#DejaVuSans-6e" transform="translate(692.529297 0.765625)"/>
      <use xlink:href="#DejaVuSans-73" transform="translate(755.908203 0.765625)"/>
      <use xlink:href="#DejaVuSans-69" transform="translate(808.007812 0.765625)"/>
      <use xlink:href="#DejaVuSans-74" transform="translate(835.791016 0.765625)"/>
      <use xlink:href="#DejaVuSans-79" transform="translate(875 0.765625)"/>
      <use xlink:href="#DejaVuSans-20" transform="translate(934.179688 0.765625)"/>
      <use xlink:href="#DejaVuSans-20" transform="translate(965.966797 0.765625)"/>
      <use xlink:href="#DejaVuSans-7c" transform="translate(997.753906 0.765625)"/>
      <use xlink:href="#DejaVuSans-Oblique-3c8" transform="translate(1031.445312 0.765625)"/>
      <use xlink:href="#DejaVuSans-7c" transform="translate(1097.412109 0.765625)"/>
      <use xlink:href="#DejaVuSans-32" transform="translate(1132.060547 39.046875) scale(0.7)"/>
      <use xlink:href="#DejaVuSans-20" transform="translate(1179.331055 0.765625)"/>
      <use xlink:href="#DejaVuSans-20" transform="translate(1211.118164 0.765625)"/>
      <use xlink:href="#DejaVuSans-28" transform="translate(1242.905273 0.765625)"/>
      <use xlink:href="#DejaVuSans-61" transform="translate(1281.918945 0.765625)"/>
      <use xlink:href="#DejaVuSans-72" transform="translate(1343.198242 0.765625)"/>
      <use xlink:href="#DejaVuSans-62" transform="translate(1384.311523 0.765625)"/>
      <use xlink:href="#DejaVuSans-2e" transform="translate(1447.788086 0.765625)"/>
      <use xlink:href="#DejaVuSans-29" transform="translate(1479.575195 0.765625)"/>
     </g>
    </g>
   </g>
   <g id="line2d_14">
    <path d="M 56.684 47.019539 
L 57.537184 47.096987 
L 58.390367 47.329197 
L 59.670142 47.966721 
L 60.949918 48.948954 
L 62.229693 50.272011 
L 63.509468 51.930658 
L 64.789244 53.918334 
L 66.495611 57.066622 
L 68.201978 60.763597 
L 69.908345 64.983269 
L 72.041304 70.947379 
L 74.174263 77.616111 
L 76.733813 86.445089 
L 79.719956 97.70737 
L 83.13269 111.548603 
L 88.251791 133.424101 
L 95.077259 162.516533 
L 98.489993 176.110686 
L 101.476136 187.073948 
L 104.035686 195.590124 
L 106.168645 201.962073 
L 108.301604 207.600028 
L 110.007971 211.540025 
L 111.714338 214.942778 
L 113.420705 217.784367 
L 114.700481 219.535126 
L 115.980256 220.951984 
L 117.260031 222.029337 
L 118.539806 222.762925 
L 119.819582 223.149846 
L 120.672765 223.214388 
L 121.525949 223.124034 
L 122.379132 222.878942 
L 123.658908 222.222189 
L 124.938683 221.220907 
L 126.218458 219.879057 
L 127.498234 218.201946 
L 128.778009 216.196209 
L 130.484376 213.02459 
L 132.190743 209.305291 
L 133.89711 205.064458 
L 136.030069 199.075761 
L 138.163028 192.384762 
L 140.722578 183.532469 
L 143.708721 172.248141 
L 147.121455 158.389079 
L 152.240556 136.50255 
L 159.066024 107.425507 
L 162.478759 93.851529 
L 165.464901 82.912213 
L 168.024452 74.420836 
L 170.15741 68.072268 
L 172.290369 62.459893 
L 173.996736 58.541753 
L 175.703103 55.161931 
L 177.409471 52.344185 
L 178.689246 50.611808 
L 179.969021 49.213676 
L 181.248796 48.155321 
L 182.528572 47.440929 
L 183.808347 47.073325 
L 184.661531 47.02169 
L 185.514714 47.124949 
L 186.367898 47.38292 
L 187.647673 48.058895 
L 188.927448 49.079214 
L 190.207224 50.439841 
L 191.486999 52.135395 
L 192.766774 54.159169 
L 194.473141 57.35408 
L 196.179508 61.095658 
L 197.885875 65.357598 
L 200.018834 71.37081 
L 202.151793 78.083994 
L 204.711344 86.959494 
L 207.697486 98.265731 
L 211.11022 112.142453 
L 216.229321 134.039746 
L 223.05479 163.101045 
L 226.467524 176.654682 
L 229.453666 187.569918 
L 232.013217 196.036394 
L 234.146176 202.361502 
L 236.279135 207.948229 
L 237.985502 211.844463 
L 239.691869 215.201313 
L 241.398236 217.995181 
L 242.678011 219.709157 
L 243.957786 221.088545 
L 245.237562 222.127888 
L 246.517337 222.823076 
L 247.797112 223.171359 
L 248.650296 223.210085 
L 249.503479 223.093923 
L 250.356663 222.823076 
L 251.636438 222.127888 
L 252.916214 221.088545 
L 254.195989 219.709157 
L 255.475764 217.995181 
L 256.755539 215.953396 
L 258.461907 212.735231 
L 260.168274 208.97142 
L 261.874641 204.688423 
L 264.0076 198.650771 
L 266.140558 191.915483 
L 268.700109 183.016885 
L 271.686251 171.688877 
L 275.098986 157.794665 
L 280.218087 135.886875 
L 286.616963 108.597201 
L 290.029697 94.943521 
L 293.01584 83.909223 
L 295.57539 75.319278 
L 297.708349 68.877651 
L 299.841308 63.163372 
L 301.547675 59.158092 
L 303.254042 55.686795 
L 304.960409 52.773886 
L 306.240185 50.968116 
L 307.51996 49.495182 
L 308.799735 48.360912 
L 310.079511 47.569792 
L 311.359286 47.124949 
L 312.212469 47.02169 
L 313.065653 47.073325 
L 313.918836 47.279762 
L 315.198612 47.878805 
L 316.478387 48.822904 
L 317.758162 50.108325 
L 319.037938 51.729984 
L 320.317713 53.681466 
L 322.02408 56.782977 
L 323.730447 60.435168 
L 325.436814 64.612366 
L 327.569773 70.527083 
L 329.702732 77.151036 
L 332.262283 85.933061 
L 335.248425 97.150837 
L 338.661159 110.955904 
L 343.78026 132.808539 
L 350.605729 161.930682 
L 354.018463 175.564686 
L 357.004605 186.57544 
L 359.564156 195.1409 
L 361.697115 201.55938 
L 363.830073 207.248286 
L 365.53644 211.231854 
L 367.242808 214.680345 
L 368.949175 217.569516 
L 370.22895 219.356971 
L 371.508725 220.81123 
L 372.788501 221.926541 
L 374.068276 222.698494 
L 375.348051 223.124034 
L 376.201235 223.214388 
L 377.054418 223.149846 
L 377.907602 222.930522 
L 379.187377 222.312234 
L 380.467152 221.349063 
L 381.746928 220.044816 
L 383.026703 218.404653 
L 384.306478 216.435061 
L 386.012845 213.310143 
L 387.719212 209.635537 
L 389.42558 205.437077 
L 391.558538 199.497627 
L 393.691497 192.851244 
L 396.251048 184.045689 
L 399.23719 172.805591 
L 402.649924 158.982357 
L 407.769026 137.118157 
L 414.594494 108.010692 
L 418.007228 94.39653 
L 420.99337 83.409455 
L 423.552921 74.868586 
L 425.68588 68.473332 
L 427.818839 62.809866 
L 429.525206 58.84806 
L 431.231573 55.422417 
L 432.93794 52.557019 
L 434.217715 50.787902 
L 435.497491 49.352335 
L 436.777266 48.255995 
L 438.057041 47.50322 
L 439.336816 47.096987 
L 440.19 47.019539 
L 440.19 47.019539 
" clip-path="url(#p890867480c)" style="fill: none; stroke: #0072b2; stroke-width: 2.2; stroke-linecap: square"/>
   </g>
   <g id="line2d_15">
    <path d="M 56.684 223.214926 
L 57.537184 223.137478 
L 58.390367 222.905268 
L 59.670142 222.267744 
L 60.949918 221.285511 
L 62.229693 219.962454 
L 63.509468 218.303808 
L 64.789244 216.316131 
L 66.495611 213.167843 
L 68.201978 209.470868 
L 69.908345 205.251196 
L 72.041304 199.287086 
L 74.174263 192.618354 
L 76.733813 183.789376 
L 79.719956 172.527095 
L 83.13269 158.685862 
L 88.251791 136.810364 
L 95.077259 107.717932 
L 98.489993 94.123779 
L 101.476136 83.160517 
L 104.035686 74.644341 
L 106.168645 68.272392 
L 108.301604 62.634437 
L 110.007971 58.69444 
L 111.714338 55.291687 
L 113.420705 52.450098 
L 114.700481 50.699339 
L 115.980256 49.282481 
L 117.260031 48.205128 
L 118.539806 47.47154 
L 119.819582 47.084619 
L 120.672765 47.020077 
L 121.525949 47.110431 
L 122.379132 47.355523 
L 123.658908 48.012276 
L 124.938683 49.013558 
L 126.218458 50.355408 
L 127.498234 52.032519 
L 128.778009 54.038256 
L 130.484376 57.209875 
L 132.190743 60.929174 
L 133.89711 65.170007 
L 136.030069 71.158704 
L 138.163028 77.849703 
L 140.722578 86.701996 
L 143.708721 97.986324 
L 147.121455 111.845386 
L 152.240556 133.731915 
L 159.066024 162.808958 
L 162.478759 176.382936 
L 165.464901 187.322252 
L 168.024452 195.813629 
L 170.15741 202.162197 
L 172.290369 207.774572 
L 173.996736 211.692712 
L 175.703103 215.072534 
L 177.409471 217.89028 
L 178.689246 219.622657 
L 179.969021 221.020789 
L 181.248796 222.079144 
L 182.528572 222.793536 
L 183.808347 223.16114 
L 184.661531 223.212775 
L 185.514714 223.109516 
L 186.367898 222.851545 
L 187.647673 222.17557 
L 188.927448 221.155251 
L 190.207224 219.794624 
L 191.486999 218.09907 
L 192.766774 216.075296 
L 194.473141 212.880385 
L 196.179508 209.138807 
L 197.885875 204.876867 
L 200.018834 198.863655 
L 202.151793 192.150471 
L 204.711344 183.274971 
L 207.697486 171.968734 
L 211.11022 158.092012 
L 216.229321 136.194719 
L 223.05479 107.13342 
L 226.467524 93.579783 
L 229.453666 82.664547 
L 232.013217 74.198071 
L 234.146176 67.872963 
L 236.279135 62.286236 
L 237.985502 58.390002 
L 239.691869 55.033152 
L 241.398236 52.239284 
L 242.678011 50.525308 
L 243.957786 49.14592 
L 245.237562 48.106577 
L 246.517337 47.411389 
L 247.797112 47.063106 
L 248.650296 47.02438 
L 249.503479 47.140542 
L 250.356663 47.411389 
L 251.636438 48.106577 
L 252.916214 49.14592 
L 254.195989 50.525308 
L 255.475764 52.239284 
L 256.755539 54.28107 
L 258.461907 57.499234 
L 260.168274 61.263045 
L 261.874641 65.546042 
L 264.0076 71.583694 
L 266.140558 78.318982 
L 268.700109 87.21758 
L 271.686251 98.545588 
L 275.098986 112.4398 
L 280.218087 134.34759 
L 286.616963 161.637264 
L 290.029697 175.290944 
L 293.01584 186.325242 
L 295.57539 194.915187 
L 297.708349 201.356814 
L 299.841308 207.071093 
L 301.547675 211.076374 
L 303.254042 214.54767 
L 304.960409 217.460579 
L 306.240185 219.266349 
L 307.51996 220.739283 
L 308.799735 221.873553 
L 310.079511 222.664673 
L 311.359286 223.109516 
L 312.212469 223.212775 
L 313.065653 223.16114 
L 313.918836 222.954703 
L 315.198612 222.35566 
L 316.478387 221.411561 
L 317.758162 220.12614 
L 319.037938 218.504481 
L 320.317713 216.552999 
L 322.02408 213.451488 
L 323.730447 209.799297 
L 325.436814 205.622099 
L 327.569773 199.707382 
L 329.702732 193.083429 
L 332.262283 184.301404 
L 335.248425 173.083628 
L 338.661159 159.278561 
L 343.78026 137.425926 
L 350.605729 108.303783 
L 354.018463 94.669779 
L 357.004605 83.659025 
L 359.564156 75.093565 
L 361.697115 68.675086 
L 363.830073 62.986179 
L 365.53644 59.002611 
L 367.242808 55.55412 
L 368.949175 52.664949 
L 370.22895 50.877494 
L 371.508725 49.423235 
L 372.788501 48.307924 
L 374.068276 47.535971 
L 375.348051 47.110431 
L 376.201235 47.020077 
L 377.054418 47.084619 
L 377.907602 47.303943 
L 379.187377 47.922231 
L 380.467152 48.885402 
L 381.746928 50.189649 
L 383.026703 51.829812 
L 384.306478 53.799404 
L 386.012845 56.924322 
L 387.719212 60.598928 
L 389.42558 64.797388 
L 391.558538 70.736838 
L 393.691497 77.383221 
L 396.251048 86.188776 
L 399.23719 97.428874 
L 402.649924 111.252108 
L 407.769026 133.116308 
L 414.594494 162.223773 
L 418.007228 175.837935 
L 420.99337 186.82501 
L 423.552921 195.365879 
L 425.68588 201.761133 
L 427.818839 207.424599 
L 429.525206 211.386405 
L 431.231573 214.812048 
L 432.93794 217.677446 
L 434.217715 219.446563 
L 435.497491 220.88213 
L 436.777266 221.97847 
L 438.057041 222.731245 
L 439.336816 223.137478 
L 440.19 223.214926 
L 440.19 223.214926 
" clip-path="url(#p890867480c)" style="fill: none; stroke: #d55e00; stroke-width: 2.2; stroke-linecap: square"/>
   </g>
   <g id="line2d_16">
    <path d="M 56.684 232.024696 
L 56.684 29.4 
" clip-path="url(#p890867480c)" style="fill: none; stroke-dasharray: 1,1.65; stroke-dashoffset: 0; stroke: #999999"/>
   </g>
   <g id="line2d_17">
    <path d="M 184.519333 232.024696 
L 184.519333 29.4 
" clip-path="url(#p890867480c)" style="fill: none; stroke-dasharray: 1,1.65; stroke-dashoffset: 0; stroke: #999999"/>
   </g>
   <g id="line2d_18">
    <path d="M 312.354667 232.024696 
L 312.354667 29.4 
" clip-path="url(#p890867480c)" style="fill: none; stroke-dasharray: 1,1.65; stroke-dashoffset: 0; stroke: #999999"/>
   </g>
   <g id="line2d_19">
    <path d="M 440.19 232.024696 
L 440.19 29.4 
" clip-path="url(#p890867480c)" style="fill: none; stroke-dasharray: 1,1.65; stroke-dashoffset: 0; stroke: #999999"/>
   </g>
   <g id="line2d_20">
    <defs>
     <path id="mc6f9425d83" d="M -0 4.5 
L 4.5 -4.5 
L -4.5 -4.5 
z
" style="stroke: #000000; stroke-linejoin: miter"/>
    </defs>
    <g>
     <use xlink:href="#mc6f9425d83" x="56.684" y="244.358373" style="stroke: #000000; stroke-linejoin: miter"/>
     <use xlink:href="#mc6f9425d83" x="184.519333" y="244.358373" style="stroke: #000000; stroke-linejoin: miter"/>
     <use xlink:href="#mc6f9425d83" x="312.354667" y="244.358373" style="stroke: #000000; stroke-linejoin: miter"/>
     <use xlink:href="#mc6f9425d83" x="440.19" y="244.358373" style="stroke: #000000; stroke-linejoin: miter"/>
    </g>
   </g>
   <g id="patch_3">
    <path d="M 56.684 232.024696 
L 56.684 29.4 
" style="fill: none; stroke: #000000; stroke-linejoin: miter; stroke-linecap: square"/>
   </g>
   <g id="patch_4">
    <path d="M 56.684 232.024696 
L 440.19 232.024696 
" style="fill: none; stroke: #000000; stroke-linejoin: miter; stroke-linecap: square"/>
   </g>
   <g id="text_16">
    <!-- ion sites (period $a$) -->
    <g transform="translate(63.075767 269.025727) scale(0.09 -0.09)">
     <use xlink:href="#DejaVuSans-69" transform="translate(0 0.015625)"/>
     <use xlink:href="#DejaVuSans-6f" transform="translate(27.783203 0.015625)"/>
     <use xlink:href="#DejaVuSans-6e" transform="translate(88.964844 0.015625)"/>
     <use xlink:href="#DejaVuSans-20" transform="translate(152.34375 0.015625)"/>
     <use xlink:href="#DejaVuSans-73" transform="translate(184.130859 0.015625)"/>
     <use xlink:href="#DejaVuSans-69" transform="translate(236.230469 0.015625)"/>
     <use xlink:href="#DejaVuSans-74" transform="translate(264.013672 0.015625)"/>
     <use xlink:href="#DejaVuSans-65" transform="translate(303.222656 0.015625)"/>
     <use xlink:href="#DejaVuSans-73" transform="translate(364.746094 0.015625)"/>
     <use xlink:href="#DejaVuSans-20" transform="translate(416.845703 0.015625)"/>
     <use xlink:href="#DejaVuSans-28" transform="translate(448.632812 0.015625)"/>
     <use xlink:href="#DejaVuSans-70" transform="translate(487.646484 0.015625)"/>
     <use xlink:href="#DejaVuSans-65" transform="translate(551.123047 0.015625)"/>
     <use xlink:href="#DejaVuSans-72" transform="translate(612.646484 0.015625)"/>
     <use xlink:href="#DejaVuSans-69" transform="translate(653.759766 0.015625)"/>
     <use xlink:href="#DejaVuSans-6f" transform="translate(681.542969 0.015625)"/>
     <use xlink:href="#DejaVuSans-64" transform="translate(742.724609 0.015625)"/>
     <use xlink:href="#DejaVuSans-20" transform="translate(806.201172 0.015625)"/>
     <use xlink:href="#DejaVuSans-Oblique-61" transform="translate(837.988281 0.015625)"/>
     <use xlink:href="#DejaVuSans-29" transform="translate(899.267578 0.015625)"/>
    </g>
   </g>
   <g id="text_17">
    <!-- Bragg standing waves at the zone boundary — origin of the gap $2|V_{G_1}|$ -->
    <g transform="translate(36.517 23.4) scale(0.12 -0.12)">
     <defs>
      <path id="DejaVuSans-42" d="M 1259 2228 
L 1259 519 
L 2272 519 
Q 2781 519 3026 730 
Q 3272 941 3272 1375 
Q 3272 1813 3026 2020 
Q 2781 2228 2272 2228 
L 1259 2228 
z
M 1259 4147 
L 1259 2741 
L 2194 2741 
Q 2656 2741 2882 2914 
Q 3109 3088 3109 3444 
Q 3109 3797 2882 3972 
Q 2656 4147 2194 4147 
L 1259 4147 
z
M 628 4666 
L 2241 4666 
Q 2963 4666 3353 4366 
Q 3744 4066 3744 3513 
Q 3744 3084 3544 2831 
Q 3344 2578 2956 2516 
Q 3422 2416 3680 2098 
Q 3938 1781 3938 1306 
Q 3938 681 3513 340 
Q 3088 0 2303 0 
L 628 0 
L 628 4666 
z
" transform="scale(0.015625)"/>
      <path id="DejaVuSans-67" d="M 2906 1791 
Q 2906 2416 2648 2759 
Q 2391 3103 1925 3103 
Q 1463 3103 1205 2759 
Q 947 2416 947 1791 
Q 947 1169 1205 825 
Q 1463 481 1925 481 
Q 2391 481 2648 825 
Q 2906 1169 2906 1791 
z
M 3481 434 
Q 3481 -459 3084 -895 
Q 2688 -1331 1869 -1331 
Q 1566 -1331 1297 -1286 
Q 1028 -1241 775 -1147 
L 775 -588 
Q 1028 -725 1275 -790 
Q 1522 -856 1778 -856 
Q 2344 -856 2625 -561 
Q 2906 -266 2906 331 
L 2906 616 
Q 2728 306 2450 153 
Q 2172 0 1784 0 
Q 1141 0 747 490 
Q 353 981 353 1791 
Q 353 2603 747 3093 
Q 1141 3584 1784 3584 
Q 2172 3584 2450 3431 
Q 2728 3278 2906 2969 
L 2906 3500 
L 3481 3500 
L 3481 434 
z
" transform="scale(0.015625)"/>
      <path id="DejaVuSans-77" d="M 269 3500 
L 844 3500 
L 1563 769 
L 2278 3500 
L 2956 3500 
L 3675 769 
L 4391 3500 
L 4966 3500 
L 4050 0 
L 3372 0 
L 2619 2869 
L 1863 0 
L 1184 0 
L 269 3500 
z
" transform="scale(0.015625)"/>
      <path id="DejaVuSans-76" d="M 191 3500 
L 800 3500 
L 1894 563 
L 2988 3500 
L 3597 3500 
L 2284 0 
L 1503 0 
L 191 3500 
z
" transform="scale(0.015625)"/>
      <path id="DejaVuSans-68" d="M 3513 2113 
L 3513 0 
L 2938 0 
L 2938 2094 
Q 2938 2591 2744 2837 
Q 2550 3084 2163 3084 
Q 1697 3084 1428 2787 
Q 1159 2491 1159 1978 
L 1159 0 
L 581 0 
L 581 4863 
L 1159 4863 
L 1159 2956 
Q 1366 3272 1645 3428 
Q 1925 3584 2291 3584 
Q 2894 3584 3203 3211 
Q 3513 2838 3513 2113 
z
" transform="scale(0.015625)"/>
      <path id="DejaVuSans-7a" d="M 353 3500 
L 3084 3500 
L 3084 2975 
L 922 459 
L 3084 459 
L 3084 0 
L 275 0 
L 275 525 
L 2438 3041 
L 353 3041 
L 353 3500 
z
" transform="scale(0.015625)"/>
      <path id="DejaVuSans-75" d="M 544 1381 
L 544 3500 
L 1119 3500 
L 1119 1403 
Q 1119 906 1312 657 
Q 1506 409 1894 409 
Q 2359 409 2629 706 
Q 2900 1003 2900 1516 
L 2900 3500 
L 3475 3500 
L 3475 0 
L 2900 0 
L 2900 538 
Q 2691 219 2414 64 
Q 2138 -91 1772 -91 
Q 1169 -91 856 284 
Q 544 659 544 1381 
z
M 1991 3584 
L 1991 3584 
z
" transform="scale(0.015625)"/>
      <path id="DejaVuSansDisplay-2014" d="M 313 1978 
L 6088 1978 
L 6088 1528 
L 313 1528 
L 313 1978 
z
" transform="scale(0.015625)"/>
      <path id="DejaVuSans-66" d="M 2375 4863 
L 2375 4384 
L 1825 4384 
Q 1516 4384 1395 4259 
Q 1275 4134 1275 3809 
L 1275 3500 
L 2222 3500 
L 2222 3053 
L 1275 3053 
L 1275 0 
L 697 0 
L 697 3053 
L 147 3053 
L 147 3500 
L 697 3500 
L 697 3744 
Q 697 4328 969 4595 
Q 1241 4863 1831 4863 
L 2375 4863 
z
" transform="scale(0.015625)"/>
      <path id="DejaVuSans-Oblique-56" d="M 1319 0 
L 500 4666 
L 1119 4666 
L 1797 653 
L 4063 4666 
L 4750 4666 
L 2053 0 
L 1319 0 
z
" transform="scale(0.015625)"/>
      <path id="DejaVuSans-Oblique-47" d="M 3494 697 
L 3738 1919 
L 2700 1919 
L 2797 2438 
L 4453 2438 
L 4050 384 
Q 3634 156 3143 32 
Q 2653 -91 2156 -91 
Q 1278 -91 783 396 
Q 288 884 288 1753 
Q 288 2475 589 3126 
Q 891 3778 1422 4213 
Q 1756 4484 2153 4617 
Q 2550 4750 3034 4750 
Q 3472 4750 3873 4639 
Q 4275 4528 4641 4306 
L 4513 3634 
Q 4231 3928 3853 4083 
Q 3475 4238 3047 4238 
Q 2550 4238 2172 4048 
Q 1794 3859 1497 3463 
Q 1244 3125 1098 2667 
Q 953 2209 953 1734 
Q 953 1081 1287 751 
Q 1622 422 2284 422 
Q 2616 422 2925 492 
Q 3234 563 3494 697 
z
" transform="scale(0.015625)"/>
     </defs>
     <use xlink:href="#DejaVuSans-42" transform="translate(0 0.578125)"/>
     <use xlink:href="#DejaVuSans-72" transform="translate(68.603516 0.578125)"/>
     <use xlink:href="#DejaVuSans-61" transform="translate(109.716797 0.578125)"/>
     <use xlink:href="#DejaVuSans-67" transform="translate(170.996094 0.578125)"/>
     <use xlink:href="#DejaVuSans-67" transform="translate(234.472656 0.578125)"/>
     <use xlink:href="#DejaVuSans-20" transform="translate(297.949219 0.578125)"/>
     <use xlink:href="#DejaVuSans-73" transform="translate(329.736328 0.578125)"/>
     <use xlink:href="#DejaVuSans-74" transform="translate(381.835938 0.578125)"/>
     <use xlink:href="#DejaVuSans-61" transform="translate(421.044922 0.578125)"/>
     <use xlink:href="#DejaVuSans-6e" transform="translate(482.324219 0.578125)"/>
     <use xlink:href="#DejaVuSans-64" transform="translate(545.703125 0.578125)"/>
     <use xlink:href="#DejaVuSans-69" transform="translate(609.179688 0.578125)"/>
     <use xlink:href="#DejaVuSans-6e" transform="translate(636.962891 0.578125)"/>
     <use xlink:href="#DejaVuSans-67" transform="translate(700.341797 0.578125)"/>
     <use xlink:href="#DejaVuSans-20" transform="translate(763.818359 0.578125)"/>
     <use xlink:href="#DejaVuSans-77" transform="translate(795.605469 0.578125)"/>
     <use xlink:href="#DejaVuSans-61" transform="translate(877.392578 0.578125)"/>
     <use xlink:href="#DejaVuSans-76" transform="translate(938.671875 0.578125)"/>
     <use xlink:href="#DejaVuSans-65" transform="translate(997.851562 0.578125)"/>
     <use xlink:href="#DejaVuSans-73" transform="translate(1059.375 0.578125)"/>
     <use xlink:href="#DejaVuSans-20" transform="translate(1111.474609 0.578125)"/>
     <use xlink:href="#DejaVuSans-61" transform="translate(1143.261719 0.578125)"/>
     <use xlink:href="#DejaVuSans-74" transform="translate(1204.541016 0.578125)"/>
     <use xlink:href="#DejaVuSans-20" transform="translate(1243.75 0.578125)"/>
     <use xlink:href="#DejaVuSans-74" transform="translate(1275.537109 0.578125)"/>
     <use xlink:href="#DejaVuSans-68" transform="translate(1314.746094 0.578125)"/>
     <use xlink:href="#DejaVuSans-65" transform="translate(1378.125 0.578125)"/>
     <use xlink:href="#DejaVuSans-20" transform="translate(1439.648438 0.578125)"/>
     <use xlink:href="#DejaVuSans-7a" transform="translate(1471.435547 0.578125)"/>
     <use xlink:href="#DejaVuSans-6f" transform="translate(1523.925781 0.578125)"/>
     <use xlink:href="#DejaVuSans-6e" transform="translate(1585.107422 0.578125)"/>
     <use xlink:href="#DejaVuSans-65" transform="translate(1648.486328 0.578125)"/>
     <use xlink:href="#DejaVuSans-20" transform="translate(1710.009766 0.578125)"/>
     <use xlink:href="#DejaVuSans-62" transform="translate(1741.796875 0.578125)"/>
     <use xlink:href="#DejaVuSans-6f" transform="translate(1805.273438 0.578125)"/>
     <use xlink:href="#DejaVuSans-75" transform="translate(1866.455078 0.578125)"/>
     <use xlink:href="#DejaVuSans-6e" transform="translate(1929.833984 0.578125)"/>
     <use xlink:href="#DejaVuSans-64" transform="translate(1993.212891 0.578125)"/>
     <use xlink:href="#DejaVuSans-61" transform="translate(2056.689453 0.578125)"/>
     <use xlink:href="#DejaVuSans-72" transform="translate(2117.96875 0.578125)"/>
     <use xlink:href="#DejaVuSans-79" transform="translate(2159.082031 0.578125)"/>
     <use xlink:href="#DejaVuSans-20" transform="translate(2218.261719 0.578125)"/>
     <use xlink:href="#DejaVuSansDisplay-2014" transform="translate(2250.048828 0.578125)"/>
     <use xlink:href="#DejaVuSans-20" transform="translate(2350.048828 0.578125)"/>
     <use xlink:href="#DejaVuSans-6f" transform="translate(2381.835938 0.578125)"/>
     <use xlink:href="#DejaVuSans-72" transform="translate(2443.017578 0.578125)"/>
     <use xlink:href="#DejaVuSans-69" transform="translate(2484.130859 0.578125)"/>
     <use xlink:href="#DejaVuSans-67" transform="translate(2511.914062 0.578125)"/>
     <use xlink:href="#DejaVuSans-69" transform="translate(2575.390625 0.578125)"/>
     <use xlink:href="#DejaVuSans-6e" transform="translate(2603.173828 0.578125)"/>
     <use xlink:href="#DejaVuSans-20" transform="translate(2666.552734 0.578125)"/>
     <use xlink:href="#DejaVuSans-6f" transform="translate(2698.339844 0.578125)"/>
     <use xlink:href="#DejaVuSans-66" transform="translate(2759.521484 0.578125)"/>
     <use xlink:href="#DejaVuSans-20" transform="translate(2794.726562 0.578125)"/>
     <use xlink:href="#DejaVuSans-74" transform="translate(2826.513672 0.578125)"/>
     <use xlink:href="#DejaVuSans-68" transform="translate(2865.722656 0.578125)"/>
     <use xlink:href="#DejaVuSans-65" transform="translate(2929.101562 0.578125)"/>
     <use xlink:href="#DejaVuSans-20" transform="translate(2990.625 0.578125)"/>
     <use xlink:href="#DejaVuSans-67" transform="translate(3022.412109 0.578125)"/>
     <use xlink:href="#DejaVuSans-61" transform="translate(3085.888672 0.578125)"/>
     <use xlink:href="#DejaVuSans-70" transform="translate(3147.167969 0.578125)"/>
     <use xlink:href="#DejaVuSans-20" transform="translate(3210.644531 0.578125)"/>
     <use xlink:href="#DejaVuSans-32" transform="translate(3242.431641 0.578125)"/>
     <use xlink:href="#DejaVuSans-7c" transform="translate(3306.054688 0.578125)"/>
     <use xlink:href="#DejaVuSans-Oblique-56" transform="translate(3339.746094 0.578125)"/>
     <use xlink:href="#DejaVuSans-Oblique-47" transform="translate(3408.154297 -15.828125) scale(0.7)"/>
     <use xlink:href="#DejaVuSans-31" transform="translate(3462.397461 -27.3125) scale(0.49)"/>
     <use xlink:href="#DejaVuSans-7c" transform="translate(3498.221191 0.578125)"/>
    </g>
   </g>
   <g id="legend_1">
    <g id="line2d_21">
     <path d="M 203.22 42.54 
L 212.22 42.54 
L 221.22 42.54 
" style="fill: none; stroke: #0072b2; stroke-width: 2.2; stroke-linecap: square"/>
    </g>
    <g id="text_18">
     <!-- $|\psi_+|^2\propto\cos^2(\pi x/a)$  (peaks at ions, lower $E$) -->
     <g transform="translate(228.42 45.69) scale(0.09 -0.09)">
      <defs>
       <path id="DejaVuSans-2b" d="M 2944 4013 
L 2944 2272 
L 4684 2272 
L 4684 1741 
L 2944 1741 
L 2944 0 
L 2419 0 
L 2419 1741 
L 678 1741 
L 678 2272 
L 2419 2272 
L 2419 4013 
L 2944 4013 
z
" transform="scale(0.015625)"/>
       <path id="DejaVuSans-221d" d="M 1647 1134 
Q 2163 1134 2472 1884 
Q 2075 2703 1647 2703 
Q 1334 2703 1175 2478 
Q 1006 2238 1006 1919 
Q 1006 1569 1175 1353 
Q 1350 1134 1647 1134 
z
M 3884 1128 
L 3884 716 
L 3644 716 
Q 3416 716 3247 809 
Q 3078 894 2916 1091 
Q 2819 1203 2666 1466 
Q 2456 1091 2272 925 
Q 2044 725 1681 725 
Q 1259 725 981 1041 
Q 688 1372 688 1919 
Q 688 2444 981 2800 
Q 1241 3116 1688 3116 
Q 1916 3116 2084 3022 
Q 2281 2919 2416 2741 
Q 2541 2581 2666 2366 
Q 2875 2741 3059 2906 
Q 3288 3106 3650 3106 
L 3884 3106 
L 3884 2697 
L 3684 2697 
Q 3222 2697 2859 1947 
Q 3256 1128 3684 1128 
L 3884 1128 
z
" transform="scale(0.015625)"/>
       <path id="DejaVuSans-63" d="M 3122 3366 
L 3122 2828 
Q 2878 2963 2633 3030 
Q 2388 3097 2138 3097 
Q 1578 3097 1268 2742 
Q 959 2388 959 1747 
Q 959 1106 1268 751 
Q 1578 397 2138 397 
Q 2388 397 2633 464 
Q 2878 531 3122 666 
L 3122 134 
Q 2881 22 2623 -34 
Q 2366 -91 2075 -91 
Q 1284 -91 818 406 
Q 353 903 353 1747 
Q 353 2603 823 3093 
Q 1294 3584 2113 3584 
Q 2378 3584 2631 3529 
Q 2884 3475 3122 3366 
z
" transform="scale(0.015625)"/>
       <path id="DejaVuSans-Oblique-3c0" d="M 584 3500 
L 3938 3500 
L 3825 2925 
L 3384 2925 
L 2966 775 
Q 2922 550 2981 450 
Q 3038 353 3209 353 
Q 3256 353 3325 363 
Q 3397 369 3419 372 
L 3338 -44 
Q 3222 -84 3103 -103 
Q 2981 -122 2866 -122 
Q 2491 -122 2388 81 
Q 2284 288 2391 838 
L 2797 2925 
L 1506 2925 
L 938 0 
L 350 0 
L 919 2925 
L 472 2925 
L 584 3500 
z
" transform="scale(0.015625)"/>
       <path id="DejaVuSans-6b" d="M 581 4863 
L 1159 4863 
L 1159 1991 
L 2875 3500 
L 3609 3500 
L 1753 1863 
L 3688 0 
L 2938 0 
L 1159 1709 
L 1159 0 
L 581 0 
L 581 4863 
z
" transform="scale(0.015625)"/>
       <path id="DejaVuSans-2c" d="M 750 794 
L 1409 794 
L 1409 256 
L 897 -744 
L 494 -744 
L 750 256 
L 750 794 
z
" transform="scale(0.015625)"/>
       <path id="DejaVuSans-Oblique-45" d="M 1081 4666 
L 4031 4666 
L 3928 4134 
L 1606 4134 
L 1338 2753 
L 3566 2753 
L 3463 2222 
L 1234 2222 
L 909 531 
L 3284 531 
L 3181 0 
L 172 0 
L 1081 4666 
z
" transform="scale(0.015625)"/>
      </defs>
      <use xlink:href="#DejaVuSans-7c" transform="translate(0 0.765625)"/>
      <use xlink:href="#DejaVuSans-Oblique-3c8" transform="translate(33.691406 0.765625)"/>
      <use xlink:href="#DejaVuSans-2b" transform="translate(113.295898 -15.640625) scale(0.7)"/>
      <use xlink:href="#DejaVuSans-7c" transform="translate(188.320312 0.765625)"/>
      <use xlink:href="#DejaVuSans-32" transform="translate(222.96875 39.046875) scale(0.7)"/>
      <use xlink:href="#DejaVuSans-221d" transform="translate(289.72168 0.765625)"/>
      <use xlink:href="#DejaVuSans-63" transform="translate(380.639648 0.765625)"/>
      <use xlink:href="#DejaVuSans-6f" transform="translate(435.620117 0.765625)"/>
      <use xlink:href="#DejaVuSans-73" transform="translate(496.801758 0.765625)"/>
      <use xlink:href="#DejaVuSans-32" transform="translate(549.858398 39.046875) scale(0.7)"/>
      <use xlink:href="#DejaVuSans-28" transform="translate(613.364583 0.765625)"/>
      <use xlink:href="#DejaVuSans-Oblique-3c0" transform="translate(652.378254 0.765625)"/>
      <use xlink:href="#DejaVuSans-Oblique-78" transform="translate(712.583333 0.765625)"/>
      <use xlink:href="#DejaVuSans-2f" transform="translate(771.76302 0.765625)"/>
      <use xlink:href="#DejaVuSans-Oblique-61" transform="translate(805.454426 0.765625)"/>
      <use xlink:href="#DejaVuSans-29" transform="translate(866.733723 0.765625)"/>
      <use xlink:href="#DejaVuSans-20" transform="translate(905.747395 0.765625)"/>
      <use xlink:href="#DejaVuSans-20" transform="translate(937.534504 0.765625)"/>
      <use xlink:href="#DejaVuSans-28" transform="translate(969.321614 0.765625)"/>
      <use xlink:href="#DejaVuSans-70" transform="translate(1008.335286 0.765625)"/>
      <use xlink:href="#DejaVuSans-65" transform="translate(1071.811848 0.765625)"/>
      <use xlink:href="#DejaVuSans-61" transform="translate(1133.335286 0.765625)"/>
      <use xlink:href="#DejaVuSans-6b" transform="translate(1194.614583 0.765625)"/>
      <use xlink:href="#DejaVuSans-73" transform="translate(1252.524739 0.765625)"/>
      <use xlink:href="#DejaVuSans-20" transform="translate(1304.624348 0.765625)"/>
      <use xlink:href="#DejaVuSans-61" transform="translate(1336.411458 0.765625)"/>
      <use xlink:href="#DejaVuSans-74" transform="translate(1397.690754 0.765625)"/>
      <use xlink:href="#DejaVuSans-20" transform="translate(1436.899739 0.765625)"/>
      <use xlink:href="#DejaVuSans-69" transform="translate(1468.686848 0.765625)"/>
      <use xlink:href="#DejaVuSans-6f" transform="translate(1496.470051 0.765625)"/>
      <use xlink:href="#DejaVuSans-6e" transform="translate(1557.651692 0.765625)"/>
      <use xlink:href="#DejaVuSans-73" transform="translate(1621.030598 0.765625)"/>
      <use xlink:href="#DejaVuSans-2c" transform="translate(1673.130208 0.765625)"/>
      <use xlink:href="#DejaVuSans-20" transform="translate(1704.917317 0.765625)"/>
      <use xlink:href="#DejaVuSans-6c" transform="translate(1736.704426 0.765625)"/>
      <use xlink:href="#DejaVuSans-6f" transform="translate(1764.487629 0.765625)"/>
      <use xlink:href="#DejaVuSans-77" transform="translate(1825.66927 0.765625)"/>
      <use xlink:href="#DejaVuSans-65" transform="translate(1907.456379 0.765625)"/>
      <use xlink:href="#DejaVuSans-72" transform="translate(1968.979817 0.765625)"/>
      <use xlink:href="#DejaVuSans-20" transform="translate(2010.093098 0.765625)"/>
      <use xlink:href="#DejaVuSans-Oblique-45" transform="translate(2041.880208 0.765625)"/>
      <use xlink:href="#DejaVuSans-29" transform="translate(2105.063801 0.765625)"/>
     </g>
    </g>
    <g id="line2d_22">
     <path d="M 203.22 57.39 
L 212.22 57.39 
L 221.22 57.39 
" style="fill: none; stroke: #d55e00; stroke-width: 2.2; stroke-linecap: square"/>
    </g>
    <g id="text_19">
     <!-- $|\psi_-|^2\propto\sin^2(\pi x/a)$  (peaks between, higher $E$) -->
     <g transform="translate(228.42 60.54) scale(0.09 -0.09)">
      <defs>
       <path id="DejaVuSans-2212" d="M 678 2272 
L 4684 2272 
L 4684 1741 
L 678 1741 
L 678 2272 
z
" transform="scale(0.015625)"/>
      </defs>
      <use xlink:href="#DejaVuSans-7c" transform="translate(0 0.765625)"/>
      <use xlink:href="#DejaVuSans-Oblique-3c8" transform="translate(33.691406 0.765625)"/>
      <use xlink:href="#DejaVuSans-2212" transform="translate(113.295898 -15.640625) scale(0.7)"/>
      <use xlink:href="#DejaVuSans-7c" transform="translate(188.320312 0.765625)"/>
      <use xlink:href="#DejaVuSans-32" transform="translate(222.96875 39.046875) scale(0.7)"/>
      <use xlink:href="#DejaVuSans-221d" transform="translate(289.72168 0.765625)"/>
      <use xlink:href="#DejaVuSans-73" transform="translate(380.639648 0.765625)"/>
      <use xlink:href="#DejaVuSans-69" transform="translate(432.739258 0.765625)"/>
      <use xlink:href="#DejaVuSans-6e" transform="translate(460.522461 0.765625)"/>
      <use xlink:href="#DejaVuSans-32" transform="translate(524.858398 39.046875) scale(0.7)"/>
      <use xlink:href="#DejaVuSans-28" transform="translate(588.364583 0.765625)"/>
      <use xlink:href="#DejaVuSans-Oblique-3c0" transform="translate(627.378254 0.765625)"/>
      <use xlink:href="#DejaVuSans-Oblique-78" transform="translate(687.583333 0.765625)"/>
      <use xlink:href="#DejaVuSans-2f" transform="translate(746.76302 0.765625)"/>
      <use xlink:href="#DejaVuSans-Oblique-61" transform="translate(780.454426 0.765625)"/>
      <use xlink:href="#DejaVuSans-29" transform="translate(841.733723 0.765625)"/>
      <use xlink:href="#DejaVuSans-20" transform="translate(880.747395 0.765625)"/>
      <use xlink:href="#DejaVuSans-20" transform="translate(912.534504 0.765625)"/>
      <use xlink:href="#DejaVuSans-28" transform="translate(944.321614 0.765625)"/>
      <use xlink:href="#DejaVuSans-70" transform="translate(983.335286 0.765625)"/>
      <use xlink:href="#DejaVuSans-65" transform="translate(1046.811848 0.765625)"/>
      <use xlink:href="#DejaVuSans-61" transform="translate(1108.335286 0.765625)"/>
      <use xlink:href="#DejaVuSans-6b" transform="translate(1169.614583 0.765625)"/>
      <use xlink:href="#DejaVuSans-73" transform="translate(1227.524739 0.765625)"/>
      <use xlink:href="#DejaVuSans-20" transform="translate(1279.624348 0.765625)"/>
      <use xlink:href="#DejaVuSans-62" transform="translate(1311.411458 0.765625)"/>
      <use xlink:href="#DejaVuSans-65" transform="translate(1374.88802 0.765625)"/>
      <use xlink:href="#DejaVuSans-74" transform="translate(1436.411458 0.765625)"/>
      <use xlink:href="#DejaVuSans-77" transform="translate(1475.620442 0.765625)"/>
      <use xlink:href="#DejaVuSans-65" transform="translate(1557.407551 0.765625)"/>
      <use xlink:href="#DejaVuSans-65" transform="translate(1618.930989 0.765625)"/>
      <use xlink:href="#DejaVuSans-6e" transform="translate(1680.454426 0.765625)"/>
      <use xlink:href="#DejaVuSans-2c" transform="translate(1743.833333 0.765625)"/>
      <use xlink:href="#DejaVuSans-20" transform="translate(1775.620442 0.765625)"/>
      <use xlink:href="#DejaVuSans-68" transform="translate(1807.407551 0.765625)"/>
      <use xlink:href="#DejaVuSans-69" transform="translate(1870.786458 0.765625)"/>
      <use xlink:href="#DejaVuSans-67" transform="translate(1898.569661 0.765625)"/>
      <use xlink:href="#DejaVuSans-68" transform="translate(1962.046223 0.765625)"/>
      <use xlink:href="#DejaVuSans-65" transform="translate(2025.425129 0.765625)"/>
      <use xlink:href="#DejaVuSans-72" transform="translate(2086.948567 0.765625)"/>
      <use xlink:href="#DejaVuSans-20" transform="translate(2128.061848 0.765625)"/>
      <use xlink:href="#DejaVuSans-Oblique-45" transform="translate(2159.848958 0.765625)"/>
      <use xlink:href="#DejaVuSans-29" transform="translate(2223.032551 0.765625)"/>
     </g>
    </g>
   </g>
  </g>
 </g>
 <defs>
  <clipPath id="p890867480c">
   <rect x="56.684" y="29.4" width="383.506" height="202.624696"/>
  </clipPath>
 </defs>
</svg>
